G04 EAGLE Gerber RS-274X export*
G75*
%MOMM*%
%FSLAX34Y34*%
%LPD*%
%INTop Copper*%
%IPPOS*%
%AMOC8*
5,1,8,0,0,1.08239X$1,22.5*%
G01*
%ADD10C,0.152400*%
%ADD11R,1.879600X1.879600*%
%ADD12C,1.879600*%
%ADD13C,1.524000*%
%ADD14P,1.429621X8X22.500000*%
%ADD15P,1.429621X8X202.500000*%
%ADD16C,0.800000*%

G36*
X313510Y3052D02*
X313510Y3052D01*
X313529Y3050D01*
X313631Y3072D01*
X313733Y3088D01*
X313750Y3098D01*
X313770Y3102D01*
X313859Y3155D01*
X313950Y3204D01*
X313964Y3218D01*
X313981Y3228D01*
X314048Y3307D01*
X314120Y3382D01*
X314128Y3400D01*
X314141Y3415D01*
X314180Y3511D01*
X314223Y3605D01*
X314225Y3625D01*
X314233Y3643D01*
X314251Y3810D01*
X314251Y373890D01*
X314248Y373910D01*
X314250Y373929D01*
X314228Y374031D01*
X314212Y374133D01*
X314202Y374150D01*
X314198Y374170D01*
X314145Y374259D01*
X314096Y374350D01*
X314082Y374364D01*
X314072Y374381D01*
X313993Y374448D01*
X313918Y374520D01*
X313900Y374528D01*
X313885Y374541D01*
X313789Y374580D01*
X313695Y374623D01*
X313675Y374625D01*
X313657Y374633D01*
X313490Y374651D01*
X3810Y374651D01*
X3790Y374648D01*
X3771Y374650D01*
X3669Y374628D01*
X3567Y374612D01*
X3550Y374602D01*
X3530Y374598D01*
X3441Y374545D01*
X3350Y374496D01*
X3336Y374482D01*
X3319Y374472D01*
X3252Y374393D01*
X3180Y374318D01*
X3172Y374300D01*
X3159Y374285D01*
X3120Y374189D01*
X3077Y374095D01*
X3075Y374075D01*
X3067Y374057D01*
X3049Y373890D01*
X3049Y3810D01*
X3052Y3790D01*
X3050Y3771D01*
X3072Y3669D01*
X3088Y3567D01*
X3098Y3550D01*
X3102Y3530D01*
X3155Y3441D01*
X3204Y3350D01*
X3218Y3336D01*
X3228Y3319D01*
X3307Y3252D01*
X3382Y3180D01*
X3400Y3172D01*
X3415Y3159D01*
X3511Y3120D01*
X3605Y3077D01*
X3625Y3075D01*
X3643Y3067D01*
X3810Y3049D01*
X313490Y3049D01*
X313510Y3052D01*
G37*
%LPC*%
G36*
X100394Y25653D02*
X100394Y25653D01*
X95819Y27548D01*
X92318Y31049D01*
X90423Y35624D01*
X90423Y40576D01*
X92318Y45151D01*
X95819Y48652D01*
X100394Y50547D01*
X103367Y50547D01*
X103438Y50558D01*
X103509Y50560D01*
X103558Y50578D01*
X103610Y50586D01*
X103673Y50620D01*
X103740Y50645D01*
X103781Y50677D01*
X103827Y50702D01*
X103877Y50754D01*
X103933Y50798D01*
X103961Y50842D01*
X103997Y50880D01*
X104027Y50945D01*
X104066Y51005D01*
X104078Y51056D01*
X104100Y51103D01*
X104108Y51174D01*
X104126Y51244D01*
X104122Y51296D01*
X104127Y51347D01*
X104112Y51418D01*
X104106Y51489D01*
X104086Y51537D01*
X104075Y51588D01*
X104038Y51649D01*
X104010Y51715D01*
X103965Y51771D01*
X103949Y51799D01*
X103931Y51814D01*
X103905Y51846D01*
X74639Y81112D01*
X74565Y81165D01*
X74496Y81225D01*
X74466Y81237D01*
X74440Y81256D01*
X74353Y81283D01*
X74268Y81317D01*
X74227Y81321D01*
X74204Y81328D01*
X74172Y81327D01*
X74101Y81335D01*
X44502Y81335D01*
X44411Y81321D01*
X44321Y81313D01*
X44291Y81301D01*
X44259Y81296D01*
X44178Y81253D01*
X44094Y81217D01*
X44062Y81191D01*
X44041Y81180D01*
X44019Y81157D01*
X43963Y81112D01*
X42098Y79247D01*
X34102Y79247D01*
X28447Y84902D01*
X28447Y92898D01*
X31396Y95847D01*
X31449Y95921D01*
X31509Y95991D01*
X31521Y96021D01*
X31540Y96047D01*
X31567Y96134D01*
X31601Y96219D01*
X31605Y96260D01*
X31612Y96282D01*
X31611Y96314D01*
X31619Y96386D01*
X31619Y150550D01*
X32692Y153141D01*
X35834Y156282D01*
X35845Y156298D01*
X35861Y156311D01*
X35893Y156361D01*
X35924Y156393D01*
X35943Y156434D01*
X35977Y156482D01*
X35983Y156501D01*
X35994Y156518D01*
X36008Y156575D01*
X36027Y156616D01*
X36032Y156662D01*
X36049Y156717D01*
X36049Y156737D01*
X36054Y156756D01*
X36049Y156814D01*
X36055Y156861D01*
X36045Y156907D01*
X36043Y156963D01*
X36036Y156981D01*
X36035Y157001D01*
X36013Y157053D01*
X36002Y157101D01*
X35977Y157143D01*
X35959Y157194D01*
X35946Y157209D01*
X35938Y157228D01*
X35892Y157286D01*
X35876Y157312D01*
X35859Y157327D01*
X35834Y157359D01*
X34135Y159057D01*
X32511Y162978D01*
X32511Y167222D01*
X34135Y171143D01*
X37137Y174145D01*
X41058Y175769D01*
X60542Y175769D01*
X64463Y174145D01*
X67465Y171143D01*
X69089Y167222D01*
X69089Y162978D01*
X67465Y159057D01*
X64463Y156055D01*
X60542Y154431D01*
X54235Y154431D01*
X54145Y154417D01*
X54054Y154409D01*
X54024Y154397D01*
X53992Y154392D01*
X53912Y154349D01*
X53828Y154313D01*
X53796Y154287D01*
X53775Y154276D01*
X53753Y154253D01*
X53697Y154208D01*
X45940Y146451D01*
X45887Y146377D01*
X45827Y146308D01*
X45815Y146278D01*
X45796Y146252D01*
X45769Y146165D01*
X45735Y146080D01*
X45731Y146039D01*
X45724Y146016D01*
X45725Y145984D01*
X45717Y145913D01*
X45717Y96194D01*
X45720Y96174D01*
X45718Y96155D01*
X45740Y96053D01*
X45756Y95951D01*
X45766Y95934D01*
X45770Y95914D01*
X45823Y95825D01*
X45872Y95734D01*
X45886Y95720D01*
X45896Y95703D01*
X45975Y95636D01*
X46050Y95564D01*
X46068Y95556D01*
X46083Y95543D01*
X46179Y95504D01*
X46273Y95461D01*
X46293Y95459D01*
X46311Y95451D01*
X46478Y95433D01*
X78738Y95433D01*
X81329Y94360D01*
X129749Y45940D01*
X129823Y45887D01*
X129892Y45827D01*
X129922Y45815D01*
X129948Y45796D01*
X130035Y45769D01*
X130120Y45735D01*
X130161Y45731D01*
X130184Y45724D01*
X130216Y45725D01*
X130287Y45717D01*
X137922Y45717D01*
X137942Y45720D01*
X137961Y45718D01*
X138063Y45740D01*
X138165Y45756D01*
X138182Y45766D01*
X138202Y45770D01*
X138291Y45823D01*
X138382Y45872D01*
X138396Y45886D01*
X138413Y45896D01*
X138480Y45975D01*
X138552Y46050D01*
X138560Y46068D01*
X138573Y46083D01*
X138612Y46179D01*
X138655Y46273D01*
X138657Y46293D01*
X138665Y46311D01*
X138683Y46478D01*
X138683Y48761D01*
X140469Y50547D01*
X158607Y50547D01*
X158678Y50558D01*
X158749Y50560D01*
X158798Y50578D01*
X158850Y50586D01*
X158913Y50620D01*
X158980Y50645D01*
X159021Y50677D01*
X159067Y50702D01*
X159117Y50754D01*
X159173Y50798D01*
X159201Y50842D01*
X159237Y50880D01*
X159267Y50945D01*
X159306Y51005D01*
X159318Y51056D01*
X159340Y51103D01*
X159348Y51174D01*
X159366Y51244D01*
X159362Y51296D01*
X159367Y51347D01*
X159352Y51418D01*
X159346Y51489D01*
X159326Y51537D01*
X159315Y51588D01*
X159278Y51649D01*
X159250Y51715D01*
X159205Y51771D01*
X159189Y51799D01*
X159171Y51814D01*
X159145Y51846D01*
X128690Y82301D01*
X126600Y84391D01*
X125527Y86982D01*
X125527Y90673D01*
X125513Y90763D01*
X125505Y90854D01*
X125493Y90884D01*
X125488Y90916D01*
X125445Y90996D01*
X125409Y91080D01*
X125383Y91112D01*
X125372Y91133D01*
X125349Y91155D01*
X125304Y91211D01*
X125252Y91263D01*
X125194Y91305D01*
X125142Y91355D01*
X125095Y91376D01*
X125053Y91407D01*
X124984Y91428D01*
X124919Y91458D01*
X124867Y91464D01*
X124818Y91479D01*
X124746Y91477D01*
X124675Y91485D01*
X124624Y91474D01*
X124572Y91473D01*
X124504Y91448D01*
X124434Y91433D01*
X124390Y91406D01*
X124341Y91389D01*
X124285Y91344D01*
X124223Y91307D01*
X124189Y91267D01*
X124149Y91235D01*
X124110Y91175D01*
X124063Y91120D01*
X124044Y91072D01*
X124016Y91028D01*
X123998Y90958D01*
X123971Y90892D01*
X123963Y90821D01*
X123955Y90789D01*
X123957Y90766D01*
X123953Y90725D01*
X123953Y84902D01*
X118298Y79247D01*
X110302Y79247D01*
X104647Y84902D01*
X104647Y92898D01*
X110302Y98553D01*
X116125Y98553D01*
X116196Y98564D01*
X116267Y98566D01*
X116316Y98584D01*
X116368Y98592D01*
X116431Y98626D01*
X116498Y98651D01*
X116539Y98683D01*
X116585Y98708D01*
X116634Y98759D01*
X116691Y98804D01*
X116719Y98848D01*
X116755Y98886D01*
X116785Y98951D01*
X116824Y99011D01*
X116836Y99062D01*
X116858Y99109D01*
X116866Y99180D01*
X116884Y99250D01*
X116880Y99302D01*
X116885Y99353D01*
X116870Y99424D01*
X116864Y99495D01*
X116844Y99543D01*
X116833Y99594D01*
X116796Y99655D01*
X116768Y99721D01*
X116723Y99777D01*
X116707Y99805D01*
X116689Y99820D01*
X116663Y99852D01*
X109272Y107244D01*
X109255Y107256D01*
X109243Y107271D01*
X109156Y107327D01*
X109072Y107388D01*
X109053Y107393D01*
X109036Y107404D01*
X108936Y107430D01*
X108837Y107460D01*
X108817Y107459D01*
X108798Y107464D01*
X108695Y107456D01*
X108591Y107454D01*
X108572Y107447D01*
X108552Y107445D01*
X108457Y107405D01*
X108360Y107369D01*
X108344Y107357D01*
X108326Y107349D01*
X108195Y107244D01*
X105598Y104647D01*
X97602Y104647D01*
X91947Y110302D01*
X91947Y118298D01*
X97684Y124035D01*
X97737Y124109D01*
X97797Y124179D01*
X97809Y124209D01*
X97828Y124235D01*
X97855Y124322D01*
X97889Y124407D01*
X97893Y124448D01*
X97900Y124470D01*
X97899Y124502D01*
X97907Y124574D01*
X97907Y161598D01*
X98005Y161833D01*
X98031Y161945D01*
X98060Y162060D01*
X98059Y162066D01*
X98061Y162072D01*
X98050Y162189D01*
X98041Y162305D01*
X98038Y162311D01*
X98038Y162317D01*
X97990Y162425D01*
X97944Y162532D01*
X97940Y162537D01*
X97938Y162542D01*
X97925Y162556D01*
X97859Y162639D01*
X97857Y162641D01*
X97856Y162642D01*
X97840Y162663D01*
X96365Y164137D01*
X94741Y168058D01*
X94741Y172302D01*
X96365Y176223D01*
X99367Y179225D01*
X103288Y180849D01*
X122772Y180849D01*
X126693Y179225D01*
X129695Y176223D01*
X131319Y172302D01*
X131319Y168058D01*
X129695Y164137D01*
X126693Y161135D01*
X122772Y159511D01*
X114555Y159511D01*
X114465Y159497D01*
X114374Y159489D01*
X114344Y159477D01*
X114312Y159472D01*
X114232Y159429D01*
X114148Y159393D01*
X114115Y159367D01*
X114095Y159356D01*
X114073Y159333D01*
X114017Y159288D01*
X112228Y157499D01*
X112175Y157425D01*
X112115Y157356D01*
X112103Y157326D01*
X112084Y157300D01*
X112057Y157212D01*
X112023Y157128D01*
X112019Y157087D01*
X112012Y157064D01*
X112013Y157032D01*
X112005Y156961D01*
X112005Y124763D01*
X112019Y124673D01*
X112027Y124582D01*
X112039Y124552D01*
X112044Y124520D01*
X112087Y124440D01*
X112123Y124356D01*
X112149Y124324D01*
X112160Y124303D01*
X112183Y124281D01*
X112228Y124225D01*
X138552Y97901D01*
X139625Y95310D01*
X139625Y91619D01*
X139639Y91529D01*
X139647Y91438D01*
X139659Y91408D01*
X139664Y91376D01*
X139707Y91296D01*
X139743Y91212D01*
X139769Y91180D01*
X139780Y91159D01*
X139803Y91137D01*
X139848Y91081D01*
X141448Y89481D01*
X141506Y89439D01*
X141558Y89389D01*
X141605Y89368D01*
X141647Y89337D01*
X141716Y89316D01*
X141781Y89286D01*
X141833Y89280D01*
X141883Y89265D01*
X141954Y89267D01*
X142025Y89259D01*
X142076Y89270D01*
X142128Y89271D01*
X142196Y89296D01*
X142266Y89311D01*
X142311Y89338D01*
X142359Y89356D01*
X142415Y89400D01*
X142477Y89437D01*
X142511Y89477D01*
X142551Y89509D01*
X142590Y89570D01*
X142637Y89624D01*
X142656Y89672D01*
X142684Y89716D01*
X142702Y89786D01*
X142729Y89852D01*
X142737Y89924D01*
X142745Y89955D01*
X142743Y89978D01*
X142747Y90019D01*
X142747Y92898D01*
X147400Y97551D01*
X147453Y97625D01*
X147513Y97695D01*
X147525Y97725D01*
X147544Y97751D01*
X147571Y97838D01*
X147605Y97923D01*
X147609Y97964D01*
X147616Y97986D01*
X147615Y98018D01*
X147623Y98090D01*
X147623Y139502D01*
X148696Y142093D01*
X162860Y156256D01*
X162871Y156272D01*
X162887Y156285D01*
X162943Y156372D01*
X163003Y156456D01*
X163009Y156475D01*
X163020Y156492D01*
X163045Y156592D01*
X163075Y156691D01*
X163075Y156711D01*
X163080Y156730D01*
X163072Y156833D01*
X163069Y156937D01*
X163062Y156955D01*
X163061Y156975D01*
X163020Y157070D01*
X162985Y157168D01*
X162972Y157183D01*
X162964Y157202D01*
X162877Y157311D01*
X162876Y157312D01*
X162875Y157313D01*
X162860Y157333D01*
X161135Y159057D01*
X159511Y162978D01*
X159511Y167222D01*
X161135Y171143D01*
X164137Y174145D01*
X168058Y175769D01*
X187542Y175769D01*
X191463Y174145D01*
X194465Y171143D01*
X196089Y167222D01*
X196089Y162978D01*
X194465Y159057D01*
X191463Y156055D01*
X187542Y154431D01*
X181287Y154431D01*
X181197Y154417D01*
X181106Y154409D01*
X181076Y154397D01*
X181044Y154392D01*
X180964Y154349D01*
X180880Y154313D01*
X180848Y154287D01*
X180827Y154276D01*
X180805Y154253D01*
X180749Y154208D01*
X161944Y135403D01*
X161891Y135329D01*
X161831Y135260D01*
X161819Y135230D01*
X161800Y135204D01*
X161773Y135117D01*
X161739Y135032D01*
X161735Y134991D01*
X161728Y134968D01*
X161729Y134936D01*
X161721Y134865D01*
X161721Y95327D01*
X161729Y95275D01*
X161728Y95222D01*
X161756Y95112D01*
X161760Y95084D01*
X161764Y95079D01*
X161721Y93803D01*
X161722Y93793D01*
X161721Y93778D01*
X161721Y93546D01*
X161735Y93456D01*
X161743Y93365D01*
X161755Y93335D01*
X161760Y93303D01*
X161803Y93222D01*
X161839Y93138D01*
X161865Y93106D01*
X161876Y93085D01*
X161899Y93063D01*
X161944Y93007D01*
X162053Y92898D01*
X162053Y91287D01*
X162067Y91197D01*
X162075Y91106D01*
X162087Y91076D01*
X162092Y91044D01*
X162135Y90964D01*
X162171Y90880D01*
X162197Y90848D01*
X162208Y90827D01*
X162231Y90805D01*
X162276Y90749D01*
X162893Y90132D01*
X162967Y90079D01*
X163036Y90019D01*
X163066Y90007D01*
X163092Y89988D01*
X163179Y89961D01*
X163264Y89927D01*
X163305Y89923D01*
X163328Y89916D01*
X163360Y89917D01*
X163431Y89909D01*
X191057Y89909D01*
X191128Y89920D01*
X191199Y89922D01*
X191248Y89940D01*
X191300Y89948D01*
X191363Y89982D01*
X191430Y90007D01*
X191471Y90039D01*
X191517Y90064D01*
X191567Y90116D01*
X191623Y90160D01*
X191651Y90204D01*
X191687Y90242D01*
X191717Y90307D01*
X191756Y90367D01*
X191768Y90418D01*
X191790Y90465D01*
X191798Y90536D01*
X191816Y90606D01*
X191812Y90658D01*
X191817Y90709D01*
X191802Y90780D01*
X191796Y90851D01*
X191776Y90899D01*
X191765Y90950D01*
X191728Y91011D01*
X191700Y91077D01*
X191655Y91133D01*
X191639Y91161D01*
X191621Y91176D01*
X191595Y91208D01*
X178379Y104424D01*
X178305Y104477D01*
X178236Y104537D01*
X178206Y104549D01*
X178180Y104568D01*
X178093Y104595D01*
X178008Y104629D01*
X177967Y104633D01*
X177944Y104640D01*
X177912Y104639D01*
X177841Y104647D01*
X173802Y104647D01*
X168147Y110302D01*
X168147Y118298D01*
X173802Y123953D01*
X181798Y123953D01*
X187453Y118298D01*
X187453Y115696D01*
X187455Y115684D01*
X187454Y115674D01*
X187464Y115627D01*
X187472Y115580D01*
X187492Y115456D01*
X187492Y115455D01*
X187492Y115453D01*
X187547Y115350D01*
X187606Y115238D01*
X187607Y115237D01*
X187608Y115236D01*
X187611Y115232D01*
X187721Y115116D01*
X187926Y114941D01*
X188006Y114787D01*
X188026Y114759D01*
X188040Y114727D01*
X188145Y114596D01*
X201561Y101180D01*
X201635Y101127D01*
X201704Y101067D01*
X201734Y101055D01*
X201760Y101036D01*
X201847Y101009D01*
X201932Y100975D01*
X201973Y100971D01*
X201996Y100964D01*
X202028Y100965D01*
X202099Y100957D01*
X226457Y100957D01*
X226460Y100957D01*
X226463Y100957D01*
X227862Y100967D01*
X229157Y100430D01*
X229159Y100430D01*
X229162Y100428D01*
X230458Y99902D01*
X231448Y98913D01*
X231450Y98911D01*
X231452Y98909D01*
X231590Y98772D01*
X231663Y98721D01*
X231730Y98663D01*
X231763Y98650D01*
X231791Y98630D01*
X231876Y98604D01*
X231958Y98571D01*
X232003Y98566D01*
X232027Y98559D01*
X232058Y98560D01*
X232125Y98553D01*
X232598Y98553D01*
X238253Y92898D01*
X238253Y84902D01*
X232598Y79247D01*
X224602Y79247D01*
X218947Y84902D01*
X218947Y86098D01*
X218944Y86118D01*
X218946Y86137D01*
X218924Y86239D01*
X218908Y86341D01*
X218898Y86358D01*
X218894Y86378D01*
X218841Y86467D01*
X218792Y86558D01*
X218778Y86572D01*
X218768Y86589D01*
X218689Y86656D01*
X218614Y86728D01*
X218596Y86736D01*
X218581Y86749D01*
X218485Y86788D01*
X218391Y86831D01*
X218371Y86833D01*
X218353Y86841D01*
X218186Y86859D01*
X206671Y86859D01*
X206600Y86848D01*
X206529Y86846D01*
X206480Y86828D01*
X206428Y86820D01*
X206365Y86786D01*
X206298Y86761D01*
X206257Y86729D01*
X206211Y86704D01*
X206161Y86652D01*
X206105Y86608D01*
X206077Y86564D01*
X206041Y86526D01*
X206011Y86461D01*
X205972Y86401D01*
X205960Y86350D01*
X205938Y86303D01*
X205930Y86232D01*
X205912Y86162D01*
X205916Y86110D01*
X205911Y86059D01*
X205926Y85988D01*
X205932Y85917D01*
X205952Y85869D01*
X205963Y85818D01*
X206000Y85757D01*
X206028Y85691D01*
X206073Y85635D01*
X206089Y85607D01*
X206107Y85592D01*
X206133Y85560D01*
X240923Y50770D01*
X240997Y50717D01*
X241066Y50657D01*
X241096Y50645D01*
X241122Y50626D01*
X241209Y50599D01*
X241294Y50565D01*
X241335Y50561D01*
X241358Y50554D01*
X241390Y50555D01*
X241461Y50547D01*
X245046Y50547D01*
X249621Y48652D01*
X253122Y45151D01*
X255017Y40576D01*
X255017Y35624D01*
X253122Y31049D01*
X249621Y27548D01*
X245046Y25653D01*
X240094Y25653D01*
X235519Y27548D01*
X232018Y31049D01*
X230123Y35624D01*
X230123Y40576D01*
X230238Y40853D01*
X230247Y40890D01*
X230254Y40906D01*
X230257Y40936D01*
X230265Y40967D01*
X230293Y41080D01*
X230293Y41086D01*
X230294Y41092D01*
X230283Y41209D01*
X230274Y41325D01*
X230272Y41331D01*
X230271Y41337D01*
X230223Y41444D01*
X230178Y41552D01*
X230173Y41557D01*
X230171Y41562D01*
X230158Y41576D01*
X230073Y41683D01*
X228376Y43379D01*
X228318Y43421D01*
X228266Y43471D01*
X228219Y43493D01*
X228177Y43523D01*
X228108Y43544D01*
X228043Y43574D01*
X227991Y43580D01*
X227941Y43595D01*
X227870Y43593D01*
X227799Y43601D01*
X227748Y43590D01*
X227696Y43589D01*
X227628Y43564D01*
X227558Y43549D01*
X227514Y43522D01*
X227465Y43504D01*
X227409Y43460D01*
X227347Y43423D01*
X227313Y43383D01*
X227273Y43351D01*
X227234Y43290D01*
X227187Y43236D01*
X227168Y43188D01*
X227140Y43144D01*
X227122Y43074D01*
X227095Y43008D01*
X227087Y42936D01*
X227079Y42905D01*
X227081Y42882D01*
X227077Y42841D01*
X227077Y27439D01*
X225291Y25653D01*
X203969Y25653D01*
X202183Y27439D01*
X202183Y48761D01*
X203969Y50547D01*
X219371Y50547D01*
X219442Y50558D01*
X219513Y50560D01*
X219562Y50578D01*
X219614Y50586D01*
X219677Y50620D01*
X219744Y50645D01*
X219785Y50677D01*
X219831Y50702D01*
X219881Y50754D01*
X219937Y50798D01*
X219965Y50842D01*
X220001Y50880D01*
X220031Y50945D01*
X220070Y51005D01*
X220082Y51056D01*
X220104Y51103D01*
X220112Y51174D01*
X220130Y51244D01*
X220126Y51296D01*
X220131Y51347D01*
X220116Y51418D01*
X220110Y51489D01*
X220090Y51537D01*
X220079Y51588D01*
X220042Y51649D01*
X220014Y51715D01*
X219969Y51771D01*
X219953Y51799D01*
X219935Y51814D01*
X219909Y51846D01*
X196167Y75588D01*
X196093Y75641D01*
X196024Y75701D01*
X195994Y75713D01*
X195968Y75732D01*
X195881Y75759D01*
X195796Y75793D01*
X195755Y75797D01*
X195732Y75804D01*
X195700Y75803D01*
X195629Y75811D01*
X158794Y75811D01*
X156203Y76884D01*
X154063Y79024D01*
X153989Y79077D01*
X153920Y79137D01*
X153890Y79149D01*
X153864Y79168D01*
X153777Y79195D01*
X153692Y79229D01*
X153651Y79233D01*
X153628Y79240D01*
X153623Y79240D01*
X153622Y79240D01*
X153595Y79239D01*
X153525Y79247D01*
X153519Y79247D01*
X153448Y79236D01*
X153377Y79234D01*
X153328Y79216D01*
X153276Y79208D01*
X153213Y79174D01*
X153146Y79149D01*
X153105Y79117D01*
X153059Y79092D01*
X153010Y79041D01*
X152953Y78996D01*
X152925Y78952D01*
X152889Y78914D01*
X152859Y78849D01*
X152820Y78789D01*
X152808Y78738D01*
X152786Y78691D01*
X152778Y78620D01*
X152760Y78550D01*
X152764Y78498D01*
X152759Y78447D01*
X152774Y78376D01*
X152780Y78305D01*
X152800Y78257D01*
X152811Y78206D01*
X152848Y78145D01*
X152876Y78079D01*
X152921Y78023D01*
X152937Y77995D01*
X152955Y77980D01*
X152981Y77948D01*
X180159Y50770D01*
X180233Y50717D01*
X180302Y50657D01*
X180332Y50645D01*
X180358Y50626D01*
X180445Y50599D01*
X180530Y50565D01*
X180571Y50561D01*
X180594Y50554D01*
X180626Y50555D01*
X180697Y50547D01*
X181546Y50547D01*
X186121Y48652D01*
X189622Y45151D01*
X191517Y40576D01*
X191517Y35624D01*
X189622Y31049D01*
X186121Y27548D01*
X181546Y25653D01*
X176594Y25653D01*
X172019Y27548D01*
X168518Y31049D01*
X166623Y35624D01*
X166623Y40576D01*
X167539Y42788D01*
X167566Y42901D01*
X167595Y43015D01*
X167594Y43021D01*
X167596Y43027D01*
X167585Y43144D01*
X167576Y43260D01*
X167573Y43266D01*
X167572Y43272D01*
X167525Y43379D01*
X167479Y43486D01*
X167475Y43492D01*
X167472Y43497D01*
X167460Y43510D01*
X167374Y43617D01*
X164876Y46115D01*
X164818Y46157D01*
X164766Y46207D01*
X164719Y46229D01*
X164677Y46259D01*
X164608Y46280D01*
X164543Y46310D01*
X164491Y46316D01*
X164441Y46331D01*
X164370Y46329D01*
X164299Y46337D01*
X164248Y46326D01*
X164196Y46325D01*
X164128Y46300D01*
X164058Y46285D01*
X164014Y46258D01*
X163965Y46240D01*
X163909Y46196D01*
X163847Y46159D01*
X163813Y46119D01*
X163773Y46087D01*
X163734Y46026D01*
X163687Y45972D01*
X163668Y45924D01*
X163640Y45880D01*
X163622Y45810D01*
X163595Y45744D01*
X163587Y45672D01*
X163579Y45641D01*
X163581Y45618D01*
X163577Y45577D01*
X163577Y27439D01*
X161791Y25653D01*
X140469Y25653D01*
X138683Y27439D01*
X138683Y30858D01*
X138680Y30878D01*
X138682Y30897D01*
X138660Y30999D01*
X138644Y31101D01*
X138634Y31118D01*
X138630Y31138D01*
X138577Y31227D01*
X138528Y31318D01*
X138514Y31332D01*
X138504Y31349D01*
X138425Y31416D01*
X138350Y31488D01*
X138332Y31496D01*
X138317Y31509D01*
X138221Y31548D01*
X138127Y31591D01*
X138107Y31593D01*
X138089Y31601D01*
X137922Y31619D01*
X125650Y31619D01*
X123059Y32692D01*
X116616Y39135D01*
X116558Y39177D01*
X116506Y39227D01*
X116459Y39248D01*
X116417Y39279D01*
X116348Y39300D01*
X116283Y39330D01*
X116231Y39336D01*
X116181Y39351D01*
X116110Y39349D01*
X116039Y39357D01*
X115988Y39346D01*
X115936Y39345D01*
X115868Y39320D01*
X115798Y39305D01*
X115753Y39278D01*
X115705Y39260D01*
X115649Y39216D01*
X115587Y39179D01*
X115553Y39139D01*
X115513Y39107D01*
X115474Y39046D01*
X115427Y38992D01*
X115408Y38944D01*
X115380Y38900D01*
X115362Y38830D01*
X115335Y38764D01*
X115327Y38692D01*
X115319Y38661D01*
X115321Y38638D01*
X115317Y38597D01*
X115317Y35624D01*
X113422Y31049D01*
X109921Y27548D01*
X105346Y25653D01*
X100394Y25653D01*
G37*
%LPD*%
%LPC*%
G36*
X41058Y179831D02*
X41058Y179831D01*
X37137Y181455D01*
X34135Y184457D01*
X32511Y188378D01*
X32511Y192622D01*
X34135Y196543D01*
X37137Y199545D01*
X41058Y201169D01*
X58309Y201169D01*
X58399Y201183D01*
X58490Y201191D01*
X58520Y201203D01*
X58552Y201208D01*
X58632Y201251D01*
X58716Y201287D01*
X58748Y201313D01*
X58769Y201324D01*
X58791Y201347D01*
X58847Y201392D01*
X61497Y204042D01*
X61554Y204121D01*
X61616Y204196D01*
X61626Y204220D01*
X61641Y204241D01*
X61669Y204334D01*
X61704Y204425D01*
X61705Y204451D01*
X61713Y204476D01*
X61711Y204574D01*
X61715Y204671D01*
X61707Y204696D01*
X61707Y204722D01*
X61673Y204814D01*
X61646Y204907D01*
X61631Y204929D01*
X61622Y204953D01*
X61561Y205030D01*
X61506Y205109D01*
X61485Y205125D01*
X61469Y205145D01*
X61387Y205198D01*
X61309Y205256D01*
X61284Y205264D01*
X61262Y205278D01*
X61167Y205302D01*
X61075Y205332D01*
X61049Y205332D01*
X61023Y205338D01*
X60926Y205331D01*
X60829Y205330D01*
X60797Y205321D01*
X60778Y205319D01*
X60748Y205306D01*
X60668Y205283D01*
X60542Y205231D01*
X41058Y205231D01*
X37137Y206855D01*
X34135Y209857D01*
X32511Y213778D01*
X32511Y218022D01*
X34135Y221943D01*
X37137Y224945D01*
X41058Y226569D01*
X60542Y226569D01*
X64463Y224945D01*
X67465Y221943D01*
X69089Y218022D01*
X69089Y213778D01*
X69037Y213652D01*
X69014Y213557D01*
X68986Y213464D01*
X68987Y213438D01*
X68981Y213413D01*
X68990Y213316D01*
X68992Y213219D01*
X69001Y213194D01*
X69004Y213168D01*
X69043Y213079D01*
X69077Y212988D01*
X69093Y212967D01*
X69104Y212943D01*
X69170Y212872D01*
X69230Y212796D01*
X69252Y212781D01*
X69270Y212762D01*
X69355Y212715D01*
X69437Y212663D01*
X69463Y212656D01*
X69486Y212644D01*
X69582Y212626D01*
X69676Y212602D01*
X69702Y212605D01*
X69728Y212600D01*
X69824Y212614D01*
X69921Y212622D01*
X69945Y212632D01*
X69971Y212636D01*
X70058Y212680D01*
X70147Y212718D01*
X70173Y212738D01*
X70190Y212747D01*
X70213Y212771D01*
X70278Y212823D01*
X81112Y223657D01*
X81165Y223731D01*
X81225Y223800D01*
X81237Y223830D01*
X81256Y223856D01*
X81283Y223943D01*
X81317Y224028D01*
X81321Y224069D01*
X81328Y224092D01*
X81327Y224124D01*
X81335Y224195D01*
X81335Y321117D01*
X81321Y321207D01*
X81313Y321298D01*
X81301Y321328D01*
X81296Y321360D01*
X81253Y321440D01*
X81217Y321524D01*
X81191Y321556D01*
X81180Y321577D01*
X81157Y321599D01*
X81112Y321655D01*
X79618Y323149D01*
X77723Y327724D01*
X77723Y332676D01*
X79618Y337251D01*
X83119Y340752D01*
X87694Y342647D01*
X92646Y342647D01*
X97221Y340752D01*
X100722Y337251D01*
X102617Y332676D01*
X102617Y327724D01*
X100722Y323149D01*
X97221Y319648D01*
X95903Y319102D01*
X95803Y319041D01*
X95703Y318981D01*
X95699Y318976D01*
X95694Y318973D01*
X95619Y318883D01*
X95543Y318794D01*
X95541Y318788D01*
X95537Y318783D01*
X95495Y318675D01*
X95451Y318566D01*
X95450Y318558D01*
X95449Y318554D01*
X95448Y318535D01*
X95433Y318399D01*
X95433Y227928D01*
X95444Y227858D01*
X95446Y227786D01*
X95464Y227737D01*
X95472Y227686D01*
X95506Y227622D01*
X95531Y227555D01*
X95563Y227514D01*
X95588Y227468D01*
X95640Y227419D01*
X95684Y227363D01*
X95728Y227335D01*
X95766Y227299D01*
X95831Y227269D01*
X95891Y227230D01*
X95942Y227217D01*
X95989Y227195D01*
X96060Y227187D01*
X96130Y227170D01*
X96182Y227174D01*
X96233Y227168D01*
X96304Y227183D01*
X96375Y227189D01*
X96423Y227209D01*
X96474Y227220D01*
X96535Y227257D01*
X96601Y227285D01*
X96657Y227330D01*
X96685Y227347D01*
X96700Y227364D01*
X96732Y227390D01*
X99367Y230025D01*
X103288Y231649D01*
X122772Y231649D01*
X126693Y230025D01*
X128486Y228232D01*
X128560Y228179D01*
X128630Y228119D01*
X128660Y228107D01*
X128686Y228088D01*
X128773Y228061D01*
X128858Y228027D01*
X128899Y228023D01*
X128921Y228016D01*
X128953Y228017D01*
X129024Y228009D01*
X175980Y228009D01*
X176000Y228012D01*
X176132Y228024D01*
X176733Y228147D01*
X177373Y228023D01*
X177400Y228022D01*
X177518Y228009D01*
X178170Y228009D01*
X178737Y227774D01*
X178757Y227769D01*
X178884Y227730D01*
X179486Y227613D01*
X180030Y227253D01*
X180054Y227243D01*
X180158Y227185D01*
X180761Y226936D01*
X180905Y226792D01*
X180979Y226739D01*
X181048Y226679D01*
X181078Y226667D01*
X181104Y226648D01*
X181192Y226621D01*
X181276Y226587D01*
X181317Y226583D01*
X181339Y226576D01*
X181372Y226577D01*
X181443Y226569D01*
X187542Y226569D01*
X191463Y224945D01*
X194465Y221943D01*
X196089Y218022D01*
X196089Y213778D01*
X194465Y209857D01*
X191463Y206855D01*
X187542Y205231D01*
X168058Y205231D01*
X164137Y206855D01*
X161135Y209857D01*
X159651Y213441D01*
X159589Y213541D01*
X159529Y213641D01*
X159524Y213645D01*
X159521Y213650D01*
X159431Y213725D01*
X159342Y213801D01*
X159336Y213803D01*
X159332Y213807D01*
X159223Y213849D01*
X159114Y213893D01*
X159107Y213894D01*
X159102Y213895D01*
X159084Y213896D01*
X158947Y213911D01*
X128984Y213911D01*
X128894Y213897D01*
X128803Y213889D01*
X128774Y213877D01*
X128742Y213872D01*
X128661Y213829D01*
X128577Y213793D01*
X128545Y213767D01*
X128524Y213756D01*
X128502Y213733D01*
X128446Y213688D01*
X126693Y211935D01*
X122772Y210311D01*
X103288Y210311D01*
X99367Y211935D01*
X96365Y214937D01*
X95619Y216738D01*
X95595Y216777D01*
X95579Y216820D01*
X95531Y216881D01*
X95490Y216947D01*
X95454Y216977D01*
X95426Y217012D01*
X95360Y217054D01*
X95300Y217104D01*
X95257Y217121D01*
X95219Y217145D01*
X95143Y217164D01*
X95071Y217192D01*
X95025Y217194D01*
X94980Y217205D01*
X94903Y217199D01*
X94825Y217203D01*
X94781Y217190D01*
X94735Y217186D01*
X94663Y217156D01*
X94589Y217134D01*
X94551Y217108D01*
X94509Y217090D01*
X94402Y217005D01*
X94386Y216994D01*
X94383Y216990D01*
X94378Y216985D01*
X92270Y214877D01*
X69312Y191919D01*
X69259Y191845D01*
X69199Y191776D01*
X69187Y191746D01*
X69168Y191720D01*
X69141Y191633D01*
X69107Y191548D01*
X69103Y191507D01*
X69096Y191484D01*
X69097Y191452D01*
X69089Y191381D01*
X69089Y188378D01*
X67465Y184457D01*
X64463Y181455D01*
X60542Y179831D01*
X41058Y179831D01*
G37*
%LPD*%
%LPC*%
G36*
X123002Y257047D02*
X123002Y257047D01*
X117347Y262702D01*
X117347Y270698D01*
X119780Y273131D01*
X119833Y273205D01*
X119893Y273275D01*
X119905Y273305D01*
X119924Y273331D01*
X119951Y273418D01*
X119985Y273503D01*
X119989Y273544D01*
X119996Y273566D01*
X119995Y273598D01*
X120003Y273670D01*
X120003Y278489D01*
X119989Y278579D01*
X119981Y278670D01*
X119969Y278700D01*
X119964Y278732D01*
X119921Y278812D01*
X119885Y278896D01*
X119859Y278928D01*
X119848Y278949D01*
X119825Y278971D01*
X119780Y279027D01*
X115552Y283255D01*
X114479Y285846D01*
X114479Y318028D01*
X114465Y318118D01*
X114457Y318209D01*
X114445Y318239D01*
X114440Y318271D01*
X114397Y318351D01*
X114361Y318435D01*
X114335Y318467D01*
X114324Y318488D01*
X114301Y318510D01*
X114256Y318566D01*
X113283Y319539D01*
X113283Y340861D01*
X115069Y342647D01*
X136391Y342647D01*
X138177Y340861D01*
X138177Y319539D01*
X136391Y317753D01*
X129338Y317753D01*
X129318Y317750D01*
X129299Y317752D01*
X129197Y317730D01*
X129095Y317714D01*
X129078Y317704D01*
X129058Y317700D01*
X128969Y317647D01*
X128878Y317598D01*
X128864Y317584D01*
X128847Y317574D01*
X128780Y317495D01*
X128708Y317420D01*
X128700Y317402D01*
X128687Y317387D01*
X128648Y317291D01*
X128605Y317197D01*
X128603Y317177D01*
X128595Y317159D01*
X128577Y316992D01*
X128577Y296466D01*
X128588Y296395D01*
X128590Y296323D01*
X128608Y296274D01*
X128616Y296223D01*
X128650Y296159D01*
X128675Y296092D01*
X128707Y296051D01*
X128732Y296005D01*
X128784Y295956D01*
X128828Y295900D01*
X128872Y295872D01*
X128910Y295836D01*
X128975Y295806D01*
X129035Y295767D01*
X129086Y295754D01*
X129133Y295732D01*
X129204Y295725D01*
X129274Y295707D01*
X129326Y295711D01*
X129377Y295705D01*
X129448Y295721D01*
X129519Y295726D01*
X129567Y295746D01*
X129618Y295758D01*
X129679Y295794D01*
X129745Y295822D01*
X129801Y295867D01*
X129829Y295884D01*
X129844Y295902D01*
X129876Y295927D01*
X135702Y301753D01*
X143698Y301753D01*
X149353Y296098D01*
X149353Y291803D01*
X149367Y291713D01*
X149375Y291622D01*
X149387Y291592D01*
X149392Y291560D01*
X149435Y291480D01*
X149471Y291396D01*
X149497Y291364D01*
X149508Y291343D01*
X149531Y291321D01*
X149576Y291265D01*
X162893Y277948D01*
X162967Y277895D01*
X163036Y277835D01*
X163066Y277823D01*
X163092Y277804D01*
X163179Y277777D01*
X163264Y277743D01*
X163305Y277739D01*
X163328Y277732D01*
X163360Y277733D01*
X163431Y277725D01*
X198695Y277725D01*
X198708Y277727D01*
X198728Y277725D01*
X199960Y277779D01*
X199982Y277771D01*
X200030Y277762D01*
X200076Y277743D01*
X200200Y277729D01*
X200224Y277725D01*
X200231Y277726D01*
X200243Y277725D01*
X200266Y277725D01*
X200646Y277567D01*
X200759Y277541D01*
X200873Y277512D01*
X200880Y277513D01*
X200886Y277511D01*
X201002Y277522D01*
X201119Y277531D01*
X201124Y277534D01*
X201131Y277534D01*
X201238Y277582D01*
X201345Y277627D01*
X201351Y277632D01*
X201355Y277634D01*
X201369Y277647D01*
X201476Y277732D01*
X216967Y293224D01*
X219558Y294297D01*
X230886Y294297D01*
X230906Y294300D01*
X230925Y294298D01*
X231027Y294320D01*
X231129Y294336D01*
X231146Y294346D01*
X231166Y294350D01*
X231255Y294403D01*
X231346Y294452D01*
X231360Y294466D01*
X231377Y294476D01*
X231444Y294555D01*
X231516Y294630D01*
X231524Y294648D01*
X231537Y294663D01*
X231576Y294759D01*
X231619Y294853D01*
X231621Y294873D01*
X231629Y294891D01*
X231647Y295058D01*
X231647Y296098D01*
X237302Y301753D01*
X245298Y301753D01*
X250953Y296098D01*
X250953Y288102D01*
X245298Y282447D01*
X243101Y282447D01*
X243086Y282445D01*
X243070Y282447D01*
X242964Y282425D01*
X242858Y282408D01*
X242845Y282400D01*
X242829Y282397D01*
X242736Y282343D01*
X242641Y282292D01*
X242630Y282281D01*
X242617Y282273D01*
X242500Y282153D01*
X242239Y281817D01*
X241934Y281644D01*
X241920Y281632D01*
X241904Y281625D01*
X241773Y281520D01*
X241525Y281272D01*
X240681Y280923D01*
X240655Y280907D01*
X240596Y280881D01*
X239803Y280429D01*
X239455Y280386D01*
X239437Y280380D01*
X239419Y280380D01*
X239258Y280334D01*
X238934Y280199D01*
X238021Y280199D01*
X237991Y280194D01*
X237926Y280193D01*
X237020Y280079D01*
X236682Y280172D01*
X236664Y280174D01*
X236647Y280181D01*
X236481Y280199D01*
X224195Y280199D01*
X224105Y280185D01*
X224014Y280177D01*
X223984Y280165D01*
X223952Y280160D01*
X223872Y280117D01*
X223788Y280081D01*
X223756Y280055D01*
X223735Y280044D01*
X223713Y280021D01*
X223657Y279976D01*
X213076Y269395D01*
X213023Y269321D01*
X212963Y269252D01*
X212951Y269222D01*
X212932Y269196D01*
X212905Y269109D01*
X212871Y269024D01*
X212867Y268983D01*
X212860Y268960D01*
X212861Y268928D01*
X212853Y268857D01*
X212853Y262702D01*
X207198Y257047D01*
X199202Y257047D01*
X193547Y262702D01*
X193547Y262866D01*
X193544Y262886D01*
X193546Y262905D01*
X193524Y263007D01*
X193508Y263109D01*
X193498Y263126D01*
X193494Y263146D01*
X193441Y263235D01*
X193392Y263326D01*
X193378Y263340D01*
X193368Y263357D01*
X193289Y263424D01*
X193214Y263496D01*
X193196Y263504D01*
X193181Y263517D01*
X193085Y263556D01*
X192991Y263599D01*
X192971Y263601D01*
X192953Y263609D01*
X192786Y263627D01*
X158794Y263627D01*
X156203Y264700D01*
X154113Y266790D01*
X139439Y281465D01*
X139418Y281480D01*
X139402Y281499D01*
X139264Y281595D01*
X139025Y281725D01*
X138670Y282165D01*
X138664Y282170D01*
X138660Y282177D01*
X138572Y282252D01*
X138486Y282328D01*
X138479Y282332D01*
X138473Y282337D01*
X138365Y282380D01*
X138260Y282425D01*
X138252Y282426D01*
X138244Y282429D01*
X138078Y282447D01*
X135702Y282447D01*
X135400Y282749D01*
X135342Y282791D01*
X135290Y282840D01*
X135243Y282862D01*
X135201Y282892D01*
X135132Y282913D01*
X135067Y282944D01*
X135015Y282949D01*
X134965Y282965D01*
X134894Y282963D01*
X134823Y282971D01*
X134772Y282960D01*
X134720Y282958D01*
X134652Y282934D01*
X134582Y282918D01*
X134537Y282892D01*
X134489Y282874D01*
X134433Y282829D01*
X134371Y282792D01*
X134337Y282753D01*
X134297Y282720D01*
X134258Y282660D01*
X134211Y282605D01*
X134192Y282557D01*
X134164Y282513D01*
X134146Y282444D01*
X134119Y282377D01*
X134111Y282306D01*
X134103Y282275D01*
X134105Y282251D01*
X134101Y282210D01*
X134101Y273566D01*
X134115Y273476D01*
X134123Y273385D01*
X134135Y273355D01*
X134140Y273323D01*
X134183Y273242D01*
X134219Y273158D01*
X134245Y273126D01*
X134256Y273105D01*
X134279Y273083D01*
X134324Y273027D01*
X136653Y270698D01*
X136653Y262702D01*
X130998Y257047D01*
X123002Y257047D01*
G37*
%LPD*%
%LPC*%
G36*
X161102Y282447D02*
X161102Y282447D01*
X155447Y288102D01*
X155447Y296098D01*
X158448Y299099D01*
X158501Y299173D01*
X158561Y299243D01*
X158573Y299273D01*
X158592Y299299D01*
X158619Y299386D01*
X158653Y299471D01*
X158657Y299512D01*
X158664Y299534D01*
X158663Y299566D01*
X158671Y299638D01*
X158671Y305222D01*
X159744Y307813D01*
X176560Y324629D01*
X176613Y324703D01*
X176673Y324772D01*
X176685Y324802D01*
X176704Y324828D01*
X176731Y324915D01*
X176765Y325000D01*
X176769Y325041D01*
X176776Y325064D01*
X176775Y325096D01*
X176783Y325167D01*
X176783Y340861D01*
X178569Y342647D01*
X199891Y342647D01*
X201677Y340861D01*
X201677Y319539D01*
X199891Y317753D01*
X189937Y317753D01*
X189847Y317739D01*
X189756Y317731D01*
X189726Y317719D01*
X189694Y317714D01*
X189614Y317671D01*
X189530Y317635D01*
X189498Y317609D01*
X189477Y317598D01*
X189455Y317575D01*
X189399Y317530D01*
X172992Y301123D01*
X172939Y301049D01*
X172879Y300980D01*
X172867Y300950D01*
X172848Y300924D01*
X172821Y300837D01*
X172787Y300752D01*
X172783Y300711D01*
X172776Y300688D01*
X172777Y300656D01*
X172769Y300585D01*
X172769Y298398D01*
X172771Y298384D01*
X172770Y298374D01*
X172781Y298322D01*
X172783Y298307D01*
X172791Y298217D01*
X172803Y298187D01*
X172808Y298155D01*
X172851Y298074D01*
X172887Y297990D01*
X172913Y297958D01*
X172924Y297937D01*
X172947Y297915D01*
X172992Y297859D01*
X174753Y296098D01*
X174753Y288102D01*
X169098Y282447D01*
X161102Y282447D01*
G37*
%LPD*%
%LPC*%
G36*
X281785Y150833D02*
X281785Y150833D01*
X278340Y152822D01*
X276351Y156267D01*
X276351Y158256D01*
X276351Y160150D01*
X276351Y165254D01*
X278584Y167486D01*
X281740Y167486D01*
X283236Y165990D01*
X283252Y165979D01*
X283265Y165963D01*
X283352Y165907D01*
X283436Y165847D01*
X283455Y165841D01*
X283472Y165830D01*
X283572Y165805D01*
X283671Y165774D01*
X283691Y165775D01*
X283710Y165770D01*
X283813Y165778D01*
X283917Y165781D01*
X283936Y165787D01*
X283955Y165789D01*
X284050Y165829D01*
X284148Y165865D01*
X284164Y165878D01*
X284182Y165885D01*
X284313Y165990D01*
X284699Y166377D01*
X284741Y166435D01*
X284791Y166487D01*
X284813Y166534D01*
X284843Y166577D01*
X284864Y166645D01*
X284894Y166710D01*
X284900Y166762D01*
X284915Y166812D01*
X284914Y166883D01*
X284921Y166955D01*
X284910Y167005D01*
X284909Y167058D01*
X284884Y167125D01*
X284869Y167195D01*
X284842Y167240D01*
X284825Y167289D01*
X284780Y167345D01*
X284743Y167406D01*
X284703Y167440D01*
X284671Y167481D01*
X284611Y167519D01*
X284556Y167566D01*
X284508Y167585D01*
X284464Y167614D01*
X284394Y167631D01*
X284328Y167658D01*
X284257Y167666D01*
X284225Y167674D01*
X284202Y167672D01*
X284161Y167676D01*
X284002Y167676D01*
X281770Y169909D01*
X281770Y173206D01*
X281770Y176847D01*
X283517Y179873D01*
X284010Y180157D01*
X284101Y180232D01*
X284195Y180307D01*
X284197Y180311D01*
X284201Y180313D01*
X284263Y180413D01*
X284328Y180514D01*
X284329Y180518D01*
X284331Y180522D01*
X284359Y180637D01*
X284388Y180752D01*
X284388Y180757D01*
X284389Y180761D01*
X284378Y180880D01*
X284369Y180998D01*
X284367Y181001D01*
X284367Y181006D01*
X284319Y181116D01*
X284273Y181224D01*
X284270Y181228D01*
X284268Y181231D01*
X284259Y181241D01*
X284168Y181355D01*
X281770Y183753D01*
X281770Y192328D01*
X281851Y192410D01*
X281863Y192426D01*
X281878Y192438D01*
X281935Y192526D01*
X281995Y192610D01*
X282001Y192629D01*
X282011Y192645D01*
X282037Y192746D01*
X282067Y192845D01*
X282067Y192865D01*
X282072Y192884D01*
X282064Y192987D01*
X282061Y193091D01*
X282054Y193109D01*
X282052Y193129D01*
X282012Y193224D01*
X281976Y193322D01*
X281964Y193337D01*
X281956Y193355D01*
X281851Y193486D01*
X281770Y193568D01*
X281770Y201918D01*
X281766Y201942D01*
X281755Y202068D01*
X281534Y203172D01*
X281642Y203333D01*
X281649Y203348D01*
X281660Y203360D01*
X281700Y203460D01*
X281744Y203557D01*
X281745Y203573D01*
X281751Y203589D01*
X281770Y203755D01*
X281770Y203950D01*
X282566Y204746D01*
X282580Y204764D01*
X282661Y204862D01*
X282983Y205345D01*
X283011Y205407D01*
X283048Y205464D01*
X283062Y205518D01*
X283085Y205569D01*
X283092Y205637D01*
X283108Y205703D01*
X283104Y205758D01*
X283110Y205814D01*
X283095Y205880D01*
X283089Y205948D01*
X283068Y205999D01*
X283055Y206053D01*
X283020Y206112D01*
X282993Y206174D01*
X282944Y206235D01*
X282927Y206263D01*
X282911Y206277D01*
X282888Y206305D01*
X281770Y207424D01*
X281770Y210721D01*
X281770Y214362D01*
X283517Y217387D01*
X286543Y219135D01*
X297996Y219135D01*
X300229Y216902D01*
X300229Y208995D01*
X298488Y206599D01*
X298450Y206524D01*
X298405Y206454D01*
X298395Y206415D01*
X298377Y206379D01*
X298366Y206296D01*
X298345Y206215D01*
X298348Y206175D01*
X298343Y206135D01*
X298358Y206053D01*
X298364Y205970D01*
X298380Y205933D01*
X298387Y205893D01*
X298428Y205821D01*
X298461Y205744D01*
X298493Y205703D01*
X298507Y205679D01*
X298529Y205659D01*
X298565Y205613D01*
X300229Y203950D01*
X300229Y195599D01*
X300233Y195576D01*
X300244Y195450D01*
X300464Y194346D01*
X300357Y194184D01*
X300350Y194169D01*
X300339Y194157D01*
X300299Y194057D01*
X300255Y193960D01*
X300253Y193944D01*
X300247Y193929D01*
X300229Y193762D01*
X300229Y193568D01*
X299433Y192772D01*
X299419Y192753D01*
X299338Y192656D01*
X298713Y191719D01*
X298523Y191681D01*
X298507Y191675D01*
X298491Y191674D01*
X298393Y191632D01*
X298293Y191594D01*
X298280Y191584D01*
X298265Y191578D01*
X298134Y191473D01*
X297996Y191335D01*
X296871Y191335D01*
X296848Y191332D01*
X296721Y191321D01*
X295618Y191100D01*
X295456Y191208D01*
X295441Y191214D01*
X295429Y191225D01*
X295329Y191265D01*
X295232Y191309D01*
X295216Y191311D01*
X295200Y191317D01*
X295034Y191335D01*
X294840Y191335D01*
X294043Y192132D01*
X294025Y192145D01*
X293927Y192227D01*
X292381Y193258D01*
X292273Y193307D01*
X292164Y193357D01*
X292160Y193358D01*
X292157Y193359D01*
X292038Y193371D01*
X291919Y193384D01*
X291916Y193384D01*
X291912Y193384D01*
X291796Y193357D01*
X291679Y193332D01*
X291676Y193330D01*
X291673Y193329D01*
X291571Y193267D01*
X291468Y193206D01*
X291466Y193203D01*
X291463Y193201D01*
X291385Y193109D01*
X291308Y193019D01*
X291307Y193016D01*
X291304Y193013D01*
X291261Y192902D01*
X291216Y192791D01*
X291216Y192787D01*
X291215Y192784D01*
X291214Y192772D01*
X291198Y192624D01*
X291198Y189903D01*
X291201Y189884D01*
X291199Y189864D01*
X291221Y189763D01*
X291237Y189661D01*
X291247Y189643D01*
X291251Y189624D01*
X291304Y189534D01*
X291352Y189443D01*
X291367Y189430D01*
X291377Y189412D01*
X291456Y189345D01*
X291531Y189274D01*
X291549Y189265D01*
X291564Y189252D01*
X291660Y189214D01*
X291754Y189170D01*
X291774Y189168D01*
X291792Y189161D01*
X291959Y189142D01*
X297996Y189142D01*
X300229Y186910D01*
X300229Y183753D01*
X298584Y182108D01*
X298573Y182092D01*
X298557Y182080D01*
X298501Y181993D01*
X298441Y181909D01*
X298435Y181890D01*
X298424Y181873D01*
X298399Y181772D01*
X298368Y181674D01*
X298369Y181654D01*
X298364Y181634D01*
X298372Y181531D01*
X298375Y181428D01*
X298382Y181409D01*
X298383Y181389D01*
X298424Y181294D01*
X298459Y181197D01*
X298472Y181181D01*
X298479Y181163D01*
X298584Y181032D01*
X300229Y179387D01*
X300229Y171480D01*
X297991Y168400D01*
X297953Y168325D01*
X297908Y168255D01*
X297898Y168216D01*
X297880Y168180D01*
X297869Y168097D01*
X297848Y168016D01*
X297851Y167976D01*
X297846Y167936D01*
X297861Y167854D01*
X297867Y167771D01*
X297883Y167734D01*
X297890Y167694D01*
X297931Y167622D01*
X297964Y167545D01*
X297996Y167504D01*
X298010Y167480D01*
X298032Y167460D01*
X298068Y167414D01*
X300229Y165254D01*
X300229Y156267D01*
X298240Y152822D01*
X294795Y150833D01*
X281785Y150833D01*
G37*
%LPD*%
%LPC*%
G36*
X59502Y282447D02*
X59502Y282447D01*
X53847Y288102D01*
X53847Y296098D01*
X59016Y301267D01*
X59069Y301341D01*
X59129Y301411D01*
X59141Y301441D01*
X59160Y301467D01*
X59187Y301554D01*
X59221Y301639D01*
X59225Y301680D01*
X59232Y301702D01*
X59231Y301734D01*
X59239Y301806D01*
X59239Y316992D01*
X59236Y317012D01*
X59238Y317031D01*
X59216Y317133D01*
X59200Y317235D01*
X59190Y317252D01*
X59186Y317272D01*
X59133Y317361D01*
X59084Y317452D01*
X59070Y317466D01*
X59060Y317483D01*
X58981Y317550D01*
X58906Y317622D01*
X58888Y317630D01*
X58873Y317643D01*
X58777Y317682D01*
X58683Y317725D01*
X58663Y317727D01*
X58645Y317735D01*
X58478Y317753D01*
X51569Y317753D01*
X49783Y319539D01*
X49783Y340861D01*
X51569Y342647D01*
X72891Y342647D01*
X74677Y340861D01*
X74677Y319539D01*
X73560Y318422D01*
X73507Y318348D01*
X73447Y318279D01*
X73435Y318249D01*
X73416Y318222D01*
X73389Y318135D01*
X73355Y318051D01*
X73351Y318010D01*
X73344Y317987D01*
X73345Y317955D01*
X73337Y317884D01*
X73337Y293700D01*
X73338Y293694D01*
X73337Y293688D01*
X73358Y293522D01*
X73469Y293061D01*
X73346Y292279D01*
X73346Y292246D01*
X73337Y292161D01*
X73337Y291370D01*
X73211Y291066D01*
X73202Y291027D01*
X73192Y291006D01*
X73190Y290987D01*
X73171Y290941D01*
X73162Y290858D01*
X73155Y290826D01*
X73156Y290807D01*
X73153Y290774D01*
X73153Y288102D01*
X67498Y282447D01*
X59502Y282447D01*
G37*
%LPD*%
%LPC*%
G36*
X288513Y324865D02*
X288513Y324865D01*
X281884Y327611D01*
X276811Y332684D01*
X274065Y339313D01*
X274065Y346487D01*
X276811Y353116D01*
X281884Y358189D01*
X288513Y360935D01*
X295687Y360935D01*
X302316Y358189D01*
X307389Y353116D01*
X310135Y346487D01*
X310135Y339313D01*
X307389Y332684D01*
X302316Y327611D01*
X295687Y324865D01*
X288513Y324865D01*
G37*
%LPD*%
%LPC*%
G36*
X21813Y324865D02*
X21813Y324865D01*
X15184Y327611D01*
X10111Y332684D01*
X7365Y339313D01*
X7365Y346487D01*
X10111Y353116D01*
X15184Y358189D01*
X21813Y360935D01*
X28987Y360935D01*
X35616Y358189D01*
X40689Y353116D01*
X43435Y346487D01*
X43435Y339313D01*
X40689Y332684D01*
X35616Y327611D01*
X28987Y324865D01*
X21813Y324865D01*
G37*
%LPD*%
%LPC*%
G36*
X288513Y20065D02*
X288513Y20065D01*
X281884Y22811D01*
X276811Y27884D01*
X274065Y34513D01*
X274065Y41687D01*
X276811Y48316D01*
X281884Y53389D01*
X288513Y56135D01*
X295687Y56135D01*
X302316Y53389D01*
X307389Y48316D01*
X310135Y41687D01*
X310135Y34513D01*
X307389Y27884D01*
X302316Y22811D01*
X295687Y20065D01*
X288513Y20065D01*
G37*
%LPD*%
%LPC*%
G36*
X21813Y20065D02*
X21813Y20065D01*
X15184Y22811D01*
X10111Y27884D01*
X7365Y34513D01*
X7365Y41687D01*
X10111Y48316D01*
X15184Y53389D01*
X21813Y56135D01*
X28987Y56135D01*
X35616Y53389D01*
X40689Y48316D01*
X43435Y41687D01*
X43435Y34513D01*
X40689Y27884D01*
X35616Y22811D01*
X28987Y20065D01*
X21813Y20065D01*
G37*
%LPD*%
%LPC*%
G36*
X291853Y91326D02*
X291853Y91326D01*
X291825Y91331D01*
X291813Y91335D01*
X291805Y91336D01*
X291779Y91347D01*
X291612Y91365D01*
X290776Y91365D01*
X290423Y91718D01*
X290348Y91772D01*
X290277Y91832D01*
X290241Y91848D01*
X290223Y91862D01*
X290192Y91871D01*
X290125Y91902D01*
X280403Y95143D01*
X280366Y95149D01*
X280331Y95163D01*
X280245Y95168D01*
X280160Y95182D01*
X280123Y95176D01*
X280085Y95178D01*
X279921Y95143D01*
X279870Y95126D01*
X278748Y95686D01*
X278717Y95696D01*
X278649Y95728D01*
X277459Y96124D01*
X277435Y96173D01*
X277413Y96203D01*
X277398Y96238D01*
X277341Y96302D01*
X277291Y96372D01*
X277260Y96394D01*
X277236Y96422D01*
X277095Y96513D01*
X277091Y96515D01*
X277046Y96537D01*
X276650Y97727D01*
X276634Y97756D01*
X276608Y97826D01*
X276048Y98948D01*
X276065Y98999D01*
X276071Y99036D01*
X276085Y99071D01*
X276090Y99157D01*
X276104Y99242D01*
X276098Y99279D01*
X276100Y99317D01*
X276065Y99481D01*
X276048Y99532D01*
X276608Y100653D01*
X276618Y100685D01*
X276650Y100753D01*
X277046Y101942D01*
X277095Y101967D01*
X277125Y101989D01*
X277160Y102003D01*
X277224Y102061D01*
X277294Y102111D01*
X277316Y102141D01*
X277344Y102166D01*
X277435Y102307D01*
X277437Y102311D01*
X277459Y102356D01*
X278649Y102752D01*
X278678Y102768D01*
X278748Y102794D01*
X279870Y103354D01*
X279921Y103337D01*
X279958Y103331D01*
X279993Y103317D01*
X280079Y103312D01*
X280164Y103298D01*
X280201Y103304D01*
X280239Y103302D01*
X280403Y103337D01*
X286722Y105444D01*
X286723Y105444D01*
X286724Y105444D01*
X286831Y105501D01*
X286940Y105558D01*
X286941Y105559D01*
X286942Y105559D01*
X287027Y105650D01*
X287110Y105736D01*
X287110Y105737D01*
X287111Y105738D01*
X287163Y105849D01*
X287214Y105959D01*
X287214Y105960D01*
X287215Y105961D01*
X287227Y106076D01*
X287242Y106203D01*
X287242Y106204D01*
X287242Y106205D01*
X287217Y106320D01*
X287190Y106444D01*
X287189Y106446D01*
X287130Y106546D01*
X287065Y106655D01*
X287064Y106656D01*
X287063Y106657D01*
X286972Y106734D01*
X286878Y106815D01*
X286877Y106816D01*
X286876Y106817D01*
X286759Y106864D01*
X286650Y106908D01*
X286649Y106908D01*
X286648Y106908D01*
X286481Y106927D01*
X284002Y106927D01*
X281770Y109159D01*
X281770Y117000D01*
X283517Y120026D01*
X283910Y120253D01*
X284001Y120327D01*
X284095Y120403D01*
X284097Y120406D01*
X284100Y120409D01*
X284163Y120509D01*
X284228Y120610D01*
X284229Y120614D01*
X284231Y120617D01*
X284259Y120733D01*
X284288Y120848D01*
X284288Y120852D01*
X284289Y120856D01*
X284278Y120976D01*
X284269Y121093D01*
X284267Y121097D01*
X284267Y121101D01*
X284218Y121212D01*
X284172Y121320D01*
X284169Y121323D01*
X284168Y121327D01*
X284158Y121337D01*
X284068Y121451D01*
X281770Y123748D01*
X281770Y131589D01*
X283136Y133956D01*
X283170Y134045D01*
X283210Y134132D01*
X283213Y134160D01*
X283223Y134186D01*
X283227Y134281D01*
X283237Y134376D01*
X283231Y134403D01*
X283232Y134432D01*
X283205Y134523D01*
X283185Y134616D01*
X283170Y134641D01*
X283162Y134668D01*
X283108Y134746D01*
X283059Y134827D01*
X283037Y134846D01*
X283021Y134869D01*
X282944Y134925D01*
X282872Y134987D01*
X282846Y134998D01*
X282823Y135015D01*
X282732Y135044D01*
X282644Y135079D01*
X282609Y135083D01*
X282589Y135090D01*
X282556Y135089D01*
X282477Y135098D01*
X278584Y135098D01*
X276351Y137330D01*
X276351Y141390D01*
X278584Y143622D01*
X282644Y143622D01*
X283010Y143256D01*
X283027Y143244D01*
X283039Y143228D01*
X283126Y143172D01*
X283210Y143112D01*
X283229Y143106D01*
X283246Y143095D01*
X283346Y143070D01*
X283445Y143040D01*
X283465Y143040D01*
X283485Y143035D01*
X283588Y143043D01*
X283691Y143046D01*
X283710Y143053D01*
X283730Y143054D01*
X283825Y143095D01*
X283922Y143130D01*
X283938Y143143D01*
X283956Y143151D01*
X283981Y143171D01*
X297996Y143171D01*
X300229Y140939D01*
X300229Y137782D01*
X298941Y136494D01*
X298930Y136478D01*
X298914Y136466D01*
X298858Y136378D01*
X298798Y136294D01*
X298792Y136275D01*
X298781Y136259D01*
X298756Y136158D01*
X298725Y136059D01*
X298726Y136039D01*
X298721Y136020D01*
X298729Y135917D01*
X298732Y135813D01*
X298739Y135795D01*
X298740Y135775D01*
X298781Y135680D01*
X298816Y135582D01*
X298829Y135567D01*
X298836Y135549D01*
X298941Y135418D01*
X300229Y134130D01*
X300229Y130973D01*
X298733Y129478D01*
X298721Y129461D01*
X298706Y129449D01*
X298650Y129362D01*
X298590Y129278D01*
X298584Y129259D01*
X298573Y129242D01*
X298548Y129141D01*
X298517Y129043D01*
X298518Y129023D01*
X298513Y129003D01*
X298521Y128900D01*
X298524Y128797D01*
X298530Y128778D01*
X298532Y128758D01*
X298572Y128663D01*
X298608Y128566D01*
X298620Y128550D01*
X298628Y128532D01*
X298733Y128401D01*
X300229Y126905D01*
X300229Y123748D01*
X298663Y122183D01*
X298652Y122167D01*
X298636Y122154D01*
X298580Y122067D01*
X298520Y121983D01*
X298514Y121964D01*
X298503Y121947D01*
X298478Y121847D01*
X298447Y121748D01*
X298448Y121728D01*
X298443Y121709D01*
X298451Y121606D01*
X298454Y121502D01*
X298461Y121483D01*
X298462Y121464D01*
X298503Y121369D01*
X298538Y121271D01*
X298551Y121256D01*
X298559Y121237D01*
X298663Y121106D01*
X300229Y119541D01*
X300229Y116384D01*
X298733Y114888D01*
X298721Y114872D01*
X298706Y114860D01*
X298650Y114772D01*
X298590Y114689D01*
X298584Y114670D01*
X298573Y114653D01*
X298548Y114552D01*
X298517Y114454D01*
X298518Y114434D01*
X298513Y114414D01*
X298521Y114311D01*
X298524Y114208D01*
X298530Y114189D01*
X298532Y114169D01*
X298572Y114074D01*
X298608Y113977D01*
X298620Y113961D01*
X298628Y113943D01*
X298733Y113812D01*
X300229Y112316D01*
X300229Y109159D01*
X299545Y108476D01*
X299534Y108460D01*
X299519Y108448D01*
X299463Y108361D01*
X299402Y108276D01*
X299396Y108258D01*
X299386Y108242D01*
X299360Y108141D01*
X299329Y108041D01*
X299330Y108022D01*
X299325Y108004D01*
X299333Y107900D01*
X299336Y107795D01*
X299342Y107777D01*
X299344Y107758D01*
X299384Y107662D01*
X299420Y107564D01*
X299432Y107549D01*
X299439Y107532D01*
X299500Y107463D01*
X300532Y104366D01*
X299121Y101543D01*
X296685Y100731D01*
X296667Y100721D01*
X296646Y100717D01*
X296558Y100664D01*
X296468Y100616D01*
X296453Y100601D01*
X296435Y100590D01*
X296368Y100513D01*
X296298Y100438D01*
X296289Y100420D01*
X296275Y100404D01*
X296237Y100308D01*
X296193Y100216D01*
X296191Y100195D01*
X296183Y100175D01*
X296165Y100009D01*
X296165Y98471D01*
X296168Y98451D01*
X296166Y98430D01*
X296188Y98329D01*
X296204Y98228D01*
X296214Y98210D01*
X296219Y98189D01*
X296272Y98101D01*
X296320Y98011D01*
X296335Y97997D01*
X296346Y97979D01*
X296424Y97912D01*
X296498Y97842D01*
X296517Y97833D01*
X296533Y97819D01*
X296685Y97749D01*
X299121Y96937D01*
X300532Y94114D01*
X299534Y91119D01*
X296710Y89707D01*
X291853Y91326D01*
G37*
%LPD*%
%LPC*%
G36*
X278584Y227456D02*
X278584Y227456D01*
X276351Y229688D01*
X276351Y232845D01*
X278584Y235077D01*
X291846Y235077D01*
X291866Y235081D01*
X291885Y235079D01*
X291987Y235101D01*
X292089Y235117D01*
X292106Y235127D01*
X292126Y235131D01*
X292215Y235184D01*
X292306Y235232D01*
X292320Y235247D01*
X292337Y235257D01*
X292404Y235336D01*
X292476Y235411D01*
X292484Y235429D01*
X292497Y235444D01*
X292536Y235540D01*
X292579Y235634D01*
X292581Y235653D01*
X292589Y235672D01*
X292607Y235839D01*
X292607Y239539D01*
X292603Y239563D01*
X292606Y239587D01*
X292584Y239684D01*
X292568Y239782D01*
X292556Y239803D01*
X292551Y239826D01*
X292499Y239912D01*
X292452Y239999D01*
X292435Y240016D01*
X292423Y240036D01*
X292346Y240100D01*
X292274Y240169D01*
X292252Y240179D01*
X292234Y240194D01*
X292081Y240263D01*
X288948Y241281D01*
X288777Y241516D01*
X288721Y241572D01*
X288671Y241634D01*
X288634Y241658D01*
X288603Y241689D01*
X288531Y241724D01*
X288464Y241767D01*
X288421Y241778D01*
X288382Y241798D01*
X288303Y241808D01*
X288226Y241828D01*
X288182Y241824D01*
X288138Y241830D01*
X288060Y241815D01*
X287981Y241808D01*
X287940Y241791D01*
X287897Y241783D01*
X287827Y241743D01*
X287754Y241712D01*
X287708Y241675D01*
X287683Y241661D01*
X287665Y241640D01*
X287623Y241607D01*
X287159Y241143D01*
X284002Y241143D01*
X281770Y243375D01*
X281770Y246672D01*
X281770Y246673D01*
X281770Y250313D01*
X283517Y253339D01*
X283956Y253593D01*
X284048Y253668D01*
X284141Y253743D01*
X284144Y253746D01*
X284147Y253749D01*
X284209Y253848D01*
X284274Y253949D01*
X284275Y253954D01*
X284278Y253957D01*
X284305Y254072D01*
X284334Y254188D01*
X284334Y254192D01*
X284335Y254196D01*
X284326Y254294D01*
X284327Y254301D01*
X284325Y254311D01*
X284324Y254315D01*
X284315Y254433D01*
X284314Y254437D01*
X284313Y254441D01*
X284280Y254517D01*
X284275Y254541D01*
X284256Y254573D01*
X284219Y254660D01*
X284216Y254663D01*
X284214Y254666D01*
X284205Y254677D01*
X284160Y254733D01*
X284149Y254752D01*
X284137Y254762D01*
X284114Y254791D01*
X281770Y257135D01*
X281770Y260292D01*
X283266Y261787D01*
X283277Y261803D01*
X283293Y261816D01*
X283349Y261903D01*
X283409Y261987D01*
X283415Y262006D01*
X283426Y262023D01*
X283451Y262123D01*
X283482Y262222D01*
X283481Y262242D01*
X283486Y262261D01*
X283478Y262364D01*
X283475Y262468D01*
X283468Y262487D01*
X283467Y262507D01*
X283426Y262601D01*
X283391Y262699D01*
X283378Y262715D01*
X283370Y262733D01*
X283266Y262864D01*
X281770Y264360D01*
X281770Y267516D01*
X284002Y269749D01*
X297996Y269749D01*
X300229Y267516D01*
X300229Y259675D01*
X298482Y256649D01*
X298042Y256396D01*
X297951Y256321D01*
X297857Y256246D01*
X297855Y256243D01*
X297852Y256240D01*
X297789Y256140D01*
X297724Y256039D01*
X297723Y256035D01*
X297721Y256032D01*
X297693Y255916D01*
X297664Y255801D01*
X297665Y255797D01*
X297664Y255792D01*
X297674Y255673D01*
X297683Y255555D01*
X297685Y255552D01*
X297685Y255547D01*
X297734Y255437D01*
X297780Y255329D01*
X297783Y255325D01*
X297784Y255322D01*
X297794Y255312D01*
X297885Y255198D01*
X300229Y252854D01*
X300229Y244946D01*
X298559Y242648D01*
X298521Y242573D01*
X298476Y242503D01*
X298466Y242464D01*
X298448Y242428D01*
X298437Y242346D01*
X298416Y242265D01*
X298419Y242225D01*
X298414Y242185D01*
X298429Y242103D01*
X298435Y242020D01*
X298451Y241983D01*
X298458Y241943D01*
X298499Y241870D01*
X298532Y241793D01*
X298564Y241752D01*
X298578Y241728D01*
X298600Y241708D01*
X298636Y241662D01*
X300229Y240070D01*
X300229Y229688D01*
X297996Y227456D01*
X278584Y227456D01*
G37*
%LPD*%
%LPC*%
G36*
X103288Y184911D02*
X103288Y184911D01*
X99367Y186535D01*
X96365Y189537D01*
X94741Y193458D01*
X94741Y197702D01*
X96365Y201623D01*
X99367Y204625D01*
X103288Y206249D01*
X122772Y206249D01*
X126693Y204625D01*
X129695Y201623D01*
X131319Y197702D01*
X131319Y193458D01*
X129695Y189537D01*
X126693Y186535D01*
X122772Y184911D01*
X103288Y184911D01*
G37*
%LPD*%
%LPC*%
G36*
X168058Y179831D02*
X168058Y179831D01*
X164137Y181455D01*
X161135Y184457D01*
X159511Y188378D01*
X159511Y192622D01*
X161135Y196543D01*
X164137Y199545D01*
X168058Y201169D01*
X187542Y201169D01*
X191463Y199545D01*
X194465Y196543D01*
X196089Y192622D01*
X196089Y188378D01*
X194465Y184457D01*
X191463Y181455D01*
X187542Y179831D01*
X168058Y179831D01*
G37*
%LPD*%
%LPC*%
G36*
X64269Y25653D02*
X64269Y25653D01*
X62483Y27439D01*
X62483Y48761D01*
X64269Y50547D01*
X85591Y50547D01*
X87377Y48761D01*
X87377Y27439D01*
X85591Y25653D01*
X64269Y25653D01*
G37*
%LPD*%
%LPC*%
G36*
X214694Y317753D02*
X214694Y317753D01*
X210119Y319648D01*
X206618Y323149D01*
X204723Y327724D01*
X204723Y332676D01*
X206618Y337251D01*
X210119Y340752D01*
X214694Y342647D01*
X219646Y342647D01*
X224221Y340752D01*
X227722Y337251D01*
X229617Y332676D01*
X229617Y327724D01*
X227722Y323149D01*
X224221Y319648D01*
X219646Y317753D01*
X214694Y317753D01*
G37*
%LPD*%
%LPC*%
G36*
X151194Y317753D02*
X151194Y317753D01*
X146619Y319648D01*
X143118Y323149D01*
X141223Y327724D01*
X141223Y332676D01*
X143118Y337251D01*
X146619Y340752D01*
X151194Y342647D01*
X156146Y342647D01*
X160721Y340752D01*
X164222Y337251D01*
X166117Y332676D01*
X166117Y327724D01*
X164222Y323149D01*
X160721Y319648D01*
X156146Y317753D01*
X151194Y317753D01*
G37*
%LPD*%
D10*
X296418Y93821D02*
X280162Y99240D01*
X296418Y104659D01*
X292354Y103304D02*
X292354Y95176D01*
X296418Y110738D02*
X285581Y110738D01*
X285581Y115253D01*
X285583Y115357D01*
X285589Y115460D01*
X285599Y115564D01*
X285613Y115667D01*
X285631Y115769D01*
X285652Y115870D01*
X285678Y115971D01*
X285707Y116070D01*
X285740Y116169D01*
X285777Y116266D01*
X285818Y116361D01*
X285862Y116455D01*
X285910Y116547D01*
X285961Y116637D01*
X286016Y116726D01*
X286074Y116812D01*
X286136Y116895D01*
X286200Y116977D01*
X286268Y117055D01*
X286338Y117131D01*
X286411Y117205D01*
X286488Y117275D01*
X286566Y117343D01*
X286648Y117407D01*
X286731Y117469D01*
X286817Y117527D01*
X286906Y117582D01*
X286996Y117633D01*
X287088Y117681D01*
X287182Y117725D01*
X287277Y117766D01*
X287374Y117803D01*
X287473Y117836D01*
X287572Y117865D01*
X287673Y117891D01*
X287774Y117912D01*
X287876Y117930D01*
X287979Y117944D01*
X288083Y117954D01*
X288186Y117960D01*
X288290Y117962D01*
X288290Y117963D02*
X296418Y117963D01*
X296418Y125327D02*
X285581Y125327D01*
X285581Y129842D01*
X285583Y129946D01*
X285589Y130049D01*
X285599Y130153D01*
X285613Y130256D01*
X285631Y130358D01*
X285652Y130459D01*
X285678Y130560D01*
X285707Y130659D01*
X285740Y130758D01*
X285777Y130855D01*
X285818Y130950D01*
X285862Y131044D01*
X285910Y131136D01*
X285961Y131226D01*
X286016Y131315D01*
X286074Y131401D01*
X286136Y131484D01*
X286200Y131566D01*
X286268Y131644D01*
X286338Y131720D01*
X286411Y131794D01*
X286488Y131864D01*
X286566Y131932D01*
X286648Y131996D01*
X286731Y132058D01*
X286817Y132116D01*
X286906Y132171D01*
X286996Y132222D01*
X287088Y132270D01*
X287182Y132314D01*
X287277Y132355D01*
X287374Y132392D01*
X287473Y132425D01*
X287572Y132454D01*
X287673Y132480D01*
X287774Y132501D01*
X287876Y132519D01*
X287979Y132533D01*
X288083Y132543D01*
X288186Y132549D01*
X288290Y132551D01*
X288290Y132552D02*
X296418Y132552D01*
X296418Y139360D02*
X285581Y139360D01*
X281065Y138909D02*
X280162Y138909D01*
X280162Y139812D01*
X281065Y139812D01*
X281065Y138909D01*
X287387Y160966D02*
X287387Y163675D01*
X296418Y163675D01*
X296418Y158256D01*
X296416Y158138D01*
X296410Y158020D01*
X296401Y157902D01*
X296387Y157785D01*
X296370Y157668D01*
X296349Y157551D01*
X296324Y157436D01*
X296295Y157321D01*
X296262Y157207D01*
X296226Y157095D01*
X296186Y156984D01*
X296143Y156874D01*
X296096Y156765D01*
X296046Y156658D01*
X295991Y156553D01*
X295934Y156450D01*
X295873Y156349D01*
X295809Y156249D01*
X295742Y156152D01*
X295672Y156057D01*
X295598Y155965D01*
X295522Y155874D01*
X295442Y155787D01*
X295360Y155702D01*
X295275Y155620D01*
X295188Y155540D01*
X295097Y155464D01*
X295005Y155390D01*
X294910Y155320D01*
X294813Y155253D01*
X294713Y155189D01*
X294612Y155128D01*
X294509Y155071D01*
X294404Y155016D01*
X294297Y154966D01*
X294188Y154919D01*
X294078Y154876D01*
X293967Y154836D01*
X293855Y154800D01*
X293741Y154767D01*
X293626Y154738D01*
X293511Y154713D01*
X293394Y154692D01*
X293277Y154675D01*
X293160Y154661D01*
X293042Y154652D01*
X292924Y154646D01*
X292806Y154644D01*
X283774Y154644D01*
X283656Y154646D01*
X283538Y154652D01*
X283420Y154661D01*
X283302Y154675D01*
X283185Y154692D01*
X283069Y154713D01*
X282954Y154738D01*
X282839Y154767D01*
X282725Y154800D01*
X282613Y154836D01*
X282501Y154876D01*
X282391Y154919D01*
X282283Y154966D01*
X282176Y155017D01*
X282071Y155071D01*
X281968Y155128D01*
X281866Y155189D01*
X281767Y155253D01*
X281670Y155320D01*
X281575Y155391D01*
X281482Y155464D01*
X281392Y155541D01*
X281304Y155620D01*
X281219Y155702D01*
X281137Y155787D01*
X281058Y155875D01*
X280981Y155965D01*
X280908Y156058D01*
X280837Y156152D01*
X280770Y156250D01*
X280706Y156349D01*
X280645Y156450D01*
X280588Y156554D01*
X280534Y156659D01*
X280483Y156766D01*
X280436Y156874D01*
X280393Y156984D01*
X280353Y157096D01*
X280317Y157208D01*
X280284Y157322D01*
X280255Y157437D01*
X280230Y157552D01*
X280209Y157668D01*
X280192Y157785D01*
X280178Y157903D01*
X280169Y158021D01*
X280163Y158139D01*
X280161Y158257D01*
X280162Y158256D02*
X280162Y163675D01*
X290096Y173745D02*
X290096Y177809D01*
X290096Y173745D02*
X290098Y173633D01*
X290104Y173522D01*
X290114Y173411D01*
X290127Y173300D01*
X290145Y173190D01*
X290167Y173081D01*
X290192Y172972D01*
X290221Y172864D01*
X290254Y172758D01*
X290291Y172652D01*
X290331Y172548D01*
X290375Y172446D01*
X290423Y172345D01*
X290474Y172246D01*
X290529Y172148D01*
X290587Y172053D01*
X290648Y171960D01*
X290713Y171869D01*
X290781Y171780D01*
X290852Y171694D01*
X290925Y171611D01*
X291002Y171530D01*
X291082Y171451D01*
X291164Y171376D01*
X291249Y171304D01*
X291336Y171234D01*
X291426Y171168D01*
X291518Y171105D01*
X291613Y171045D01*
X291709Y170989D01*
X291807Y170936D01*
X291907Y170887D01*
X292009Y170841D01*
X292112Y170799D01*
X292217Y170760D01*
X292323Y170725D01*
X292430Y170694D01*
X292538Y170667D01*
X292647Y170643D01*
X292757Y170624D01*
X292867Y170608D01*
X292978Y170596D01*
X293090Y170588D01*
X293201Y170584D01*
X293313Y170584D01*
X293424Y170588D01*
X293536Y170596D01*
X293647Y170608D01*
X293757Y170624D01*
X293867Y170643D01*
X293976Y170667D01*
X294084Y170694D01*
X294191Y170725D01*
X294297Y170760D01*
X294402Y170799D01*
X294505Y170841D01*
X294607Y170887D01*
X294707Y170936D01*
X294805Y170989D01*
X294901Y171045D01*
X294996Y171105D01*
X295088Y171168D01*
X295178Y171234D01*
X295265Y171304D01*
X295350Y171376D01*
X295432Y171451D01*
X295512Y171530D01*
X295589Y171611D01*
X295662Y171694D01*
X295733Y171780D01*
X295801Y171869D01*
X295866Y171960D01*
X295927Y172053D01*
X295985Y172148D01*
X296040Y172246D01*
X296091Y172345D01*
X296139Y172446D01*
X296183Y172548D01*
X296223Y172652D01*
X296260Y172758D01*
X296293Y172864D01*
X296322Y172972D01*
X296347Y173081D01*
X296369Y173190D01*
X296387Y173300D01*
X296400Y173411D01*
X296410Y173522D01*
X296416Y173633D01*
X296418Y173745D01*
X296418Y177809D01*
X288290Y177809D01*
X288189Y177807D01*
X288088Y177801D01*
X287987Y177792D01*
X287886Y177779D01*
X287786Y177762D01*
X287687Y177741D01*
X287589Y177717D01*
X287492Y177689D01*
X287395Y177657D01*
X287300Y177622D01*
X287207Y177583D01*
X287115Y177541D01*
X287024Y177495D01*
X286936Y177446D01*
X286849Y177394D01*
X286764Y177338D01*
X286681Y177280D01*
X286601Y177218D01*
X286523Y177153D01*
X286447Y177086D01*
X286374Y177016D01*
X286304Y176943D01*
X286237Y176867D01*
X286172Y176789D01*
X286110Y176709D01*
X286052Y176626D01*
X285996Y176541D01*
X285944Y176455D01*
X285895Y176366D01*
X285849Y176275D01*
X285807Y176183D01*
X285768Y176090D01*
X285733Y175995D01*
X285701Y175898D01*
X285673Y175801D01*
X285649Y175703D01*
X285628Y175604D01*
X285611Y175504D01*
X285598Y175403D01*
X285589Y175302D01*
X285583Y175201D01*
X285581Y175100D01*
X285581Y171487D01*
X285581Y185331D02*
X296418Y185331D01*
X285581Y185331D02*
X285581Y190750D01*
X287387Y190750D01*
X285581Y195146D02*
X285581Y202371D01*
X296418Y195146D01*
X296418Y202371D01*
X290096Y211260D02*
X290096Y215324D01*
X290096Y211260D02*
X290098Y211148D01*
X290104Y211037D01*
X290114Y210926D01*
X290127Y210815D01*
X290145Y210705D01*
X290167Y210596D01*
X290192Y210487D01*
X290221Y210379D01*
X290254Y210273D01*
X290291Y210167D01*
X290331Y210063D01*
X290375Y209961D01*
X290423Y209860D01*
X290474Y209761D01*
X290529Y209663D01*
X290587Y209568D01*
X290648Y209475D01*
X290713Y209384D01*
X290781Y209295D01*
X290852Y209209D01*
X290925Y209126D01*
X291002Y209045D01*
X291082Y208966D01*
X291164Y208891D01*
X291249Y208819D01*
X291336Y208749D01*
X291426Y208683D01*
X291518Y208620D01*
X291613Y208560D01*
X291709Y208504D01*
X291807Y208451D01*
X291907Y208402D01*
X292009Y208356D01*
X292112Y208314D01*
X292217Y208275D01*
X292323Y208240D01*
X292430Y208209D01*
X292538Y208182D01*
X292647Y208158D01*
X292757Y208139D01*
X292867Y208123D01*
X292978Y208111D01*
X293090Y208103D01*
X293201Y208099D01*
X293313Y208099D01*
X293424Y208103D01*
X293536Y208111D01*
X293647Y208123D01*
X293757Y208139D01*
X293867Y208158D01*
X293976Y208182D01*
X294084Y208209D01*
X294191Y208240D01*
X294297Y208275D01*
X294402Y208314D01*
X294505Y208356D01*
X294607Y208402D01*
X294707Y208451D01*
X294805Y208504D01*
X294901Y208560D01*
X294996Y208620D01*
X295088Y208683D01*
X295178Y208749D01*
X295265Y208819D01*
X295350Y208891D01*
X295432Y208966D01*
X295512Y209045D01*
X295589Y209126D01*
X295662Y209209D01*
X295733Y209295D01*
X295801Y209384D01*
X295866Y209475D01*
X295927Y209568D01*
X295985Y209663D01*
X296040Y209761D01*
X296091Y209860D01*
X296139Y209961D01*
X296183Y210063D01*
X296223Y210167D01*
X296260Y210273D01*
X296293Y210379D01*
X296322Y210487D01*
X296347Y210596D01*
X296369Y210705D01*
X296387Y210815D01*
X296400Y210926D01*
X296410Y211037D01*
X296416Y211148D01*
X296418Y211260D01*
X296418Y215324D01*
X288290Y215324D01*
X288290Y215323D02*
X288189Y215321D01*
X288088Y215315D01*
X287987Y215306D01*
X287886Y215293D01*
X287786Y215276D01*
X287687Y215255D01*
X287589Y215231D01*
X287492Y215203D01*
X287395Y215171D01*
X287300Y215136D01*
X287207Y215097D01*
X287115Y215055D01*
X287024Y215009D01*
X286936Y214960D01*
X286849Y214908D01*
X286764Y214852D01*
X286681Y214794D01*
X286601Y214732D01*
X286523Y214667D01*
X286447Y214600D01*
X286374Y214530D01*
X286304Y214457D01*
X286237Y214381D01*
X286172Y214303D01*
X286110Y214223D01*
X286052Y214140D01*
X285996Y214055D01*
X285944Y213969D01*
X285895Y213880D01*
X285849Y213789D01*
X285807Y213697D01*
X285768Y213604D01*
X285733Y213509D01*
X285701Y213412D01*
X285673Y213315D01*
X285649Y213217D01*
X285628Y213118D01*
X285611Y213018D01*
X285598Y212917D01*
X285589Y212816D01*
X285583Y212715D01*
X285581Y212614D01*
X285581Y209002D01*
X280162Y231267D02*
X296418Y231267D01*
X296418Y238492D01*
X290096Y247212D02*
X290096Y251276D01*
X290096Y247212D02*
X290098Y247100D01*
X290104Y246989D01*
X290114Y246878D01*
X290127Y246767D01*
X290145Y246657D01*
X290167Y246548D01*
X290192Y246439D01*
X290221Y246331D01*
X290254Y246225D01*
X290291Y246119D01*
X290331Y246015D01*
X290375Y245913D01*
X290423Y245812D01*
X290474Y245713D01*
X290529Y245615D01*
X290587Y245520D01*
X290648Y245427D01*
X290713Y245336D01*
X290781Y245247D01*
X290852Y245161D01*
X290925Y245078D01*
X291002Y244997D01*
X291082Y244918D01*
X291164Y244843D01*
X291249Y244771D01*
X291336Y244701D01*
X291426Y244635D01*
X291518Y244572D01*
X291613Y244512D01*
X291709Y244456D01*
X291807Y244403D01*
X291907Y244354D01*
X292009Y244308D01*
X292112Y244266D01*
X292217Y244227D01*
X292323Y244192D01*
X292430Y244161D01*
X292538Y244134D01*
X292647Y244110D01*
X292757Y244091D01*
X292867Y244075D01*
X292978Y244063D01*
X293090Y244055D01*
X293201Y244051D01*
X293313Y244051D01*
X293424Y244055D01*
X293536Y244063D01*
X293647Y244075D01*
X293757Y244091D01*
X293867Y244110D01*
X293976Y244134D01*
X294084Y244161D01*
X294191Y244192D01*
X294297Y244227D01*
X294402Y244266D01*
X294505Y244308D01*
X294607Y244354D01*
X294707Y244403D01*
X294805Y244456D01*
X294901Y244512D01*
X294996Y244572D01*
X295088Y244635D01*
X295178Y244701D01*
X295265Y244771D01*
X295350Y244843D01*
X295432Y244918D01*
X295512Y244997D01*
X295589Y245078D01*
X295662Y245161D01*
X295733Y245247D01*
X295801Y245336D01*
X295866Y245427D01*
X295927Y245520D01*
X295985Y245615D01*
X296040Y245713D01*
X296091Y245812D01*
X296139Y245913D01*
X296183Y246015D01*
X296223Y246119D01*
X296260Y246225D01*
X296293Y246331D01*
X296322Y246439D01*
X296347Y246548D01*
X296369Y246657D01*
X296387Y246767D01*
X296400Y246878D01*
X296410Y246989D01*
X296416Y247100D01*
X296418Y247212D01*
X296418Y251276D01*
X288290Y251276D01*
X288290Y251275D02*
X288189Y251273D01*
X288088Y251267D01*
X287987Y251258D01*
X287886Y251245D01*
X287786Y251228D01*
X287687Y251207D01*
X287589Y251183D01*
X287492Y251155D01*
X287395Y251123D01*
X287300Y251088D01*
X287207Y251049D01*
X287115Y251007D01*
X287024Y250961D01*
X286936Y250912D01*
X286849Y250860D01*
X286764Y250804D01*
X286681Y250746D01*
X286601Y250684D01*
X286523Y250619D01*
X286447Y250552D01*
X286374Y250482D01*
X286304Y250409D01*
X286237Y250333D01*
X286172Y250255D01*
X286110Y250175D01*
X286052Y250092D01*
X285996Y250007D01*
X285944Y249921D01*
X285895Y249832D01*
X285849Y249741D01*
X285807Y249649D01*
X285768Y249556D01*
X285733Y249461D01*
X285701Y249364D01*
X285673Y249267D01*
X285649Y249169D01*
X285628Y249070D01*
X285611Y248970D01*
X285598Y248869D01*
X285589Y248768D01*
X285583Y248667D01*
X285581Y248566D01*
X285581Y244954D01*
X285581Y258713D02*
X293709Y258713D01*
X293810Y258715D01*
X293911Y258721D01*
X294012Y258730D01*
X294113Y258743D01*
X294213Y258760D01*
X294312Y258781D01*
X294410Y258805D01*
X294507Y258833D01*
X294604Y258865D01*
X294699Y258900D01*
X294792Y258939D01*
X294884Y258981D01*
X294975Y259027D01*
X295064Y259076D01*
X295150Y259128D01*
X295235Y259184D01*
X295318Y259242D01*
X295398Y259304D01*
X295476Y259369D01*
X295552Y259436D01*
X295625Y259506D01*
X295695Y259579D01*
X295762Y259655D01*
X295827Y259733D01*
X295889Y259813D01*
X295947Y259896D01*
X296003Y259981D01*
X296055Y260067D01*
X296104Y260156D01*
X296150Y260247D01*
X296192Y260339D01*
X296231Y260432D01*
X296266Y260527D01*
X296298Y260624D01*
X296326Y260721D01*
X296350Y260819D01*
X296371Y260918D01*
X296388Y261018D01*
X296401Y261119D01*
X296410Y261220D01*
X296416Y261321D01*
X296418Y261422D01*
X296418Y265938D01*
X285581Y265938D01*
D11*
X74930Y38100D03*
D12*
X102870Y38100D03*
D11*
X151130Y38100D03*
D12*
X179070Y38100D03*
D11*
X214630Y38100D03*
D12*
X242570Y38100D03*
D11*
X125730Y330200D03*
D12*
X153670Y330200D03*
D11*
X62230Y330200D03*
D12*
X90170Y330200D03*
D11*
X189230Y330200D03*
D12*
X217170Y330200D03*
D13*
X120650Y170180D02*
X105410Y170180D01*
X105410Y195580D02*
X120650Y195580D01*
X120650Y220980D02*
X105410Y220980D01*
X58420Y165100D02*
X43180Y165100D01*
X43180Y190500D02*
X58420Y190500D01*
X58420Y215900D02*
X43180Y215900D01*
X170180Y165100D02*
X185420Y165100D01*
X185420Y190500D02*
X170180Y190500D01*
X170180Y215900D02*
X185420Y215900D01*
D14*
X127000Y266700D03*
X203200Y266700D03*
X63500Y292100D03*
X139700Y292100D03*
X165100Y292100D03*
X241300Y292100D03*
D15*
X177800Y114300D03*
X101600Y114300D03*
X114300Y88900D03*
X38100Y88900D03*
X228600Y88900D03*
X152400Y88900D03*
D16*
X60764Y193340D02*
X55240Y193340D01*
X60764Y193340D02*
X88384Y220960D01*
X88384Y325916D01*
X55240Y193340D02*
X50800Y190500D01*
X88384Y325916D02*
X90170Y330200D01*
X116004Y220960D02*
X176768Y220960D01*
X177800Y215900D01*
X116004Y220960D02*
X113030Y220980D01*
X127052Y270676D02*
X127052Y281724D01*
X121528Y287248D01*
X121528Y325916D01*
X127052Y270676D02*
X127000Y266700D01*
X121528Y325916D02*
X125730Y330200D01*
X66288Y325916D02*
X66288Y292772D01*
X63500Y292100D01*
X66288Y325916D02*
X62230Y330200D01*
X165720Y303820D02*
X165720Y292772D01*
X165720Y303820D02*
X187816Y325916D01*
X165720Y292772D02*
X165100Y292100D01*
X187816Y325916D02*
X189230Y330200D01*
X143624Y287248D02*
X160196Y270676D01*
X198864Y270676D01*
X143624Y287248D02*
X139700Y292100D01*
X198864Y270676D02*
X203200Y266700D01*
X220960Y287248D02*
X237532Y287248D01*
X220960Y287248D02*
X204388Y270676D01*
X237532Y287248D02*
X241300Y292100D01*
X204388Y270676D02*
X203200Y266700D01*
X104956Y160196D02*
X104956Y121528D01*
X104956Y116004D01*
X104956Y160196D02*
X110480Y165720D01*
X104956Y116004D02*
X101600Y114300D01*
X110480Y165720D02*
X113030Y170180D01*
X176768Y44192D02*
X176768Y38668D01*
X176768Y44192D02*
X132576Y88384D01*
X132576Y93908D01*
X104956Y121528D01*
X176768Y38668D02*
X179070Y38100D01*
X38668Y93908D02*
X38668Y149148D01*
X49716Y160196D01*
X38668Y93908D02*
X38100Y88900D01*
X49716Y160196D02*
X50800Y165100D01*
X127052Y38668D02*
X149148Y38668D01*
X127052Y38668D02*
X77336Y88384D01*
X38668Y88384D01*
X149148Y38668D02*
X151130Y38100D01*
X38668Y88384D02*
X38100Y88900D01*
X154672Y93908D02*
X154672Y138100D01*
X176768Y160196D01*
X154672Y93908D02*
X152400Y88900D01*
X176768Y160196D02*
X177800Y165100D01*
X237532Y44192D02*
X237532Y38668D01*
X237532Y44192D02*
X198864Y82860D01*
X160196Y82860D01*
X154672Y88384D01*
X237532Y38668D02*
X242570Y38100D01*
X154672Y88384D02*
X152400Y88900D01*
X198864Y93908D02*
X226484Y93908D01*
X198864Y93908D02*
X182292Y110480D01*
X226484Y93908D02*
X228600Y88900D01*
X182292Y110480D02*
X177800Y114300D01*
M02*
