G04 EAGLE Gerber RS-274X export*
G75*
%MOMM*%
%FSLAX34Y34*%
%LPD*%
%INSilkscreen Top*%
%IPPOS*%
%AMOC8*
5,1,8,0,0,1.08239X$1,22.5*%
G01*
%ADD10C,0.127000*%
%ADD11C,0.152400*%
%ADD12C,0.508000*%
%ADD13R,0.762000X10.668000*%
%ADD14R,0.508000X1.905000*%
%ADD15R,0.508000X0.762000*%
%ADD16R,0.381000X0.508000*%
%ADD17C,0.101600*%


D10*
X63500Y68580D02*
X63500Y12700D01*
X114300Y12700D02*
X114300Y68580D01*
X63500Y68580D01*
X101600Y12700D02*
X114300Y12700D01*
X101600Y12700D02*
X76200Y12700D01*
X63500Y12700D01*
X76200Y12700D02*
X76200Y25400D01*
X101600Y25400D01*
X101600Y12700D01*
X65744Y72827D02*
X65744Y76581D01*
X65743Y72827D02*
X65741Y72762D01*
X65735Y72698D01*
X65725Y72634D01*
X65712Y72570D01*
X65694Y72508D01*
X65673Y72447D01*
X65649Y72387D01*
X65620Y72329D01*
X65588Y72272D01*
X65553Y72218D01*
X65515Y72166D01*
X65473Y72116D01*
X65429Y72069D01*
X65382Y72025D01*
X65332Y71983D01*
X65280Y71945D01*
X65226Y71910D01*
X65169Y71878D01*
X65111Y71849D01*
X65051Y71825D01*
X64990Y71804D01*
X64928Y71786D01*
X64864Y71773D01*
X64800Y71763D01*
X64736Y71757D01*
X64671Y71755D01*
X64135Y71755D01*
X68692Y75509D02*
X70032Y76581D01*
X70032Y71755D01*
X68692Y71755D02*
X71373Y71755D01*
X139700Y68580D02*
X139700Y12700D01*
X190500Y12700D02*
X190500Y68580D01*
X139700Y68580D01*
X177800Y12700D02*
X190500Y12700D01*
X177800Y12700D02*
X152400Y12700D01*
X139700Y12700D01*
X152400Y12700D02*
X152400Y25400D01*
X177800Y25400D01*
X177800Y12700D01*
X141944Y72827D02*
X141944Y76581D01*
X141943Y72827D02*
X141941Y72762D01*
X141935Y72698D01*
X141925Y72634D01*
X141912Y72570D01*
X141894Y72508D01*
X141873Y72447D01*
X141849Y72387D01*
X141820Y72329D01*
X141788Y72272D01*
X141753Y72218D01*
X141715Y72166D01*
X141673Y72116D01*
X141629Y72069D01*
X141582Y72025D01*
X141532Y71983D01*
X141480Y71945D01*
X141426Y71910D01*
X141369Y71878D01*
X141311Y71849D01*
X141251Y71825D01*
X141190Y71804D01*
X141128Y71786D01*
X141064Y71773D01*
X141000Y71763D01*
X140936Y71757D01*
X140871Y71755D01*
X140335Y71755D01*
X146366Y76581D02*
X146434Y76579D01*
X146501Y76573D01*
X146568Y76564D01*
X146635Y76551D01*
X146700Y76534D01*
X146765Y76513D01*
X146828Y76489D01*
X146890Y76461D01*
X146950Y76430D01*
X147008Y76396D01*
X147064Y76358D01*
X147119Y76318D01*
X147170Y76274D01*
X147219Y76227D01*
X147266Y76178D01*
X147310Y76127D01*
X147350Y76072D01*
X147388Y76016D01*
X147422Y75958D01*
X147453Y75898D01*
X147481Y75836D01*
X147505Y75773D01*
X147526Y75708D01*
X147543Y75643D01*
X147556Y75576D01*
X147565Y75509D01*
X147571Y75442D01*
X147573Y75374D01*
X146366Y76581D02*
X146288Y76579D01*
X146210Y76573D01*
X146133Y76563D01*
X146056Y76550D01*
X145980Y76532D01*
X145905Y76511D01*
X145831Y76486D01*
X145759Y76457D01*
X145688Y76425D01*
X145619Y76389D01*
X145551Y76350D01*
X145486Y76307D01*
X145423Y76261D01*
X145362Y76212D01*
X145304Y76160D01*
X145249Y76105D01*
X145196Y76048D01*
X145147Y75988D01*
X145100Y75925D01*
X145057Y75861D01*
X145017Y75794D01*
X144980Y75725D01*
X144947Y75654D01*
X144917Y75582D01*
X144891Y75509D01*
X147171Y74436D02*
X147220Y74485D01*
X147267Y74537D01*
X147310Y74592D01*
X147351Y74649D01*
X147389Y74708D01*
X147423Y74769D01*
X147454Y74832D01*
X147482Y74896D01*
X147506Y74962D01*
X147526Y75028D01*
X147543Y75096D01*
X147556Y75165D01*
X147565Y75234D01*
X147571Y75304D01*
X147573Y75374D01*
X147171Y74436D02*
X144892Y71755D01*
X147573Y71755D01*
X203200Y68580D02*
X203200Y12700D01*
X254000Y12700D02*
X254000Y68580D01*
X203200Y68580D01*
X241300Y12700D02*
X254000Y12700D01*
X241300Y12700D02*
X215900Y12700D01*
X203200Y12700D01*
X215900Y12700D02*
X215900Y25400D01*
X241300Y25400D01*
X241300Y12700D01*
X205444Y72827D02*
X205444Y76581D01*
X205443Y72827D02*
X205441Y72762D01*
X205435Y72698D01*
X205425Y72634D01*
X205412Y72570D01*
X205394Y72508D01*
X205373Y72447D01*
X205349Y72387D01*
X205320Y72329D01*
X205288Y72272D01*
X205253Y72218D01*
X205215Y72166D01*
X205173Y72116D01*
X205129Y72069D01*
X205082Y72025D01*
X205032Y71983D01*
X204980Y71945D01*
X204926Y71910D01*
X204869Y71878D01*
X204811Y71849D01*
X204751Y71825D01*
X204690Y71804D01*
X204628Y71786D01*
X204564Y71773D01*
X204500Y71763D01*
X204436Y71757D01*
X204371Y71755D01*
X203835Y71755D01*
X208392Y71755D02*
X209732Y71755D01*
X209803Y71757D01*
X209875Y71763D01*
X209945Y71772D01*
X210015Y71785D01*
X210085Y71802D01*
X210153Y71823D01*
X210220Y71847D01*
X210286Y71875D01*
X210350Y71906D01*
X210413Y71941D01*
X210473Y71979D01*
X210532Y72020D01*
X210588Y72064D01*
X210642Y72111D01*
X210693Y72160D01*
X210741Y72213D01*
X210787Y72268D01*
X210829Y72325D01*
X210869Y72385D01*
X210905Y72446D01*
X210938Y72510D01*
X210967Y72575D01*
X210993Y72641D01*
X211016Y72709D01*
X211035Y72778D01*
X211050Y72848D01*
X211061Y72918D01*
X211069Y72989D01*
X211073Y73060D01*
X211073Y73132D01*
X211069Y73203D01*
X211061Y73274D01*
X211050Y73344D01*
X211035Y73414D01*
X211016Y73483D01*
X210993Y73551D01*
X210967Y73617D01*
X210938Y73682D01*
X210905Y73746D01*
X210869Y73807D01*
X210829Y73867D01*
X210787Y73924D01*
X210741Y73979D01*
X210693Y74032D01*
X210642Y74081D01*
X210588Y74128D01*
X210532Y74172D01*
X210473Y74213D01*
X210413Y74251D01*
X210350Y74286D01*
X210286Y74317D01*
X210220Y74345D01*
X210153Y74369D01*
X210085Y74390D01*
X210015Y74407D01*
X209945Y74420D01*
X209875Y74429D01*
X209803Y74435D01*
X209732Y74437D01*
X210000Y76581D02*
X208392Y76581D01*
X210000Y76581D02*
X210065Y76579D01*
X210129Y76573D01*
X210193Y76563D01*
X210257Y76550D01*
X210319Y76532D01*
X210380Y76511D01*
X210440Y76487D01*
X210498Y76458D01*
X210555Y76426D01*
X210609Y76391D01*
X210661Y76353D01*
X210711Y76311D01*
X210758Y76267D01*
X210802Y76220D01*
X210844Y76170D01*
X210882Y76118D01*
X210917Y76064D01*
X210949Y76007D01*
X210978Y75949D01*
X211002Y75889D01*
X211023Y75828D01*
X211041Y75766D01*
X211054Y75702D01*
X211064Y75638D01*
X211070Y75574D01*
X211072Y75509D01*
X211070Y75444D01*
X211064Y75380D01*
X211054Y75316D01*
X211041Y75252D01*
X211023Y75190D01*
X211002Y75129D01*
X210978Y75069D01*
X210949Y75011D01*
X210917Y74954D01*
X210882Y74900D01*
X210844Y74848D01*
X210802Y74798D01*
X210758Y74751D01*
X210711Y74707D01*
X210661Y74665D01*
X210609Y74627D01*
X210555Y74592D01*
X210498Y74560D01*
X210440Y74531D01*
X210380Y74507D01*
X210319Y74486D01*
X210257Y74468D01*
X210193Y74455D01*
X210129Y74445D01*
X210065Y74439D01*
X210000Y74437D01*
X210000Y74436D02*
X208928Y74436D01*
X114300Y304800D02*
X114300Y360680D01*
X165100Y360680D02*
X165100Y304800D01*
X165100Y360680D02*
X114300Y360680D01*
X152400Y304800D02*
X165100Y304800D01*
X152400Y304800D02*
X127000Y304800D01*
X114300Y304800D01*
X127000Y304800D02*
X127000Y317500D01*
X152400Y317500D01*
X152400Y304800D01*
X116544Y364927D02*
X116544Y368681D01*
X116543Y364927D02*
X116541Y364862D01*
X116535Y364798D01*
X116525Y364734D01*
X116512Y364670D01*
X116494Y364608D01*
X116473Y364547D01*
X116449Y364487D01*
X116420Y364429D01*
X116388Y364372D01*
X116353Y364318D01*
X116315Y364266D01*
X116273Y364216D01*
X116229Y364169D01*
X116182Y364125D01*
X116132Y364083D01*
X116080Y364045D01*
X116026Y364010D01*
X115969Y363978D01*
X115911Y363949D01*
X115851Y363925D01*
X115790Y363904D01*
X115728Y363886D01*
X115664Y363873D01*
X115600Y363863D01*
X115536Y363857D01*
X115471Y363855D01*
X114935Y363855D01*
X119492Y363855D02*
X121100Y363855D01*
X121165Y363857D01*
X121229Y363863D01*
X121293Y363873D01*
X121357Y363886D01*
X121419Y363904D01*
X121480Y363925D01*
X121540Y363949D01*
X121598Y363978D01*
X121655Y364010D01*
X121709Y364045D01*
X121761Y364083D01*
X121811Y364125D01*
X121858Y364169D01*
X121902Y364216D01*
X121944Y364266D01*
X121982Y364318D01*
X122017Y364372D01*
X122049Y364429D01*
X122078Y364487D01*
X122102Y364547D01*
X122123Y364608D01*
X122141Y364670D01*
X122154Y364734D01*
X122164Y364798D01*
X122170Y364862D01*
X122172Y364927D01*
X122173Y364927D02*
X122173Y365464D01*
X122172Y365464D02*
X122170Y365529D01*
X122164Y365593D01*
X122154Y365657D01*
X122141Y365721D01*
X122123Y365783D01*
X122102Y365844D01*
X122078Y365904D01*
X122049Y365962D01*
X122017Y366019D01*
X121982Y366073D01*
X121944Y366125D01*
X121902Y366175D01*
X121858Y366222D01*
X121811Y366266D01*
X121761Y366308D01*
X121709Y366346D01*
X121655Y366381D01*
X121598Y366413D01*
X121540Y366442D01*
X121480Y366466D01*
X121419Y366487D01*
X121357Y366505D01*
X121293Y366518D01*
X121229Y366528D01*
X121165Y366534D01*
X121100Y366536D01*
X119492Y366536D01*
X119492Y368681D01*
X122173Y368681D01*
X50800Y360680D02*
X50800Y304800D01*
X101600Y304800D02*
X101600Y360680D01*
X50800Y360680D01*
X88900Y304800D02*
X101600Y304800D01*
X88900Y304800D02*
X63500Y304800D01*
X50800Y304800D01*
X63500Y304800D02*
X63500Y317500D01*
X88900Y317500D01*
X88900Y304800D01*
X53044Y364927D02*
X53044Y368681D01*
X53043Y364927D02*
X53041Y364862D01*
X53035Y364798D01*
X53025Y364734D01*
X53012Y364670D01*
X52994Y364608D01*
X52973Y364547D01*
X52949Y364487D01*
X52920Y364429D01*
X52888Y364372D01*
X52853Y364318D01*
X52815Y364266D01*
X52773Y364216D01*
X52729Y364169D01*
X52682Y364125D01*
X52632Y364083D01*
X52580Y364045D01*
X52526Y364010D01*
X52469Y363978D01*
X52411Y363949D01*
X52351Y363925D01*
X52290Y363904D01*
X52228Y363886D01*
X52164Y363873D01*
X52100Y363863D01*
X52036Y363857D01*
X51971Y363855D01*
X51435Y363855D01*
X55992Y366536D02*
X57600Y366536D01*
X57665Y366534D01*
X57729Y366528D01*
X57793Y366518D01*
X57857Y366505D01*
X57919Y366487D01*
X57980Y366466D01*
X58040Y366442D01*
X58098Y366413D01*
X58155Y366381D01*
X58209Y366346D01*
X58261Y366308D01*
X58311Y366266D01*
X58358Y366222D01*
X58402Y366175D01*
X58444Y366125D01*
X58482Y366073D01*
X58517Y366019D01*
X58549Y365962D01*
X58578Y365904D01*
X58602Y365844D01*
X58623Y365783D01*
X58641Y365721D01*
X58654Y365657D01*
X58664Y365593D01*
X58670Y365529D01*
X58672Y365464D01*
X58673Y365464D02*
X58673Y365196D01*
X58671Y365125D01*
X58665Y365053D01*
X58656Y364983D01*
X58643Y364913D01*
X58626Y364843D01*
X58605Y364775D01*
X58581Y364708D01*
X58553Y364642D01*
X58522Y364578D01*
X58487Y364515D01*
X58449Y364455D01*
X58408Y364396D01*
X58364Y364340D01*
X58317Y364286D01*
X58268Y364235D01*
X58215Y364187D01*
X58160Y364141D01*
X58103Y364099D01*
X58043Y364059D01*
X57982Y364023D01*
X57918Y363990D01*
X57853Y363961D01*
X57787Y363935D01*
X57719Y363912D01*
X57650Y363893D01*
X57580Y363878D01*
X57510Y363867D01*
X57439Y363859D01*
X57368Y363855D01*
X57296Y363855D01*
X57225Y363859D01*
X57154Y363867D01*
X57084Y363878D01*
X57014Y363893D01*
X56945Y363912D01*
X56877Y363935D01*
X56811Y363961D01*
X56746Y363990D01*
X56682Y364023D01*
X56621Y364059D01*
X56561Y364099D01*
X56504Y364141D01*
X56449Y364187D01*
X56396Y364235D01*
X56347Y364286D01*
X56300Y364340D01*
X56256Y364396D01*
X56215Y364455D01*
X56177Y364515D01*
X56142Y364578D01*
X56111Y364642D01*
X56083Y364708D01*
X56059Y364775D01*
X56038Y364843D01*
X56021Y364913D01*
X56008Y364983D01*
X55999Y365053D01*
X55993Y365125D01*
X55991Y365196D01*
X55992Y365196D02*
X55992Y366536D01*
X55994Y366627D01*
X56000Y366718D01*
X56009Y366808D01*
X56023Y366899D01*
X56040Y366988D01*
X56061Y367076D01*
X56086Y367164D01*
X56115Y367251D01*
X56147Y367336D01*
X56182Y367420D01*
X56222Y367502D01*
X56264Y367582D01*
X56310Y367661D01*
X56360Y367737D01*
X56412Y367811D01*
X56468Y367884D01*
X56527Y367953D01*
X56588Y368020D01*
X56653Y368085D01*
X56720Y368146D01*
X56789Y368205D01*
X56861Y368261D01*
X56936Y368313D01*
X57012Y368363D01*
X57091Y368409D01*
X57171Y368451D01*
X57253Y368491D01*
X57337Y368526D01*
X57422Y368558D01*
X57509Y368587D01*
X57596Y368612D01*
X57685Y368633D01*
X57774Y368650D01*
X57865Y368664D01*
X57955Y368673D01*
X58046Y368679D01*
X58137Y368681D01*
X177800Y360680D02*
X177800Y304800D01*
X228600Y304800D02*
X228600Y360680D01*
X177800Y360680D01*
X215900Y304800D02*
X228600Y304800D01*
X215900Y304800D02*
X190500Y304800D01*
X177800Y304800D01*
X190500Y304800D02*
X190500Y317500D01*
X215900Y317500D01*
X215900Y304800D01*
X180044Y364927D02*
X180044Y368681D01*
X180043Y364927D02*
X180041Y364862D01*
X180035Y364798D01*
X180025Y364734D01*
X180012Y364670D01*
X179994Y364608D01*
X179973Y364547D01*
X179949Y364487D01*
X179920Y364429D01*
X179888Y364372D01*
X179853Y364318D01*
X179815Y364266D01*
X179773Y364216D01*
X179729Y364169D01*
X179682Y364125D01*
X179632Y364083D01*
X179580Y364045D01*
X179526Y364010D01*
X179469Y363978D01*
X179411Y363949D01*
X179351Y363925D01*
X179290Y363904D01*
X179228Y363886D01*
X179164Y363873D01*
X179100Y363863D01*
X179036Y363857D01*
X178971Y363855D01*
X178435Y363855D01*
X182992Y368145D02*
X182992Y368681D01*
X185673Y368681D01*
X184332Y363855D01*
D11*
X128270Y245110D02*
X130810Y242570D01*
X130810Y148590D01*
X128270Y146050D01*
X128270Y245110D02*
X99060Y246380D01*
X99060Y144780D02*
X128270Y146050D01*
D12*
X124714Y150622D03*
D13*
X91440Y195580D03*
D14*
X97790Y151765D03*
D15*
X97790Y182880D03*
X97790Y208280D03*
D14*
X97790Y239395D03*
D10*
X139192Y145415D02*
X144272Y145415D01*
X139192Y145415D02*
X139081Y145417D01*
X138971Y145423D01*
X138860Y145432D01*
X138750Y145446D01*
X138641Y145463D01*
X138532Y145484D01*
X138424Y145509D01*
X138317Y145538D01*
X138211Y145570D01*
X138106Y145606D01*
X138003Y145646D01*
X137901Y145689D01*
X137800Y145736D01*
X137701Y145787D01*
X137605Y145840D01*
X137510Y145897D01*
X137417Y145958D01*
X137326Y146021D01*
X137237Y146088D01*
X137151Y146158D01*
X137068Y146231D01*
X136986Y146306D01*
X136908Y146384D01*
X136833Y146466D01*
X136760Y146549D01*
X136690Y146635D01*
X136623Y146724D01*
X136560Y146815D01*
X136499Y146908D01*
X136442Y147003D01*
X136389Y147099D01*
X136338Y147198D01*
X136291Y147299D01*
X136248Y147401D01*
X136208Y147504D01*
X136172Y147609D01*
X136140Y147715D01*
X136111Y147822D01*
X136086Y147930D01*
X136065Y148039D01*
X136048Y148148D01*
X136034Y148258D01*
X136025Y148369D01*
X136019Y148479D01*
X136017Y148590D01*
X136019Y148701D01*
X136025Y148811D01*
X136034Y148922D01*
X136048Y149032D01*
X136065Y149141D01*
X136086Y149250D01*
X136111Y149358D01*
X136140Y149465D01*
X136172Y149571D01*
X136208Y149676D01*
X136248Y149779D01*
X136291Y149881D01*
X136338Y149982D01*
X136389Y150081D01*
X136442Y150178D01*
X136499Y150272D01*
X136560Y150365D01*
X136623Y150456D01*
X136690Y150545D01*
X136760Y150631D01*
X136833Y150714D01*
X136908Y150796D01*
X136986Y150874D01*
X137068Y150949D01*
X137151Y151022D01*
X137237Y151092D01*
X137326Y151159D01*
X137417Y151222D01*
X137510Y151283D01*
X137605Y151340D01*
X137701Y151393D01*
X137800Y151444D01*
X137901Y151491D01*
X138003Y151534D01*
X138106Y151574D01*
X138211Y151610D01*
X138317Y151642D01*
X138424Y151671D01*
X138532Y151696D01*
X138641Y151717D01*
X138750Y151734D01*
X138860Y151748D01*
X138971Y151757D01*
X139081Y151763D01*
X139192Y151765D01*
X144272Y151765D01*
X144383Y151763D01*
X144493Y151757D01*
X144604Y151748D01*
X144714Y151734D01*
X144823Y151717D01*
X144932Y151696D01*
X145040Y151671D01*
X145147Y151642D01*
X145253Y151610D01*
X145358Y151574D01*
X145461Y151534D01*
X145563Y151491D01*
X145664Y151444D01*
X145763Y151393D01*
X145860Y151340D01*
X145954Y151283D01*
X146047Y151222D01*
X146138Y151159D01*
X146227Y151092D01*
X146313Y151022D01*
X146396Y150949D01*
X146478Y150874D01*
X146556Y150796D01*
X146631Y150714D01*
X146704Y150631D01*
X146774Y150545D01*
X146841Y150456D01*
X146904Y150365D01*
X146965Y150272D01*
X147022Y150177D01*
X147075Y150081D01*
X147126Y149982D01*
X147173Y149881D01*
X147216Y149779D01*
X147256Y149676D01*
X147292Y149571D01*
X147324Y149465D01*
X147353Y149358D01*
X147378Y149250D01*
X147399Y149141D01*
X147416Y149032D01*
X147430Y148922D01*
X147439Y148811D01*
X147445Y148701D01*
X147447Y148590D01*
X147445Y148479D01*
X147439Y148369D01*
X147430Y148258D01*
X147416Y148148D01*
X147399Y148039D01*
X147378Y147930D01*
X147353Y147822D01*
X147324Y147715D01*
X147292Y147609D01*
X147256Y147504D01*
X147216Y147401D01*
X147173Y147299D01*
X147126Y147198D01*
X147075Y147099D01*
X147022Y147002D01*
X146965Y146908D01*
X146904Y146815D01*
X146841Y146724D01*
X146774Y146635D01*
X146704Y146549D01*
X146631Y146466D01*
X146556Y146384D01*
X146478Y146306D01*
X146396Y146231D01*
X146313Y146158D01*
X146227Y146088D01*
X146138Y146021D01*
X146047Y145958D01*
X145954Y145897D01*
X145859Y145840D01*
X145763Y145787D01*
X145664Y145736D01*
X145563Y145689D01*
X145461Y145646D01*
X145358Y145606D01*
X145253Y145570D01*
X145147Y145538D01*
X145040Y145509D01*
X144932Y145484D01*
X144823Y145463D01*
X144714Y145446D01*
X144604Y145432D01*
X144493Y145423D01*
X144383Y145417D01*
X144272Y145415D01*
X144907Y150495D02*
X147447Y153035D01*
X138557Y156476D02*
X136017Y159651D01*
X147447Y159651D01*
X147447Y156476D02*
X147447Y162826D01*
D11*
X68580Y237490D02*
X66040Y240030D01*
X68580Y237490D02*
X68580Y143510D01*
X66040Y140970D01*
X66040Y240030D02*
X36830Y241300D01*
X36830Y139700D02*
X66040Y140970D01*
D12*
X62484Y145542D03*
D13*
X29210Y190500D03*
D14*
X35560Y146685D03*
D15*
X35560Y177800D03*
X35560Y203200D03*
D14*
X35560Y234315D03*
D10*
X76962Y140335D02*
X82042Y140335D01*
X76962Y140335D02*
X76851Y140337D01*
X76741Y140343D01*
X76630Y140352D01*
X76520Y140366D01*
X76411Y140383D01*
X76302Y140404D01*
X76194Y140429D01*
X76087Y140458D01*
X75981Y140490D01*
X75876Y140526D01*
X75773Y140566D01*
X75671Y140609D01*
X75570Y140656D01*
X75471Y140707D01*
X75375Y140760D01*
X75280Y140817D01*
X75187Y140878D01*
X75096Y140941D01*
X75007Y141008D01*
X74921Y141078D01*
X74838Y141151D01*
X74756Y141226D01*
X74678Y141304D01*
X74603Y141386D01*
X74530Y141469D01*
X74460Y141555D01*
X74393Y141644D01*
X74330Y141735D01*
X74269Y141828D01*
X74212Y141923D01*
X74159Y142019D01*
X74108Y142118D01*
X74061Y142219D01*
X74018Y142321D01*
X73978Y142424D01*
X73942Y142529D01*
X73910Y142635D01*
X73881Y142742D01*
X73856Y142850D01*
X73835Y142959D01*
X73818Y143068D01*
X73804Y143178D01*
X73795Y143289D01*
X73789Y143399D01*
X73787Y143510D01*
X73789Y143621D01*
X73795Y143731D01*
X73804Y143842D01*
X73818Y143952D01*
X73835Y144061D01*
X73856Y144170D01*
X73881Y144278D01*
X73910Y144385D01*
X73942Y144491D01*
X73978Y144596D01*
X74018Y144699D01*
X74061Y144801D01*
X74108Y144902D01*
X74159Y145001D01*
X74212Y145098D01*
X74269Y145192D01*
X74330Y145285D01*
X74393Y145376D01*
X74460Y145465D01*
X74530Y145551D01*
X74603Y145634D01*
X74678Y145716D01*
X74756Y145794D01*
X74838Y145869D01*
X74921Y145942D01*
X75007Y146012D01*
X75096Y146079D01*
X75187Y146142D01*
X75280Y146203D01*
X75375Y146260D01*
X75471Y146313D01*
X75570Y146364D01*
X75671Y146411D01*
X75773Y146454D01*
X75876Y146494D01*
X75981Y146530D01*
X76087Y146562D01*
X76194Y146591D01*
X76302Y146616D01*
X76411Y146637D01*
X76520Y146654D01*
X76630Y146668D01*
X76741Y146677D01*
X76851Y146683D01*
X76962Y146685D01*
X82042Y146685D01*
X82153Y146683D01*
X82263Y146677D01*
X82374Y146668D01*
X82484Y146654D01*
X82593Y146637D01*
X82702Y146616D01*
X82810Y146591D01*
X82917Y146562D01*
X83023Y146530D01*
X83128Y146494D01*
X83231Y146454D01*
X83333Y146411D01*
X83434Y146364D01*
X83533Y146313D01*
X83630Y146260D01*
X83724Y146203D01*
X83817Y146142D01*
X83908Y146079D01*
X83997Y146012D01*
X84083Y145942D01*
X84166Y145869D01*
X84248Y145794D01*
X84326Y145716D01*
X84401Y145634D01*
X84474Y145551D01*
X84544Y145465D01*
X84611Y145376D01*
X84674Y145285D01*
X84735Y145192D01*
X84792Y145097D01*
X84845Y145001D01*
X84896Y144902D01*
X84943Y144801D01*
X84986Y144699D01*
X85026Y144596D01*
X85062Y144491D01*
X85094Y144385D01*
X85123Y144278D01*
X85148Y144170D01*
X85169Y144061D01*
X85186Y143952D01*
X85200Y143842D01*
X85209Y143731D01*
X85215Y143621D01*
X85217Y143510D01*
X85215Y143399D01*
X85209Y143289D01*
X85200Y143178D01*
X85186Y143068D01*
X85169Y142959D01*
X85148Y142850D01*
X85123Y142742D01*
X85094Y142635D01*
X85062Y142529D01*
X85026Y142424D01*
X84986Y142321D01*
X84943Y142219D01*
X84896Y142118D01*
X84845Y142019D01*
X84792Y141922D01*
X84735Y141828D01*
X84674Y141735D01*
X84611Y141644D01*
X84544Y141555D01*
X84474Y141469D01*
X84401Y141386D01*
X84326Y141304D01*
X84248Y141226D01*
X84166Y141151D01*
X84083Y141078D01*
X83997Y141008D01*
X83908Y140941D01*
X83817Y140878D01*
X83724Y140817D01*
X83629Y140760D01*
X83533Y140707D01*
X83434Y140656D01*
X83333Y140609D01*
X83231Y140566D01*
X83128Y140526D01*
X83023Y140490D01*
X82917Y140458D01*
X82810Y140429D01*
X82702Y140404D01*
X82593Y140383D01*
X82484Y140366D01*
X82374Y140352D01*
X82263Y140343D01*
X82153Y140337D01*
X82042Y140335D01*
X82677Y145415D02*
X85217Y147955D01*
X76645Y157746D02*
X76541Y157744D01*
X76436Y157738D01*
X76332Y157729D01*
X76229Y157716D01*
X76126Y157698D01*
X76024Y157678D01*
X75922Y157653D01*
X75822Y157625D01*
X75722Y157593D01*
X75624Y157557D01*
X75527Y157518D01*
X75432Y157476D01*
X75338Y157430D01*
X75246Y157380D01*
X75156Y157328D01*
X75068Y157272D01*
X74982Y157212D01*
X74898Y157150D01*
X74817Y157085D01*
X74738Y157017D01*
X74661Y156945D01*
X74588Y156872D01*
X74516Y156795D01*
X74448Y156716D01*
X74383Y156635D01*
X74321Y156551D01*
X74261Y156465D01*
X74205Y156377D01*
X74153Y156287D01*
X74103Y156195D01*
X74057Y156101D01*
X74015Y156006D01*
X73976Y155909D01*
X73940Y155811D01*
X73908Y155711D01*
X73880Y155611D01*
X73855Y155509D01*
X73835Y155407D01*
X73817Y155304D01*
X73804Y155201D01*
X73795Y155097D01*
X73789Y154992D01*
X73787Y154888D01*
X73789Y154770D01*
X73795Y154651D01*
X73804Y154533D01*
X73817Y154416D01*
X73835Y154299D01*
X73855Y154182D01*
X73880Y154066D01*
X73908Y153951D01*
X73941Y153838D01*
X73976Y153725D01*
X74016Y153613D01*
X74058Y153503D01*
X74105Y153394D01*
X74155Y153286D01*
X74208Y153181D01*
X74265Y153077D01*
X74325Y152975D01*
X74388Y152875D01*
X74455Y152777D01*
X74524Y152681D01*
X74597Y152588D01*
X74673Y152497D01*
X74751Y152408D01*
X74833Y152322D01*
X74917Y152239D01*
X75003Y152158D01*
X75093Y152081D01*
X75184Y152006D01*
X75278Y151934D01*
X75375Y151865D01*
X75473Y151800D01*
X75574Y151737D01*
X75677Y151678D01*
X75781Y151622D01*
X75887Y151570D01*
X75995Y151521D01*
X76104Y151476D01*
X76215Y151434D01*
X76327Y151396D01*
X78867Y156793D02*
X78792Y156869D01*
X78713Y156944D01*
X78632Y157015D01*
X78548Y157084D01*
X78462Y157149D01*
X78374Y157211D01*
X78284Y157271D01*
X78192Y157327D01*
X78097Y157380D01*
X78001Y157429D01*
X77903Y157475D01*
X77804Y157518D01*
X77703Y157557D01*
X77601Y157592D01*
X77498Y157624D01*
X77394Y157652D01*
X77289Y157677D01*
X77182Y157698D01*
X77076Y157715D01*
X76969Y157728D01*
X76861Y157737D01*
X76753Y157743D01*
X76645Y157745D01*
X78867Y156793D02*
X85217Y151396D01*
X85217Y157746D01*
D11*
X193040Y240030D02*
X195580Y237490D01*
X195580Y143510D01*
X193040Y140970D01*
X193040Y240030D02*
X163830Y241300D01*
X163830Y139700D02*
X193040Y140970D01*
D12*
X189484Y145542D03*
D13*
X156210Y190500D03*
D14*
X162560Y146685D03*
D15*
X162560Y177800D03*
X162560Y203200D03*
D14*
X162560Y234315D03*
D10*
X203962Y140335D02*
X209042Y140335D01*
X203962Y140335D02*
X203851Y140337D01*
X203741Y140343D01*
X203630Y140352D01*
X203520Y140366D01*
X203411Y140383D01*
X203302Y140404D01*
X203194Y140429D01*
X203087Y140458D01*
X202981Y140490D01*
X202876Y140526D01*
X202773Y140566D01*
X202671Y140609D01*
X202570Y140656D01*
X202471Y140707D01*
X202375Y140760D01*
X202280Y140817D01*
X202187Y140878D01*
X202096Y140941D01*
X202007Y141008D01*
X201921Y141078D01*
X201838Y141151D01*
X201756Y141226D01*
X201678Y141304D01*
X201603Y141386D01*
X201530Y141469D01*
X201460Y141555D01*
X201393Y141644D01*
X201330Y141735D01*
X201269Y141828D01*
X201212Y141923D01*
X201159Y142019D01*
X201108Y142118D01*
X201061Y142219D01*
X201018Y142321D01*
X200978Y142424D01*
X200942Y142529D01*
X200910Y142635D01*
X200881Y142742D01*
X200856Y142850D01*
X200835Y142959D01*
X200818Y143068D01*
X200804Y143178D01*
X200795Y143289D01*
X200789Y143399D01*
X200787Y143510D01*
X200789Y143621D01*
X200795Y143731D01*
X200804Y143842D01*
X200818Y143952D01*
X200835Y144061D01*
X200856Y144170D01*
X200881Y144278D01*
X200910Y144385D01*
X200942Y144491D01*
X200978Y144596D01*
X201018Y144699D01*
X201061Y144801D01*
X201108Y144902D01*
X201159Y145001D01*
X201212Y145098D01*
X201269Y145192D01*
X201330Y145285D01*
X201393Y145376D01*
X201460Y145465D01*
X201530Y145551D01*
X201603Y145634D01*
X201678Y145716D01*
X201756Y145794D01*
X201838Y145869D01*
X201921Y145942D01*
X202007Y146012D01*
X202096Y146079D01*
X202187Y146142D01*
X202280Y146203D01*
X202375Y146260D01*
X202471Y146313D01*
X202570Y146364D01*
X202671Y146411D01*
X202773Y146454D01*
X202876Y146494D01*
X202981Y146530D01*
X203087Y146562D01*
X203194Y146591D01*
X203302Y146616D01*
X203411Y146637D01*
X203520Y146654D01*
X203630Y146668D01*
X203741Y146677D01*
X203851Y146683D01*
X203962Y146685D01*
X209042Y146685D01*
X209153Y146683D01*
X209263Y146677D01*
X209374Y146668D01*
X209484Y146654D01*
X209593Y146637D01*
X209702Y146616D01*
X209810Y146591D01*
X209917Y146562D01*
X210023Y146530D01*
X210128Y146494D01*
X210231Y146454D01*
X210333Y146411D01*
X210434Y146364D01*
X210533Y146313D01*
X210630Y146260D01*
X210724Y146203D01*
X210817Y146142D01*
X210908Y146079D01*
X210997Y146012D01*
X211083Y145942D01*
X211166Y145869D01*
X211248Y145794D01*
X211326Y145716D01*
X211401Y145634D01*
X211474Y145551D01*
X211544Y145465D01*
X211611Y145376D01*
X211674Y145285D01*
X211735Y145192D01*
X211792Y145097D01*
X211845Y145001D01*
X211896Y144902D01*
X211943Y144801D01*
X211986Y144699D01*
X212026Y144596D01*
X212062Y144491D01*
X212094Y144385D01*
X212123Y144278D01*
X212148Y144170D01*
X212169Y144061D01*
X212186Y143952D01*
X212200Y143842D01*
X212209Y143731D01*
X212215Y143621D01*
X212217Y143510D01*
X212215Y143399D01*
X212209Y143289D01*
X212200Y143178D01*
X212186Y143068D01*
X212169Y142959D01*
X212148Y142850D01*
X212123Y142742D01*
X212094Y142635D01*
X212062Y142529D01*
X212026Y142424D01*
X211986Y142321D01*
X211943Y142219D01*
X211896Y142118D01*
X211845Y142019D01*
X211792Y141922D01*
X211735Y141828D01*
X211674Y141735D01*
X211611Y141644D01*
X211544Y141555D01*
X211474Y141469D01*
X211401Y141386D01*
X211326Y141304D01*
X211248Y141226D01*
X211166Y141151D01*
X211083Y141078D01*
X210997Y141008D01*
X210908Y140941D01*
X210817Y140878D01*
X210724Y140817D01*
X210629Y140760D01*
X210533Y140707D01*
X210434Y140656D01*
X210333Y140609D01*
X210231Y140566D01*
X210128Y140526D01*
X210023Y140490D01*
X209917Y140458D01*
X209810Y140429D01*
X209702Y140404D01*
X209593Y140383D01*
X209484Y140366D01*
X209374Y140352D01*
X209263Y140343D01*
X209153Y140337D01*
X209042Y140335D01*
X209677Y145415D02*
X212217Y147955D01*
X212217Y151396D02*
X212217Y154571D01*
X212215Y154682D01*
X212209Y154792D01*
X212200Y154903D01*
X212186Y155013D01*
X212169Y155122D01*
X212148Y155231D01*
X212123Y155339D01*
X212094Y155446D01*
X212062Y155552D01*
X212026Y155657D01*
X211986Y155760D01*
X211943Y155862D01*
X211896Y155963D01*
X211845Y156062D01*
X211792Y156159D01*
X211735Y156253D01*
X211674Y156346D01*
X211611Y156437D01*
X211544Y156526D01*
X211474Y156612D01*
X211401Y156695D01*
X211326Y156777D01*
X211248Y156855D01*
X211166Y156930D01*
X211083Y157003D01*
X210997Y157073D01*
X210908Y157140D01*
X210817Y157203D01*
X210724Y157264D01*
X210630Y157321D01*
X210533Y157374D01*
X210434Y157425D01*
X210333Y157472D01*
X210231Y157515D01*
X210128Y157555D01*
X210023Y157591D01*
X209917Y157623D01*
X209810Y157652D01*
X209702Y157677D01*
X209593Y157698D01*
X209484Y157715D01*
X209374Y157729D01*
X209263Y157738D01*
X209153Y157744D01*
X209042Y157746D01*
X208931Y157744D01*
X208821Y157738D01*
X208710Y157729D01*
X208600Y157715D01*
X208491Y157698D01*
X208382Y157677D01*
X208274Y157652D01*
X208167Y157623D01*
X208061Y157591D01*
X207956Y157555D01*
X207853Y157515D01*
X207751Y157472D01*
X207650Y157425D01*
X207551Y157374D01*
X207455Y157321D01*
X207360Y157264D01*
X207267Y157203D01*
X207176Y157140D01*
X207087Y157073D01*
X207001Y157003D01*
X206918Y156930D01*
X206836Y156855D01*
X206758Y156777D01*
X206683Y156695D01*
X206610Y156612D01*
X206540Y156526D01*
X206473Y156437D01*
X206410Y156346D01*
X206349Y156253D01*
X206292Y156159D01*
X206239Y156062D01*
X206188Y155963D01*
X206141Y155862D01*
X206098Y155760D01*
X206058Y155657D01*
X206022Y155552D01*
X205990Y155446D01*
X205961Y155339D01*
X205936Y155231D01*
X205915Y155122D01*
X205898Y155013D01*
X205884Y154903D01*
X205875Y154792D01*
X205869Y154682D01*
X205867Y154571D01*
X200787Y155206D02*
X200787Y151396D01*
X200787Y155206D02*
X200789Y155306D01*
X200795Y155405D01*
X200805Y155505D01*
X200818Y155603D01*
X200836Y155702D01*
X200857Y155799D01*
X200882Y155895D01*
X200911Y155991D01*
X200944Y156085D01*
X200980Y156178D01*
X201020Y156269D01*
X201064Y156359D01*
X201111Y156447D01*
X201161Y156533D01*
X201215Y156617D01*
X201272Y156699D01*
X201332Y156778D01*
X201396Y156856D01*
X201462Y156930D01*
X201531Y157002D01*
X201603Y157071D01*
X201677Y157137D01*
X201755Y157201D01*
X201834Y157261D01*
X201916Y157318D01*
X202000Y157372D01*
X202086Y157422D01*
X202174Y157469D01*
X202264Y157513D01*
X202355Y157553D01*
X202448Y157589D01*
X202542Y157622D01*
X202638Y157651D01*
X202734Y157676D01*
X202831Y157697D01*
X202930Y157715D01*
X203028Y157728D01*
X203128Y157738D01*
X203227Y157744D01*
X203327Y157746D01*
X203427Y157744D01*
X203526Y157738D01*
X203626Y157728D01*
X203724Y157715D01*
X203823Y157697D01*
X203920Y157676D01*
X204016Y157651D01*
X204112Y157622D01*
X204206Y157589D01*
X204299Y157553D01*
X204390Y157513D01*
X204480Y157469D01*
X204568Y157422D01*
X204654Y157372D01*
X204738Y157318D01*
X204820Y157261D01*
X204899Y157201D01*
X204977Y157137D01*
X205051Y157071D01*
X205123Y157002D01*
X205192Y156930D01*
X205258Y156856D01*
X205322Y156778D01*
X205382Y156699D01*
X205439Y156617D01*
X205493Y156533D01*
X205543Y156447D01*
X205590Y156359D01*
X205634Y156269D01*
X205674Y156178D01*
X205710Y156085D01*
X205743Y155991D01*
X205772Y155895D01*
X205797Y155799D01*
X205818Y155702D01*
X205836Y155603D01*
X205849Y155505D01*
X205859Y155405D01*
X205865Y155306D01*
X205867Y155206D01*
X205867Y152666D01*
D11*
X139700Y274320D02*
X139702Y274420D01*
X139708Y274519D01*
X139718Y274619D01*
X139731Y274717D01*
X139749Y274816D01*
X139770Y274913D01*
X139795Y275009D01*
X139824Y275105D01*
X139857Y275199D01*
X139893Y275292D01*
X139933Y275383D01*
X139977Y275473D01*
X140024Y275561D01*
X140074Y275647D01*
X140128Y275731D01*
X140185Y275813D01*
X140245Y275892D01*
X140309Y275970D01*
X140375Y276044D01*
X140444Y276116D01*
X140516Y276185D01*
X140590Y276251D01*
X140668Y276315D01*
X140747Y276375D01*
X140829Y276432D01*
X140913Y276486D01*
X140999Y276536D01*
X141087Y276583D01*
X141177Y276627D01*
X141268Y276667D01*
X141361Y276703D01*
X141455Y276736D01*
X141551Y276765D01*
X141647Y276790D01*
X141744Y276811D01*
X141843Y276829D01*
X141941Y276842D01*
X142041Y276852D01*
X142140Y276858D01*
X142240Y276860D01*
X139700Y259080D02*
X139702Y258980D01*
X139708Y258881D01*
X139718Y258781D01*
X139731Y258683D01*
X139749Y258584D01*
X139770Y258487D01*
X139795Y258391D01*
X139824Y258295D01*
X139857Y258201D01*
X139893Y258108D01*
X139933Y258017D01*
X139977Y257927D01*
X140024Y257839D01*
X140074Y257753D01*
X140128Y257669D01*
X140185Y257587D01*
X140245Y257508D01*
X140309Y257430D01*
X140375Y257356D01*
X140444Y257284D01*
X140516Y257215D01*
X140590Y257149D01*
X140668Y257085D01*
X140747Y257025D01*
X140829Y256968D01*
X140913Y256914D01*
X140999Y256864D01*
X141087Y256817D01*
X141177Y256773D01*
X141268Y256733D01*
X141361Y256697D01*
X141455Y256664D01*
X141551Y256635D01*
X141647Y256610D01*
X141744Y256589D01*
X141843Y256571D01*
X141941Y256558D01*
X142041Y256548D01*
X142140Y256542D01*
X142240Y256540D01*
X187960Y256540D02*
X188060Y256542D01*
X188159Y256548D01*
X188259Y256558D01*
X188357Y256571D01*
X188456Y256589D01*
X188553Y256610D01*
X188649Y256635D01*
X188745Y256664D01*
X188839Y256697D01*
X188932Y256733D01*
X189023Y256773D01*
X189113Y256817D01*
X189201Y256864D01*
X189287Y256914D01*
X189371Y256968D01*
X189453Y257025D01*
X189532Y257085D01*
X189610Y257149D01*
X189684Y257215D01*
X189756Y257284D01*
X189825Y257356D01*
X189891Y257430D01*
X189955Y257508D01*
X190015Y257587D01*
X190072Y257669D01*
X190126Y257753D01*
X190176Y257839D01*
X190223Y257927D01*
X190267Y258017D01*
X190307Y258108D01*
X190343Y258201D01*
X190376Y258295D01*
X190405Y258391D01*
X190430Y258487D01*
X190451Y258584D01*
X190469Y258683D01*
X190482Y258781D01*
X190492Y258881D01*
X190498Y258980D01*
X190500Y259080D01*
X190500Y274320D02*
X190498Y274420D01*
X190492Y274519D01*
X190482Y274619D01*
X190469Y274717D01*
X190451Y274816D01*
X190430Y274913D01*
X190405Y275009D01*
X190376Y275105D01*
X190343Y275199D01*
X190307Y275292D01*
X190267Y275383D01*
X190223Y275473D01*
X190176Y275561D01*
X190126Y275647D01*
X190072Y275731D01*
X190015Y275813D01*
X189955Y275892D01*
X189891Y275970D01*
X189825Y276044D01*
X189756Y276116D01*
X189684Y276185D01*
X189610Y276251D01*
X189532Y276315D01*
X189453Y276375D01*
X189371Y276432D01*
X189287Y276486D01*
X189201Y276536D01*
X189113Y276583D01*
X189023Y276627D01*
X188932Y276667D01*
X188839Y276703D01*
X188745Y276736D01*
X188649Y276765D01*
X188553Y276790D01*
X188456Y276811D01*
X188357Y276829D01*
X188259Y276842D01*
X188159Y276852D01*
X188060Y276858D01*
X187960Y276860D01*
X139700Y274320D02*
X139700Y259080D01*
X142240Y276860D02*
X146050Y276860D01*
X147320Y275590D01*
X146050Y256540D02*
X142240Y256540D01*
X146050Y256540D02*
X147320Y257810D01*
X182880Y275590D02*
X184150Y276860D01*
X182880Y275590D02*
X147320Y275590D01*
X182880Y257810D02*
X184150Y256540D01*
X182880Y257810D02*
X147320Y257810D01*
X184150Y276860D02*
X187960Y276860D01*
X187960Y256540D02*
X184150Y256540D01*
X190500Y259080D02*
X190500Y274320D01*
D16*
X192405Y266700D03*
X137795Y266700D03*
D17*
X140208Y280162D02*
X140208Y289052D01*
X142677Y289052D01*
X142775Y289050D01*
X142873Y289044D01*
X142971Y289034D01*
X143068Y289021D01*
X143165Y289003D01*
X143261Y288982D01*
X143355Y288957D01*
X143449Y288928D01*
X143542Y288896D01*
X143633Y288859D01*
X143723Y288820D01*
X143811Y288776D01*
X143897Y288729D01*
X143982Y288679D01*
X144064Y288626D01*
X144144Y288569D01*
X144222Y288509D01*
X144297Y288446D01*
X144370Y288380D01*
X144440Y288311D01*
X144507Y288240D01*
X144572Y288166D01*
X144633Y288089D01*
X144692Y288010D01*
X144747Y287929D01*
X144799Y287846D01*
X144847Y287760D01*
X144892Y287673D01*
X144934Y287584D01*
X144972Y287494D01*
X145006Y287402D01*
X145037Y287309D01*
X145064Y287214D01*
X145087Y287119D01*
X145107Y287022D01*
X145122Y286926D01*
X145134Y286828D01*
X145142Y286730D01*
X145146Y286632D01*
X145146Y286534D01*
X145142Y286436D01*
X145134Y286338D01*
X145122Y286240D01*
X145107Y286144D01*
X145087Y286047D01*
X145064Y285952D01*
X145037Y285857D01*
X145006Y285764D01*
X144972Y285672D01*
X144934Y285582D01*
X144892Y285493D01*
X144847Y285406D01*
X144799Y285320D01*
X144747Y285237D01*
X144692Y285156D01*
X144633Y285077D01*
X144572Y285000D01*
X144507Y284926D01*
X144440Y284855D01*
X144370Y284786D01*
X144297Y284720D01*
X144222Y284657D01*
X144144Y284597D01*
X144064Y284540D01*
X143982Y284487D01*
X143897Y284437D01*
X143811Y284390D01*
X143723Y284346D01*
X143633Y284307D01*
X143542Y284270D01*
X143449Y284238D01*
X143355Y284209D01*
X143261Y284184D01*
X143165Y284163D01*
X143068Y284145D01*
X142971Y284132D01*
X142873Y284122D01*
X142775Y284116D01*
X142677Y284114D01*
X142677Y284113D02*
X140208Y284113D01*
X143171Y284113D02*
X145147Y280162D01*
X149058Y287076D02*
X151527Y289052D01*
X151527Y280162D01*
X149058Y280162D02*
X153997Y280162D01*
D11*
X78740Y302260D02*
X78640Y302258D01*
X78541Y302252D01*
X78441Y302242D01*
X78343Y302229D01*
X78244Y302211D01*
X78147Y302190D01*
X78051Y302165D01*
X77955Y302136D01*
X77861Y302103D01*
X77768Y302067D01*
X77677Y302027D01*
X77587Y301983D01*
X77499Y301936D01*
X77413Y301886D01*
X77329Y301832D01*
X77247Y301775D01*
X77168Y301715D01*
X77090Y301651D01*
X77016Y301585D01*
X76944Y301516D01*
X76875Y301444D01*
X76809Y301370D01*
X76745Y301292D01*
X76685Y301213D01*
X76628Y301131D01*
X76574Y301047D01*
X76524Y300961D01*
X76477Y300873D01*
X76433Y300783D01*
X76393Y300692D01*
X76357Y300599D01*
X76324Y300505D01*
X76295Y300409D01*
X76270Y300313D01*
X76249Y300216D01*
X76231Y300117D01*
X76218Y300019D01*
X76208Y299919D01*
X76202Y299820D01*
X76200Y299720D01*
X76200Y284480D02*
X76202Y284380D01*
X76208Y284281D01*
X76218Y284181D01*
X76231Y284083D01*
X76249Y283984D01*
X76270Y283887D01*
X76295Y283791D01*
X76324Y283695D01*
X76357Y283601D01*
X76393Y283508D01*
X76433Y283417D01*
X76477Y283327D01*
X76524Y283239D01*
X76574Y283153D01*
X76628Y283069D01*
X76685Y282987D01*
X76745Y282908D01*
X76809Y282830D01*
X76875Y282756D01*
X76944Y282684D01*
X77016Y282615D01*
X77090Y282549D01*
X77168Y282485D01*
X77247Y282425D01*
X77329Y282368D01*
X77413Y282314D01*
X77499Y282264D01*
X77587Y282217D01*
X77677Y282173D01*
X77768Y282133D01*
X77861Y282097D01*
X77955Y282064D01*
X78051Y282035D01*
X78147Y282010D01*
X78244Y281989D01*
X78343Y281971D01*
X78441Y281958D01*
X78541Y281948D01*
X78640Y281942D01*
X78740Y281940D01*
X124460Y281940D02*
X124560Y281942D01*
X124659Y281948D01*
X124759Y281958D01*
X124857Y281971D01*
X124956Y281989D01*
X125053Y282010D01*
X125149Y282035D01*
X125245Y282064D01*
X125339Y282097D01*
X125432Y282133D01*
X125523Y282173D01*
X125613Y282217D01*
X125701Y282264D01*
X125787Y282314D01*
X125871Y282368D01*
X125953Y282425D01*
X126032Y282485D01*
X126110Y282549D01*
X126184Y282615D01*
X126256Y282684D01*
X126325Y282756D01*
X126391Y282830D01*
X126455Y282908D01*
X126515Y282987D01*
X126572Y283069D01*
X126626Y283153D01*
X126676Y283239D01*
X126723Y283327D01*
X126767Y283417D01*
X126807Y283508D01*
X126843Y283601D01*
X126876Y283695D01*
X126905Y283791D01*
X126930Y283887D01*
X126951Y283984D01*
X126969Y284083D01*
X126982Y284181D01*
X126992Y284281D01*
X126998Y284380D01*
X127000Y284480D01*
X127000Y299720D02*
X126998Y299820D01*
X126992Y299919D01*
X126982Y300019D01*
X126969Y300117D01*
X126951Y300216D01*
X126930Y300313D01*
X126905Y300409D01*
X126876Y300505D01*
X126843Y300599D01*
X126807Y300692D01*
X126767Y300783D01*
X126723Y300873D01*
X126676Y300961D01*
X126626Y301047D01*
X126572Y301131D01*
X126515Y301213D01*
X126455Y301292D01*
X126391Y301370D01*
X126325Y301444D01*
X126256Y301516D01*
X126184Y301585D01*
X126110Y301651D01*
X126032Y301715D01*
X125953Y301775D01*
X125871Y301832D01*
X125787Y301886D01*
X125701Y301936D01*
X125613Y301983D01*
X125523Y302027D01*
X125432Y302067D01*
X125339Y302103D01*
X125245Y302136D01*
X125149Y302165D01*
X125053Y302190D01*
X124956Y302211D01*
X124857Y302229D01*
X124759Y302242D01*
X124659Y302252D01*
X124560Y302258D01*
X124460Y302260D01*
X76200Y299720D02*
X76200Y284480D01*
X78740Y302260D02*
X82550Y302260D01*
X83820Y300990D01*
X82550Y281940D02*
X78740Y281940D01*
X82550Y281940D02*
X83820Y283210D01*
X119380Y300990D02*
X120650Y302260D01*
X119380Y300990D02*
X83820Y300990D01*
X119380Y283210D02*
X120650Y281940D01*
X119380Y283210D02*
X83820Y283210D01*
X120650Y302260D02*
X124460Y302260D01*
X124460Y281940D02*
X120650Y281940D01*
X127000Y284480D02*
X127000Y299720D01*
D16*
X128905Y292100D03*
X74295Y292100D03*
D17*
X89408Y292862D02*
X89408Y301752D01*
X91877Y301752D01*
X91975Y301750D01*
X92073Y301744D01*
X92171Y301734D01*
X92268Y301721D01*
X92365Y301703D01*
X92461Y301682D01*
X92555Y301657D01*
X92649Y301628D01*
X92742Y301596D01*
X92833Y301559D01*
X92923Y301520D01*
X93011Y301476D01*
X93097Y301429D01*
X93182Y301379D01*
X93264Y301326D01*
X93344Y301269D01*
X93422Y301209D01*
X93497Y301146D01*
X93570Y301080D01*
X93640Y301011D01*
X93707Y300940D01*
X93772Y300866D01*
X93833Y300789D01*
X93892Y300710D01*
X93947Y300629D01*
X93999Y300546D01*
X94047Y300460D01*
X94092Y300373D01*
X94134Y300284D01*
X94172Y300194D01*
X94206Y300102D01*
X94237Y300009D01*
X94264Y299914D01*
X94287Y299819D01*
X94307Y299722D01*
X94322Y299626D01*
X94334Y299528D01*
X94342Y299430D01*
X94346Y299332D01*
X94346Y299234D01*
X94342Y299136D01*
X94334Y299038D01*
X94322Y298940D01*
X94307Y298844D01*
X94287Y298747D01*
X94264Y298652D01*
X94237Y298557D01*
X94206Y298464D01*
X94172Y298372D01*
X94134Y298282D01*
X94092Y298193D01*
X94047Y298106D01*
X93999Y298020D01*
X93947Y297937D01*
X93892Y297856D01*
X93833Y297777D01*
X93772Y297700D01*
X93707Y297626D01*
X93640Y297555D01*
X93570Y297486D01*
X93497Y297420D01*
X93422Y297357D01*
X93344Y297297D01*
X93264Y297240D01*
X93182Y297187D01*
X93097Y297137D01*
X93011Y297090D01*
X92923Y297046D01*
X92833Y297007D01*
X92742Y296970D01*
X92649Y296938D01*
X92555Y296909D01*
X92461Y296884D01*
X92365Y296863D01*
X92268Y296845D01*
X92171Y296832D01*
X92073Y296822D01*
X91975Y296816D01*
X91877Y296814D01*
X91877Y296813D02*
X89408Y296813D01*
X92371Y296813D02*
X94347Y292862D01*
X103197Y299530D02*
X103195Y299622D01*
X103189Y299714D01*
X103180Y299805D01*
X103167Y299896D01*
X103150Y299986D01*
X103129Y300076D01*
X103105Y300164D01*
X103077Y300252D01*
X103045Y300338D01*
X103010Y300423D01*
X102971Y300506D01*
X102929Y300588D01*
X102884Y300668D01*
X102835Y300746D01*
X102783Y300822D01*
X102728Y300895D01*
X102670Y300967D01*
X102610Y301036D01*
X102546Y301102D01*
X102480Y301166D01*
X102411Y301226D01*
X102339Y301284D01*
X102266Y301339D01*
X102190Y301391D01*
X102112Y301440D01*
X102032Y301485D01*
X101950Y301527D01*
X101867Y301566D01*
X101782Y301601D01*
X101696Y301633D01*
X101608Y301661D01*
X101520Y301685D01*
X101430Y301706D01*
X101340Y301723D01*
X101249Y301736D01*
X101158Y301745D01*
X101066Y301751D01*
X100974Y301753D01*
X100974Y301752D02*
X100868Y301750D01*
X100763Y301744D01*
X100658Y301734D01*
X100553Y301721D01*
X100449Y301703D01*
X100346Y301682D01*
X100243Y301657D01*
X100141Y301628D01*
X100041Y301595D01*
X99942Y301559D01*
X99844Y301519D01*
X99748Y301475D01*
X99653Y301428D01*
X99561Y301378D01*
X99470Y301324D01*
X99381Y301266D01*
X99295Y301206D01*
X99211Y301142D01*
X99129Y301076D01*
X99049Y301006D01*
X98973Y300933D01*
X98899Y300858D01*
X98828Y300780D01*
X98760Y300699D01*
X98694Y300616D01*
X98632Y300530D01*
X98574Y300443D01*
X98518Y300353D01*
X98466Y300261D01*
X98417Y300167D01*
X98372Y300072D01*
X98330Y299975D01*
X98292Y299876D01*
X98258Y299777D01*
X102456Y297801D02*
X102525Y297870D01*
X102591Y297940D01*
X102654Y298014D01*
X102713Y298090D01*
X102770Y298168D01*
X102824Y298248D01*
X102874Y298331D01*
X102921Y298415D01*
X102964Y298502D01*
X103004Y298590D01*
X103040Y298679D01*
X103073Y298770D01*
X103102Y298862D01*
X103127Y298956D01*
X103148Y299050D01*
X103166Y299145D01*
X103179Y299241D01*
X103189Y299337D01*
X103195Y299433D01*
X103197Y299530D01*
X102456Y297801D02*
X98258Y292862D01*
X103197Y292862D01*
D11*
X177800Y299720D02*
X177802Y299820D01*
X177808Y299919D01*
X177818Y300019D01*
X177831Y300117D01*
X177849Y300216D01*
X177870Y300313D01*
X177895Y300409D01*
X177924Y300505D01*
X177957Y300599D01*
X177993Y300692D01*
X178033Y300783D01*
X178077Y300873D01*
X178124Y300961D01*
X178174Y301047D01*
X178228Y301131D01*
X178285Y301213D01*
X178345Y301292D01*
X178409Y301370D01*
X178475Y301444D01*
X178544Y301516D01*
X178616Y301585D01*
X178690Y301651D01*
X178768Y301715D01*
X178847Y301775D01*
X178929Y301832D01*
X179013Y301886D01*
X179099Y301936D01*
X179187Y301983D01*
X179277Y302027D01*
X179368Y302067D01*
X179461Y302103D01*
X179555Y302136D01*
X179651Y302165D01*
X179747Y302190D01*
X179844Y302211D01*
X179943Y302229D01*
X180041Y302242D01*
X180141Y302252D01*
X180240Y302258D01*
X180340Y302260D01*
X177800Y284480D02*
X177802Y284380D01*
X177808Y284281D01*
X177818Y284181D01*
X177831Y284083D01*
X177849Y283984D01*
X177870Y283887D01*
X177895Y283791D01*
X177924Y283695D01*
X177957Y283601D01*
X177993Y283508D01*
X178033Y283417D01*
X178077Y283327D01*
X178124Y283239D01*
X178174Y283153D01*
X178228Y283069D01*
X178285Y282987D01*
X178345Y282908D01*
X178409Y282830D01*
X178475Y282756D01*
X178544Y282684D01*
X178616Y282615D01*
X178690Y282549D01*
X178768Y282485D01*
X178847Y282425D01*
X178929Y282368D01*
X179013Y282314D01*
X179099Y282264D01*
X179187Y282217D01*
X179277Y282173D01*
X179368Y282133D01*
X179461Y282097D01*
X179555Y282064D01*
X179651Y282035D01*
X179747Y282010D01*
X179844Y281989D01*
X179943Y281971D01*
X180041Y281958D01*
X180141Y281948D01*
X180240Y281942D01*
X180340Y281940D01*
X226060Y281940D02*
X226160Y281942D01*
X226259Y281948D01*
X226359Y281958D01*
X226457Y281971D01*
X226556Y281989D01*
X226653Y282010D01*
X226749Y282035D01*
X226845Y282064D01*
X226939Y282097D01*
X227032Y282133D01*
X227123Y282173D01*
X227213Y282217D01*
X227301Y282264D01*
X227387Y282314D01*
X227471Y282368D01*
X227553Y282425D01*
X227632Y282485D01*
X227710Y282549D01*
X227784Y282615D01*
X227856Y282684D01*
X227925Y282756D01*
X227991Y282830D01*
X228055Y282908D01*
X228115Y282987D01*
X228172Y283069D01*
X228226Y283153D01*
X228276Y283239D01*
X228323Y283327D01*
X228367Y283417D01*
X228407Y283508D01*
X228443Y283601D01*
X228476Y283695D01*
X228505Y283791D01*
X228530Y283887D01*
X228551Y283984D01*
X228569Y284083D01*
X228582Y284181D01*
X228592Y284281D01*
X228598Y284380D01*
X228600Y284480D01*
X228600Y299720D02*
X228598Y299820D01*
X228592Y299919D01*
X228582Y300019D01*
X228569Y300117D01*
X228551Y300216D01*
X228530Y300313D01*
X228505Y300409D01*
X228476Y300505D01*
X228443Y300599D01*
X228407Y300692D01*
X228367Y300783D01*
X228323Y300873D01*
X228276Y300961D01*
X228226Y301047D01*
X228172Y301131D01*
X228115Y301213D01*
X228055Y301292D01*
X227991Y301370D01*
X227925Y301444D01*
X227856Y301516D01*
X227784Y301585D01*
X227710Y301651D01*
X227632Y301715D01*
X227553Y301775D01*
X227471Y301832D01*
X227387Y301886D01*
X227301Y301936D01*
X227213Y301983D01*
X227123Y302027D01*
X227032Y302067D01*
X226939Y302103D01*
X226845Y302136D01*
X226749Y302165D01*
X226653Y302190D01*
X226556Y302211D01*
X226457Y302229D01*
X226359Y302242D01*
X226259Y302252D01*
X226160Y302258D01*
X226060Y302260D01*
X177800Y299720D02*
X177800Y284480D01*
X180340Y302260D02*
X184150Y302260D01*
X185420Y300990D01*
X184150Y281940D02*
X180340Y281940D01*
X184150Y281940D02*
X185420Y283210D01*
X220980Y300990D02*
X222250Y302260D01*
X220980Y300990D02*
X185420Y300990D01*
X220980Y283210D02*
X222250Y281940D01*
X220980Y283210D02*
X185420Y283210D01*
X222250Y302260D02*
X226060Y302260D01*
X226060Y281940D02*
X222250Y281940D01*
X228600Y284480D02*
X228600Y299720D01*
D16*
X230505Y292100D03*
X175895Y292100D03*
D17*
X178308Y305562D02*
X178308Y314452D01*
X180777Y314452D01*
X180875Y314450D01*
X180973Y314444D01*
X181071Y314434D01*
X181168Y314421D01*
X181265Y314403D01*
X181361Y314382D01*
X181455Y314357D01*
X181549Y314328D01*
X181642Y314296D01*
X181733Y314259D01*
X181823Y314220D01*
X181911Y314176D01*
X181997Y314129D01*
X182082Y314079D01*
X182164Y314026D01*
X182244Y313969D01*
X182322Y313909D01*
X182397Y313846D01*
X182470Y313780D01*
X182540Y313711D01*
X182607Y313640D01*
X182672Y313566D01*
X182733Y313489D01*
X182792Y313410D01*
X182847Y313329D01*
X182899Y313246D01*
X182947Y313160D01*
X182992Y313073D01*
X183034Y312984D01*
X183072Y312894D01*
X183106Y312802D01*
X183137Y312709D01*
X183164Y312614D01*
X183187Y312519D01*
X183207Y312422D01*
X183222Y312326D01*
X183234Y312228D01*
X183242Y312130D01*
X183246Y312032D01*
X183246Y311934D01*
X183242Y311836D01*
X183234Y311738D01*
X183222Y311640D01*
X183207Y311544D01*
X183187Y311447D01*
X183164Y311352D01*
X183137Y311257D01*
X183106Y311164D01*
X183072Y311072D01*
X183034Y310982D01*
X182992Y310893D01*
X182947Y310806D01*
X182899Y310720D01*
X182847Y310637D01*
X182792Y310556D01*
X182733Y310477D01*
X182672Y310400D01*
X182607Y310326D01*
X182540Y310255D01*
X182470Y310186D01*
X182397Y310120D01*
X182322Y310057D01*
X182244Y309997D01*
X182164Y309940D01*
X182082Y309887D01*
X181997Y309837D01*
X181911Y309790D01*
X181823Y309746D01*
X181733Y309707D01*
X181642Y309670D01*
X181549Y309638D01*
X181455Y309609D01*
X181361Y309584D01*
X181265Y309563D01*
X181168Y309545D01*
X181071Y309532D01*
X180973Y309522D01*
X180875Y309516D01*
X180777Y309514D01*
X180777Y309513D02*
X178308Y309513D01*
X181271Y309513D02*
X183247Y305562D01*
X187158Y305562D02*
X189627Y305562D01*
X189725Y305564D01*
X189823Y305570D01*
X189921Y305580D01*
X190018Y305593D01*
X190115Y305611D01*
X190211Y305632D01*
X190305Y305657D01*
X190399Y305686D01*
X190492Y305718D01*
X190583Y305755D01*
X190673Y305794D01*
X190761Y305838D01*
X190847Y305885D01*
X190932Y305935D01*
X191014Y305988D01*
X191094Y306045D01*
X191172Y306105D01*
X191247Y306168D01*
X191320Y306234D01*
X191390Y306303D01*
X191457Y306374D01*
X191522Y306448D01*
X191583Y306525D01*
X191642Y306604D01*
X191697Y306685D01*
X191749Y306768D01*
X191797Y306854D01*
X191842Y306941D01*
X191884Y307030D01*
X191922Y307120D01*
X191956Y307212D01*
X191987Y307305D01*
X192014Y307400D01*
X192037Y307495D01*
X192057Y307592D01*
X192072Y307688D01*
X192084Y307786D01*
X192092Y307884D01*
X192096Y307982D01*
X192096Y308080D01*
X192092Y308178D01*
X192084Y308276D01*
X192072Y308374D01*
X192057Y308470D01*
X192037Y308567D01*
X192014Y308662D01*
X191987Y308757D01*
X191956Y308850D01*
X191922Y308942D01*
X191884Y309032D01*
X191842Y309121D01*
X191797Y309208D01*
X191749Y309294D01*
X191697Y309377D01*
X191642Y309458D01*
X191583Y309537D01*
X191522Y309614D01*
X191457Y309688D01*
X191390Y309759D01*
X191320Y309828D01*
X191247Y309894D01*
X191172Y309957D01*
X191094Y310017D01*
X191014Y310074D01*
X190932Y310127D01*
X190847Y310177D01*
X190761Y310224D01*
X190673Y310268D01*
X190583Y310307D01*
X190492Y310344D01*
X190399Y310376D01*
X190305Y310405D01*
X190211Y310430D01*
X190115Y310451D01*
X190018Y310469D01*
X189921Y310482D01*
X189823Y310492D01*
X189725Y310498D01*
X189627Y310500D01*
X190121Y314452D02*
X187158Y314452D01*
X190121Y314452D02*
X190208Y314450D01*
X190296Y314444D01*
X190383Y314435D01*
X190469Y314421D01*
X190555Y314404D01*
X190639Y314383D01*
X190723Y314358D01*
X190806Y314329D01*
X190887Y314297D01*
X190967Y314262D01*
X191045Y314223D01*
X191122Y314180D01*
X191196Y314134D01*
X191268Y314085D01*
X191338Y314033D01*
X191406Y313977D01*
X191471Y313919D01*
X191534Y313858D01*
X191593Y313794D01*
X191650Y313727D01*
X191704Y313659D01*
X191755Y313587D01*
X191802Y313514D01*
X191847Y313439D01*
X191888Y313361D01*
X191925Y313282D01*
X191959Y313202D01*
X191989Y313120D01*
X192016Y313037D01*
X192039Y312952D01*
X192058Y312867D01*
X192073Y312781D01*
X192085Y312694D01*
X192093Y312607D01*
X192097Y312520D01*
X192097Y312432D01*
X192093Y312345D01*
X192085Y312258D01*
X192073Y312171D01*
X192058Y312085D01*
X192039Y312000D01*
X192016Y311915D01*
X191989Y311832D01*
X191959Y311750D01*
X191925Y311670D01*
X191888Y311591D01*
X191847Y311513D01*
X191802Y311438D01*
X191755Y311365D01*
X191704Y311293D01*
X191650Y311225D01*
X191593Y311158D01*
X191534Y311094D01*
X191471Y311033D01*
X191406Y310975D01*
X191338Y310919D01*
X191268Y310867D01*
X191196Y310818D01*
X191122Y310772D01*
X191045Y310729D01*
X190967Y310690D01*
X190887Y310655D01*
X190806Y310623D01*
X190723Y310594D01*
X190639Y310569D01*
X190555Y310548D01*
X190469Y310531D01*
X190383Y310517D01*
X190296Y310508D01*
X190208Y310502D01*
X190121Y310500D01*
X190121Y310501D02*
X188146Y310501D01*
D11*
X165100Y106680D02*
X165098Y106580D01*
X165092Y106481D01*
X165082Y106381D01*
X165069Y106283D01*
X165051Y106184D01*
X165030Y106087D01*
X165005Y105991D01*
X164976Y105895D01*
X164943Y105801D01*
X164907Y105708D01*
X164867Y105617D01*
X164823Y105527D01*
X164776Y105439D01*
X164726Y105353D01*
X164672Y105269D01*
X164615Y105187D01*
X164555Y105108D01*
X164491Y105030D01*
X164425Y104956D01*
X164356Y104884D01*
X164284Y104815D01*
X164210Y104749D01*
X164132Y104685D01*
X164053Y104625D01*
X163971Y104568D01*
X163887Y104514D01*
X163801Y104464D01*
X163713Y104417D01*
X163623Y104373D01*
X163532Y104333D01*
X163439Y104297D01*
X163345Y104264D01*
X163249Y104235D01*
X163153Y104210D01*
X163056Y104189D01*
X162957Y104171D01*
X162859Y104158D01*
X162759Y104148D01*
X162660Y104142D01*
X162560Y104140D01*
X165100Y121920D02*
X165098Y122020D01*
X165092Y122119D01*
X165082Y122219D01*
X165069Y122317D01*
X165051Y122416D01*
X165030Y122513D01*
X165005Y122609D01*
X164976Y122705D01*
X164943Y122799D01*
X164907Y122892D01*
X164867Y122983D01*
X164823Y123073D01*
X164776Y123161D01*
X164726Y123247D01*
X164672Y123331D01*
X164615Y123413D01*
X164555Y123492D01*
X164491Y123570D01*
X164425Y123644D01*
X164356Y123716D01*
X164284Y123785D01*
X164210Y123851D01*
X164132Y123915D01*
X164053Y123975D01*
X163971Y124032D01*
X163887Y124086D01*
X163801Y124136D01*
X163713Y124183D01*
X163623Y124227D01*
X163532Y124267D01*
X163439Y124303D01*
X163345Y124336D01*
X163249Y124365D01*
X163153Y124390D01*
X163056Y124411D01*
X162957Y124429D01*
X162859Y124442D01*
X162759Y124452D01*
X162660Y124458D01*
X162560Y124460D01*
X116840Y124460D02*
X116740Y124458D01*
X116641Y124452D01*
X116541Y124442D01*
X116443Y124429D01*
X116344Y124411D01*
X116247Y124390D01*
X116151Y124365D01*
X116055Y124336D01*
X115961Y124303D01*
X115868Y124267D01*
X115777Y124227D01*
X115687Y124183D01*
X115599Y124136D01*
X115513Y124086D01*
X115429Y124032D01*
X115347Y123975D01*
X115268Y123915D01*
X115190Y123851D01*
X115116Y123785D01*
X115044Y123716D01*
X114975Y123644D01*
X114909Y123570D01*
X114845Y123492D01*
X114785Y123413D01*
X114728Y123331D01*
X114674Y123247D01*
X114624Y123161D01*
X114577Y123073D01*
X114533Y122983D01*
X114493Y122892D01*
X114457Y122799D01*
X114424Y122705D01*
X114395Y122609D01*
X114370Y122513D01*
X114349Y122416D01*
X114331Y122317D01*
X114318Y122219D01*
X114308Y122119D01*
X114302Y122020D01*
X114300Y121920D01*
X114300Y106680D02*
X114302Y106580D01*
X114308Y106481D01*
X114318Y106381D01*
X114331Y106283D01*
X114349Y106184D01*
X114370Y106087D01*
X114395Y105991D01*
X114424Y105895D01*
X114457Y105801D01*
X114493Y105708D01*
X114533Y105617D01*
X114577Y105527D01*
X114624Y105439D01*
X114674Y105353D01*
X114728Y105269D01*
X114785Y105187D01*
X114845Y105108D01*
X114909Y105030D01*
X114975Y104956D01*
X115044Y104884D01*
X115116Y104815D01*
X115190Y104749D01*
X115268Y104685D01*
X115347Y104625D01*
X115429Y104568D01*
X115513Y104514D01*
X115599Y104464D01*
X115687Y104417D01*
X115777Y104373D01*
X115868Y104333D01*
X115961Y104297D01*
X116055Y104264D01*
X116151Y104235D01*
X116247Y104210D01*
X116344Y104189D01*
X116443Y104171D01*
X116541Y104158D01*
X116641Y104148D01*
X116740Y104142D01*
X116840Y104140D01*
X165100Y106680D02*
X165100Y121920D01*
X162560Y104140D02*
X158750Y104140D01*
X157480Y105410D01*
X158750Y124460D02*
X162560Y124460D01*
X158750Y124460D02*
X157480Y123190D01*
X121920Y105410D02*
X120650Y104140D01*
X121920Y105410D02*
X157480Y105410D01*
X121920Y123190D02*
X120650Y124460D01*
X121920Y123190D02*
X157480Y123190D01*
X120650Y104140D02*
X116840Y104140D01*
X116840Y124460D02*
X120650Y124460D01*
X114300Y121920D02*
X114300Y106680D01*
D16*
X112395Y114300D03*
X167005Y114300D03*
D17*
X150803Y100838D02*
X150803Y91948D01*
X150803Y100838D02*
X153273Y100838D01*
X153371Y100836D01*
X153469Y100830D01*
X153567Y100820D01*
X153664Y100807D01*
X153761Y100789D01*
X153857Y100768D01*
X153951Y100743D01*
X154045Y100714D01*
X154138Y100682D01*
X154229Y100645D01*
X154319Y100606D01*
X154407Y100562D01*
X154493Y100515D01*
X154578Y100465D01*
X154660Y100412D01*
X154740Y100355D01*
X154818Y100295D01*
X154893Y100232D01*
X154966Y100166D01*
X155036Y100097D01*
X155103Y100026D01*
X155168Y99952D01*
X155229Y99875D01*
X155288Y99796D01*
X155343Y99715D01*
X155395Y99632D01*
X155443Y99546D01*
X155488Y99459D01*
X155530Y99370D01*
X155568Y99280D01*
X155602Y99188D01*
X155633Y99095D01*
X155660Y99000D01*
X155683Y98905D01*
X155703Y98808D01*
X155718Y98712D01*
X155730Y98614D01*
X155738Y98516D01*
X155742Y98418D01*
X155742Y98320D01*
X155738Y98222D01*
X155730Y98124D01*
X155718Y98026D01*
X155703Y97930D01*
X155683Y97833D01*
X155660Y97738D01*
X155633Y97643D01*
X155602Y97550D01*
X155568Y97458D01*
X155530Y97368D01*
X155488Y97279D01*
X155443Y97192D01*
X155395Y97106D01*
X155343Y97023D01*
X155288Y96942D01*
X155229Y96863D01*
X155168Y96786D01*
X155103Y96712D01*
X155036Y96641D01*
X154966Y96572D01*
X154893Y96506D01*
X154818Y96443D01*
X154740Y96383D01*
X154660Y96326D01*
X154578Y96273D01*
X154493Y96223D01*
X154407Y96176D01*
X154319Y96132D01*
X154229Y96093D01*
X154138Y96056D01*
X154045Y96024D01*
X153951Y95995D01*
X153857Y95970D01*
X153761Y95949D01*
X153664Y95931D01*
X153567Y95918D01*
X153469Y95908D01*
X153371Y95902D01*
X153273Y95900D01*
X153273Y95899D02*
X150803Y95899D01*
X153767Y95899D02*
X155742Y91948D01*
X159653Y93924D02*
X161629Y100838D01*
X159653Y93924D02*
X164592Y93924D01*
X163110Y95899D02*
X163110Y91948D01*
D11*
X101600Y81280D02*
X101598Y81180D01*
X101592Y81081D01*
X101582Y80981D01*
X101569Y80883D01*
X101551Y80784D01*
X101530Y80687D01*
X101505Y80591D01*
X101476Y80495D01*
X101443Y80401D01*
X101407Y80308D01*
X101367Y80217D01*
X101323Y80127D01*
X101276Y80039D01*
X101226Y79953D01*
X101172Y79869D01*
X101115Y79787D01*
X101055Y79708D01*
X100991Y79630D01*
X100925Y79556D01*
X100856Y79484D01*
X100784Y79415D01*
X100710Y79349D01*
X100632Y79285D01*
X100553Y79225D01*
X100471Y79168D01*
X100387Y79114D01*
X100301Y79064D01*
X100213Y79017D01*
X100123Y78973D01*
X100032Y78933D01*
X99939Y78897D01*
X99845Y78864D01*
X99749Y78835D01*
X99653Y78810D01*
X99556Y78789D01*
X99457Y78771D01*
X99359Y78758D01*
X99259Y78748D01*
X99160Y78742D01*
X99060Y78740D01*
X101600Y96520D02*
X101598Y96620D01*
X101592Y96719D01*
X101582Y96819D01*
X101569Y96917D01*
X101551Y97016D01*
X101530Y97113D01*
X101505Y97209D01*
X101476Y97305D01*
X101443Y97399D01*
X101407Y97492D01*
X101367Y97583D01*
X101323Y97673D01*
X101276Y97761D01*
X101226Y97847D01*
X101172Y97931D01*
X101115Y98013D01*
X101055Y98092D01*
X100991Y98170D01*
X100925Y98244D01*
X100856Y98316D01*
X100784Y98385D01*
X100710Y98451D01*
X100632Y98515D01*
X100553Y98575D01*
X100471Y98632D01*
X100387Y98686D01*
X100301Y98736D01*
X100213Y98783D01*
X100123Y98827D01*
X100032Y98867D01*
X99939Y98903D01*
X99845Y98936D01*
X99749Y98965D01*
X99653Y98990D01*
X99556Y99011D01*
X99457Y99029D01*
X99359Y99042D01*
X99259Y99052D01*
X99160Y99058D01*
X99060Y99060D01*
X53340Y99060D02*
X53240Y99058D01*
X53141Y99052D01*
X53041Y99042D01*
X52943Y99029D01*
X52844Y99011D01*
X52747Y98990D01*
X52651Y98965D01*
X52555Y98936D01*
X52461Y98903D01*
X52368Y98867D01*
X52277Y98827D01*
X52187Y98783D01*
X52099Y98736D01*
X52013Y98686D01*
X51929Y98632D01*
X51847Y98575D01*
X51768Y98515D01*
X51690Y98451D01*
X51616Y98385D01*
X51544Y98316D01*
X51475Y98244D01*
X51409Y98170D01*
X51345Y98092D01*
X51285Y98013D01*
X51228Y97931D01*
X51174Y97847D01*
X51124Y97761D01*
X51077Y97673D01*
X51033Y97583D01*
X50993Y97492D01*
X50957Y97399D01*
X50924Y97305D01*
X50895Y97209D01*
X50870Y97113D01*
X50849Y97016D01*
X50831Y96917D01*
X50818Y96819D01*
X50808Y96719D01*
X50802Y96620D01*
X50800Y96520D01*
X50800Y81280D02*
X50802Y81180D01*
X50808Y81081D01*
X50818Y80981D01*
X50831Y80883D01*
X50849Y80784D01*
X50870Y80687D01*
X50895Y80591D01*
X50924Y80495D01*
X50957Y80401D01*
X50993Y80308D01*
X51033Y80217D01*
X51077Y80127D01*
X51124Y80039D01*
X51174Y79953D01*
X51228Y79869D01*
X51285Y79787D01*
X51345Y79708D01*
X51409Y79630D01*
X51475Y79556D01*
X51544Y79484D01*
X51616Y79415D01*
X51690Y79349D01*
X51768Y79285D01*
X51847Y79225D01*
X51929Y79168D01*
X52013Y79114D01*
X52099Y79064D01*
X52187Y79017D01*
X52277Y78973D01*
X52368Y78933D01*
X52461Y78897D01*
X52555Y78864D01*
X52651Y78835D01*
X52747Y78810D01*
X52844Y78789D01*
X52943Y78771D01*
X53041Y78758D01*
X53141Y78748D01*
X53240Y78742D01*
X53340Y78740D01*
X101600Y81280D02*
X101600Y96520D01*
X99060Y78740D02*
X95250Y78740D01*
X93980Y80010D01*
X95250Y99060D02*
X99060Y99060D01*
X95250Y99060D02*
X93980Y97790D01*
X58420Y80010D02*
X57150Y78740D01*
X58420Y80010D02*
X93980Y80010D01*
X58420Y97790D02*
X57150Y99060D01*
X58420Y97790D02*
X93980Y97790D01*
X57150Y78740D02*
X53340Y78740D01*
X53340Y99060D02*
X57150Y99060D01*
X50800Y96520D02*
X50800Y81280D01*
D16*
X48895Y88900D03*
X103505Y88900D03*
D17*
X87303Y75438D02*
X87303Y66548D01*
X87303Y75438D02*
X89773Y75438D01*
X89871Y75436D01*
X89969Y75430D01*
X90067Y75420D01*
X90164Y75407D01*
X90261Y75389D01*
X90357Y75368D01*
X90451Y75343D01*
X90545Y75314D01*
X90638Y75282D01*
X90729Y75245D01*
X90819Y75206D01*
X90907Y75162D01*
X90993Y75115D01*
X91078Y75065D01*
X91160Y75012D01*
X91240Y74955D01*
X91318Y74895D01*
X91393Y74832D01*
X91466Y74766D01*
X91536Y74697D01*
X91603Y74626D01*
X91668Y74552D01*
X91729Y74475D01*
X91788Y74396D01*
X91843Y74315D01*
X91895Y74232D01*
X91943Y74146D01*
X91988Y74059D01*
X92030Y73970D01*
X92068Y73880D01*
X92102Y73788D01*
X92133Y73695D01*
X92160Y73600D01*
X92183Y73505D01*
X92203Y73408D01*
X92218Y73312D01*
X92230Y73214D01*
X92238Y73116D01*
X92242Y73018D01*
X92242Y72920D01*
X92238Y72822D01*
X92230Y72724D01*
X92218Y72626D01*
X92203Y72530D01*
X92183Y72433D01*
X92160Y72338D01*
X92133Y72243D01*
X92102Y72150D01*
X92068Y72058D01*
X92030Y71968D01*
X91988Y71879D01*
X91943Y71792D01*
X91895Y71706D01*
X91843Y71623D01*
X91788Y71542D01*
X91729Y71463D01*
X91668Y71386D01*
X91603Y71312D01*
X91536Y71241D01*
X91466Y71172D01*
X91393Y71106D01*
X91318Y71043D01*
X91240Y70983D01*
X91160Y70926D01*
X91078Y70873D01*
X90993Y70823D01*
X90907Y70776D01*
X90819Y70732D01*
X90729Y70693D01*
X90638Y70656D01*
X90545Y70624D01*
X90451Y70595D01*
X90357Y70570D01*
X90261Y70549D01*
X90164Y70531D01*
X90067Y70518D01*
X89969Y70508D01*
X89871Y70502D01*
X89773Y70500D01*
X89773Y70499D02*
X87303Y70499D01*
X90267Y70499D02*
X92242Y66548D01*
X96153Y66548D02*
X99116Y66548D01*
X99205Y66550D01*
X99293Y66556D01*
X99381Y66566D01*
X99469Y66580D01*
X99556Y66598D01*
X99642Y66619D01*
X99727Y66645D01*
X99810Y66674D01*
X99893Y66707D01*
X99973Y66744D01*
X100052Y66784D01*
X100129Y66828D01*
X100205Y66875D01*
X100277Y66925D01*
X100348Y66979D01*
X100416Y67036D01*
X100482Y67096D01*
X100544Y67158D01*
X100604Y67224D01*
X100661Y67292D01*
X100715Y67363D01*
X100765Y67435D01*
X100812Y67510D01*
X100856Y67588D01*
X100896Y67667D01*
X100933Y67747D01*
X100966Y67830D01*
X100995Y67913D01*
X101021Y67998D01*
X101042Y68084D01*
X101060Y68171D01*
X101074Y68259D01*
X101084Y68347D01*
X101090Y68435D01*
X101092Y68524D01*
X101092Y69511D01*
X101090Y69597D01*
X101084Y69683D01*
X101075Y69769D01*
X101062Y69854D01*
X101045Y69939D01*
X101025Y70022D01*
X101001Y70105D01*
X100973Y70187D01*
X100942Y70267D01*
X100907Y70346D01*
X100869Y70423D01*
X100827Y70499D01*
X100783Y70573D01*
X100735Y70644D01*
X100684Y70714D01*
X100630Y70781D01*
X100573Y70846D01*
X100513Y70908D01*
X100451Y70968D01*
X100386Y71025D01*
X100319Y71079D01*
X100249Y71130D01*
X100178Y71178D01*
X100104Y71222D01*
X100028Y71264D01*
X99951Y71302D01*
X99872Y71337D01*
X99792Y71368D01*
X99710Y71396D01*
X99627Y71420D01*
X99544Y71440D01*
X99459Y71457D01*
X99374Y71470D01*
X99288Y71479D01*
X99202Y71485D01*
X99116Y71487D01*
X96153Y71487D01*
X96153Y75438D01*
X101092Y75438D01*
D11*
X213360Y78740D02*
X213460Y78742D01*
X213559Y78748D01*
X213659Y78758D01*
X213757Y78771D01*
X213856Y78789D01*
X213953Y78810D01*
X214049Y78835D01*
X214145Y78864D01*
X214239Y78897D01*
X214332Y78933D01*
X214423Y78973D01*
X214513Y79017D01*
X214601Y79064D01*
X214687Y79114D01*
X214771Y79168D01*
X214853Y79225D01*
X214932Y79285D01*
X215010Y79349D01*
X215084Y79415D01*
X215156Y79484D01*
X215225Y79556D01*
X215291Y79630D01*
X215355Y79708D01*
X215415Y79787D01*
X215472Y79869D01*
X215526Y79953D01*
X215576Y80039D01*
X215623Y80127D01*
X215667Y80217D01*
X215707Y80308D01*
X215743Y80401D01*
X215776Y80495D01*
X215805Y80591D01*
X215830Y80687D01*
X215851Y80784D01*
X215869Y80883D01*
X215882Y80981D01*
X215892Y81081D01*
X215898Y81180D01*
X215900Y81280D01*
X215900Y96520D02*
X215898Y96620D01*
X215892Y96719D01*
X215882Y96819D01*
X215869Y96917D01*
X215851Y97016D01*
X215830Y97113D01*
X215805Y97209D01*
X215776Y97305D01*
X215743Y97399D01*
X215707Y97492D01*
X215667Y97583D01*
X215623Y97673D01*
X215576Y97761D01*
X215526Y97847D01*
X215472Y97931D01*
X215415Y98013D01*
X215355Y98092D01*
X215291Y98170D01*
X215225Y98244D01*
X215156Y98316D01*
X215084Y98385D01*
X215010Y98451D01*
X214932Y98515D01*
X214853Y98575D01*
X214771Y98632D01*
X214687Y98686D01*
X214601Y98736D01*
X214513Y98783D01*
X214423Y98827D01*
X214332Y98867D01*
X214239Y98903D01*
X214145Y98936D01*
X214049Y98965D01*
X213953Y98990D01*
X213856Y99011D01*
X213757Y99029D01*
X213659Y99042D01*
X213559Y99052D01*
X213460Y99058D01*
X213360Y99060D01*
X167640Y99060D02*
X167540Y99058D01*
X167441Y99052D01*
X167341Y99042D01*
X167243Y99029D01*
X167144Y99011D01*
X167047Y98990D01*
X166951Y98965D01*
X166855Y98936D01*
X166761Y98903D01*
X166668Y98867D01*
X166577Y98827D01*
X166487Y98783D01*
X166399Y98736D01*
X166313Y98686D01*
X166229Y98632D01*
X166147Y98575D01*
X166068Y98515D01*
X165990Y98451D01*
X165916Y98385D01*
X165844Y98316D01*
X165775Y98244D01*
X165709Y98170D01*
X165645Y98092D01*
X165585Y98013D01*
X165528Y97931D01*
X165474Y97847D01*
X165424Y97761D01*
X165377Y97673D01*
X165333Y97583D01*
X165293Y97492D01*
X165257Y97399D01*
X165224Y97305D01*
X165195Y97209D01*
X165170Y97113D01*
X165149Y97016D01*
X165131Y96917D01*
X165118Y96819D01*
X165108Y96719D01*
X165102Y96620D01*
X165100Y96520D01*
X165100Y81280D02*
X165102Y81180D01*
X165108Y81081D01*
X165118Y80981D01*
X165131Y80883D01*
X165149Y80784D01*
X165170Y80687D01*
X165195Y80591D01*
X165224Y80495D01*
X165257Y80401D01*
X165293Y80308D01*
X165333Y80217D01*
X165377Y80127D01*
X165424Y80039D01*
X165474Y79953D01*
X165528Y79869D01*
X165585Y79787D01*
X165645Y79708D01*
X165709Y79630D01*
X165775Y79556D01*
X165844Y79484D01*
X165916Y79415D01*
X165990Y79349D01*
X166068Y79285D01*
X166147Y79225D01*
X166229Y79168D01*
X166313Y79114D01*
X166399Y79064D01*
X166487Y79017D01*
X166577Y78973D01*
X166668Y78933D01*
X166761Y78897D01*
X166855Y78864D01*
X166951Y78835D01*
X167047Y78810D01*
X167144Y78789D01*
X167243Y78771D01*
X167341Y78758D01*
X167441Y78748D01*
X167540Y78742D01*
X167640Y78740D01*
X215900Y81280D02*
X215900Y96520D01*
X213360Y78740D02*
X209550Y78740D01*
X208280Y80010D01*
X209550Y99060D02*
X213360Y99060D01*
X209550Y99060D02*
X208280Y97790D01*
X172720Y80010D02*
X171450Y78740D01*
X172720Y80010D02*
X208280Y80010D01*
X172720Y97790D02*
X171450Y99060D01*
X172720Y97790D02*
X208280Y97790D01*
X171450Y78740D02*
X167640Y78740D01*
X167640Y99060D02*
X171450Y99060D01*
X165100Y96520D02*
X165100Y81280D01*
D16*
X163195Y88900D03*
X217805Y88900D03*
D17*
X201603Y75438D02*
X201603Y66548D01*
X201603Y75438D02*
X204073Y75438D01*
X204171Y75436D01*
X204269Y75430D01*
X204367Y75420D01*
X204464Y75407D01*
X204561Y75389D01*
X204657Y75368D01*
X204751Y75343D01*
X204845Y75314D01*
X204938Y75282D01*
X205029Y75245D01*
X205119Y75206D01*
X205207Y75162D01*
X205293Y75115D01*
X205378Y75065D01*
X205460Y75012D01*
X205540Y74955D01*
X205618Y74895D01*
X205693Y74832D01*
X205766Y74766D01*
X205836Y74697D01*
X205903Y74626D01*
X205968Y74552D01*
X206029Y74475D01*
X206088Y74396D01*
X206143Y74315D01*
X206195Y74232D01*
X206243Y74146D01*
X206288Y74059D01*
X206330Y73970D01*
X206368Y73880D01*
X206402Y73788D01*
X206433Y73695D01*
X206460Y73600D01*
X206483Y73505D01*
X206503Y73408D01*
X206518Y73312D01*
X206530Y73214D01*
X206538Y73116D01*
X206542Y73018D01*
X206542Y72920D01*
X206538Y72822D01*
X206530Y72724D01*
X206518Y72626D01*
X206503Y72530D01*
X206483Y72433D01*
X206460Y72338D01*
X206433Y72243D01*
X206402Y72150D01*
X206368Y72058D01*
X206330Y71968D01*
X206288Y71879D01*
X206243Y71792D01*
X206195Y71706D01*
X206143Y71623D01*
X206088Y71542D01*
X206029Y71463D01*
X205968Y71386D01*
X205903Y71312D01*
X205836Y71241D01*
X205766Y71172D01*
X205693Y71106D01*
X205618Y71043D01*
X205540Y70983D01*
X205460Y70926D01*
X205378Y70873D01*
X205293Y70823D01*
X205207Y70776D01*
X205119Y70732D01*
X205029Y70693D01*
X204938Y70656D01*
X204845Y70624D01*
X204751Y70595D01*
X204657Y70570D01*
X204561Y70549D01*
X204464Y70531D01*
X204367Y70518D01*
X204269Y70508D01*
X204171Y70502D01*
X204073Y70500D01*
X204073Y70499D02*
X201603Y70499D01*
X204567Y70499D02*
X206542Y66548D01*
X210453Y71487D02*
X213416Y71487D01*
X213502Y71485D01*
X213588Y71479D01*
X213674Y71470D01*
X213759Y71457D01*
X213844Y71440D01*
X213927Y71420D01*
X214010Y71396D01*
X214092Y71368D01*
X214172Y71337D01*
X214251Y71302D01*
X214328Y71264D01*
X214404Y71222D01*
X214478Y71178D01*
X214549Y71130D01*
X214619Y71079D01*
X214686Y71025D01*
X214751Y70968D01*
X214813Y70908D01*
X214873Y70846D01*
X214930Y70781D01*
X214984Y70714D01*
X215035Y70644D01*
X215083Y70573D01*
X215127Y70499D01*
X215169Y70423D01*
X215207Y70346D01*
X215242Y70267D01*
X215273Y70187D01*
X215301Y70105D01*
X215325Y70022D01*
X215345Y69939D01*
X215362Y69854D01*
X215375Y69769D01*
X215384Y69683D01*
X215390Y69597D01*
X215392Y69511D01*
X215392Y69017D01*
X215390Y68919D01*
X215384Y68821D01*
X215374Y68723D01*
X215361Y68626D01*
X215343Y68529D01*
X215322Y68433D01*
X215297Y68339D01*
X215268Y68245D01*
X215236Y68152D01*
X215199Y68061D01*
X215160Y67971D01*
X215116Y67883D01*
X215069Y67797D01*
X215019Y67712D01*
X214966Y67630D01*
X214909Y67550D01*
X214849Y67472D01*
X214786Y67397D01*
X214720Y67324D01*
X214651Y67254D01*
X214580Y67187D01*
X214506Y67122D01*
X214429Y67061D01*
X214350Y67002D01*
X214269Y66947D01*
X214186Y66895D01*
X214100Y66847D01*
X214013Y66802D01*
X213924Y66760D01*
X213834Y66722D01*
X213742Y66688D01*
X213649Y66657D01*
X213554Y66630D01*
X213459Y66607D01*
X213362Y66587D01*
X213266Y66572D01*
X213168Y66560D01*
X213070Y66552D01*
X212972Y66548D01*
X212874Y66548D01*
X212776Y66552D01*
X212678Y66560D01*
X212580Y66572D01*
X212484Y66587D01*
X212387Y66607D01*
X212292Y66630D01*
X212197Y66657D01*
X212104Y66688D01*
X212012Y66722D01*
X211922Y66760D01*
X211833Y66802D01*
X211746Y66847D01*
X211660Y66895D01*
X211577Y66947D01*
X211496Y67002D01*
X211417Y67061D01*
X211340Y67122D01*
X211266Y67187D01*
X211195Y67254D01*
X211126Y67324D01*
X211060Y67397D01*
X210997Y67472D01*
X210937Y67550D01*
X210880Y67630D01*
X210827Y67712D01*
X210777Y67797D01*
X210730Y67883D01*
X210686Y67971D01*
X210647Y68061D01*
X210610Y68152D01*
X210578Y68245D01*
X210549Y68339D01*
X210524Y68433D01*
X210503Y68529D01*
X210485Y68626D01*
X210472Y68723D01*
X210462Y68821D01*
X210456Y68919D01*
X210454Y69017D01*
X210453Y69017D02*
X210453Y71487D01*
X210455Y71611D01*
X210461Y71735D01*
X210471Y71859D01*
X210484Y71982D01*
X210502Y72105D01*
X210523Y72227D01*
X210548Y72349D01*
X210577Y72470D01*
X210610Y72589D01*
X210646Y72708D01*
X210687Y72825D01*
X210730Y72941D01*
X210778Y73056D01*
X210829Y73169D01*
X210884Y73281D01*
X210942Y73390D01*
X211003Y73498D01*
X211068Y73604D01*
X211136Y73708D01*
X211208Y73809D01*
X211282Y73909D01*
X211360Y74005D01*
X211440Y74100D01*
X211524Y74192D01*
X211610Y74281D01*
X211699Y74367D01*
X211791Y74451D01*
X211886Y74531D01*
X211982Y74609D01*
X212082Y74683D01*
X212183Y74755D01*
X212287Y74823D01*
X212393Y74888D01*
X212501Y74949D01*
X212610Y75007D01*
X212722Y75062D01*
X212835Y75113D01*
X212950Y75161D01*
X213066Y75204D01*
X213183Y75245D01*
X213302Y75281D01*
X213421Y75314D01*
X213542Y75343D01*
X213664Y75368D01*
X213786Y75389D01*
X213909Y75407D01*
X214032Y75420D01*
X214156Y75430D01*
X214280Y75436D01*
X214404Y75438D01*
M02*
