G04 EAGLE Gerber RS-274X export*
G75*
%MOMM*%
%FSLAX34Y34*%
%LPD*%
%INSoldermask Bottom*%
%IPPOS*%
%AMOC8*
5,1,8,0,0,1.08239X$1,22.5*%
G01*
%ADD10C,3.200400*%
%ADD11R,2.082800X2.082800*%
%ADD12C,2.082800*%
%ADD13C,1.727200*%
%ADD14P,1.649562X8X22.500000*%
%ADD15P,1.649562X8X202.500000*%


D10*
X25400Y38100D03*
X292100Y38100D03*
X25400Y342900D03*
X292100Y342900D03*
D11*
X74930Y38100D03*
D12*
X102870Y38100D03*
D11*
X151130Y38100D03*
D12*
X179070Y38100D03*
D11*
X214630Y38100D03*
D12*
X242570Y38100D03*
D11*
X125730Y330200D03*
D12*
X153670Y330200D03*
D11*
X62230Y330200D03*
D12*
X90170Y330200D03*
D11*
X189230Y330200D03*
D12*
X217170Y330200D03*
D13*
X120650Y170180D02*
X105410Y170180D01*
X105410Y195580D02*
X120650Y195580D01*
X120650Y220980D02*
X105410Y220980D01*
X58420Y165100D02*
X43180Y165100D01*
X43180Y190500D02*
X58420Y190500D01*
X58420Y215900D02*
X43180Y215900D01*
X170180Y165100D02*
X185420Y165100D01*
X185420Y190500D02*
X170180Y190500D01*
X170180Y215900D02*
X185420Y215900D01*
D14*
X127000Y266700D03*
X203200Y266700D03*
X63500Y292100D03*
X139700Y292100D03*
X165100Y292100D03*
X241300Y292100D03*
D15*
X177800Y114300D03*
X101600Y114300D03*
X114300Y88900D03*
X38100Y88900D03*
X228600Y88900D03*
X152400Y88900D03*
M02*
