M48
;GenerationSoftware,Autodesk,EAGLE,9.7.0*%
;CreationDate,2024-04-15T16:25:55Z*%
FMAT,2
ICI,OFF
METRIC,TZ,000.000
T5C0.350
T4C0.813
T3C1.000
T2C1.016
T1C1.194
%
G90
M71
T1
X3810Y6390
X82550Y27980
X82550Y32980
X82550Y2580
X82550Y7580
X3810Y30520
X3810Y35520
X3810Y24090
X3810Y19090
X3810Y11390
X82550Y71080
X44410Y72390
X82550Y66080
X39410Y72390
T2
X74930Y20320
X68580Y27940
X68580Y30480
X68580Y33020
X74930Y27940
X74930Y30480
X74930Y33020
X68580Y40640
X68580Y43180
X68580Y45720
X74930Y40640
X74930Y43180
X74930Y45720
X74930Y66040
X74930Y68580
X41910Y59690
X74930Y71120
X83820Y56007
X83820Y53213
X68580Y2540
X68580Y5080
X68580Y7620
X68580Y66472
X68580Y69012
X68580Y71552
X74930Y53340
X74930Y55880
X74930Y58420
X68580Y53340
X68580Y55880
X68580Y58420
X74930Y2540
X74930Y5080
X68580Y20320
X68580Y15240
X68580Y17780
X74930Y15240
X57150Y69850
X54610Y69850
X52070Y69850
X57150Y74930
X74930Y7620
X52070Y74930
X44450Y64770
X41910Y64770
X39370Y64770
X44450Y59690
X39370Y59690
X74930Y17780
X54610Y74930
T3
X36830Y46990
X11430Y11430
X11430Y13970
X11430Y16510
X11430Y21590
X11430Y24130
X11430Y26670
X11430Y29210
X11430Y31750
X11430Y34290
X11430Y36830
X11430Y39370
X11430Y41910
X11430Y44450
X11430Y46990
X11430Y19050
X36830Y11430
X36830Y13970
X36830Y16510
X36830Y19050
X36830Y21590
X36830Y24130
X36830Y26670
X36830Y29210
X36830Y31750
X36830Y34290
X36830Y36830
X36830Y39370
X36830Y41910
X36830Y44450
T4
X63500Y27940
X63500Y38100
X63500Y45720
X55880Y48870
X63500Y48870
X58420Y5080
X55880Y5080
X55880Y2540
X58420Y21590
X55880Y21590
X55880Y19050
X58420Y11430
X55880Y11430
X55880Y8890
X58420Y29210
X55880Y29210
X55880Y26670
X58420Y36830
X55880Y36830
X55880Y34290
X58420Y44450
X55880Y44450
X55880Y41910
X44450Y16510
X52070Y16510
X44450Y26670
X52070Y26670
X44450Y34290
X52070Y34290
X44450Y40640
X52070Y40640
X80010Y20320
X80010Y12700
X44450Y10160
X52070Y3810
X44450Y3810
X78740Y38100
X78740Y45720
X81280Y38100
X81280Y45720
X63500Y1676
X63500Y9296
X55880Y15240
X63500Y15240
X52070Y10160
X63500Y17780
X79506Y51566
X79506Y59186
X63595Y59595
X63595Y51975
X63500Y62230
X63500Y69850
X58420Y53340
X55880Y53340
X55880Y55880
X58420Y63500
X55880Y63500
X55880Y60960
X63500Y25400
X63500Y35560
X52070Y48260
X44450Y48260
X52070Y54610
X44450Y54610
T5
X68885Y60350
M30