M48
;GenerationSoftware,Autodesk,EAGLE,9.4.2*%
;CreationDate,2019-07-26T18:39:20Z*%
FMAT,2
ICI,OFF
METRIC,TZ,000.000
T3C0.813
T2C1.016
T1C2.997
%
G90
M71
T1
X2540Y3810
X29210Y3810
X2540Y34290
X29210Y34290
T2
X7493Y3810
X10287Y3810
X15113Y3810
X17907Y3810
X21463Y3810
X24257Y3810
X12573Y33020
X15367Y33020
X6223Y33020
X9017Y33020
X18923Y33020
X21717Y33020
X11303Y17018
X11303Y19558
X11303Y22098
X5080Y16510
X5080Y19050
X5080Y21590
X17780Y16510
X17780Y19050
X17780Y21590
T3
X12700Y26670
X20320Y26670
X6350Y29210
X13970Y29210
X16510Y29210
X24130Y29210
X17780Y11430
X10160Y11430
X11430Y8890
X3810Y8890
X22860Y8890
X15240Y8890
M30