M48
;GenerationSoftware,Autodesk,EAGLE,9.4.2*%
;CreationDate,2019-07-26T18:25:17Z*%
FMAT,2
ICI,OFF
METRIC,TZ,000.000
T4C0.813
T3C1.016
T2C1.118
T1C3.302
%
G90
M71
T1
X54610Y3810
X2540Y82550
X54610Y82550
X2540Y3810
T2
X3810Y19050
X3810Y15240
X3810Y11430
T3
X7493Y2540
X10287Y2540
X39497Y83820
X36703Y83820
X3810Y60833
X3810Y63627
X13843Y2540
X16637Y2540
X14097Y83820
X11303Y83820
X31623Y2540
X34417Y2540
X46990Y69850
X46990Y72390
X46990Y74930
X26670Y8890
X26670Y6350
X26670Y3810
X45720Y8890
X45720Y6350
X45720Y3810
X39370Y8890
X39370Y6350
X39370Y3810
X41910Y69850
X41910Y72390
X41910Y74930
X29210Y69850
X29210Y72390
X29210Y74930
X34417Y70104
X34417Y72644
X34417Y75184
X22860Y71120
X22860Y73660
X22860Y76200
X17780Y71120
X17780Y73660
X17780Y76200
X10160Y71120
X10160Y73660
X10160Y76200
X5080Y71120
X5080Y73660
X5080Y76200
X21590Y8890
X21590Y6350
X21590Y3810
X27940Y48260
X25400Y48260
X22860Y48260
X20320Y48260
X17780Y48260
X15240Y48260
X15240Y30480
X17780Y30480
X20320Y30480
X22860Y30480
X25400Y30480
X27940Y30480
X30480Y30480
X33020Y30480
X35560Y30480
X38100Y30480
X40640Y30480
X43180Y30480
X43180Y48260
X40640Y48260
X38100Y48260
X35560Y48260
X33020Y48260
X30480Y48260
T4
X26670Y80010
X34290Y80010
X1270Y68580
X1270Y76200
X10160Y8890
X17780Y8890
X45720Y66040
X45720Y58420
X29210Y66040
X29210Y58420
X25400Y59690
X25400Y67310
X8890Y59690
X8890Y67310
X22860Y12700
X22860Y20320
X40640Y12700
X40640Y20320
X39370Y63500
X39370Y60960
X41910Y60960
X19050Y63500
X19050Y60960
X21590Y60960
X33020Y60960
X35560Y60960
X35560Y63500
X12700Y60960
X15240Y60960
X15240Y63500
X29210Y16510
X29210Y19050
X26670Y19050
X34290Y16510
X36830Y16510
X36830Y19050
X44450Y15240
X44450Y22860
X33020Y22860
X40640Y22860
X17780Y54610
X25400Y54610
X19050Y57150
X26670Y57150
X38100Y57150
X30480Y57150
X40640Y54610
X33020Y54610
M30