G04 EAGLE Gerber RS-274X export*
G75*
%MOMM*%
%FSLAX34Y34*%
%LPD*%
%INTop Copper*%
%IPPOS*%
%AMOC8*
5,1,8,0,0,1.08239X$1,22.5*%
G01*
G04 Define Apertures*
%ADD10C,1.930400*%
%ADD11R,1.879600X1.879600*%
%ADD12C,1.879600*%
%ADD13C,1.524000*%
%ADD14P,1.42962X8X112.5*%
%ADD15P,1.42962X8X202.5*%
%ADD16P,1.42962X8X22.5*%
%ADD17P,1.42962X8X292.5*%
%ADD18C,1.790700*%
%ADD19C,0.609600*%
%ADD20C,0.756400*%
G36*
X552995Y10281D02*
X552400Y10160D01*
X11684Y10160D01*
X11135Y10262D01*
X10624Y10589D01*
X10281Y11090D01*
X10160Y11684D01*
X10160Y772416D01*
X10262Y772965D01*
X10589Y773476D01*
X11090Y773819D01*
X11684Y773940D01*
X851716Y773940D01*
X852265Y773838D01*
X852776Y773511D01*
X853119Y773010D01*
X853240Y772416D01*
X853240Y576010D01*
X853142Y575472D01*
X852819Y574959D01*
X852322Y574612D01*
X851728Y574486D01*
X851133Y574602D01*
X848811Y575564D01*
X827589Y575564D01*
X825349Y574636D01*
X823634Y572921D01*
X822804Y570917D01*
X822491Y570440D01*
X821990Y570097D01*
X821396Y569976D01*
X802995Y569976D01*
X802423Y570087D01*
X801917Y570422D01*
X795785Y576555D01*
X795479Y576994D01*
X795339Y577584D01*
X795441Y578182D01*
X795768Y578693D01*
X796268Y579036D01*
X796862Y579157D01*
X800317Y579157D01*
X807757Y586596D01*
X807757Y597117D01*
X800317Y604557D01*
X798894Y604557D01*
X798322Y604668D01*
X797817Y605003D01*
X797619Y605201D01*
X797385Y605350D01*
X795833Y605918D01*
X795773Y605941D01*
X794245Y606574D01*
X793973Y606623D01*
X792320Y606553D01*
X792257Y606552D01*
X772515Y606552D01*
X771943Y606663D01*
X771437Y606998D01*
X767180Y611256D01*
X763819Y612648D01*
X693420Y612648D01*
X692871Y612750D01*
X692360Y613077D01*
X692017Y613578D01*
X691896Y614172D01*
X691896Y649480D01*
X691998Y650029D01*
X692325Y650540D01*
X692826Y650883D01*
X693420Y651004D01*
X696148Y651004D01*
X701190Y653092D01*
X702971Y654874D01*
X703454Y655199D01*
X704049Y655320D01*
X727920Y655320D01*
X728481Y655213D01*
X728989Y654882D01*
X729328Y654379D01*
X730052Y652630D01*
X733910Y648772D01*
X738952Y646684D01*
X759648Y646684D01*
X764690Y648772D01*
X768548Y652630D01*
X770688Y657798D01*
X770730Y658032D01*
X771049Y658548D01*
X771543Y658899D01*
X772136Y659029D01*
X772732Y658918D01*
X773238Y658583D01*
X775108Y656712D01*
X778469Y655320D01*
X801509Y655320D01*
X802069Y655213D01*
X802578Y654882D01*
X802917Y654379D01*
X803788Y652275D01*
X808022Y648042D01*
X813553Y645751D01*
X837447Y645751D01*
X842978Y648042D01*
X847212Y652275D01*
X849503Y657806D01*
X849503Y663794D01*
X847212Y669325D01*
X842978Y673558D01*
X837447Y675850D01*
X813553Y675850D01*
X808422Y673724D01*
X807838Y673608D01*
X784707Y673608D01*
X784135Y673719D01*
X783629Y674054D01*
X771082Y686601D01*
X770757Y687084D01*
X770636Y687679D01*
X770636Y688528D01*
X768548Y693570D01*
X764695Y697422D01*
X764379Y697883D01*
X764249Y698476D01*
X764360Y699072D01*
X764695Y699578D01*
X768548Y703430D01*
X770636Y708472D01*
X770636Y713928D01*
X768548Y718970D01*
X764690Y722828D01*
X759648Y724916D01*
X738952Y724916D01*
X733910Y722828D01*
X733905Y722822D01*
X733422Y722497D01*
X732827Y722376D01*
X729843Y722376D01*
X729271Y722487D01*
X728765Y722822D01*
X706220Y745368D01*
X702859Y746760D01*
X668741Y746760D01*
X665380Y745368D01*
X631659Y711646D01*
X631176Y711321D01*
X630581Y711200D01*
X629740Y711200D01*
X622300Y703761D01*
X622300Y693240D01*
X629740Y685800D01*
X640261Y685800D01*
X647700Y693240D01*
X647700Y701193D01*
X647811Y701765D01*
X648146Y702271D01*
X661862Y715987D01*
X662301Y716293D01*
X662891Y716432D01*
X663489Y716331D01*
X664000Y716004D01*
X664343Y715504D01*
X664464Y714909D01*
X664464Y712792D01*
X666552Y707750D01*
X670405Y703898D01*
X670721Y703437D01*
X670851Y702844D01*
X670740Y702248D01*
X670405Y701742D01*
X666552Y697890D01*
X664464Y692848D01*
X664464Y687392D01*
X666552Y682350D01*
X670405Y678498D01*
X670721Y678037D01*
X670851Y677444D01*
X670740Y676848D01*
X670405Y676342D01*
X666552Y672490D01*
X664464Y667448D01*
X664464Y661992D01*
X666552Y656950D01*
X670410Y653092D01*
X672667Y652157D01*
X673144Y651844D01*
X673487Y651344D01*
X673608Y650749D01*
X673608Y620115D01*
X673497Y619543D01*
X673162Y619037D01*
X651252Y597127D01*
X650813Y596821D01*
X650223Y596682D01*
X649625Y596783D01*
X649114Y597110D01*
X648771Y597611D01*
X648650Y598205D01*
X648650Y601210D01*
X641338Y608522D01*
X641022Y608983D01*
X640892Y609576D01*
X641003Y610172D01*
X641338Y610678D01*
X647700Y617040D01*
X647700Y627561D01*
X640261Y635000D01*
X629740Y635000D01*
X626338Y631598D01*
X625888Y631287D01*
X625296Y631152D01*
X624699Y631259D01*
X624191Y631589D01*
X623852Y632092D01*
X623448Y633068D01*
X582614Y673901D01*
X582289Y674384D01*
X582168Y674979D01*
X582168Y681519D01*
X582279Y682091D01*
X582614Y682597D01*
X583128Y683110D01*
X585216Y688152D01*
X585216Y708848D01*
X583128Y713890D01*
X582614Y714403D01*
X582289Y714886D01*
X582168Y715481D01*
X582168Y732319D01*
X582279Y732891D01*
X582614Y733397D01*
X583128Y733910D01*
X585216Y738952D01*
X585216Y759648D01*
X583128Y764690D01*
X579270Y768548D01*
X574228Y770636D01*
X568772Y770636D01*
X563730Y768548D01*
X559878Y764695D01*
X559417Y764379D01*
X558824Y764249D01*
X558228Y764360D01*
X557722Y764695D01*
X553870Y768548D01*
X548828Y770636D01*
X543372Y770636D01*
X538330Y768548D01*
X534478Y764695D01*
X534017Y764379D01*
X533424Y764249D01*
X532828Y764360D01*
X532322Y764695D01*
X528470Y768548D01*
X523428Y770636D01*
X517972Y770636D01*
X512930Y768548D01*
X509072Y764690D01*
X506984Y759648D01*
X506984Y738952D01*
X509072Y733910D01*
X512930Y730052D01*
X517972Y727964D01*
X523428Y727964D01*
X528470Y730052D01*
X532322Y733905D01*
X532783Y734221D01*
X533376Y734351D01*
X533972Y734240D01*
X534478Y733905D01*
X538330Y730052D01*
X538555Y729959D01*
X539032Y729646D01*
X539375Y729145D01*
X539496Y728551D01*
X539496Y719249D01*
X539389Y718688D01*
X539058Y718180D01*
X538555Y717841D01*
X538330Y717748D01*
X534478Y713895D01*
X534017Y713579D01*
X533424Y713449D01*
X532828Y713560D01*
X532322Y713895D01*
X528470Y717748D01*
X523428Y719836D01*
X517972Y719836D01*
X514899Y718563D01*
X514340Y718447D01*
X513744Y718559D01*
X513238Y718894D01*
X468476Y763656D01*
X465115Y765048D01*
X388325Y765048D01*
X384964Y763656D01*
X364104Y742796D01*
X362712Y739435D01*
X362712Y680933D01*
X364104Y677572D01*
X380331Y661345D01*
X380652Y660873D01*
X380778Y660280D01*
X380662Y659684D01*
X379984Y658048D01*
X379984Y637352D01*
X382072Y632310D01*
X385930Y628452D01*
X390972Y626364D01*
X396428Y626364D01*
X401470Y628452D01*
X405322Y632305D01*
X405783Y632621D01*
X406376Y632751D01*
X406972Y632640D01*
X407478Y632305D01*
X411034Y628749D01*
X411359Y628266D01*
X411480Y627671D01*
X411480Y616929D01*
X411369Y616357D01*
X411034Y615851D01*
X407478Y612295D01*
X407017Y611979D01*
X406424Y611849D01*
X405828Y611960D01*
X405322Y612295D01*
X401470Y616148D01*
X396428Y618236D01*
X390972Y618236D01*
X385930Y616148D01*
X382072Y612290D01*
X379984Y607248D01*
X379984Y586552D01*
X382072Y581510D01*
X385930Y577652D01*
X390972Y575564D01*
X396428Y575564D01*
X401470Y577652D01*
X405322Y581505D01*
X405783Y581821D01*
X406376Y581951D01*
X406972Y581840D01*
X407478Y581505D01*
X411330Y577652D01*
X416372Y575564D01*
X421828Y575564D01*
X426870Y577652D01*
X430722Y581505D01*
X431183Y581821D01*
X431776Y581951D01*
X432372Y581840D01*
X432878Y581505D01*
X436730Y577652D01*
X441772Y575564D01*
X447228Y575564D01*
X452270Y577652D01*
X456128Y581510D01*
X458216Y586552D01*
X458216Y607248D01*
X456128Y612290D01*
X454598Y613819D01*
X454273Y614302D01*
X454152Y614897D01*
X454152Y629703D01*
X454263Y630275D01*
X454598Y630781D01*
X456128Y632310D01*
X458216Y637352D01*
X458216Y658048D01*
X456128Y663090D01*
X452270Y666948D01*
X447228Y669036D01*
X441772Y669036D01*
X436730Y666948D01*
X432878Y663095D01*
X432417Y662779D01*
X431824Y662649D01*
X431228Y662760D01*
X430722Y663095D01*
X426870Y666948D01*
X421828Y669036D01*
X417423Y669036D01*
X416851Y669147D01*
X416345Y669482D01*
X405830Y679997D01*
X405505Y680480D01*
X405384Y681075D01*
X405384Y704316D01*
X405495Y704888D01*
X405830Y705394D01*
X406858Y706422D01*
X409150Y711953D01*
X409150Y735847D01*
X406858Y741378D01*
X404078Y744158D01*
X403772Y744597D01*
X403633Y745187D01*
X403734Y745785D01*
X404061Y746296D01*
X404562Y746639D01*
X405156Y746760D01*
X433044Y746760D01*
X433571Y746666D01*
X434087Y746347D01*
X434438Y745853D01*
X434568Y745260D01*
X434457Y744664D01*
X434122Y744158D01*
X431342Y741378D01*
X429051Y735847D01*
X429051Y711953D01*
X431342Y706422D01*
X435575Y702188D01*
X441106Y699897D01*
X447094Y699897D01*
X452625Y702188D01*
X456858Y706422D01*
X457864Y708849D01*
X458160Y709308D01*
X458655Y709659D01*
X459247Y709789D01*
X459844Y709678D01*
X460349Y709343D01*
X506884Y662808D01*
X510245Y661416D01*
X526075Y661416D01*
X529436Y662808D01*
X543345Y676718D01*
X543828Y677043D01*
X544423Y677164D01*
X548828Y677164D01*
X553870Y679252D01*
X557722Y683105D01*
X558183Y683421D01*
X558776Y683551D01*
X559372Y683440D01*
X559878Y683105D01*
X563434Y679549D01*
X563759Y679066D01*
X563880Y678471D01*
X563880Y668741D01*
X565272Y665380D01*
X606106Y624547D01*
X606431Y624064D01*
X606552Y623469D01*
X606552Y613877D01*
X607944Y610516D01*
X622804Y595657D01*
X623129Y595174D01*
X623250Y594579D01*
X623250Y590689D01*
X630690Y583250D01*
X633695Y583250D01*
X634222Y583156D01*
X634738Y582837D01*
X635089Y582343D01*
X635219Y581750D01*
X635108Y581154D01*
X634773Y580648D01*
X607944Y553820D01*
X606552Y550459D01*
X606552Y400517D01*
X607944Y397156D01*
X621854Y383247D01*
X622179Y382764D01*
X622300Y382169D01*
X622300Y379831D01*
X622189Y379259D01*
X621854Y378753D01*
X600163Y357062D01*
X599680Y356737D01*
X599085Y356616D01*
X568756Y356616D01*
X568229Y356710D01*
X567713Y357029D01*
X567362Y357523D01*
X567232Y358116D01*
X567343Y358712D01*
X567678Y359218D01*
X571500Y363040D01*
X571500Y373561D01*
X564061Y381000D01*
X553540Y381000D01*
X546100Y373561D01*
X546100Y370687D01*
X545989Y370115D01*
X545654Y369609D01*
X533107Y357062D01*
X532624Y356737D01*
X532029Y356616D01*
X525696Y356616D01*
X525292Y356671D01*
X524927Y356771D01*
X523781Y356628D01*
X523592Y356616D01*
X522437Y356616D01*
X522087Y356471D01*
X521693Y356367D01*
X521317Y356320D01*
X520402Y355799D01*
X519648Y355600D01*
X515440Y355600D01*
X508000Y348161D01*
X508000Y337640D01*
X515440Y330200D01*
X525961Y330200D01*
X533642Y337882D01*
X534125Y338207D01*
X534720Y338328D01*
X538267Y338328D01*
X541628Y339720D01*
X543498Y341591D01*
X543937Y341897D01*
X544527Y342036D01*
X545125Y341935D01*
X545636Y341608D01*
X545979Y341108D01*
X546100Y340513D01*
X546100Y337640D01*
X553540Y330200D01*
X564061Y330200D01*
X571742Y337882D01*
X572225Y338207D01*
X572820Y338328D01*
X605323Y338328D01*
X608684Y339720D01*
X619724Y350760D01*
X620185Y351076D01*
X620777Y351207D01*
X621374Y351095D01*
X621879Y350760D01*
X624394Y348246D01*
X624719Y347763D01*
X624840Y347168D01*
X624840Y321411D01*
X624729Y320839D01*
X624394Y320333D01*
X581875Y277814D01*
X581392Y277489D01*
X580797Y277368D01*
X566724Y277368D01*
X566152Y277479D01*
X565646Y277814D01*
X565138Y278322D01*
X564822Y278783D01*
X564692Y279376D01*
X564803Y279972D01*
X565138Y280478D01*
X571500Y286840D01*
X571500Y297361D01*
X564061Y304800D01*
X553540Y304800D01*
X550938Y302198D01*
X550455Y301873D01*
X549860Y301752D01*
X546821Y301752D01*
X543460Y300360D01*
X522947Y279846D01*
X522464Y279521D01*
X521869Y279400D01*
X515440Y279400D01*
X508000Y271961D01*
X508000Y261440D01*
X515440Y254000D01*
X525961Y254000D01*
X533400Y261440D01*
X533400Y263805D01*
X533511Y264377D01*
X533846Y264883D01*
X549874Y280910D01*
X550335Y281226D01*
X550927Y281357D01*
X551524Y281245D01*
X552029Y280910D01*
X552462Y280478D01*
X552778Y280017D01*
X552908Y279424D01*
X552797Y278828D01*
X552462Y278322D01*
X546100Y271961D01*
X546100Y261440D01*
X553540Y254000D01*
X564061Y254000D01*
X568694Y258634D01*
X569177Y258959D01*
X569772Y259080D01*
X587035Y259080D01*
X590396Y260472D01*
X641736Y311812D01*
X643128Y315173D01*
X643128Y345136D01*
X643239Y345708D01*
X643574Y346214D01*
X647700Y350340D01*
X647700Y353721D01*
X647811Y354293D01*
X648146Y354799D01*
X685585Y392238D01*
X686068Y392563D01*
X686663Y392684D01*
X696148Y392684D01*
X701190Y394772D01*
X705259Y398842D01*
X705742Y399167D01*
X706337Y399288D01*
X728763Y399288D01*
X729335Y399177D01*
X729841Y398842D01*
X733910Y394772D01*
X738952Y392684D01*
X754025Y392684D01*
X754552Y392590D01*
X755068Y392271D01*
X755419Y391777D01*
X755549Y391184D01*
X755438Y390588D01*
X755103Y390082D01*
X742056Y377036D01*
X740664Y373675D01*
X740664Y345440D01*
X740562Y344891D01*
X740235Y344380D01*
X739734Y344037D01*
X739140Y343916D01*
X738952Y343916D01*
X733910Y341828D01*
X730052Y337970D01*
X727964Y332928D01*
X727964Y327472D01*
X730052Y322430D01*
X733905Y318578D01*
X734221Y318117D01*
X734351Y317524D01*
X734240Y316928D01*
X733905Y316422D01*
X731873Y314390D01*
X731390Y314065D01*
X730795Y313944D01*
X704305Y313944D01*
X703733Y314055D01*
X703227Y314390D01*
X701195Y316422D01*
X700879Y316883D01*
X700749Y317476D01*
X700860Y318072D01*
X701195Y318578D01*
X705048Y322430D01*
X707136Y327472D01*
X707136Y332928D01*
X705048Y337970D01*
X701190Y341828D01*
X696148Y343916D01*
X675452Y343916D01*
X670410Y341828D01*
X666552Y337970D01*
X664464Y332928D01*
X664464Y330555D01*
X664353Y329983D01*
X664018Y329477D01*
X632328Y297788D01*
X630936Y294427D01*
X630936Y293624D01*
X630834Y293075D01*
X630507Y292564D01*
X630006Y292221D01*
X629823Y292183D01*
X622300Y284661D01*
X622300Y274140D01*
X624394Y272046D01*
X624719Y271563D01*
X624840Y270968D01*
X624840Y262432D01*
X624729Y261860D01*
X624394Y261354D01*
X622300Y259261D01*
X622300Y248740D01*
X629740Y241300D01*
X640261Y241300D01*
X647700Y248740D01*
X647700Y259261D01*
X643574Y263386D01*
X643249Y263869D01*
X643128Y264464D01*
X643128Y268936D01*
X643239Y269508D01*
X643574Y270014D01*
X647700Y274140D01*
X647700Y274615D01*
X647816Y275198D01*
X648128Y275951D01*
X648268Y276213D01*
X648697Y276857D01*
X648845Y277605D01*
X648932Y277893D01*
X649224Y278597D01*
X649224Y279371D01*
X649253Y279667D01*
X649403Y280426D01*
X649254Y281174D01*
X649224Y281472D01*
X649224Y288189D01*
X649335Y288761D01*
X649670Y289267D01*
X662269Y301865D01*
X662719Y302176D01*
X663310Y302311D01*
X663907Y302205D01*
X664415Y301874D01*
X664754Y301371D01*
X666552Y297030D01*
X670405Y293178D01*
X670721Y292717D01*
X670851Y292124D01*
X670740Y291528D01*
X670405Y291022D01*
X666552Y287170D01*
X664464Y282128D01*
X664464Y276672D01*
X666552Y271630D01*
X670410Y267772D01*
X672667Y266837D01*
X673144Y266524D01*
X673487Y266024D01*
X673608Y265429D01*
X673608Y236067D01*
X673497Y235495D01*
X673162Y234989D01*
X630643Y192470D01*
X630160Y192145D01*
X629565Y192024D01*
X573024Y192024D01*
X572475Y192126D01*
X571964Y192453D01*
X571621Y192954D01*
X571500Y193548D01*
X571500Y195761D01*
X565138Y202122D01*
X564822Y202583D01*
X564692Y203176D01*
X564803Y203772D01*
X565138Y204278D01*
X571500Y210640D01*
X571500Y221161D01*
X564061Y228600D01*
X553540Y228600D01*
X546100Y221161D01*
X546100Y218287D01*
X545989Y217715D01*
X545654Y217209D01*
X516504Y188060D01*
X515112Y184699D01*
X515112Y178104D01*
X515001Y177532D01*
X514666Y177026D01*
X508000Y170361D01*
X508000Y159840D01*
X515440Y152400D01*
X525961Y152400D01*
X533400Y159840D01*
X533400Y169757D01*
X533423Y170021D01*
X533577Y170896D01*
X533436Y171528D01*
X533400Y171859D01*
X533400Y178461D01*
X533511Y179033D01*
X533846Y179539D01*
X543498Y189191D01*
X543937Y189497D01*
X544527Y189636D01*
X545125Y189535D01*
X545636Y189208D01*
X545979Y188708D01*
X546100Y188113D01*
X546100Y185240D01*
X553540Y177800D01*
X558445Y177800D01*
X559017Y177689D01*
X559523Y177354D01*
X561748Y175128D01*
X565109Y173736D01*
X620776Y173736D01*
X621325Y173634D01*
X621836Y173307D01*
X622179Y172806D01*
X622217Y172623D01*
X628662Y166178D01*
X628978Y165717D01*
X629108Y165124D01*
X628997Y164528D01*
X628662Y164022D01*
X622300Y157661D01*
X622300Y147140D01*
X624394Y145046D01*
X624719Y144563D01*
X624840Y143968D01*
X624840Y101396D01*
X624729Y100824D01*
X624394Y100318D01*
X622300Y98225D01*
X622300Y87704D01*
X629740Y80264D01*
X640261Y80264D01*
X641846Y81850D01*
X642329Y82175D01*
X642924Y82296D01*
X663578Y82296D01*
X664116Y82198D01*
X664630Y81875D01*
X664977Y81378D01*
X665102Y80784D01*
X664986Y80189D01*
X664464Y78928D01*
X664464Y73472D01*
X666552Y68430D01*
X670405Y64578D01*
X670721Y64117D01*
X670851Y63524D01*
X670740Y62928D01*
X670405Y62422D01*
X666552Y58570D01*
X664464Y53528D01*
X664464Y48072D01*
X666552Y43030D01*
X670405Y39178D01*
X670721Y38717D01*
X670851Y38124D01*
X670740Y37528D01*
X670405Y37022D01*
X666552Y33170D01*
X664565Y28373D01*
X664252Y27896D01*
X663752Y27553D01*
X663157Y27432D01*
X642924Y27432D01*
X642352Y27543D01*
X641846Y27878D01*
X640261Y29464D01*
X636371Y29464D01*
X635799Y29575D01*
X635293Y29910D01*
X633068Y32136D01*
X629707Y33528D01*
X569264Y33528D01*
X568692Y33639D01*
X568186Y33974D01*
X565138Y37022D01*
X564822Y37483D01*
X564692Y38076D01*
X564803Y38672D01*
X565138Y39178D01*
X571500Y45540D01*
X571500Y56061D01*
X564061Y63500D01*
X553540Y63500D01*
X546100Y56061D01*
X546100Y53695D01*
X545989Y53123D01*
X545654Y52617D01*
X545299Y52262D01*
X544816Y51937D01*
X544221Y51816D01*
X525696Y51816D01*
X525292Y51871D01*
X524927Y51971D01*
X523781Y51828D01*
X523592Y51816D01*
X522437Y51816D01*
X522087Y51671D01*
X521693Y51567D01*
X521317Y51520D01*
X520402Y50999D01*
X519648Y50800D01*
X515440Y50800D01*
X508000Y43361D01*
X508000Y32840D01*
X515440Y25400D01*
X525961Y25400D01*
X533642Y33082D01*
X534125Y33407D01*
X534720Y33528D01*
X545288Y33528D01*
X545815Y33434D01*
X546331Y33115D01*
X546682Y32621D01*
X546812Y32028D01*
X546701Y31432D01*
X546366Y30926D01*
X546100Y30661D01*
X546100Y20140D01*
X553478Y12762D01*
X553784Y12323D01*
X553923Y11733D01*
X553822Y11135D01*
X553495Y10624D01*
X552995Y10281D01*
G37*
%LPC*%
G36*
X813553Y695751D02*
X837447Y695751D01*
X842978Y698042D01*
X847212Y702275D01*
X849503Y707806D01*
X849503Y713794D01*
X847212Y719325D01*
X842978Y723558D01*
X837447Y725850D01*
X813553Y725850D01*
X808022Y723558D01*
X803788Y719325D01*
X801497Y713794D01*
X801497Y707806D01*
X803788Y702275D01*
X808022Y698042D01*
X813553Y695751D01*
G37*
G36*
X515440Y533400D02*
X525961Y533400D01*
X533400Y540840D01*
X533400Y547757D01*
X533421Y548008D01*
X533575Y548931D01*
X533439Y549515D01*
X533400Y549859D01*
X533400Y599085D01*
X533511Y599657D01*
X533846Y600163D01*
X543498Y609815D01*
X543937Y610121D01*
X544527Y610260D01*
X545125Y610159D01*
X545636Y609832D01*
X545979Y609332D01*
X546100Y608737D01*
X546100Y604340D01*
X553540Y596900D01*
X564061Y596900D01*
X571500Y604340D01*
X571500Y614861D01*
X565138Y621222D01*
X564822Y621683D01*
X564692Y622276D01*
X564803Y622872D01*
X565138Y623378D01*
X571500Y629740D01*
X571500Y640261D01*
X564061Y647700D01*
X553540Y647700D01*
X546100Y640261D01*
X546100Y638911D01*
X545989Y638339D01*
X545654Y637833D01*
X516504Y608684D01*
X515112Y605323D01*
X515112Y559104D01*
X515001Y558532D01*
X514666Y558026D01*
X508000Y551361D01*
X508000Y540840D01*
X515440Y533400D01*
G37*
G36*
X31874Y546777D02*
X234090Y546777D01*
X234686Y546836D01*
X235274Y546953D01*
X235847Y547127D01*
X236400Y547356D01*
X236929Y547638D01*
X237426Y547971D01*
X237890Y548351D01*
X238313Y548775D01*
X238693Y549238D01*
X239026Y549736D01*
X239308Y550264D01*
X239537Y550817D01*
X239711Y551390D01*
X239828Y551978D01*
X239887Y552574D01*
X239887Y584703D01*
X239828Y585299D01*
X239711Y585886D01*
X239537Y586459D01*
X239308Y587013D01*
X239026Y587541D01*
X238693Y588039D01*
X238313Y588502D01*
X237890Y588925D01*
X237426Y589305D01*
X236929Y589638D01*
X236400Y589921D01*
X235847Y590150D01*
X235274Y590324D01*
X234686Y590440D01*
X234090Y590499D01*
X31874Y590499D01*
X31278Y590440D01*
X30690Y590324D01*
X30117Y590150D01*
X29564Y589921D01*
X29036Y589638D01*
X28538Y589305D01*
X28075Y588925D01*
X27651Y588502D01*
X27271Y588039D01*
X26938Y587541D01*
X26656Y587013D01*
X26427Y586459D01*
X26253Y585886D01*
X26136Y585299D01*
X26077Y584703D01*
X26077Y552574D01*
X26136Y551978D01*
X26253Y551390D01*
X26427Y550817D01*
X26656Y550264D01*
X26938Y549736D01*
X27271Y549238D01*
X27651Y548775D01*
X28075Y548351D01*
X28538Y547971D01*
X29036Y547638D01*
X29564Y547356D01*
X30117Y547127D01*
X30690Y546953D01*
X31278Y546836D01*
X31874Y546777D01*
G37*
G36*
X515440Y469900D02*
X525961Y469900D01*
X533400Y477340D01*
X533400Y486512D01*
X533436Y486842D01*
X533577Y487478D01*
X533423Y488349D01*
X533400Y488614D01*
X533400Y495453D01*
X533511Y496025D01*
X533846Y496531D01*
X557569Y520254D01*
X558052Y520579D01*
X558647Y520700D01*
X564061Y520700D01*
X571500Y528140D01*
X571500Y538661D01*
X565138Y545022D01*
X564822Y545483D01*
X564692Y546076D01*
X564803Y546672D01*
X565138Y547178D01*
X571500Y553540D01*
X571500Y564061D01*
X564061Y571500D01*
X553540Y571500D01*
X546100Y564061D01*
X546100Y553540D01*
X552462Y547178D01*
X552778Y546717D01*
X552908Y546124D01*
X552797Y545528D01*
X552462Y545022D01*
X546100Y538661D01*
X546100Y535279D01*
X545989Y534707D01*
X545654Y534201D01*
X516504Y505052D01*
X515112Y501691D01*
X515112Y495604D01*
X515001Y495032D01*
X514666Y494526D01*
X508000Y487861D01*
X508000Y477340D01*
X515440Y469900D01*
G37*
G36*
X439240Y25400D02*
X449761Y25400D01*
X457200Y32840D01*
X457200Y43361D01*
X454598Y45962D01*
X454273Y46445D01*
X454152Y47040D01*
X454152Y74971D01*
X452760Y78332D01*
X444793Y86298D01*
X444487Y86737D01*
X444348Y87327D01*
X444449Y87925D01*
X444776Y88436D01*
X445276Y88779D01*
X445871Y88900D01*
X449761Y88900D01*
X457200Y96340D01*
X457200Y106861D01*
X449761Y114300D01*
X449580Y114300D01*
X449031Y114402D01*
X448520Y114729D01*
X448177Y115230D01*
X448056Y115824D01*
X448056Y123739D01*
X446664Y127100D01*
X384494Y189269D01*
X384169Y189752D01*
X384048Y190347D01*
X384048Y190653D01*
X384142Y191180D01*
X384461Y191696D01*
X384955Y192047D01*
X385548Y192177D01*
X386144Y192066D01*
X386650Y191731D01*
X421540Y156840D01*
X424901Y155448D01*
X435560Y155448D01*
X436132Y155337D01*
X436638Y155002D01*
X439240Y152400D01*
X449761Y152400D01*
X457200Y159840D01*
X457200Y170361D01*
X449761Y177800D01*
X439240Y177800D01*
X435622Y174182D01*
X435139Y173857D01*
X434544Y173736D01*
X431139Y173736D01*
X430567Y173847D01*
X430061Y174182D01*
X383440Y220804D01*
X383110Y221298D01*
X381651Y224821D01*
X378949Y227522D01*
X378633Y227983D01*
X378503Y228576D01*
X378614Y229172D01*
X378949Y229678D01*
X381651Y232379D01*
X384048Y238168D01*
X384048Y244432D01*
X381651Y250221D01*
X378949Y252922D01*
X378633Y253383D01*
X378503Y253976D01*
X378614Y254572D01*
X378949Y255078D01*
X381651Y257779D01*
X384048Y263568D01*
X384048Y263805D01*
X384142Y264332D01*
X384461Y264848D01*
X384955Y265199D01*
X385548Y265329D01*
X386144Y265218D01*
X386650Y264883D01*
X391060Y260472D01*
X394421Y259080D01*
X433528Y259080D01*
X434100Y258969D01*
X434606Y258634D01*
X439240Y254000D01*
X449761Y254000D01*
X457200Y261440D01*
X457200Y271961D01*
X449761Y279400D01*
X439240Y279400D01*
X437654Y277814D01*
X437171Y277489D01*
X436576Y277368D01*
X400659Y277368D01*
X400087Y277479D01*
X399581Y277814D01*
X384494Y292901D01*
X384169Y293384D01*
X384048Y293979D01*
X384048Y295232D01*
X381651Y301021D01*
X378949Y303722D01*
X378633Y304183D01*
X378503Y304776D01*
X378614Y305372D01*
X378949Y305878D01*
X381651Y308579D01*
X384048Y314368D01*
X384048Y315621D01*
X384159Y316193D01*
X384494Y316699D01*
X399581Y331786D01*
X400064Y332111D01*
X400659Y332232D01*
X436576Y332232D01*
X437148Y332121D01*
X437654Y331786D01*
X439240Y330200D01*
X449761Y330200D01*
X457200Y337640D01*
X457200Y348161D01*
X449761Y355600D01*
X439240Y355600D01*
X434606Y350966D01*
X434123Y350641D01*
X433528Y350520D01*
X397611Y350520D01*
X397084Y350614D01*
X396568Y350933D01*
X396217Y351427D01*
X396087Y352020D01*
X396198Y352616D01*
X396533Y353122D01*
X437098Y393686D01*
X437559Y394002D01*
X438151Y394133D01*
X438748Y394021D01*
X439233Y393700D01*
X449761Y393700D01*
X457200Y401140D01*
X457200Y411661D01*
X449761Y419100D01*
X441807Y419100D01*
X441280Y419194D01*
X440764Y419513D01*
X440413Y420007D01*
X440283Y420600D01*
X440394Y421196D01*
X440729Y421702D01*
X446664Y427636D01*
X448056Y430997D01*
X448056Y468376D01*
X448158Y468925D01*
X448485Y469436D01*
X448986Y469779D01*
X449580Y469900D01*
X449761Y469900D01*
X457200Y477340D01*
X457200Y487861D01*
X449761Y495300D01*
X449196Y495300D01*
X448658Y495398D01*
X448145Y495721D01*
X447798Y496218D01*
X447673Y496812D01*
X447788Y497407D01*
X448056Y498053D01*
X448056Y531876D01*
X448158Y532425D01*
X448485Y532936D01*
X448986Y533279D01*
X449580Y533400D01*
X449761Y533400D01*
X457200Y540840D01*
X457200Y551361D01*
X449761Y558800D01*
X439240Y558800D01*
X431800Y551361D01*
X431800Y548995D01*
X431689Y548423D01*
X431354Y547917D01*
X431160Y547724D01*
X430912Y547125D01*
X430752Y546834D01*
X430380Y546303D01*
X430188Y545436D01*
X430108Y545184D01*
X429768Y544363D01*
X429768Y543715D01*
X429732Y543384D01*
X429591Y542752D01*
X429745Y541877D01*
X429768Y541613D01*
X429768Y504291D01*
X429657Y503719D01*
X429322Y503213D01*
X382392Y456284D01*
X382209Y455842D01*
X381913Y455382D01*
X381418Y455032D01*
X380825Y454901D01*
X380229Y455013D01*
X379724Y455348D01*
X378949Y456122D01*
X378633Y456583D01*
X378503Y457176D01*
X378614Y457772D01*
X378949Y458278D01*
X381651Y460979D01*
X384048Y466768D01*
X384048Y473032D01*
X381651Y478821D01*
X377221Y483251D01*
X371432Y485648D01*
X365168Y485648D01*
X359379Y483251D01*
X354950Y478821D01*
X352552Y473032D01*
X352552Y466768D01*
X354950Y460979D01*
X357651Y458278D01*
X357967Y457817D01*
X358098Y457224D01*
X357986Y456628D01*
X357651Y456122D01*
X354950Y453421D01*
X352552Y447632D01*
X352552Y441368D01*
X354950Y435579D01*
X357651Y432878D01*
X357967Y432417D01*
X358098Y431824D01*
X357986Y431228D01*
X357651Y430722D01*
X354950Y428021D01*
X352552Y422232D01*
X352552Y415968D01*
X354950Y410179D01*
X357651Y407478D01*
X357967Y407017D01*
X358098Y406424D01*
X357986Y405828D01*
X357651Y405322D01*
X354950Y402621D01*
X352552Y396832D01*
X352552Y390568D01*
X354950Y384779D01*
X357651Y382078D01*
X357967Y381617D01*
X358098Y381024D01*
X357986Y380428D01*
X357651Y379922D01*
X354950Y377221D01*
X352552Y371432D01*
X352552Y365168D01*
X354950Y359379D01*
X357651Y356678D01*
X357967Y356217D01*
X358098Y355624D01*
X357986Y355028D01*
X357651Y354522D01*
X354950Y351821D01*
X352552Y346032D01*
X352552Y339768D01*
X354950Y333979D01*
X357651Y331278D01*
X357967Y330817D01*
X358098Y330224D01*
X357986Y329628D01*
X357651Y329122D01*
X354950Y326421D01*
X352552Y320632D01*
X352552Y314368D01*
X354950Y308579D01*
X357651Y305878D01*
X357967Y305417D01*
X358098Y304824D01*
X357986Y304228D01*
X357651Y303722D01*
X354950Y301021D01*
X352552Y295232D01*
X352552Y288968D01*
X354950Y283179D01*
X357651Y280478D01*
X357967Y280017D01*
X358098Y279424D01*
X357986Y278828D01*
X357651Y278322D01*
X354950Y275621D01*
X352552Y269832D01*
X352552Y263568D01*
X354950Y257779D01*
X357651Y255078D01*
X357967Y254617D01*
X358098Y254024D01*
X357986Y253428D01*
X357651Y252922D01*
X354950Y250221D01*
X352552Y244432D01*
X352552Y238168D01*
X354950Y232379D01*
X357651Y229678D01*
X357967Y229217D01*
X358098Y228624D01*
X357986Y228028D01*
X357651Y227522D01*
X354950Y224821D01*
X352552Y219032D01*
X352552Y212768D01*
X354950Y206979D01*
X357651Y204278D01*
X357967Y203817D01*
X358098Y203224D01*
X357986Y202628D01*
X357651Y202122D01*
X354950Y199421D01*
X352552Y193632D01*
X352552Y187368D01*
X354950Y181579D01*
X357651Y178878D01*
X357967Y178417D01*
X358098Y177824D01*
X357986Y177228D01*
X357651Y176722D01*
X354950Y174021D01*
X352552Y168232D01*
X352552Y161968D01*
X354950Y156179D01*
X357651Y153478D01*
X357967Y153017D01*
X358098Y152424D01*
X357986Y151828D01*
X357651Y151322D01*
X354950Y148621D01*
X352552Y142832D01*
X352552Y136568D01*
X354950Y130779D01*
X357651Y128078D01*
X357967Y127617D01*
X358098Y127024D01*
X357986Y126428D01*
X357651Y125922D01*
X354950Y123221D01*
X352552Y117432D01*
X352552Y111168D01*
X354950Y105379D01*
X359379Y100950D01*
X365168Y98552D01*
X371432Y98552D01*
X377221Y100950D01*
X381651Y105379D01*
X384048Y111168D01*
X384048Y117501D01*
X384142Y118028D01*
X384461Y118544D01*
X384955Y118895D01*
X385548Y119025D01*
X386144Y118914D01*
X386650Y118579D01*
X435418Y69811D01*
X435743Y69328D01*
X435864Y68733D01*
X435864Y48056D01*
X435753Y47484D01*
X435418Y46978D01*
X431800Y43361D01*
X431800Y32840D01*
X439240Y25400D01*
G37*
G36*
X553540Y475996D02*
X564061Y475996D01*
X571500Y483436D01*
X571500Y493957D01*
X564061Y501396D01*
X553540Y501396D01*
X546100Y493957D01*
X546100Y483436D01*
X553540Y475996D01*
G37*
G36*
X26153Y48851D02*
X50047Y48851D01*
X55578Y51142D01*
X59812Y55375D01*
X62103Y60906D01*
X62103Y66894D01*
X59812Y72425D01*
X55374Y76863D01*
X55058Y77324D01*
X54928Y77916D01*
X55039Y78513D01*
X55374Y79018D01*
X74808Y98452D01*
X76200Y101813D01*
X76200Y132741D01*
X76294Y133268D01*
X76613Y133784D01*
X77107Y134135D01*
X77700Y134265D01*
X78296Y134154D01*
X78802Y133819D01*
X98106Y114515D01*
X98431Y114032D01*
X98552Y113437D01*
X98552Y111168D01*
X100950Y105379D01*
X105379Y100950D01*
X111168Y98552D01*
X117432Y98552D01*
X123221Y100950D01*
X127651Y105379D01*
X130048Y111168D01*
X130048Y117432D01*
X127651Y123221D01*
X124949Y125922D01*
X124633Y126383D01*
X124503Y126976D01*
X124614Y127572D01*
X124949Y128078D01*
X127651Y130779D01*
X130048Y136568D01*
X130048Y142832D01*
X127651Y148621D01*
X124949Y151322D01*
X124633Y151783D01*
X124503Y152376D01*
X124614Y152972D01*
X124949Y153478D01*
X127651Y156179D01*
X130048Y161968D01*
X130048Y168232D01*
X127651Y174021D01*
X124949Y176722D01*
X124633Y177183D01*
X124503Y177776D01*
X124614Y178372D01*
X124949Y178878D01*
X127651Y181579D01*
X130048Y187368D01*
X130048Y193632D01*
X127651Y199421D01*
X124949Y202122D01*
X124633Y202583D01*
X124503Y203176D01*
X124614Y203772D01*
X124949Y204278D01*
X127651Y206979D01*
X130048Y212768D01*
X130048Y219032D01*
X127651Y224821D01*
X124949Y227522D01*
X124633Y227983D01*
X124503Y228576D01*
X124614Y229172D01*
X124949Y229678D01*
X127651Y232379D01*
X130048Y238168D01*
X130048Y244432D01*
X127651Y250221D01*
X124949Y252922D01*
X124633Y253383D01*
X124503Y253976D01*
X124614Y254572D01*
X124949Y255078D01*
X127651Y257779D01*
X130048Y263568D01*
X130048Y269832D01*
X127651Y275621D01*
X124949Y278322D01*
X124633Y278783D01*
X124503Y279376D01*
X124614Y279972D01*
X124949Y280478D01*
X127651Y283179D01*
X130048Y288968D01*
X130048Y295232D01*
X127651Y301021D01*
X124949Y303722D01*
X124633Y304183D01*
X124503Y304776D01*
X124614Y305372D01*
X124949Y305878D01*
X127651Y308579D01*
X130048Y314368D01*
X130048Y320632D01*
X127651Y326421D01*
X124949Y329122D01*
X124633Y329583D01*
X124503Y330176D01*
X124614Y330772D01*
X124949Y331278D01*
X127651Y333979D01*
X130048Y339768D01*
X130048Y346032D01*
X127651Y351821D01*
X124949Y354522D01*
X124633Y354983D01*
X124503Y355576D01*
X124614Y356172D01*
X124949Y356678D01*
X127651Y359379D01*
X130048Y365168D01*
X130048Y371432D01*
X127651Y377221D01*
X124949Y379922D01*
X124633Y380383D01*
X124503Y380976D01*
X124614Y381572D01*
X124949Y382078D01*
X127651Y384779D01*
X130048Y390568D01*
X130048Y396832D01*
X127651Y402621D01*
X124949Y405322D01*
X124633Y405783D01*
X124503Y406376D01*
X124614Y406972D01*
X124949Y407478D01*
X127651Y410179D01*
X130048Y415968D01*
X130048Y422232D01*
X127651Y428021D01*
X124949Y430722D01*
X124633Y431183D01*
X124503Y431776D01*
X124614Y432372D01*
X124949Y432878D01*
X127651Y435579D01*
X130048Y441368D01*
X130048Y447632D01*
X127651Y453421D01*
X124949Y456122D01*
X124633Y456583D01*
X124503Y457176D01*
X124614Y457772D01*
X124949Y458278D01*
X127651Y460979D01*
X130048Y466768D01*
X130048Y473032D01*
X127651Y478821D01*
X123221Y483251D01*
X117432Y485648D01*
X111168Y485648D01*
X105379Y483251D01*
X100950Y478821D01*
X98552Y473032D01*
X98552Y466768D01*
X100950Y460979D01*
X103651Y458278D01*
X103967Y457817D01*
X104098Y457224D01*
X103986Y456628D01*
X103651Y456122D01*
X100950Y453421D01*
X98552Y447632D01*
X98552Y441368D01*
X100950Y435579D01*
X103651Y432878D01*
X103967Y432417D01*
X104098Y431824D01*
X103986Y431228D01*
X103651Y430722D01*
X100950Y428021D01*
X98552Y422232D01*
X98552Y415968D01*
X100950Y410179D01*
X103651Y407478D01*
X103967Y407017D01*
X104098Y406424D01*
X103986Y405828D01*
X103651Y405322D01*
X100950Y402621D01*
X98552Y396832D01*
X98552Y390568D01*
X100950Y384779D01*
X103651Y382078D01*
X103967Y381617D01*
X104098Y381024D01*
X103986Y380428D01*
X103651Y379922D01*
X100950Y377221D01*
X98552Y371432D01*
X98552Y365168D01*
X100950Y359379D01*
X103651Y356678D01*
X103967Y356217D01*
X104098Y355624D01*
X103986Y355028D01*
X103651Y354522D01*
X100950Y351821D01*
X98552Y346032D01*
X98552Y339768D01*
X100950Y333979D01*
X103651Y331278D01*
X103967Y330817D01*
X104098Y330224D01*
X103986Y329628D01*
X103651Y329122D01*
X100950Y326421D01*
X98552Y320632D01*
X98552Y314368D01*
X100950Y308579D01*
X103651Y305878D01*
X103967Y305417D01*
X104098Y304824D01*
X103986Y304228D01*
X103651Y303722D01*
X100950Y301021D01*
X98552Y295232D01*
X98552Y288968D01*
X100950Y283179D01*
X103651Y280478D01*
X103967Y280017D01*
X104098Y279424D01*
X103986Y278828D01*
X103651Y278322D01*
X100950Y275621D01*
X98552Y269832D01*
X98552Y263568D01*
X100950Y257779D01*
X103651Y255078D01*
X103967Y254617D01*
X104098Y254024D01*
X103986Y253428D01*
X103651Y252922D01*
X100950Y250221D01*
X98552Y244432D01*
X98552Y238168D01*
X100950Y232379D01*
X103651Y229678D01*
X103967Y229217D01*
X104098Y228624D01*
X103986Y228028D01*
X103651Y227522D01*
X100950Y224821D01*
X98552Y219032D01*
X98552Y212768D01*
X100950Y206979D01*
X103651Y204278D01*
X103967Y203817D01*
X104098Y203224D01*
X103986Y202628D01*
X103651Y202122D01*
X100950Y199421D01*
X98552Y193632D01*
X98552Y187368D01*
X100950Y181579D01*
X103651Y178878D01*
X103967Y178417D01*
X104098Y177824D01*
X103986Y177228D01*
X103651Y176722D01*
X100950Y174021D01*
X98552Y168232D01*
X98552Y161968D01*
X100950Y156179D01*
X103651Y153478D01*
X103967Y153017D01*
X104098Y152424D01*
X103986Y151828D01*
X103651Y151322D01*
X100950Y148621D01*
X98575Y142888D01*
X98279Y142429D01*
X97784Y142078D01*
X97191Y141948D01*
X96595Y142059D01*
X96090Y142394D01*
X76646Y161837D01*
X76321Y162320D01*
X76200Y162915D01*
X76200Y215179D01*
X74808Y218540D01*
X60872Y232476D01*
X60551Y232948D01*
X60426Y233541D01*
X60541Y234137D01*
X62103Y237906D01*
X62103Y243894D01*
X59812Y249425D01*
X55578Y253658D01*
X52757Y254827D01*
X52280Y255140D01*
X51937Y255641D01*
X51816Y256235D01*
X51816Y289865D01*
X51923Y290426D01*
X52254Y290934D01*
X52757Y291273D01*
X55578Y292442D01*
X59812Y296675D01*
X62103Y302206D01*
X62103Y308194D01*
X59812Y313725D01*
X55578Y317958D01*
X50047Y320250D01*
X26153Y320250D01*
X20622Y317958D01*
X16388Y313725D01*
X14097Y308194D01*
X14097Y302206D01*
X16388Y296675D01*
X20622Y292442D01*
X26153Y290151D01*
X32004Y290151D01*
X32553Y290048D01*
X33064Y289721D01*
X33407Y289221D01*
X33528Y288627D01*
X33528Y257474D01*
X33426Y256924D01*
X33099Y256413D01*
X32598Y256070D01*
X32004Y255950D01*
X26153Y255950D01*
X20622Y253658D01*
X16388Y249425D01*
X14097Y243894D01*
X14097Y237906D01*
X16388Y232375D01*
X20622Y228142D01*
X26153Y225851D01*
X41003Y225851D01*
X41575Y225739D01*
X42080Y225404D01*
X57466Y210019D01*
X57791Y209536D01*
X57912Y208941D01*
X57912Y204973D01*
X57814Y204435D01*
X57491Y203921D01*
X56994Y203574D01*
X56400Y203449D01*
X55805Y203565D01*
X50047Y205950D01*
X26153Y205950D01*
X20622Y203658D01*
X16388Y199425D01*
X14097Y193894D01*
X14097Y187906D01*
X16388Y182375D01*
X20622Y178142D01*
X26153Y175851D01*
X32004Y175851D01*
X32553Y175748D01*
X33064Y175421D01*
X33407Y174921D01*
X33528Y174327D01*
X33528Y162773D01*
X34920Y159412D01*
X57466Y136867D01*
X57791Y136384D01*
X57912Y135789D01*
X57912Y127973D01*
X57814Y127435D01*
X57491Y126921D01*
X56994Y126574D01*
X56400Y126449D01*
X55805Y126565D01*
X50047Y128950D01*
X26153Y128950D01*
X20622Y126658D01*
X16388Y122425D01*
X14097Y116894D01*
X14097Y110906D01*
X16388Y105375D01*
X20622Y101142D01*
X26153Y98851D01*
X45664Y98851D01*
X46190Y98757D01*
X46706Y98438D01*
X47057Y97943D01*
X47187Y97351D01*
X47076Y96755D01*
X46741Y96249D01*
X34920Y84428D01*
X33528Y81067D01*
X33528Y80474D01*
X33426Y79924D01*
X33099Y79413D01*
X32598Y79070D01*
X32004Y78950D01*
X26153Y78950D01*
X20622Y76658D01*
X16388Y72425D01*
X14097Y66894D01*
X14097Y60906D01*
X16388Y55375D01*
X20622Y51142D01*
X26153Y48851D01*
G37*
G36*
X515440Y393700D02*
X525961Y393700D01*
X533400Y401140D01*
X533400Y404013D01*
X533511Y404585D01*
X533846Y405091D01*
X543498Y414743D01*
X543937Y415049D01*
X544527Y415188D01*
X545125Y415087D01*
X545636Y414760D01*
X545979Y414260D01*
X546056Y413884D01*
X553540Y406400D01*
X564061Y406400D01*
X571500Y413840D01*
X571500Y424361D01*
X565138Y430722D01*
X564822Y431183D01*
X564692Y431776D01*
X564803Y432372D01*
X565138Y432878D01*
X571500Y439240D01*
X571500Y449761D01*
X564061Y457200D01*
X553540Y457200D01*
X546100Y449761D01*
X546100Y443839D01*
X545989Y443267D01*
X545654Y442761D01*
X522439Y419546D01*
X521956Y419221D01*
X521361Y419100D01*
X515440Y419100D01*
X508000Y411661D01*
X508000Y401140D01*
X515440Y393700D01*
G37*
G36*
X26153Y340151D02*
X50047Y340151D01*
X55578Y342442D01*
X59812Y346675D01*
X62103Y352206D01*
X62103Y358194D01*
X59812Y363725D01*
X55578Y367958D01*
X50047Y370250D01*
X26153Y370250D01*
X20622Y367958D01*
X16388Y363725D01*
X14097Y358194D01*
X14097Y352206D01*
X16388Y346675D01*
X20622Y342442D01*
X26153Y340151D01*
G37*
G36*
X553540Y139700D02*
X564061Y139700D01*
X571500Y147140D01*
X571500Y157661D01*
X564061Y165100D01*
X553540Y165100D01*
X546100Y157661D01*
X546100Y147140D01*
X553540Y139700D01*
G37*
G36*
X553540Y76200D02*
X564061Y76200D01*
X571500Y83640D01*
X571500Y94161D01*
X565138Y100522D01*
X564822Y100983D01*
X564692Y101576D01*
X564803Y102172D01*
X565138Y102678D01*
X571500Y109040D01*
X571500Y119561D01*
X564061Y127000D01*
X553540Y127000D01*
X546100Y119561D01*
X546100Y114655D01*
X545989Y114083D01*
X545654Y113577D01*
X545299Y113222D01*
X544816Y112897D01*
X544221Y112776D01*
X528116Y112776D01*
X527544Y112887D01*
X527038Y113222D01*
X525961Y114300D01*
X515440Y114300D01*
X508000Y106861D01*
X508000Y96340D01*
X515440Y88900D01*
X525961Y88900D01*
X531102Y94042D01*
X531585Y94367D01*
X532180Y94488D01*
X544576Y94488D01*
X545125Y94386D01*
X545636Y94059D01*
X545979Y93558D01*
X546100Y92964D01*
X546100Y83640D01*
X553540Y76200D01*
G37*
%LPD*%
G36*
X401451Y408419D02*
X400861Y408280D01*
X400263Y408381D01*
X399752Y408708D01*
X399409Y409208D01*
X399288Y409803D01*
X399288Y446685D01*
X399399Y447257D01*
X399734Y447763D01*
X427166Y475195D01*
X427605Y475501D01*
X428195Y475640D01*
X428793Y475539D01*
X429304Y475212D01*
X429647Y474712D01*
X429768Y474117D01*
X429768Y437235D01*
X429657Y436663D01*
X429322Y436157D01*
X401890Y408725D01*
X401451Y408419D01*
G37*
G36*
X428787Y103683D02*
X428194Y103553D01*
X427598Y103664D01*
X427093Y103999D01*
X399734Y131357D01*
X399409Y131840D01*
X399288Y132435D01*
X399288Y144933D01*
X399382Y145460D01*
X399701Y145976D01*
X400195Y146327D01*
X400788Y146457D01*
X401384Y146346D01*
X401890Y146011D01*
X429322Y118579D01*
X429647Y118096D01*
X429768Y117501D01*
X429768Y105511D01*
X429676Y104991D01*
X429663Y104955D01*
X429600Y104550D01*
X429282Y104034D01*
X428787Y103683D01*
G37*
G36*
X57005Y164569D02*
X56412Y164439D01*
X55816Y164550D01*
X55310Y164885D01*
X52262Y167933D01*
X51937Y168416D01*
X51816Y169011D01*
X51816Y175565D01*
X51923Y176126D01*
X52254Y176634D01*
X52757Y176973D01*
X55805Y178235D01*
X56339Y178351D01*
X56937Y178249D01*
X57448Y177922D01*
X57791Y177422D01*
X57912Y176827D01*
X57912Y165963D01*
X57818Y165436D01*
X57499Y164920D01*
X57005Y164569D01*
G37*
G36*
X506077Y690857D02*
X505484Y690727D01*
X504888Y690838D01*
X504382Y691173D01*
X468476Y727080D01*
X465115Y728472D01*
X460674Y728472D01*
X460124Y728574D01*
X459613Y728901D01*
X459270Y729402D01*
X459150Y729996D01*
X459150Y735847D01*
X456858Y741378D01*
X454078Y744158D01*
X453772Y744597D01*
X453633Y745187D01*
X453734Y745785D01*
X454061Y746296D01*
X454562Y746639D01*
X455156Y746760D01*
X458877Y746760D01*
X459449Y746649D01*
X459955Y746314D01*
X506538Y699731D01*
X506863Y699248D01*
X506984Y698653D01*
X506984Y692251D01*
X506890Y691724D01*
X506571Y691208D01*
X506077Y690857D01*
G37*
G36*
X559947Y714097D02*
X559357Y713957D01*
X558759Y714059D01*
X558248Y714386D01*
X557905Y714886D01*
X557784Y715481D01*
X557784Y732319D01*
X557878Y732846D01*
X558197Y733362D01*
X558691Y733713D01*
X559284Y733843D01*
X559880Y733732D01*
X560386Y733397D01*
X563434Y730349D01*
X563759Y729866D01*
X563880Y729271D01*
X563880Y718529D01*
X563769Y717957D01*
X563434Y717451D01*
X560386Y714403D01*
X559947Y714097D01*
G37*
G36*
X732406Y698113D02*
X731811Y697992D01*
X705577Y697992D01*
X705005Y698103D01*
X704499Y698438D01*
X701195Y701742D01*
X700879Y702203D01*
X700749Y702796D01*
X700860Y703392D01*
X701195Y703898D01*
X705048Y707750D01*
X707136Y712792D01*
X707136Y714909D01*
X707230Y715436D01*
X707549Y715952D01*
X708043Y716303D01*
X708636Y716433D01*
X709232Y716322D01*
X709738Y715987D01*
X720244Y705480D01*
X723605Y704088D01*
X728763Y704088D01*
X729335Y703977D01*
X729841Y703642D01*
X732889Y700594D01*
X733195Y700155D01*
X733335Y699565D01*
X733233Y698967D01*
X732906Y698456D01*
X732406Y698113D01*
G37*
G36*
X386189Y682729D02*
X385596Y682599D01*
X385000Y682710D01*
X384494Y683045D01*
X381446Y686093D01*
X381121Y686576D01*
X381000Y687171D01*
X381000Y703084D01*
X381094Y703611D01*
X381413Y704127D01*
X381907Y704478D01*
X382500Y704608D01*
X383096Y704497D01*
X383602Y704162D01*
X385575Y702188D01*
X386155Y701948D01*
X386632Y701635D01*
X386975Y701134D01*
X387096Y700540D01*
X387096Y684123D01*
X387002Y683596D01*
X386683Y683080D01*
X386189Y682729D01*
G37*
G36*
X731390Y673729D02*
X730795Y673608D01*
X704561Y673608D01*
X703989Y673719D01*
X703483Y674054D01*
X701195Y676342D01*
X700879Y676803D01*
X700749Y677396D01*
X700860Y677992D01*
X701195Y678498D01*
X701955Y679258D01*
X702438Y679583D01*
X703033Y679704D01*
X728341Y679704D01*
X728901Y679597D01*
X729410Y679266D01*
X729749Y678763D01*
X730052Y678030D01*
X731873Y676210D01*
X732179Y675771D01*
X732319Y675181D01*
X732217Y674583D01*
X731890Y674072D01*
X731390Y673729D01*
G37*
G36*
X432417Y611979D02*
X431824Y611849D01*
X431228Y611960D01*
X430722Y612295D01*
X430214Y612803D01*
X429889Y613286D01*
X429768Y613881D01*
X429768Y630719D01*
X429879Y631291D01*
X430214Y631797D01*
X430722Y632305D01*
X431183Y632621D01*
X431776Y632751D01*
X432372Y632640D01*
X432878Y632305D01*
X435418Y629765D01*
X435743Y629282D01*
X435864Y628687D01*
X435864Y615913D01*
X435753Y615341D01*
X435418Y614835D01*
X432878Y612295D01*
X432417Y611979D01*
G37*
G36*
X733422Y570097D02*
X732827Y569976D01*
X702273Y569976D01*
X701746Y570070D01*
X701230Y570389D01*
X700879Y570883D01*
X700749Y571476D01*
X700860Y572072D01*
X701195Y572578D01*
X705048Y576430D01*
X707136Y581472D01*
X707136Y586928D01*
X704954Y592195D01*
X704953Y592197D01*
X704952Y592200D01*
X704932Y592250D01*
X704940Y592253D01*
X704813Y592787D01*
X704915Y593385D01*
X705242Y593896D01*
X705742Y594239D01*
X706337Y594360D01*
X728763Y594360D01*
X729290Y594266D01*
X729806Y593947D01*
X730157Y593453D01*
X730287Y592860D01*
X730176Y592264D01*
X730167Y592250D01*
X730168Y592250D01*
X727964Y586928D01*
X727964Y581472D01*
X730052Y576430D01*
X733905Y572578D01*
X734211Y572139D01*
X734351Y571549D01*
X734249Y570951D01*
X733922Y570440D01*
X733422Y570097D01*
G37*
G36*
X852310Y10281D02*
X851716Y10160D01*
X843683Y10160D01*
X843168Y10250D01*
X842649Y10564D01*
X842294Y11056D01*
X842160Y11648D01*
X842266Y12245D01*
X842597Y12753D01*
X842882Y12945D01*
X847212Y17275D01*
X849503Y22806D01*
X849503Y28794D01*
X847212Y34325D01*
X842978Y38558D01*
X837447Y40850D01*
X813553Y40850D01*
X810874Y39740D01*
X810291Y39624D01*
X784707Y39624D01*
X784135Y39735D01*
X783629Y40070D01*
X771082Y52617D01*
X770757Y53100D01*
X770702Y53368D01*
X768548Y58570D01*
X764695Y62422D01*
X764379Y62883D01*
X764249Y63476D01*
X764360Y64072D01*
X764695Y64578D01*
X768548Y68430D01*
X770636Y73472D01*
X770636Y78928D01*
X768548Y83970D01*
X764690Y87828D01*
X759893Y89815D01*
X759416Y90128D01*
X759073Y90628D01*
X758952Y91223D01*
X758952Y111405D01*
X759063Y111977D01*
X759398Y112483D01*
X781944Y135028D01*
X783336Y138389D01*
X783336Y196596D01*
X783438Y197145D01*
X783765Y197656D01*
X784266Y197999D01*
X784860Y198120D01*
X786588Y198120D01*
X787160Y198009D01*
X787666Y197674D01*
X794840Y190500D01*
X805361Y190500D01*
X812800Y197940D01*
X812800Y208461D01*
X805361Y215900D01*
X802004Y215900D01*
X801374Y216037D01*
X800615Y216381D01*
X800492Y216408D01*
X798757Y216408D01*
X798705Y216409D01*
X796971Y216468D01*
X796642Y216408D01*
X761178Y216408D01*
X760595Y216524D01*
X759648Y216916D01*
X738952Y216916D01*
X733910Y214828D01*
X730052Y210970D01*
X727964Y205928D01*
X727964Y200472D01*
X730052Y195430D01*
X730857Y194626D01*
X731163Y194187D01*
X731303Y193597D01*
X731201Y192999D01*
X730874Y192488D01*
X730374Y192145D01*
X729779Y192024D01*
X705321Y192024D01*
X704794Y192118D01*
X704278Y192437D01*
X703927Y192931D01*
X703797Y193524D01*
X703908Y194120D01*
X704243Y194626D01*
X705048Y195430D01*
X707136Y200472D01*
X707136Y205928D01*
X705048Y210970D01*
X701190Y214828D01*
X696148Y216916D01*
X684631Y216916D01*
X684104Y217010D01*
X683588Y217329D01*
X683237Y217823D01*
X683107Y218416D01*
X683218Y219012D01*
X683553Y219518D01*
X690504Y226468D01*
X691896Y229829D01*
X691896Y264160D01*
X691998Y264709D01*
X692325Y265220D01*
X692826Y265563D01*
X693420Y265684D01*
X696148Y265684D01*
X701190Y267772D01*
X704243Y270826D01*
X704726Y271151D01*
X705321Y271272D01*
X729779Y271272D01*
X730351Y271161D01*
X730857Y270826D01*
X733910Y267772D01*
X738952Y265684D01*
X759648Y265684D01*
X764690Y267772D01*
X768548Y271630D01*
X769899Y274893D01*
X770196Y275353D01*
X770691Y275704D01*
X771283Y275834D01*
X771879Y275722D01*
X772385Y275388D01*
X775108Y272664D01*
X778469Y271272D01*
X803160Y271272D01*
X803732Y271161D01*
X804238Y270826D01*
X808022Y267042D01*
X813553Y264751D01*
X837447Y264751D01*
X842978Y267042D01*
X847212Y271275D01*
X849503Y276806D01*
X849503Y282794D01*
X847212Y288325D01*
X842978Y292558D01*
X837447Y294850D01*
X813553Y294850D01*
X808022Y292558D01*
X805470Y290006D01*
X804986Y289681D01*
X804392Y289560D01*
X784707Y289560D01*
X784135Y289671D01*
X783629Y290006D01*
X771082Y302553D01*
X770757Y303036D01*
X770636Y303631D01*
X770636Y307528D01*
X768548Y312570D01*
X764695Y316422D01*
X764379Y316883D01*
X764249Y317476D01*
X764360Y318072D01*
X764695Y318578D01*
X768548Y322430D01*
X770636Y327472D01*
X770636Y332928D01*
X768548Y337970D01*
X764690Y341828D01*
X759893Y343815D01*
X759416Y344128D01*
X759073Y344628D01*
X758952Y345223D01*
X758952Y367437D01*
X759063Y368009D01*
X759398Y368515D01*
X781944Y391060D01*
X783336Y394421D01*
X783336Y442976D01*
X783438Y443525D01*
X783765Y444036D01*
X784266Y444379D01*
X784860Y444500D01*
X792661Y444500D01*
X799022Y450862D01*
X799483Y451178D01*
X800076Y451308D01*
X800672Y451197D01*
X801178Y450862D01*
X807540Y444500D01*
X818061Y444500D01*
X825500Y451940D01*
X825500Y462461D01*
X818061Y469900D01*
X811631Y469900D01*
X811059Y470011D01*
X810553Y470346D01*
X762369Y518530D01*
X762058Y518980D01*
X761923Y519571D01*
X762030Y520169D01*
X762361Y520677D01*
X762864Y521016D01*
X764690Y521772D01*
X768548Y525630D01*
X770636Y530672D01*
X770636Y536128D01*
X768548Y541170D01*
X764695Y545022D01*
X764379Y545483D01*
X764249Y546076D01*
X764360Y546672D01*
X764695Y547178D01*
X768548Y551030D01*
X770636Y556072D01*
X770636Y561528D01*
X768548Y566570D01*
X767743Y567374D01*
X767437Y567813D01*
X767297Y568403D01*
X767399Y569001D01*
X767726Y569512D01*
X768226Y569855D01*
X768821Y569976D01*
X775869Y569976D01*
X776441Y569865D01*
X776947Y569530D01*
X793396Y553080D01*
X796757Y551688D01*
X821182Y551688D01*
X821731Y551586D01*
X822242Y551259D01*
X822585Y550758D01*
X822706Y550164D01*
X822706Y549459D01*
X823634Y547219D01*
X825349Y545504D01*
X827589Y544576D01*
X848811Y544576D01*
X851133Y545538D01*
X851667Y545653D01*
X852265Y545551D01*
X852776Y545225D01*
X853119Y544724D01*
X853240Y544130D01*
X853240Y11684D01*
X853138Y11135D01*
X852811Y10624D01*
X852310Y10281D01*
G37*
%LPC*%
G36*
X813553Y314751D02*
X837447Y314751D01*
X842978Y317042D01*
X847212Y321275D01*
X849503Y326806D01*
X849503Y332794D01*
X847212Y338325D01*
X842978Y342558D01*
X837447Y344850D01*
X813553Y344850D01*
X808022Y342558D01*
X803788Y338325D01*
X801497Y332794D01*
X801497Y326806D01*
X803788Y321275D01*
X808022Y317042D01*
X813553Y314751D01*
G37*
G36*
X813553Y60751D02*
X837447Y60751D01*
X842978Y63042D01*
X847212Y67275D01*
X849503Y72806D01*
X849503Y78794D01*
X847212Y84325D01*
X842978Y88558D01*
X837447Y90850D01*
X813553Y90850D01*
X808022Y88558D01*
X803788Y84325D01*
X801497Y78794D01*
X801497Y72806D01*
X803788Y67275D01*
X808022Y63042D01*
X813553Y60751D01*
G37*
%LPD*%
G36*
X648317Y526722D02*
X647724Y526592D01*
X647128Y526703D01*
X646622Y527038D01*
X641211Y532450D01*
X630690Y532450D01*
X627442Y529202D01*
X627003Y528896D01*
X626413Y528756D01*
X625815Y528858D01*
X625304Y529185D01*
X624961Y529685D01*
X624840Y530280D01*
X624840Y544221D01*
X624951Y544793D01*
X625286Y545299D01*
X646622Y566635D01*
X647061Y566941D01*
X647651Y567080D01*
X648249Y566979D01*
X648760Y566652D01*
X649103Y566152D01*
X649224Y565557D01*
X649224Y528116D01*
X649130Y527589D01*
X648811Y527073D01*
X648317Y526722D01*
G37*
G36*
X732406Y545713D02*
X731811Y545592D01*
X703289Y545592D01*
X702762Y545686D01*
X702246Y546005D01*
X701895Y546499D01*
X701765Y547092D01*
X701876Y547688D01*
X702211Y548194D01*
X705259Y551242D01*
X705742Y551567D01*
X706337Y551688D01*
X728763Y551688D01*
X729335Y551577D01*
X729841Y551242D01*
X732889Y548194D01*
X733195Y547755D01*
X733335Y547165D01*
X733233Y546567D01*
X732906Y546056D01*
X732406Y545713D01*
G37*
G36*
X669675Y544425D02*
X669085Y544285D01*
X668487Y544387D01*
X667976Y544714D01*
X667633Y545214D01*
X667512Y545809D01*
X667512Y546391D01*
X667606Y546918D01*
X667925Y547434D01*
X668419Y547785D01*
X669012Y547915D01*
X669608Y547804D01*
X670114Y547469D01*
X670405Y547178D01*
X670721Y546717D01*
X670851Y546124D01*
X670740Y545528D01*
X670405Y545022D01*
X670114Y544731D01*
X669675Y544425D01*
G37*
G36*
X731390Y521329D02*
X730795Y521208D01*
X704305Y521208D01*
X703778Y521302D01*
X703262Y521621D01*
X702911Y522115D01*
X702781Y522708D01*
X702892Y523304D01*
X703227Y523810D01*
X705048Y525630D01*
X705351Y526363D01*
X705665Y526840D01*
X706165Y527183D01*
X706759Y527304D01*
X728341Y527304D01*
X728901Y527197D01*
X729410Y526866D01*
X729749Y526363D01*
X730052Y525630D01*
X731873Y523810D01*
X732179Y523371D01*
X732319Y522781D01*
X732217Y522183D01*
X731890Y521672D01*
X731390Y521329D01*
G37*
G36*
X732406Y442081D02*
X731811Y441960D01*
X703289Y441960D01*
X702717Y442071D01*
X702211Y442406D01*
X701195Y443422D01*
X700879Y443883D01*
X700749Y444476D01*
X700860Y445072D01*
X701195Y445578D01*
X705048Y449430D01*
X707136Y454472D01*
X707136Y459928D01*
X705048Y464970D01*
X701190Y468828D01*
X696148Y470916D01*
X675452Y470916D01*
X670410Y468828D01*
X668373Y466790D01*
X667890Y466465D01*
X667295Y466344D01*
X650748Y466344D01*
X650199Y466446D01*
X649688Y466773D01*
X649345Y467274D01*
X649224Y467868D01*
X649224Y486624D01*
X649254Y486923D01*
X649403Y487670D01*
X649253Y488429D01*
X649224Y488725D01*
X649224Y489499D01*
X648932Y490203D01*
X648845Y490491D01*
X648697Y491239D01*
X648268Y491883D01*
X648128Y492145D01*
X647816Y492898D01*
X647700Y493481D01*
X647700Y493957D01*
X643574Y498082D01*
X643249Y498565D01*
X643128Y499160D01*
X643128Y508336D01*
X643239Y508908D01*
X643574Y509414D01*
X648650Y514489D01*
X648650Y517363D01*
X648744Y517890D01*
X649063Y518406D01*
X649557Y518757D01*
X650150Y518887D01*
X650746Y518776D01*
X651252Y518441D01*
X665380Y504312D01*
X668741Y502920D01*
X751485Y502920D01*
X752057Y502809D01*
X752563Y502474D01*
X782560Y472476D01*
X782876Y472015D01*
X783007Y471423D01*
X782895Y470827D01*
X782560Y470321D01*
X779030Y466790D01*
X778547Y466465D01*
X777952Y466344D01*
X767805Y466344D01*
X767233Y466455D01*
X766727Y466790D01*
X764690Y468828D01*
X759648Y470916D01*
X738952Y470916D01*
X733910Y468828D01*
X730052Y464970D01*
X727964Y459928D01*
X727964Y454472D01*
X730052Y449430D01*
X733905Y445578D01*
X734221Y445117D01*
X734351Y444524D01*
X734240Y443928D01*
X733905Y443422D01*
X732889Y442406D01*
X732406Y442081D01*
G37*
G36*
X627003Y467296D02*
X626413Y467157D01*
X625815Y467258D01*
X625304Y467585D01*
X624961Y468085D01*
X624840Y468680D01*
X624840Y477216D01*
X624934Y477743D01*
X625253Y478259D01*
X625747Y478610D01*
X626340Y478740D01*
X626936Y478629D01*
X627442Y478294D01*
X629815Y475921D01*
X629961Y475894D01*
X630472Y475567D01*
X630815Y475066D01*
X630936Y474472D01*
X630936Y471424D01*
X630834Y470875D01*
X630507Y470364D01*
X630006Y470021D01*
X629823Y469983D01*
X627442Y467602D01*
X627003Y467296D01*
G37*
G36*
X649863Y382511D02*
X649273Y382372D01*
X648675Y382473D01*
X648164Y382800D01*
X647821Y383300D01*
X647700Y383895D01*
X647700Y386261D01*
X640261Y393700D01*
X637895Y393700D01*
X637323Y393811D01*
X636817Y394146D01*
X625286Y405677D01*
X624961Y406160D01*
X624840Y406755D01*
X624840Y445720D01*
X624934Y446247D01*
X625253Y446763D01*
X625747Y447114D01*
X626340Y447244D01*
X626936Y447133D01*
X627442Y446798D01*
X629740Y444500D01*
X640261Y444500D01*
X643370Y447610D01*
X643853Y447935D01*
X644448Y448056D01*
X667295Y448056D01*
X667867Y447945D01*
X668373Y447610D01*
X670405Y445578D01*
X670721Y445117D01*
X670851Y444524D01*
X670740Y443928D01*
X670405Y443422D01*
X666552Y439570D01*
X664464Y434528D01*
X664464Y429072D01*
X666552Y424030D01*
X670405Y420178D01*
X670721Y419717D01*
X670851Y419124D01*
X670740Y418528D01*
X670405Y418022D01*
X666552Y414170D01*
X664464Y409128D01*
X664464Y403672D01*
X666034Y399880D01*
X666150Y399322D01*
X666039Y398725D01*
X665704Y398220D01*
X650302Y382817D01*
X649863Y382511D01*
G37*
G36*
X733422Y417697D02*
X732827Y417576D01*
X702273Y417576D01*
X701746Y417670D01*
X701230Y417989D01*
X700879Y418483D01*
X700749Y419076D01*
X700860Y419672D01*
X701195Y420178D01*
X704243Y423226D01*
X704726Y423551D01*
X705321Y423672D01*
X729779Y423672D01*
X730351Y423561D01*
X730857Y423226D01*
X733905Y420178D01*
X734211Y419739D01*
X734351Y419149D01*
X734249Y418551D01*
X733922Y418040D01*
X733422Y417697D01*
G37*
G36*
X732406Y289681D02*
X731811Y289560D01*
X703289Y289560D01*
X702717Y289671D01*
X702211Y290006D01*
X701195Y291022D01*
X700879Y291483D01*
X700749Y292076D01*
X700860Y292672D01*
X701195Y293178D01*
X703227Y295210D01*
X703710Y295535D01*
X704305Y295656D01*
X730795Y295656D01*
X731367Y295545D01*
X731873Y295210D01*
X733905Y293178D01*
X734221Y292717D01*
X734351Y292124D01*
X734240Y291528D01*
X733905Y291022D01*
X732889Y290006D01*
X732406Y289681D01*
G37*
G36*
X731390Y161665D02*
X730795Y161544D01*
X704305Y161544D01*
X703733Y161655D01*
X703227Y161990D01*
X701195Y164022D01*
X700879Y164483D01*
X700749Y165076D01*
X700860Y165672D01*
X701195Y166178D01*
X705048Y170030D01*
X706193Y172795D01*
X706506Y173272D01*
X707007Y173615D01*
X707601Y173736D01*
X727499Y173736D01*
X728060Y173629D01*
X728568Y173298D01*
X728907Y172795D01*
X730052Y170030D01*
X733905Y166178D01*
X734221Y165717D01*
X734351Y165124D01*
X734240Y164528D01*
X733905Y164022D01*
X731873Y161990D01*
X731390Y161665D01*
G37*
G36*
X731390Y64129D02*
X730795Y64008D01*
X704305Y64008D01*
X703778Y64102D01*
X703262Y64421D01*
X702911Y64915D01*
X702781Y65508D01*
X702892Y66104D01*
X703227Y66610D01*
X705048Y68430D01*
X707136Y73472D01*
X707136Y78928D01*
X705048Y83970D01*
X701190Y87828D01*
X696148Y89916D01*
X685647Y89916D01*
X685075Y90027D01*
X684569Y90362D01*
X675740Y99192D01*
X672379Y100584D01*
X645972Y100584D01*
X645400Y100695D01*
X644894Y101030D01*
X643574Y102350D01*
X643249Y102833D01*
X643128Y103428D01*
X643128Y141936D01*
X643239Y142508D01*
X643574Y143014D01*
X644958Y144398D01*
X645112Y144500D01*
X666120Y165508D01*
X666698Y166904D01*
X666995Y167364D01*
X667489Y167715D01*
X668082Y167845D01*
X668678Y167734D01*
X669184Y167399D01*
X670405Y166178D01*
X670721Y165717D01*
X670851Y165124D01*
X670740Y164528D01*
X670405Y164022D01*
X666552Y160170D01*
X664464Y155128D01*
X664464Y149672D01*
X666552Y144630D01*
X670410Y140772D01*
X675452Y138684D01*
X696148Y138684D01*
X701190Y140772D01*
X703227Y142810D01*
X703710Y143135D01*
X704305Y143256D01*
X730795Y143256D01*
X731367Y143145D01*
X731873Y142810D01*
X733910Y140772D01*
X738952Y138684D01*
X756057Y138684D01*
X756584Y138590D01*
X757100Y138271D01*
X757451Y137777D01*
X757581Y137184D01*
X757470Y136588D01*
X757135Y136082D01*
X742056Y121004D01*
X740664Y117643D01*
X740664Y91440D01*
X740562Y90891D01*
X740235Y90380D01*
X739734Y90037D01*
X739140Y89916D01*
X738952Y89916D01*
X733910Y87828D01*
X730052Y83970D01*
X727964Y78928D01*
X727964Y73472D01*
X730052Y68430D01*
X731873Y66610D01*
X732179Y66171D01*
X732319Y65581D01*
X732217Y64983D01*
X731890Y64472D01*
X731390Y64129D01*
G37*
G36*
X730374Y39745D02*
X729779Y39624D01*
X705321Y39624D01*
X704794Y39718D01*
X704278Y40037D01*
X703927Y40531D01*
X703797Y41124D01*
X703908Y41720D01*
X704243Y42226D01*
X705048Y43030D01*
X705772Y44779D01*
X706086Y45256D01*
X706586Y45599D01*
X707180Y45720D01*
X727920Y45720D01*
X728481Y45613D01*
X728989Y45282D01*
X729328Y44779D01*
X730052Y43030D01*
X730857Y42226D01*
X731163Y41787D01*
X731303Y41197D01*
X731201Y40599D01*
X730874Y40088D01*
X730374Y39745D01*
G37*
G36*
X807911Y10281D02*
X807317Y10160D01*
X763631Y10160D01*
X763115Y10250D01*
X762597Y10564D01*
X762242Y11056D01*
X762107Y11648D01*
X762214Y12245D01*
X762545Y12753D01*
X763047Y13092D01*
X764690Y13772D01*
X768548Y17630D01*
X770636Y22672D01*
X770636Y23521D01*
X770730Y24048D01*
X771049Y24564D01*
X771543Y24915D01*
X772136Y25045D01*
X772732Y24934D01*
X773238Y24599D01*
X775108Y22728D01*
X778469Y21336D01*
X801088Y21336D01*
X801648Y21229D01*
X802157Y20898D01*
X802496Y20395D01*
X803788Y17275D01*
X808095Y12969D01*
X808342Y12812D01*
X808701Y12323D01*
X808840Y11733D01*
X808738Y11135D01*
X808412Y10624D01*
X807911Y10281D01*
G37*
G36*
X735564Y10281D02*
X734969Y10160D01*
X700131Y10160D01*
X699615Y10250D01*
X699097Y10564D01*
X698742Y11056D01*
X698607Y11648D01*
X698714Y12245D01*
X699045Y12753D01*
X699547Y13092D01*
X701190Y13772D01*
X705048Y17630D01*
X706193Y20395D01*
X706506Y20872D01*
X707007Y21215D01*
X707601Y21336D01*
X727499Y21336D01*
X728060Y21229D01*
X728568Y20898D01*
X728907Y20395D01*
X730052Y17630D01*
X733910Y13772D01*
X735553Y13092D01*
X735994Y12812D01*
X736353Y12323D01*
X736493Y11733D01*
X736391Y11135D01*
X736064Y10624D01*
X735564Y10281D01*
G37*
G36*
X621370Y10281D02*
X620776Y10160D01*
X565200Y10160D01*
X564673Y10254D01*
X564157Y10573D01*
X563806Y11067D01*
X563676Y11660D01*
X563787Y12256D01*
X564122Y12762D01*
X566154Y14794D01*
X566637Y15119D01*
X567232Y15240D01*
X620776Y15240D01*
X621325Y15138D01*
X621836Y14811D01*
X622179Y14310D01*
X622300Y13716D01*
X622300Y11684D01*
X622198Y11135D01*
X621871Y10624D01*
X621370Y10281D01*
G37*
G36*
X103439Y553586D02*
X101230Y553586D01*
X101230Y569363D01*
X101212Y571065D01*
X101189Y571656D01*
X101157Y572074D01*
X103292Y572074D01*
X103328Y571724D01*
X103384Y570798D01*
X103414Y569939D01*
X103463Y569939D01*
X103616Y570236D01*
X103781Y570512D01*
X103958Y570767D01*
X104147Y571002D01*
X104348Y571217D01*
X104561Y571410D01*
X104785Y571584D01*
X105021Y571737D01*
X105273Y571870D01*
X105544Y571986D01*
X105834Y572084D01*
X106144Y572165D01*
X106472Y572227D01*
X106820Y572271D01*
X107187Y572298D01*
X107573Y572307D01*
X107875Y572301D01*
X108167Y572281D01*
X108450Y572249D01*
X108722Y572204D01*
X108986Y572147D01*
X109239Y572076D01*
X109483Y571992D01*
X109717Y571896D01*
X109941Y571787D01*
X110156Y571665D01*
X110557Y571382D01*
X110918Y571049D01*
X111241Y570663D01*
X111526Y570223D01*
X111773Y569724D01*
X111981Y569166D01*
X112152Y568550D01*
X112285Y567875D01*
X112380Y567142D01*
X112437Y566349D01*
X112456Y565498D01*
X112437Y564658D01*
X112379Y563871D01*
X112284Y563139D01*
X112151Y562460D01*
X111979Y561837D01*
X111769Y561267D01*
X111521Y560752D01*
X111235Y560291D01*
X110911Y559884D01*
X110548Y559531D01*
X110353Y559375D01*
X110148Y559233D01*
X109933Y559104D01*
X109709Y558989D01*
X109476Y558887D01*
X109232Y558799D01*
X108980Y558724D01*
X108717Y558663D01*
X108446Y558616D01*
X108164Y558582D01*
X107873Y558561D01*
X107573Y558555D01*
X107198Y558564D01*
X106838Y558591D01*
X106494Y558636D01*
X106165Y558699D01*
X105853Y558780D01*
X105556Y558879D01*
X105275Y558996D01*
X105009Y559131D01*
X104759Y559284D01*
X104525Y559456D01*
X104307Y559645D01*
X104104Y559852D01*
X103917Y560077D01*
X103746Y560320D01*
X103591Y560582D01*
X103451Y560861D01*
X103390Y560861D01*
X103411Y560694D01*
X103426Y560291D01*
X103439Y558775D01*
X103439Y553586D01*
G37*
%LPC*%
G36*
X106984Y560186D02*
X107381Y560205D01*
X107751Y560262D01*
X108092Y560356D01*
X108406Y560488D01*
X108692Y560658D01*
X108950Y560866D01*
X109180Y561111D01*
X109383Y561395D01*
X109559Y561722D01*
X109713Y562101D01*
X109842Y562531D01*
X109948Y563013D01*
X110031Y563545D01*
X110090Y564129D01*
X110125Y564763D01*
X110137Y565449D01*
X110125Y566118D01*
X110090Y566737D01*
X110032Y567306D01*
X109950Y567826D01*
X109845Y568297D01*
X109716Y568718D01*
X109564Y569090D01*
X109389Y569412D01*
X109188Y569691D01*
X108959Y569933D01*
X108703Y570137D01*
X108420Y570304D01*
X108108Y570435D01*
X107769Y570528D01*
X107403Y570583D01*
X107009Y570602D01*
X106689Y570593D01*
X106388Y570567D01*
X106104Y570524D01*
X105839Y570464D01*
X105591Y570386D01*
X105361Y570291D01*
X105148Y570179D01*
X104954Y570050D01*
X104774Y569902D01*
X104605Y569735D01*
X104447Y569549D01*
X104301Y569343D01*
X104165Y569118D01*
X104041Y568873D01*
X103927Y568609D01*
X103825Y568326D01*
X103735Y568022D01*
X103656Y567696D01*
X103590Y567348D01*
X103535Y566978D01*
X103493Y566586D01*
X103463Y566172D01*
X103445Y565736D01*
X103439Y565278D01*
X103452Y564646D01*
X103491Y564057D01*
X103556Y563511D01*
X103647Y563008D01*
X103765Y562548D01*
X103908Y562131D01*
X104077Y561757D01*
X104273Y561425D01*
X104498Y561135D01*
X104755Y560883D01*
X105045Y560670D01*
X105368Y560496D01*
X105723Y560361D01*
X106111Y560264D01*
X106531Y560206D01*
X106984Y560186D01*
G37*
%LPD*%
G36*
X197631Y558555D02*
X197322Y558561D01*
X197024Y558581D01*
X196735Y558614D01*
X196457Y558660D01*
X196190Y558720D01*
X195932Y558793D01*
X195686Y558879D01*
X195449Y558978D01*
X195223Y559090D01*
X195008Y559216D01*
X194803Y559355D01*
X194608Y559507D01*
X194423Y559672D01*
X194249Y559851D01*
X193933Y560248D01*
X193655Y560698D01*
X193415Y561203D01*
X193211Y561762D01*
X193045Y562376D01*
X192915Y563044D01*
X192823Y563767D01*
X192767Y564544D01*
X192749Y565376D01*
X192768Y566217D01*
X192825Y567003D01*
X192920Y567735D01*
X193054Y568414D01*
X193226Y569037D01*
X193435Y569607D01*
X193683Y570122D01*
X193969Y570583D01*
X194294Y570990D01*
X194656Y571343D01*
X194852Y571499D01*
X195057Y571641D01*
X195271Y571770D01*
X195495Y571885D01*
X195729Y571987D01*
X195972Y572075D01*
X196225Y572150D01*
X196487Y572211D01*
X196759Y572258D01*
X197040Y572292D01*
X197331Y572313D01*
X197631Y572319D01*
X198001Y572311D01*
X198355Y572285D01*
X198692Y572242D01*
X199015Y572181D01*
X199321Y572104D01*
X199612Y572009D01*
X199887Y571897D01*
X200146Y571767D01*
X200392Y571619D01*
X200625Y571451D01*
X200846Y571262D01*
X201054Y571053D01*
X201251Y570823D01*
X201435Y570574D01*
X201606Y570303D01*
X201766Y570013D01*
X201790Y570013D01*
X201766Y571497D01*
X201766Y577006D01*
X203974Y577006D01*
X203974Y561536D01*
X203992Y559815D01*
X204015Y559219D01*
X204048Y558800D01*
X201938Y558800D01*
X201899Y559125D01*
X201858Y559708D01*
X201826Y560370D01*
X201815Y560935D01*
X201766Y560935D01*
X201606Y560627D01*
X201434Y560342D01*
X201250Y560080D01*
X201053Y559840D01*
X200843Y559623D01*
X200621Y559428D01*
X200387Y559256D01*
X200140Y559107D01*
X199880Y558977D01*
X199604Y558865D01*
X199313Y558770D01*
X199007Y558693D01*
X198686Y558632D01*
X198350Y558589D01*
X197998Y558563D01*
X197631Y558555D01*
G37*
%LPC*%
G36*
X198196Y560260D02*
X198649Y560280D01*
X199070Y560341D01*
X199459Y560443D01*
X199815Y560585D01*
X200140Y560768D01*
X200432Y560991D01*
X200692Y561256D01*
X200892Y561524D01*
X200919Y561560D01*
X201118Y561908D01*
X201290Y562300D01*
X201435Y562737D01*
X201554Y563220D01*
X201647Y563747D01*
X201713Y564318D01*
X201753Y564935D01*
X201766Y565597D01*
X201753Y566234D01*
X201713Y566827D01*
X201647Y567376D01*
X201554Y567881D01*
X201435Y568342D01*
X201290Y568759D01*
X201118Y569132D01*
X200919Y569461D01*
X200692Y569748D01*
X200433Y569998D01*
X200143Y570209D01*
X199821Y570381D01*
X199468Y570515D01*
X199084Y570611D01*
X198668Y570669D01*
X198220Y570688D01*
X197818Y570668D01*
X197444Y570611D01*
X197099Y570514D01*
X196783Y570380D01*
X196497Y570206D01*
X196239Y569994D01*
X196010Y569744D01*
X195810Y569455D01*
X195636Y569123D01*
X195485Y568742D01*
X195357Y568314D01*
X195253Y567837D01*
X195172Y567312D01*
X195114Y566739D01*
X195079Y566118D01*
X195067Y565449D01*
X195079Y564778D01*
X195113Y564156D01*
X195171Y563583D01*
X195251Y563060D01*
X195355Y562586D01*
X195482Y562162D01*
X195631Y561787D01*
X195804Y561462D01*
X196002Y561180D01*
X196229Y560936D01*
X196485Y560730D01*
X196770Y560560D01*
X197083Y560429D01*
X197425Y560335D01*
X197796Y560279D01*
X198196Y560260D01*
G37*
%LPD*%
G36*
X140000Y558555D02*
X139642Y558562D01*
X139296Y558582D01*
X138960Y558617D01*
X138635Y558665D01*
X138322Y558728D01*
X138020Y558804D01*
X137729Y558894D01*
X137448Y558998D01*
X137180Y559116D01*
X136922Y559247D01*
X136675Y559393D01*
X136439Y559552D01*
X136215Y559725D01*
X136002Y559912D01*
X135799Y560113D01*
X135608Y560327D01*
X135428Y560555D01*
X135260Y560795D01*
X135104Y561048D01*
X134959Y561312D01*
X134825Y561589D01*
X134704Y561879D01*
X134593Y562180D01*
X134495Y562494D01*
X134408Y562820D01*
X134333Y563159D01*
X134217Y563873D01*
X134147Y564637D01*
X134124Y565449D01*
X134147Y566281D01*
X134176Y566677D01*
X134217Y567059D01*
X134269Y567428D01*
X134333Y567784D01*
X134409Y568126D01*
X134496Y568455D01*
X134594Y568770D01*
X134705Y569072D01*
X134827Y569361D01*
X134961Y569636D01*
X135106Y569897D01*
X135263Y570146D01*
X135431Y570380D01*
X135611Y570602D01*
X135803Y570810D01*
X136006Y571004D01*
X136221Y571186D01*
X136448Y571353D01*
X136686Y571508D01*
X136936Y571648D01*
X137198Y571776D01*
X137471Y571890D01*
X137755Y571991D01*
X138052Y572078D01*
X138360Y572152D01*
X138679Y572212D01*
X139010Y572259D01*
X139353Y572293D01*
X139708Y572313D01*
X140074Y572319D01*
X140448Y572313D01*
X140809Y572293D01*
X141158Y572261D01*
X141495Y572215D01*
X141818Y572156D01*
X142130Y572084D01*
X142428Y571999D01*
X142715Y571901D01*
X142988Y571790D01*
X143249Y571665D01*
X143498Y571528D01*
X143734Y571377D01*
X143957Y571214D01*
X144168Y571037D01*
X144366Y570848D01*
X144552Y570645D01*
X144725Y570428D01*
X144888Y570197D01*
X145039Y569952D01*
X145180Y569692D01*
X145309Y569418D01*
X145426Y569129D01*
X145533Y568826D01*
X145628Y568509D01*
X145712Y568177D01*
X145785Y567830D01*
X145897Y567094D01*
X145965Y566301D01*
X145987Y565449D01*
X145981Y565021D01*
X145963Y564606D01*
X145933Y564205D01*
X145891Y563818D01*
X145837Y563445D01*
X145771Y563086D01*
X145694Y562741D01*
X145604Y562410D01*
X145502Y562092D01*
X145388Y561789D01*
X145262Y561499D01*
X145124Y561224D01*
X144975Y560962D01*
X144813Y560714D01*
X144639Y560480D01*
X144454Y560260D01*
X144256Y560053D01*
X144048Y559860D01*
X143830Y559680D01*
X143600Y559514D01*
X143360Y559361D01*
X143108Y559221D01*
X142846Y559094D01*
X142573Y558981D01*
X142290Y558881D01*
X141995Y558794D01*
X141690Y558721D01*
X141373Y558661D01*
X141046Y558615D01*
X140708Y558581D01*
X140360Y558561D01*
X140000Y558555D01*
G37*
%LPC*%
G36*
X139976Y560186D02*
X140455Y560206D01*
X140898Y560266D01*
X141307Y560366D01*
X141679Y560505D01*
X142017Y560685D01*
X142318Y560904D01*
X142585Y561163D01*
X142816Y561462D01*
X143016Y561804D01*
X143189Y562190D01*
X143335Y562621D01*
X143455Y563097D01*
X143548Y563618D01*
X143615Y564183D01*
X143655Y564794D01*
X143668Y565449D01*
X143656Y566113D01*
X143617Y566729D01*
X143554Y567299D01*
X143464Y567822D01*
X143350Y568297D01*
X143209Y568726D01*
X143044Y569108D01*
X142853Y569443D01*
X142631Y569734D01*
X142375Y569987D01*
X142085Y570201D01*
X141759Y570376D01*
X141399Y570513D01*
X141004Y570610D01*
X140575Y570668D01*
X140111Y570688D01*
X139643Y570668D01*
X139209Y570608D01*
X138808Y570509D01*
X138441Y570370D01*
X138107Y570192D01*
X137807Y569974D01*
X137540Y569716D01*
X137307Y569418D01*
X137105Y569078D01*
X136929Y568694D01*
X136780Y568265D01*
X136659Y567791D01*
X136564Y567273D01*
X136497Y566709D01*
X136456Y566102D01*
X136442Y565449D01*
X136456Y564813D01*
X136496Y564218D01*
X136562Y563664D01*
X136656Y563151D01*
X136776Y562678D01*
X136922Y562246D01*
X137095Y561855D01*
X137295Y561505D01*
X137523Y561196D01*
X137782Y560928D01*
X138072Y560701D01*
X138392Y560516D01*
X138742Y560372D01*
X139123Y560269D01*
X139534Y560207D01*
X139976Y560186D01*
G37*
%LPD*%
G36*
X218188Y558555D02*
X217830Y558562D01*
X217483Y558582D01*
X217147Y558617D01*
X216823Y558665D01*
X216509Y558728D01*
X216207Y558804D01*
X215916Y558894D01*
X215636Y558998D01*
X215367Y559116D01*
X215109Y559247D01*
X214862Y559393D01*
X214627Y559552D01*
X214402Y559725D01*
X214189Y559912D01*
X213987Y560113D01*
X213796Y560327D01*
X213616Y560555D01*
X213448Y560795D01*
X213291Y561048D01*
X213146Y561312D01*
X213013Y561589D01*
X212891Y561879D01*
X212781Y562180D01*
X212682Y562494D01*
X212595Y562820D01*
X212520Y563159D01*
X212404Y563873D01*
X212334Y564637D01*
X212311Y565449D01*
X212335Y566281D01*
X212364Y566677D01*
X212404Y567059D01*
X212457Y567428D01*
X212520Y567784D01*
X212596Y568126D01*
X212683Y568455D01*
X212782Y568770D01*
X212892Y569072D01*
X213014Y569361D01*
X213148Y569636D01*
X213293Y569897D01*
X213450Y570146D01*
X213619Y570380D01*
X213799Y570602D01*
X213991Y570810D01*
X214194Y571004D01*
X214409Y571186D01*
X214636Y571353D01*
X214874Y571508D01*
X215124Y571648D01*
X215385Y571776D01*
X215658Y571890D01*
X215943Y571991D01*
X216239Y572078D01*
X216547Y572152D01*
X216867Y572212D01*
X217198Y572259D01*
X217541Y572293D01*
X217895Y572313D01*
X218261Y572319D01*
X218635Y572313D01*
X218997Y572293D01*
X219346Y572261D01*
X219682Y572215D01*
X220006Y572156D01*
X220317Y572084D01*
X220616Y571999D01*
X220902Y571901D01*
X221176Y571790D01*
X221437Y571665D01*
X221685Y571528D01*
X221921Y571377D01*
X222144Y571214D01*
X222355Y571037D01*
X222553Y570848D01*
X222739Y570645D01*
X222913Y570428D01*
X223076Y570197D01*
X223227Y569952D01*
X223367Y569692D01*
X223496Y569418D01*
X223614Y569129D01*
X223720Y568826D01*
X223816Y568509D01*
X223900Y568177D01*
X223973Y567830D01*
X224085Y567094D01*
X224152Y566301D01*
X224175Y565449D01*
X224169Y565021D01*
X224151Y564606D01*
X224121Y564205D01*
X224079Y563818D01*
X224025Y563445D01*
X223959Y563086D01*
X223881Y562741D01*
X223791Y562410D01*
X223689Y562092D01*
X223575Y561789D01*
X223450Y561499D01*
X223312Y561224D01*
X223162Y560962D01*
X223000Y560714D01*
X222827Y560480D01*
X222641Y560260D01*
X222444Y560053D01*
X222236Y559860D01*
X222017Y559680D01*
X221788Y559514D01*
X221547Y559361D01*
X221296Y559221D01*
X221034Y559094D01*
X220761Y558981D01*
X220477Y558881D01*
X220183Y558794D01*
X219877Y558721D01*
X219561Y558661D01*
X219234Y558615D01*
X218896Y558581D01*
X218547Y558561D01*
X218188Y558555D01*
G37*
%LPC*%
G36*
X218163Y560186D02*
X218642Y560206D01*
X219086Y560266D01*
X219494Y560366D01*
X219867Y560505D01*
X220204Y560685D01*
X220506Y560904D01*
X220772Y561163D01*
X221003Y561462D01*
X221203Y561804D01*
X221376Y562190D01*
X221523Y562621D01*
X221643Y563097D01*
X221736Y563618D01*
X221803Y564183D01*
X221843Y564794D01*
X221856Y565449D01*
X221843Y566113D01*
X221805Y566729D01*
X221741Y567299D01*
X221652Y567822D01*
X221537Y568297D01*
X221397Y568726D01*
X221231Y569108D01*
X221040Y569443D01*
X220819Y569734D01*
X220563Y569987D01*
X220272Y570201D01*
X219947Y570376D01*
X219587Y570513D01*
X219192Y570610D01*
X218762Y570668D01*
X218298Y570688D01*
X217830Y570668D01*
X217396Y570608D01*
X216995Y570509D01*
X216628Y570370D01*
X216294Y570192D01*
X215994Y569974D01*
X215728Y569716D01*
X215495Y569418D01*
X215292Y569078D01*
X215116Y568694D01*
X214968Y568265D01*
X214846Y567791D01*
X214752Y567273D01*
X214684Y566709D01*
X214643Y566102D01*
X214630Y565449D01*
X214643Y564813D01*
X214683Y564218D01*
X214750Y563664D01*
X214843Y563151D01*
X214963Y562678D01*
X215110Y562246D01*
X215283Y561855D01*
X215483Y561505D01*
X215711Y561196D01*
X215970Y560928D01*
X216259Y560701D01*
X216579Y560516D01*
X216929Y560372D01*
X217310Y560269D01*
X217721Y560207D01*
X218163Y560186D01*
G37*
%LPD*%
G36*
X85054Y558555D02*
X84570Y558571D01*
X84116Y558621D01*
X83694Y558703D01*
X83303Y558818D01*
X82943Y558967D01*
X82613Y559148D01*
X82315Y559362D01*
X82048Y559610D01*
X81813Y559886D01*
X81608Y560186D01*
X81435Y560511D01*
X81294Y560861D01*
X81184Y561235D01*
X81105Y561634D01*
X81058Y562057D01*
X81042Y562505D01*
X81064Y563005D01*
X81127Y563476D01*
X81233Y563916D01*
X81381Y564327D01*
X81572Y564707D01*
X81805Y565058D01*
X82080Y565379D01*
X82398Y565670D01*
X82763Y565930D01*
X83180Y566158D01*
X83648Y566353D01*
X84169Y566517D01*
X84742Y566648D01*
X85366Y566747D01*
X86043Y566813D01*
X86772Y566848D01*
X89753Y566897D01*
X89753Y567621D01*
X89742Y568011D01*
X89710Y568373D01*
X89656Y568706D01*
X89581Y569010D01*
X89484Y569286D01*
X89366Y569532D01*
X89227Y569750D01*
X89066Y569939D01*
X88882Y570103D01*
X88673Y570245D01*
X88440Y570366D01*
X88182Y570464D01*
X87900Y570540D01*
X87593Y570595D01*
X87262Y570628D01*
X86906Y570639D01*
X86548Y570631D01*
X86215Y570607D01*
X85907Y570568D01*
X85624Y570513D01*
X85367Y570442D01*
X85135Y570356D01*
X84929Y570254D01*
X84747Y570136D01*
X84587Y570001D01*
X84444Y569847D01*
X84317Y569674D01*
X84207Y569482D01*
X84115Y569272D01*
X84039Y569043D01*
X83980Y568795D01*
X83938Y568529D01*
X81631Y568737D01*
X81718Y569171D01*
X81838Y569577D01*
X81990Y569955D01*
X82176Y570304D01*
X82394Y570626D01*
X82644Y570920D01*
X82928Y571186D01*
X83244Y571424D01*
X83594Y571634D01*
X83976Y571816D01*
X84390Y571970D01*
X84838Y572096D01*
X85318Y572193D01*
X85831Y572263D01*
X86377Y572305D01*
X86956Y572319D01*
X87562Y572301D01*
X88129Y572248D01*
X88658Y572158D01*
X89148Y572033D01*
X89600Y571871D01*
X90013Y571674D01*
X90387Y571441D01*
X90722Y571172D01*
X91018Y570870D01*
X91275Y570535D01*
X91492Y570168D01*
X91670Y569769D01*
X91808Y569338D01*
X91906Y568876D01*
X91966Y568381D01*
X91985Y567854D01*
X91985Y562137D01*
X92002Y561676D01*
X92050Y561277D01*
X92130Y560937D01*
X92243Y560659D01*
X92315Y560542D01*
X92401Y560441D01*
X92502Y560356D01*
X92617Y560286D01*
X92747Y560232D01*
X92892Y560193D01*
X93051Y560170D01*
X93225Y560162D01*
X93565Y560183D01*
X93948Y560248D01*
X93948Y558874D01*
X93529Y558788D01*
X93105Y558726D01*
X92676Y558690D01*
X92243Y558677D01*
X91947Y558687D01*
X91671Y558718D01*
X91417Y558768D01*
X91183Y558838D01*
X90971Y558929D01*
X90779Y559040D01*
X90608Y559170D01*
X90458Y559321D01*
X90326Y559494D01*
X90209Y559689D01*
X90108Y559907D01*
X90021Y560148D01*
X89950Y560412D01*
X89893Y560698D01*
X89852Y561007D01*
X89826Y561339D01*
X89753Y561339D01*
X89537Y560973D01*
X89312Y560634D01*
X89079Y560324D01*
X88837Y560041D01*
X88587Y559785D01*
X88328Y559558D01*
X88060Y559358D01*
X87784Y559186D01*
X87495Y559038D01*
X87192Y558910D01*
X86874Y558801D01*
X86540Y558713D01*
X86191Y558644D01*
X85827Y558594D01*
X85448Y558565D01*
X85054Y558555D01*
G37*
%LPC*%
G36*
X85557Y560211D02*
X85856Y560219D01*
X86147Y560245D01*
X86430Y560288D01*
X86704Y560349D01*
X86970Y560426D01*
X87227Y560521D01*
X87476Y560634D01*
X87716Y560763D01*
X87946Y560907D01*
X88164Y561065D01*
X88369Y561235D01*
X88561Y561418D01*
X88741Y561614D01*
X88909Y561822D01*
X89064Y562044D01*
X89207Y562278D01*
X89335Y562520D01*
X89446Y562763D01*
X89539Y563008D01*
X89616Y563255D01*
X89676Y563503D01*
X89719Y563754D01*
X89744Y564006D01*
X89753Y564259D01*
X89753Y565351D01*
X87336Y565302D01*
X86604Y565273D01*
X85966Y565210D01*
X85423Y565113D01*
X85187Y565052D01*
X84974Y564983D01*
X84596Y564816D01*
X84264Y564609D01*
X83979Y564362D01*
X83741Y564075D01*
X83641Y563916D01*
X83553Y563745D01*
X83480Y563562D01*
X83419Y563367D01*
X83372Y563160D01*
X83339Y562941D01*
X83319Y562711D01*
X83312Y562468D01*
X83321Y562206D01*
X83348Y561959D01*
X83394Y561727D01*
X83458Y561511D01*
X83540Y561310D01*
X83640Y561125D01*
X83758Y560955D01*
X83895Y560800D01*
X84048Y560662D01*
X84217Y560542D01*
X84402Y560441D01*
X84602Y560358D01*
X84817Y560294D01*
X85048Y560248D01*
X85295Y560220D01*
X85557Y560211D01*
G37*
%LPD*%
G36*
X53779Y558800D02*
X40161Y558800D01*
X40161Y576086D01*
X53276Y576086D01*
X53276Y574172D01*
X42504Y574172D01*
X42504Y568627D01*
X52540Y568627D01*
X52540Y566737D01*
X42504Y566737D01*
X42504Y560714D01*
X53779Y560714D01*
X53779Y558800D01*
G37*
G36*
X120597Y558555D02*
X120235Y558562D01*
X119883Y558582D01*
X119542Y558616D01*
X119213Y558664D01*
X118894Y558726D01*
X118586Y558801D01*
X118290Y558890D01*
X118004Y558993D01*
X117729Y559110D01*
X117465Y559240D01*
X117213Y559384D01*
X116971Y559541D01*
X116740Y559713D01*
X116520Y559898D01*
X116311Y560097D01*
X116113Y560309D01*
X115927Y560535D01*
X115752Y560774D01*
X115590Y561027D01*
X115440Y561293D01*
X115301Y561572D01*
X115175Y561865D01*
X115061Y562170D01*
X114958Y562490D01*
X114868Y562822D01*
X114790Y563168D01*
X114724Y563527D01*
X114670Y563900D01*
X114628Y564286D01*
X114598Y564685D01*
X114580Y565097D01*
X114574Y565523D01*
X114580Y565928D01*
X114598Y566321D01*
X114628Y566702D01*
X114670Y567071D01*
X114724Y567428D01*
X114790Y567773D01*
X114868Y568106D01*
X114958Y568427D01*
X115061Y568737D01*
X115175Y569034D01*
X115301Y569319D01*
X115440Y569592D01*
X115590Y569853D01*
X115752Y570103D01*
X115927Y570340D01*
X116113Y570565D01*
X116311Y570778D01*
X116519Y570976D01*
X116737Y571161D01*
X116965Y571333D01*
X117204Y571490D01*
X117453Y571634D01*
X117713Y571764D01*
X117983Y571881D01*
X118263Y571984D01*
X118553Y572073D01*
X118854Y572148D01*
X119165Y572210D01*
X119486Y572258D01*
X119817Y572292D01*
X120159Y572313D01*
X120511Y572319D01*
X120871Y572313D01*
X121220Y572292D01*
X121557Y572257D01*
X121883Y572209D01*
X122197Y572147D01*
X122500Y572071D01*
X122791Y571982D01*
X123072Y571879D01*
X123340Y571761D01*
X123597Y571631D01*
X123843Y571486D01*
X124077Y571327D01*
X124300Y571155D01*
X124512Y570969D01*
X124712Y570769D01*
X124900Y570556D01*
X125077Y570329D01*
X125243Y570087D01*
X125397Y569833D01*
X125540Y569564D01*
X125672Y569281D01*
X125792Y568985D01*
X125900Y568675D01*
X125997Y568351D01*
X126083Y568014D01*
X126157Y567663D01*
X126220Y567297D01*
X126272Y566919D01*
X126340Y566119D01*
X126363Y565265D01*
X126363Y564971D01*
X116892Y564971D01*
X116907Y564417D01*
X116951Y563895D01*
X117025Y563406D01*
X117128Y562950D01*
X117261Y562526D01*
X117424Y562135D01*
X117615Y561776D01*
X117837Y561450D01*
X118087Y561159D01*
X118364Y560908D01*
X118668Y560695D01*
X118999Y560521D01*
X119358Y560385D01*
X119744Y560288D01*
X120157Y560230D01*
X120597Y560211D01*
X120947Y560220D01*
X121279Y560247D01*
X121593Y560292D01*
X121890Y560355D01*
X122169Y560436D01*
X122429Y560535D01*
X122672Y560652D01*
X122897Y560787D01*
X123105Y560936D01*
X123295Y561095D01*
X123468Y561263D01*
X123623Y561441D01*
X123761Y561628D01*
X123881Y561825D01*
X123984Y562031D01*
X124069Y562247D01*
X126007Y561695D01*
X125847Y561315D01*
X125663Y560959D01*
X125455Y560628D01*
X125223Y560321D01*
X124968Y560039D01*
X124689Y559781D01*
X124386Y559548D01*
X124060Y559340D01*
X123710Y559156D01*
X123336Y558996D01*
X122939Y558861D01*
X122518Y558751D01*
X122073Y558665D01*
X121605Y558604D01*
X121113Y558567D01*
X120597Y558555D01*
G37*
%LPC*%
G36*
X124081Y566664D02*
X124024Y567171D01*
X123946Y567642D01*
X123845Y568078D01*
X123722Y568478D01*
X123578Y568843D01*
X123412Y569172D01*
X123224Y569466D01*
X123014Y569725D01*
X122781Y569950D01*
X122524Y570146D01*
X122243Y570312D01*
X121937Y570447D01*
X121608Y570552D01*
X121254Y570628D01*
X120876Y570673D01*
X120475Y570688D01*
X120083Y570671D01*
X119713Y570621D01*
X119363Y570537D01*
X119035Y570419D01*
X118727Y570268D01*
X118440Y570084D01*
X118174Y569866D01*
X117929Y569614D01*
X117708Y569333D01*
X117514Y569027D01*
X117347Y568696D01*
X117207Y568340D01*
X117094Y567959D01*
X117008Y567552D01*
X116949Y567121D01*
X116917Y566664D01*
X124081Y566664D01*
G37*
%LPD*%
G36*
X162471Y558555D02*
X161702Y558572D01*
X160975Y558623D01*
X160289Y558709D01*
X159644Y558829D01*
X159041Y558984D01*
X158480Y559172D01*
X157960Y559395D01*
X157481Y559653D01*
X157044Y559944D01*
X156649Y560270D01*
X156295Y560631D01*
X155982Y561025D01*
X155711Y561454D01*
X155482Y561917D01*
X155294Y562415D01*
X155147Y562947D01*
X157417Y563401D01*
X157529Y563024D01*
X157668Y562673D01*
X157835Y562348D01*
X158030Y562050D01*
X158253Y561776D01*
X158502Y561529D01*
X158780Y561308D01*
X159085Y561113D01*
X159419Y560941D01*
X159781Y560793D01*
X160172Y560668D01*
X160591Y560565D01*
X161039Y560485D01*
X161517Y560428D01*
X162022Y560394D01*
X162557Y560383D01*
X163108Y560395D01*
X163627Y560431D01*
X164114Y560492D01*
X164568Y560577D01*
X164989Y560687D01*
X165378Y560821D01*
X165735Y560979D01*
X166060Y561162D01*
X166349Y561368D01*
X166599Y561597D01*
X166811Y561849D01*
X166984Y562123D01*
X167119Y562421D01*
X167216Y562741D01*
X167273Y563084D01*
X167293Y563450D01*
X167287Y563656D01*
X167268Y563853D01*
X167238Y564040D01*
X167196Y564216D01*
X167075Y564540D01*
X166906Y564824D01*
X166693Y565076D01*
X166441Y565305D01*
X166150Y565511D01*
X165820Y565695D01*
X165454Y565860D01*
X165054Y566011D01*
X164620Y566148D01*
X164152Y566271D01*
X162005Y566774D01*
X161042Y567001D01*
X160203Y567228D01*
X159487Y567455D01*
X158895Y567682D01*
X158392Y567916D01*
X157946Y568162D01*
X157555Y568422D01*
X157220Y568694D01*
X156932Y568985D01*
X156679Y569300D01*
X156463Y569638D01*
X156282Y570001D01*
X156140Y570389D01*
X156038Y570804D01*
X155977Y571247D01*
X155957Y571718D01*
X155964Y571992D01*
X155983Y572257D01*
X156017Y572515D01*
X156063Y572765D01*
X156123Y573007D01*
X156196Y573240D01*
X156382Y573684D01*
X156621Y574096D01*
X156913Y574476D01*
X157258Y574825D01*
X157656Y575141D01*
X158104Y575423D01*
X158597Y575667D01*
X159137Y575874D01*
X159722Y576043D01*
X160353Y576174D01*
X161029Y576268D01*
X161752Y576325D01*
X162520Y576343D01*
X163235Y576329D01*
X163906Y576287D01*
X164534Y576217D01*
X165118Y576118D01*
X165659Y575991D01*
X166157Y575836D01*
X166611Y575653D01*
X167023Y575442D01*
X167398Y575196D01*
X167743Y574911D01*
X168060Y574587D01*
X168348Y574222D01*
X168606Y573819D01*
X168835Y573375D01*
X169035Y572892D01*
X169206Y572368D01*
X166900Y571964D01*
X166794Y572295D01*
X166667Y572603D01*
X166518Y572888D01*
X166348Y573149D01*
X166156Y573386D01*
X165943Y573600D01*
X165708Y573791D01*
X165452Y573957D01*
X165173Y574102D01*
X164867Y574228D01*
X164536Y574335D01*
X164180Y574422D01*
X163797Y574490D01*
X163389Y574538D01*
X162955Y574567D01*
X162496Y574577D01*
X161993Y574566D01*
X161520Y574534D01*
X161079Y574480D01*
X160668Y574405D01*
X160288Y574308D01*
X159938Y574190D01*
X159619Y574051D01*
X159331Y573890D01*
X159075Y573707D01*
X158853Y573504D01*
X158665Y573280D01*
X158512Y573034D01*
X158392Y572767D01*
X158307Y572480D01*
X158256Y572171D01*
X158239Y571841D01*
X158245Y571646D01*
X158265Y571459D01*
X158298Y571282D01*
X158345Y571113D01*
X158404Y570952D01*
X158477Y570800D01*
X158662Y570522D01*
X158897Y570271D01*
X159179Y570041D01*
X159507Y569830D01*
X159883Y569639D01*
X160380Y569448D01*
X161076Y569236D01*
X161969Y569003D01*
X163060Y568749D01*
X164649Y568375D01*
X165423Y568167D01*
X166164Y567921D01*
X166865Y567635D01*
X167520Y567302D01*
X167825Y567114D01*
X168110Y566906D01*
X168374Y566678D01*
X168618Y566431D01*
X168838Y566162D01*
X169033Y565869D01*
X169203Y565554D01*
X169347Y565216D01*
X169463Y564851D01*
X169545Y564456D01*
X169595Y564029D01*
X169611Y563572D01*
X169604Y563277D01*
X169582Y562991D01*
X169545Y562713D01*
X169494Y562444D01*
X169429Y562183D01*
X169348Y561930D01*
X169253Y561686D01*
X169144Y561450D01*
X169019Y561223D01*
X168880Y561004D01*
X168727Y560793D01*
X168559Y560591D01*
X168179Y560212D01*
X167740Y559867D01*
X167249Y559560D01*
X166709Y559293D01*
X166122Y559067D01*
X165488Y558883D01*
X164805Y558739D01*
X164075Y558637D01*
X163297Y558575D01*
X162471Y558555D01*
G37*
G36*
X183565Y558555D02*
X183037Y558572D01*
X182546Y558623D01*
X182092Y558707D01*
X181674Y558826D01*
X181293Y558979D01*
X180948Y559165D01*
X180640Y559386D01*
X180369Y559640D01*
X180132Y559934D01*
X179926Y560272D01*
X179752Y560654D01*
X179610Y561080D01*
X179499Y561551D01*
X179420Y562066D01*
X179372Y562625D01*
X179357Y563229D01*
X179357Y572074D01*
X181577Y572074D01*
X181577Y563658D01*
X181593Y563039D01*
X181642Y562493D01*
X181722Y562020D01*
X181835Y561622D01*
X181983Y561285D01*
X182169Y560999D01*
X182394Y560764D01*
X182657Y560579D01*
X182806Y560504D01*
X182972Y560439D01*
X183353Y560340D01*
X183800Y560280D01*
X184313Y560260D01*
X184701Y560277D01*
X185068Y560328D01*
X185414Y560413D01*
X185739Y560533D01*
X186043Y560686D01*
X186326Y560874D01*
X186587Y561096D01*
X186828Y561352D01*
X187044Y561638D01*
X187230Y561951D01*
X187389Y562290D01*
X187518Y562655D01*
X187619Y563047D01*
X187691Y563466D01*
X187734Y563911D01*
X187748Y564382D01*
X187748Y572074D01*
X189956Y572074D01*
X189956Y561634D01*
X189975Y559766D01*
X189998Y559170D01*
X190030Y558800D01*
X187944Y558800D01*
X187920Y559131D01*
X187889Y559751D01*
X187846Y561070D01*
X187809Y561070D01*
X187615Y560739D01*
X187414Y560433D01*
X187205Y560152D01*
X186989Y559896D01*
X186765Y559666D01*
X186534Y559461D01*
X186295Y559280D01*
X186049Y559125D01*
X185791Y558991D01*
X185519Y558876D01*
X185231Y558778D01*
X184928Y558697D01*
X184610Y558635D01*
X184277Y558590D01*
X183928Y558564D01*
X183565Y558555D01*
G37*
G36*
X61119Y558555D02*
X60517Y558567D01*
X59951Y558606D01*
X59420Y558669D01*
X58925Y558759D01*
X58465Y558873D01*
X58040Y559014D01*
X57651Y559179D01*
X57297Y559370D01*
X56976Y559589D01*
X56684Y559836D01*
X56422Y560111D01*
X56189Y560415D01*
X55985Y560747D01*
X55810Y561108D01*
X55665Y561498D01*
X55549Y561916D01*
X57500Y562296D01*
X57580Y562038D01*
X57679Y561798D01*
X57796Y561576D01*
X57932Y561372D01*
X58087Y561185D01*
X58261Y561016D01*
X58454Y560865D01*
X58665Y560732D01*
X58897Y560616D01*
X59150Y560515D01*
X59424Y560429D01*
X59720Y560360D01*
X60038Y560305D01*
X60377Y560266D01*
X60737Y560243D01*
X61119Y560235D01*
X61525Y560243D01*
X61903Y560268D01*
X62253Y560308D01*
X62574Y560364D01*
X62868Y560437D01*
X63133Y560525D01*
X63370Y560630D01*
X63579Y560751D01*
X63761Y560887D01*
X63920Y561040D01*
X64053Y561210D01*
X64163Y561395D01*
X64248Y561596D01*
X64309Y561813D01*
X64346Y562047D01*
X64358Y562296D01*
X64349Y562488D01*
X64324Y562671D01*
X64282Y562844D01*
X64223Y563008D01*
X64147Y563163D01*
X64054Y563309D01*
X63944Y563445D01*
X63818Y563572D01*
X63673Y563692D01*
X63507Y563807D01*
X63113Y564020D01*
X62636Y564212D01*
X62076Y564382D01*
X60493Y564799D01*
X59611Y565043D01*
X58866Y565285D01*
X58259Y565525D01*
X57788Y565762D01*
X57408Y566011D01*
X57072Y566285D01*
X56780Y566584D01*
X56531Y566909D01*
X56424Y567083D01*
X56332Y567266D01*
X56254Y567458D01*
X56190Y567661D01*
X56141Y567872D01*
X56105Y568094D01*
X56084Y568325D01*
X56077Y568565D01*
X56097Y569006D01*
X56158Y569419D01*
X56259Y569806D01*
X56400Y570165D01*
X56582Y570497D01*
X56805Y570802D01*
X57068Y571081D01*
X57371Y571332D01*
X57713Y571555D01*
X58092Y571748D01*
X58508Y571911D01*
X58961Y572045D01*
X59451Y572149D01*
X59978Y572223D01*
X60542Y572268D01*
X61144Y572283D01*
X61678Y572271D01*
X62185Y572234D01*
X62664Y572174D01*
X63114Y572089D01*
X63536Y571981D01*
X63930Y571848D01*
X64296Y571691D01*
X64634Y571510D01*
X64942Y571302D01*
X65222Y571065D01*
X65471Y570799D01*
X65690Y570504D01*
X65880Y570179D01*
X66040Y569826D01*
X66171Y569443D01*
X66272Y569032D01*
X64284Y568786D01*
X64228Y569001D01*
X64153Y569202D01*
X64059Y569391D01*
X63945Y569567D01*
X63812Y569730D01*
X63660Y569880D01*
X63488Y570017D01*
X63297Y570142D01*
X63087Y570253D01*
X62861Y570348D01*
X62617Y570430D01*
X62357Y570496D01*
X62079Y570548D01*
X61784Y570585D01*
X61472Y570607D01*
X61144Y570614D01*
X60782Y570607D01*
X60444Y570586D01*
X60131Y570550D01*
X59843Y570501D01*
X59579Y570437D01*
X59340Y570359D01*
X59125Y570267D01*
X58935Y570160D01*
X58768Y570039D01*
X58624Y569904D01*
X58502Y569754D01*
X58402Y569590D01*
X58324Y569411D01*
X58268Y569217D01*
X58235Y569009D01*
X58224Y568786D01*
X58242Y568516D01*
X58297Y568271D01*
X58389Y568050D01*
X58518Y567854D01*
X58683Y567677D01*
X58883Y567513D01*
X59119Y567364D01*
X59389Y567228D01*
X59757Y567087D01*
X60285Y566921D01*
X60972Y566731D01*
X61818Y566517D01*
X62634Y566300D01*
X63327Y566092D01*
X63898Y565892D01*
X64345Y565701D01*
X64712Y565509D01*
X65037Y565307D01*
X65322Y565095D01*
X65566Y564873D01*
X65777Y564637D01*
X65963Y564384D01*
X66124Y564112D01*
X66259Y563824D01*
X66367Y563516D01*
X66443Y563187D01*
X66489Y562838D01*
X66505Y562468D01*
X66483Y562012D01*
X66416Y561583D01*
X66305Y561181D01*
X66150Y560806D01*
X65951Y560457D01*
X65708Y560136D01*
X65420Y559841D01*
X65088Y559573D01*
X64716Y559334D01*
X64308Y559127D01*
X63865Y558952D01*
X63387Y558809D01*
X62873Y558698D01*
X62324Y558618D01*
X61739Y558571D01*
X61119Y558555D01*
G37*
G36*
X74197Y558555D02*
X73854Y558562D01*
X73521Y558582D01*
X73199Y558617D01*
X72887Y558665D01*
X72585Y558727D01*
X72294Y558802D01*
X72012Y558892D01*
X71742Y558995D01*
X71481Y559112D01*
X71231Y559242D01*
X70991Y559387D01*
X70761Y559545D01*
X70542Y559717D01*
X70333Y559902D01*
X70134Y560102D01*
X69946Y560315D01*
X69768Y560541D01*
X69602Y560780D01*
X69448Y561032D01*
X69304Y561296D01*
X69173Y561573D01*
X69052Y561862D01*
X68944Y562164D01*
X68846Y562479D01*
X68686Y563146D01*
X68571Y563863D01*
X68503Y564631D01*
X68480Y565449D01*
X68503Y566262D01*
X68572Y567025D01*
X68687Y567738D01*
X68848Y568401D01*
X68946Y568714D01*
X69055Y569015D01*
X69176Y569304D01*
X69308Y569579D01*
X69452Y569843D01*
X69607Y570094D01*
X69774Y570333D01*
X69952Y570559D01*
X70141Y570772D01*
X70340Y570972D01*
X70549Y571157D01*
X70768Y571329D01*
X70997Y571487D01*
X71236Y571632D01*
X71484Y571762D01*
X71743Y571879D01*
X72012Y571982D01*
X72291Y572072D01*
X72579Y572147D01*
X72878Y572209D01*
X73187Y572258D01*
X73505Y572292D01*
X73834Y572313D01*
X74172Y572319D01*
X74670Y572303D01*
X75147Y572253D01*
X75602Y572171D01*
X76035Y572056D01*
X76447Y571907D01*
X76837Y571726D01*
X77205Y571512D01*
X77552Y571264D01*
X77872Y570988D01*
X78161Y570687D01*
X78419Y570361D01*
X78645Y570010D01*
X78841Y569634D01*
X79005Y569233D01*
X79137Y568807D01*
X79239Y568357D01*
X76969Y568185D01*
X76918Y568454D01*
X76850Y568709D01*
X76766Y568949D01*
X76666Y569176D01*
X76549Y569388D01*
X76415Y569586D01*
X76265Y569770D01*
X76098Y569939D01*
X75914Y570092D01*
X75712Y570224D01*
X75491Y570336D01*
X75252Y570427D01*
X74994Y570498D01*
X74718Y570549D01*
X74424Y570579D01*
X74111Y570590D01*
X73687Y570571D01*
X73294Y570517D01*
X72931Y570426D01*
X72599Y570298D01*
X72297Y570134D01*
X72025Y569934D01*
X71783Y569697D01*
X71571Y569424D01*
X71387Y569108D01*
X71228Y568742D01*
X71093Y568326D01*
X70983Y567860D01*
X70897Y567344D01*
X70835Y566779D01*
X70798Y566164D01*
X70786Y565498D01*
X70799Y564857D01*
X70838Y564259D01*
X70904Y563704D01*
X70995Y563192D01*
X71112Y562723D01*
X71255Y562296D01*
X71425Y561913D01*
X71620Y561573D01*
X71842Y561274D01*
X72090Y561014D01*
X72365Y560795D01*
X72666Y560616D01*
X72994Y560476D01*
X73348Y560376D01*
X73728Y560317D01*
X74135Y560297D01*
X74424Y560307D01*
X74700Y560337D01*
X74964Y560386D01*
X75217Y560456D01*
X75457Y560546D01*
X75685Y560656D01*
X75901Y560785D01*
X76104Y560935D01*
X76293Y561105D01*
X76462Y561297D01*
X76612Y561510D01*
X76744Y561744D01*
X76856Y562000D01*
X76950Y562278D01*
X77024Y562577D01*
X77080Y562898D01*
X79313Y562750D01*
X79231Y562284D01*
X79114Y561842D01*
X78962Y561424D01*
X78776Y561030D01*
X78554Y560660D01*
X78298Y560314D01*
X78007Y559993D01*
X77681Y559696D01*
X77326Y559428D01*
X76948Y559196D01*
X76547Y559000D01*
X76123Y558840D01*
X75676Y558715D01*
X75206Y558626D01*
X74713Y558572D01*
X74197Y558555D01*
G37*
G36*
X175320Y558604D02*
X174999Y558615D01*
X174699Y558651D01*
X174419Y558709D01*
X174161Y558792D01*
X173923Y558897D01*
X173705Y559026D01*
X173509Y559179D01*
X173333Y559355D01*
X173177Y559555D01*
X173043Y559778D01*
X172929Y560024D01*
X172836Y560294D01*
X172763Y560588D01*
X172711Y560905D01*
X172680Y561245D01*
X172670Y561609D01*
X172670Y570467D01*
X171137Y570467D01*
X171137Y572074D01*
X172756Y572074D01*
X173406Y575043D01*
X174878Y575043D01*
X174878Y572074D01*
X177332Y572074D01*
X177332Y570467D01*
X174878Y570467D01*
X174878Y562088D01*
X174898Y561645D01*
X174957Y561274D01*
X175001Y561115D01*
X175054Y560973D01*
X175118Y560850D01*
X175191Y560744D01*
X175277Y560654D01*
X175376Y560575D01*
X175490Y560509D01*
X175619Y560455D01*
X175762Y560412D01*
X175919Y560382D01*
X176091Y560364D01*
X176277Y560358D01*
X176522Y560369D01*
X176817Y560401D01*
X177553Y560530D01*
X177553Y558898D01*
X177004Y558769D01*
X176449Y558677D01*
X175887Y558622D01*
X175320Y558604D01*
G37*
G36*
X97845Y558800D02*
X95637Y558800D01*
X95637Y577006D01*
X97845Y577006D01*
X97845Y558800D01*
G37*
G36*
X131376Y558800D02*
X129168Y558800D01*
X129168Y577006D01*
X131376Y577006D01*
X131376Y558800D01*
G37*
G36*
X209551Y558800D02*
X207343Y558800D01*
X207343Y572074D01*
X209551Y572074D01*
X209551Y558800D01*
G37*
G36*
X209551Y574896D02*
X207343Y574896D01*
X207343Y577006D01*
X209551Y577006D01*
X209551Y574896D01*
G37*
D10*
X368300Y114300D03*
X368300Y139700D03*
X368300Y165100D03*
X368300Y190500D03*
X368300Y215900D03*
X368300Y241300D03*
X368300Y266700D03*
X368300Y292100D03*
X368300Y317500D03*
X368300Y342900D03*
X368300Y368300D03*
X368300Y393700D03*
X368300Y419100D03*
X368300Y444500D03*
X368300Y469900D03*
X114300Y114300D03*
X114300Y139700D03*
X114300Y165100D03*
X114300Y190500D03*
X114300Y215900D03*
X114300Y241300D03*
X114300Y266700D03*
X114300Y292100D03*
X114300Y317500D03*
X114300Y342900D03*
X114300Y368300D03*
X114300Y393700D03*
X114300Y419100D03*
X114300Y444500D03*
X114300Y469900D03*
D11*
X838200Y560070D03*
D12*
X838200Y532130D03*
D13*
X693420Y25400D02*
X678180Y25400D01*
X678180Y50800D02*
X693420Y50800D01*
X693420Y76200D02*
X678180Y76200D01*
X678180Y664720D02*
X693420Y664720D01*
X693420Y690120D02*
X678180Y690120D01*
X678180Y715520D02*
X693420Y715520D01*
X741680Y533400D02*
X756920Y533400D01*
X756920Y558800D02*
X741680Y558800D01*
X741680Y584200D02*
X756920Y584200D01*
X693420Y533400D02*
X678180Y533400D01*
X678180Y558800D02*
X693420Y558800D01*
X693420Y584200D02*
X678180Y584200D01*
X741680Y25400D02*
X756920Y25400D01*
X756920Y50800D02*
X741680Y50800D01*
X741680Y76200D02*
X756920Y76200D01*
X693420Y152400D02*
X678180Y152400D01*
X678180Y177800D02*
X693420Y177800D01*
X693420Y203200D02*
X678180Y203200D01*
X741680Y152400D02*
X756920Y152400D01*
X756920Y177800D02*
X741680Y177800D01*
X741680Y203200D02*
X756920Y203200D01*
X693420Y279400D02*
X678180Y279400D01*
X678180Y304800D02*
X693420Y304800D01*
X693420Y330200D02*
X678180Y330200D01*
X741680Y279400D02*
X756920Y279400D01*
X756920Y304800D02*
X741680Y304800D01*
X741680Y330200D02*
X756920Y330200D01*
X693420Y406400D02*
X678180Y406400D01*
X678180Y431800D02*
X693420Y431800D01*
X693420Y457200D02*
X678180Y457200D01*
X741680Y406400D02*
X756920Y406400D01*
X756920Y431800D02*
X741680Y431800D01*
X741680Y457200D02*
X756920Y457200D01*
X756920Y660400D02*
X741680Y660400D01*
X741680Y685800D02*
X756920Y685800D01*
X756920Y711200D02*
X741680Y711200D01*
D14*
X800100Y127000D03*
X800100Y203200D03*
D15*
X520700Y406400D03*
X444500Y406400D03*
X520700Y342900D03*
X444500Y342900D03*
X520700Y266700D03*
X444500Y266700D03*
X520700Y165100D03*
X444500Y165100D03*
X520700Y101600D03*
X444500Y101600D03*
X520700Y38100D03*
X444500Y38100D03*
D14*
X787400Y381000D03*
X787400Y457200D03*
X812800Y381000D03*
X812800Y457200D03*
X635000Y16764D03*
X635000Y92964D03*
D16*
X558800Y152400D03*
X635000Y152400D03*
D14*
X635000Y177800D03*
X635000Y254000D03*
D17*
X635000Y355600D03*
X635000Y279400D03*
D14*
X635000Y381000D03*
X635000Y457200D03*
D16*
X558800Y488696D03*
X635000Y488696D03*
D15*
X584200Y50800D03*
X558800Y50800D03*
X558800Y25400D03*
X584200Y215900D03*
X558800Y215900D03*
X558800Y190500D03*
X584200Y114300D03*
X558800Y114300D03*
X558800Y88900D03*
X584200Y292100D03*
X558800Y292100D03*
X558800Y266700D03*
X584200Y368300D03*
X558800Y368300D03*
X558800Y342900D03*
X584200Y444500D03*
X558800Y444500D03*
X558800Y419100D03*
D18*
X47054Y63900D02*
X29147Y63900D01*
X29147Y113900D02*
X47054Y113900D01*
X47054Y190900D02*
X29147Y190900D01*
X29147Y240900D02*
X47054Y240900D01*
X47054Y355200D02*
X29147Y355200D01*
X29147Y305200D02*
X47054Y305200D01*
X816547Y75800D02*
X834454Y75800D01*
X834454Y25800D02*
X816547Y25800D01*
X816547Y329800D02*
X834454Y329800D01*
X834454Y279800D02*
X816547Y279800D01*
X816547Y710800D02*
X834454Y710800D01*
X834454Y660800D02*
X816547Y660800D01*
D13*
X571500Y690880D02*
X571500Y706120D01*
X546100Y706120D02*
X546100Y690880D01*
X520700Y690880D02*
X520700Y706120D01*
X571500Y741680D02*
X571500Y756920D01*
X546100Y756920D02*
X546100Y741680D01*
X520700Y741680D02*
X520700Y756920D01*
X444500Y655320D02*
X444500Y640080D01*
X419100Y640080D02*
X419100Y655320D01*
X393700Y655320D02*
X393700Y640080D01*
X444500Y604520D02*
X444500Y589280D01*
X419100Y589280D02*
X419100Y604520D01*
X393700Y604520D02*
X393700Y589280D01*
D14*
X795057Y515657D03*
X795057Y591857D03*
D17*
X635950Y595950D03*
X635950Y519750D03*
D14*
X635000Y622300D03*
X635000Y698500D03*
D15*
X584200Y533400D03*
X558800Y533400D03*
X558800Y558800D03*
X584200Y635000D03*
X558800Y635000D03*
X558800Y609600D03*
D18*
X394100Y714947D02*
X394100Y732854D01*
X444100Y732854D02*
X444100Y714947D01*
D15*
X520700Y482600D03*
X444500Y482600D03*
X520700Y546100D03*
X444500Y546100D03*
D19*
X42672Y304800D02*
X42672Y243840D01*
X38100Y240900D01*
X42672Y304800D02*
X38100Y305200D01*
X67056Y158496D02*
X109728Y115824D01*
X67056Y158496D02*
X67056Y213360D01*
X42672Y237744D01*
X109728Y115824D02*
X114300Y114300D01*
X42672Y237744D02*
X38100Y240900D01*
X688848Y54864D02*
X743712Y54864D01*
X688848Y54864D02*
X685800Y50800D01*
X743712Y54864D02*
X749300Y50800D01*
X780288Y30480D02*
X822960Y30480D01*
X780288Y30480D02*
X762000Y48768D01*
X749808Y48768D01*
X822960Y30480D02*
X825500Y25800D01*
X749808Y48768D02*
X749300Y50800D01*
X743712Y182880D02*
X688848Y182880D01*
X685800Y177800D01*
X743712Y182880D02*
X749300Y177800D01*
X749808Y207264D02*
X774192Y207264D01*
X798576Y207264D01*
X800100Y203200D01*
X749808Y207264D02*
X749300Y203200D01*
X749808Y115824D02*
X749808Y79248D01*
X749808Y115824D02*
X774192Y140208D01*
X774192Y207264D01*
X749808Y79248D02*
X749300Y76200D01*
X749300Y304800D02*
X685800Y304800D01*
X780288Y280416D02*
X822960Y280416D01*
X780288Y280416D02*
X755904Y304800D01*
X749300Y304800D01*
X822960Y280416D02*
X825500Y279800D01*
X743712Y432816D02*
X688848Y432816D01*
X685800Y431800D01*
X743712Y432816D02*
X749300Y431800D01*
X749300Y457200D02*
X774192Y457200D01*
X787400Y457200D01*
X749808Y371856D02*
X749808Y335280D01*
X749808Y371856D02*
X774192Y396240D01*
X774192Y457200D01*
X749808Y335280D02*
X749300Y330200D01*
X743712Y688848D02*
X688848Y688848D01*
X743712Y688848D02*
X749300Y685800D01*
X688848Y688848D02*
X685800Y690120D01*
X780288Y664464D02*
X822960Y664464D01*
X780288Y664464D02*
X762000Y682752D01*
X749808Y682752D01*
X822960Y664464D02*
X825500Y660800D01*
X749808Y682752D02*
X749300Y685800D01*
X743712Y560832D02*
X688848Y560832D01*
X685800Y558800D01*
X743712Y560832D02*
X749300Y558800D01*
X755904Y512064D02*
X810768Y457200D01*
X755904Y512064D02*
X670560Y512064D01*
X658368Y524256D01*
X658368Y566928D01*
X670560Y579120D01*
X682752Y579120D01*
X810768Y457200D02*
X812800Y457200D01*
X682752Y579120D02*
X685800Y584200D01*
X688848Y664464D02*
X743712Y664464D01*
X749300Y660400D01*
X688848Y664464D02*
X685800Y664720D01*
X603504Y347472D02*
X560832Y347472D01*
X603504Y347472D02*
X633984Y377952D01*
X560832Y347472D02*
X558800Y342900D01*
X633984Y377952D02*
X635000Y381000D01*
X682752Y615696D02*
X682752Y664464D01*
X682752Y615696D02*
X615696Y548640D01*
X615696Y402336D01*
X633984Y384048D01*
X682752Y664464D02*
X685800Y664720D01*
X633984Y384048D02*
X635000Y381000D01*
X688848Y280416D02*
X743712Y280416D01*
X688848Y280416D02*
X685800Y279400D01*
X743712Y280416D02*
X749300Y279400D01*
X633984Y182880D02*
X566928Y182880D01*
X560832Y188976D01*
X558800Y190500D01*
X682752Y231648D02*
X682752Y274320D01*
X682752Y231648D02*
X633984Y182880D01*
X682752Y274320D02*
X685800Y279400D01*
X633984Y182880D02*
X635000Y177800D01*
X640080Y18288D02*
X676656Y18288D01*
X682752Y24384D01*
X640080Y18288D02*
X635000Y16764D01*
X682752Y24384D02*
X685800Y25400D01*
X627888Y24384D02*
X560832Y24384D01*
X627888Y24384D02*
X633984Y18288D01*
X560832Y24384D02*
X558800Y25400D01*
X633984Y18288D02*
X635000Y16764D01*
X688848Y30480D02*
X743712Y30480D01*
X749300Y25400D01*
X688848Y30480D02*
X685800Y25400D01*
X685800Y152400D02*
X749300Y152400D01*
X743712Y408432D02*
X688848Y408432D01*
X685800Y406400D01*
X743712Y408432D02*
X749300Y406400D01*
X585216Y268224D02*
X560832Y268224D01*
X585216Y268224D02*
X633984Y316992D01*
X633984Y353568D01*
X560832Y268224D02*
X558800Y266700D01*
X633984Y353568D02*
X635000Y355600D01*
X640080Y359664D02*
X682752Y402336D01*
X685800Y406400D01*
X640080Y359664D02*
X635000Y355600D01*
X688848Y536448D02*
X743712Y536448D01*
X688848Y536448D02*
X685800Y533400D01*
X743712Y536448D02*
X749300Y533400D01*
X548640Y42672D02*
X524256Y42672D01*
X548640Y42672D02*
X554736Y48768D01*
X524256Y42672D02*
X520700Y38100D01*
X554736Y48768D02*
X558800Y50800D01*
X548640Y103632D02*
X524256Y103632D01*
X548640Y103632D02*
X554736Y109728D01*
X524256Y103632D02*
X520700Y101600D01*
X554736Y109728D02*
X558800Y114300D01*
X524256Y170688D02*
X524256Y182880D01*
X554736Y213360D01*
X524256Y170688D02*
X520700Y165100D01*
X554736Y213360D02*
X558800Y215900D01*
X524256Y268224D02*
X548640Y292608D01*
X554736Y292608D01*
X524256Y268224D02*
X520700Y266700D01*
X554736Y292608D02*
X558800Y292100D01*
X536448Y347472D02*
X524256Y347472D01*
X536448Y347472D02*
X554736Y365760D01*
X524256Y347472D02*
X520700Y342900D01*
X554736Y365760D02*
X558800Y368300D01*
X524256Y408432D02*
X560832Y445008D01*
X524256Y408432D02*
X520700Y406400D01*
X558800Y444500D02*
X560832Y445008D01*
X438912Y268224D02*
X396240Y268224D01*
X371856Y292608D01*
X438912Y268224D02*
X444500Y266700D01*
X371856Y292608D02*
X368300Y292100D01*
X426720Y164592D02*
X438912Y164592D01*
X426720Y164592D02*
X371856Y219456D01*
X438912Y164592D02*
X444500Y165100D01*
X371856Y219456D02*
X368300Y215900D01*
X438912Y121920D02*
X438912Y103632D01*
X438912Y121920D02*
X371856Y188976D01*
X438912Y103632D02*
X444500Y101600D01*
X371856Y188976D02*
X368300Y190500D01*
X445008Y73152D02*
X445008Y42672D01*
X445008Y73152D02*
X390144Y128016D01*
X390144Y146304D01*
X371856Y164592D01*
X445008Y42672D02*
X444500Y38100D01*
X371856Y164592D02*
X368300Y165100D01*
X396240Y341376D02*
X438912Y341376D01*
X396240Y341376D02*
X371856Y316992D01*
X438912Y341376D02*
X444500Y342900D01*
X371856Y316992D02*
X368300Y317500D01*
X371856Y341376D02*
X438912Y408432D01*
X444500Y406400D01*
X371856Y341376D02*
X368300Y342900D01*
X42672Y79248D02*
X42672Y67056D01*
X42672Y79248D02*
X67056Y103632D01*
X67056Y140208D01*
X42672Y164592D01*
X42672Y188976D01*
X42672Y67056D02*
X38100Y63900D01*
X42672Y188976D02*
X38100Y190900D01*
X548640Y701040D02*
X548640Y743712D01*
X548640Y701040D02*
X546100Y698500D01*
X548640Y743712D02*
X546100Y749300D01*
X463296Y719328D02*
X445008Y719328D01*
X463296Y719328D02*
X512064Y670560D01*
X524256Y670560D01*
X548640Y694944D01*
X445008Y719328D02*
X444100Y723900D01*
X546100Y698500D02*
X548640Y694944D01*
X420624Y646176D02*
X420624Y597408D01*
X419100Y596900D01*
X420624Y646176D02*
X419100Y647700D01*
X396240Y676656D02*
X396240Y719328D01*
X396240Y676656D02*
X420624Y652272D01*
X396240Y719328D02*
X394100Y723900D01*
X420624Y652272D02*
X419100Y647700D01*
X768096Y597408D02*
X792480Y597408D01*
X768096Y597408D02*
X762000Y603504D01*
X688848Y603504D01*
X792480Y597408D02*
X795057Y591857D01*
D20*
X688848Y603504D03*
D19*
X573024Y701040D02*
X573024Y743712D01*
X573024Y701040D02*
X571500Y698500D01*
X573024Y743712D02*
X571500Y749300D01*
X573024Y694944D02*
X573024Y670560D01*
X615696Y627888D01*
X615696Y615696D01*
X633984Y597408D01*
X573024Y694944D02*
X571500Y698500D01*
X633984Y597408D02*
X635950Y595950D01*
X445008Y597408D02*
X445008Y646176D01*
X445008Y597408D02*
X444500Y596900D01*
X445008Y646176D02*
X444500Y647700D01*
X524256Y499872D02*
X524256Y487680D01*
X524256Y499872D02*
X554736Y530352D01*
X524256Y487680D02*
X520700Y482600D01*
X554736Y530352D02*
X558800Y533400D01*
X524256Y548640D02*
X524256Y603504D01*
X554736Y633984D01*
X524256Y548640D02*
X520700Y546100D01*
X554736Y633984D02*
X558800Y635000D01*
X390144Y652272D02*
X390144Y664464D01*
X371856Y682752D01*
X371856Y737616D01*
X390144Y755904D01*
X463296Y755904D01*
X520700Y698500D01*
X393700Y647700D02*
X390144Y652272D01*
X725424Y713232D02*
X743712Y713232D01*
X725424Y713232D02*
X701040Y737616D01*
X670560Y737616D01*
X633984Y701040D01*
X743712Y713232D02*
X749300Y711200D01*
X635000Y698500D02*
X633984Y701040D01*
X749808Y579120D02*
X780288Y579120D01*
X798576Y560832D01*
X835152Y560832D01*
X749808Y579120D02*
X749300Y584200D01*
X835152Y560832D02*
X838200Y560070D01*
X670560Y91440D02*
X640080Y91440D01*
X670560Y91440D02*
X685800Y76200D01*
X640080Y91440D02*
X635000Y92964D01*
X633984Y97536D02*
X633984Y152400D01*
X635000Y152400D01*
X633984Y97536D02*
X635000Y92964D01*
X640080Y457200D02*
X640080Y487680D01*
X635000Y488696D01*
X633984Y493776D02*
X633984Y518160D01*
X635950Y519750D01*
X633984Y493776D02*
X635000Y488696D01*
X640080Y457200D02*
X685800Y457200D01*
X640080Y457200D02*
X635000Y457200D01*
X633984Y274320D02*
X633984Y256032D01*
X635000Y254000D01*
X633984Y274320D02*
X635000Y279400D01*
X676656Y329184D02*
X682752Y329184D01*
X676656Y329184D02*
X640080Y292608D01*
X640080Y280416D01*
X682752Y329184D02*
X685800Y330200D01*
X640080Y280416D02*
X635000Y279400D01*
X658368Y170688D02*
X640080Y152400D01*
X658368Y170688D02*
X658368Y182880D01*
X682752Y207264D01*
X640080Y152400D02*
X635000Y152400D01*
X685800Y203200D02*
X682752Y207264D01*
X585216Y371856D02*
X585216Y438912D01*
X585216Y371856D02*
X584200Y368300D01*
X585216Y438912D02*
X584200Y444500D01*
X585216Y445008D02*
X585216Y530352D01*
X584200Y533400D01*
X585216Y445008D02*
X584200Y444500D01*
X585216Y536448D02*
X585216Y633984D01*
X584200Y635000D01*
X585216Y536448D02*
X584200Y533400D01*
X792480Y384048D02*
X810768Y384048D01*
X792480Y384048D02*
X787400Y381000D01*
X810768Y384048D02*
X812800Y381000D01*
X822960Y518160D02*
X798576Y518160D01*
X829056Y524256D02*
X835152Y530352D01*
X829056Y524256D02*
X822960Y518160D01*
X798576Y518160D02*
X795057Y515657D01*
X835152Y530352D02*
X838200Y532130D01*
X816864Y438912D02*
X816864Y384048D01*
X816864Y438912D02*
X829056Y451104D01*
X829056Y524256D01*
X816864Y384048D02*
X812800Y381000D01*
X585216Y109728D02*
X585216Y54864D01*
X584200Y50800D01*
X585216Y109728D02*
X584200Y114300D01*
X438912Y432816D02*
X438912Y481584D01*
X438912Y432816D02*
X371856Y365760D01*
X438912Y481584D02*
X444500Y482600D01*
X368300Y368300D02*
X371856Y365760D01*
X438912Y499872D02*
X438912Y542544D01*
X438912Y499872D02*
X390144Y451104D01*
X390144Y408432D01*
X371856Y390144D01*
X438912Y542544D02*
X444500Y546100D01*
X368300Y393700D02*
X371856Y390144D01*
M02*
