G04 EAGLE Gerber RS-274X export*
G75*
%MOMM*%
%FSLAX34Y34*%
%LPD*%
%INBottom Copper*%
%IPPOS*%
%AMOC8*
5,1,8,0,0,1.08239X$1,22.5*%
G01*
G04 Define Apertures*
%ADD10C,1.930400*%
%ADD11R,1.879600X1.879600*%
%ADD12C,1.879600*%
%ADD13C,1.524000*%
%ADD14P,1.42962X8X112.5*%
%ADD15P,1.42962X8X202.5*%
%ADD16P,1.42962X8X22.5*%
%ADD17P,1.42962X8X292.5*%
%ADD18C,1.790700*%
%ADD19C,0.609600*%
%ADD20C,0.756400*%
G36*
X552995Y10281D02*
X552400Y10160D01*
X11684Y10160D01*
X11135Y10262D01*
X10624Y10589D01*
X10281Y11090D01*
X10160Y11684D01*
X10160Y772416D01*
X10262Y772965D01*
X10589Y773476D01*
X11090Y773819D01*
X11684Y773940D01*
X851716Y773940D01*
X852265Y773838D01*
X852776Y773511D01*
X853119Y773010D01*
X853240Y772416D01*
X853240Y576010D01*
X853142Y575472D01*
X852819Y574959D01*
X852322Y574612D01*
X851728Y574486D01*
X851133Y574602D01*
X848811Y575564D01*
X827589Y575564D01*
X825349Y574636D01*
X823634Y572921D01*
X822706Y570681D01*
X822706Y549459D01*
X823634Y547219D01*
X825349Y545504D01*
X827589Y544576D01*
X848811Y544576D01*
X851133Y545538D01*
X851667Y545653D01*
X852265Y545551D01*
X852776Y545225D01*
X853119Y544724D01*
X853240Y544130D01*
X853240Y11684D01*
X853138Y11135D01*
X852811Y10624D01*
X852310Y10281D01*
X851716Y10160D01*
X843683Y10160D01*
X843168Y10250D01*
X842649Y10564D01*
X842294Y11056D01*
X842160Y11648D01*
X842266Y12245D01*
X842597Y12753D01*
X842882Y12945D01*
X847212Y17275D01*
X849503Y22806D01*
X849503Y28794D01*
X847212Y34325D01*
X842978Y38558D01*
X837447Y40850D01*
X813553Y40850D01*
X808022Y38558D01*
X803788Y34325D01*
X801497Y28794D01*
X801497Y22806D01*
X803788Y17275D01*
X808095Y12969D01*
X808342Y12812D01*
X808701Y12323D01*
X808840Y11733D01*
X808738Y11135D01*
X808412Y10624D01*
X807911Y10281D01*
X807317Y10160D01*
X763631Y10160D01*
X763115Y10250D01*
X762597Y10564D01*
X762242Y11056D01*
X762107Y11648D01*
X762214Y12245D01*
X762545Y12753D01*
X763047Y13092D01*
X764690Y13772D01*
X768548Y17630D01*
X770636Y22672D01*
X770636Y28128D01*
X768548Y33170D01*
X764695Y37022D01*
X764379Y37483D01*
X764249Y38076D01*
X764360Y38672D01*
X764695Y39178D01*
X768548Y43030D01*
X770636Y48072D01*
X770636Y53528D01*
X768548Y58570D01*
X764695Y62422D01*
X764379Y62883D01*
X764249Y63476D01*
X764360Y64072D01*
X764695Y64578D01*
X768548Y68430D01*
X770636Y73472D01*
X770636Y78928D01*
X768548Y83970D01*
X764690Y87828D01*
X759648Y89916D01*
X738952Y89916D01*
X733910Y87828D01*
X730052Y83970D01*
X727964Y78928D01*
X727964Y73472D01*
X730052Y68430D01*
X733905Y64578D01*
X734221Y64117D01*
X734351Y63524D01*
X734240Y62928D01*
X733905Y62422D01*
X730052Y58570D01*
X727964Y53528D01*
X727964Y48072D01*
X730052Y43030D01*
X733905Y39178D01*
X734221Y38717D01*
X734351Y38124D01*
X734240Y37528D01*
X733905Y37022D01*
X730052Y33170D01*
X727964Y28128D01*
X727964Y22672D01*
X730052Y17630D01*
X733910Y13772D01*
X735553Y13092D01*
X735994Y12812D01*
X736353Y12323D01*
X736493Y11733D01*
X736391Y11135D01*
X736064Y10624D01*
X735564Y10281D01*
X734969Y10160D01*
X700131Y10160D01*
X699615Y10250D01*
X699097Y10564D01*
X698742Y11056D01*
X698607Y11648D01*
X698714Y12245D01*
X699045Y12753D01*
X699547Y13092D01*
X701190Y13772D01*
X705048Y17630D01*
X707136Y22672D01*
X707136Y28128D01*
X705048Y33170D01*
X701195Y37022D01*
X700879Y37483D01*
X700749Y38076D01*
X700860Y38672D01*
X701195Y39178D01*
X705048Y43030D01*
X707136Y48072D01*
X707136Y53528D01*
X705048Y58570D01*
X701195Y62422D01*
X700879Y62883D01*
X700749Y63476D01*
X700860Y64072D01*
X701195Y64578D01*
X705048Y68430D01*
X707136Y73472D01*
X707136Y78928D01*
X705048Y83970D01*
X701190Y87828D01*
X696148Y89916D01*
X675452Y89916D01*
X670410Y87828D01*
X666552Y83970D01*
X664464Y78928D01*
X664464Y73472D01*
X666552Y68430D01*
X670405Y64578D01*
X670721Y64117D01*
X670851Y63524D01*
X670740Y62928D01*
X670405Y62422D01*
X666552Y58570D01*
X664464Y53528D01*
X664464Y48072D01*
X666552Y43030D01*
X670405Y39178D01*
X670721Y38717D01*
X670851Y38124D01*
X670740Y37528D01*
X670405Y37022D01*
X666552Y33170D01*
X664464Y28128D01*
X664464Y22672D01*
X666552Y17630D01*
X670410Y13772D01*
X672053Y13092D01*
X672494Y12812D01*
X672853Y12323D01*
X672993Y11733D01*
X672891Y11135D01*
X672564Y10624D01*
X672064Y10281D01*
X671469Y10160D01*
X649224Y10160D01*
X648675Y10262D01*
X648164Y10589D01*
X647821Y11090D01*
X647700Y11684D01*
X647700Y22025D01*
X640261Y29464D01*
X629740Y29464D01*
X622300Y22025D01*
X622300Y11684D01*
X622198Y11135D01*
X621871Y10624D01*
X621370Y10281D01*
X620776Y10160D01*
X565200Y10160D01*
X564673Y10254D01*
X564157Y10573D01*
X563806Y11067D01*
X563676Y11660D01*
X563787Y12256D01*
X564122Y12762D01*
X571500Y20140D01*
X571500Y30661D01*
X565138Y37022D01*
X564822Y37483D01*
X564692Y38076D01*
X564803Y38672D01*
X565138Y39178D01*
X571500Y45540D01*
X571500Y56061D01*
X564061Y63500D01*
X553540Y63500D01*
X546100Y56061D01*
X546100Y45540D01*
X552462Y39178D01*
X552778Y38717D01*
X552908Y38124D01*
X552797Y37528D01*
X552462Y37022D01*
X546100Y30661D01*
X546100Y20140D01*
X553478Y12762D01*
X553784Y12323D01*
X553923Y11733D01*
X553822Y11135D01*
X553495Y10624D01*
X552995Y10281D01*
G37*
%LPC*%
G36*
X675452Y392684D02*
X696148Y392684D01*
X701190Y394772D01*
X705048Y398630D01*
X707136Y403672D01*
X707136Y409128D01*
X705048Y414170D01*
X701195Y418022D01*
X700879Y418483D01*
X700749Y419076D01*
X700860Y419672D01*
X701195Y420178D01*
X705048Y424030D01*
X707136Y429072D01*
X707136Y434528D01*
X705048Y439570D01*
X701195Y443422D01*
X700879Y443883D01*
X700749Y444476D01*
X700860Y445072D01*
X701195Y445578D01*
X705048Y449430D01*
X707136Y454472D01*
X707136Y459928D01*
X706756Y460846D01*
X706640Y461405D01*
X706751Y462001D01*
X707086Y462507D01*
X720984Y476404D01*
X722376Y479765D01*
X722376Y550317D01*
X722487Y550889D01*
X722822Y551395D01*
X726215Y554788D01*
X726665Y555099D01*
X727256Y555233D01*
X727853Y555127D01*
X728362Y554796D01*
X728701Y554293D01*
X730052Y551030D01*
X733905Y547178D01*
X734221Y546717D01*
X734351Y546124D01*
X734240Y545528D01*
X733905Y545022D01*
X730052Y541170D01*
X727964Y536128D01*
X727964Y530672D01*
X730052Y525630D01*
X733910Y521772D01*
X738952Y519684D01*
X759648Y519684D01*
X764690Y521772D01*
X768548Y525630D01*
X770636Y530672D01*
X770636Y536128D01*
X768548Y541170D01*
X764695Y545022D01*
X764379Y545483D01*
X764249Y546076D01*
X764360Y546672D01*
X764695Y547178D01*
X768548Y551030D01*
X770697Y556220D01*
X770747Y556477D01*
X771082Y556983D01*
X781944Y567844D01*
X783336Y571205D01*
X783336Y581938D01*
X783430Y582464D01*
X783749Y582980D01*
X784243Y583331D01*
X784836Y583461D01*
X785432Y583350D01*
X785938Y583015D01*
X789796Y579157D01*
X800317Y579157D01*
X807757Y586596D01*
X807757Y597117D01*
X800317Y604557D01*
X796473Y604557D01*
X795935Y604655D01*
X795422Y604978D01*
X795075Y605475D01*
X794949Y606069D01*
X795065Y606664D01*
X795528Y607781D01*
X795528Y653949D01*
X795639Y654521D01*
X795974Y655027D01*
X799081Y658133D01*
X799531Y658444D01*
X800122Y658579D01*
X800719Y658473D01*
X801227Y658142D01*
X801566Y657639D01*
X803788Y652275D01*
X808022Y648042D01*
X813553Y645751D01*
X837447Y645751D01*
X842978Y648042D01*
X847212Y652275D01*
X849503Y657806D01*
X849503Y663794D01*
X847212Y669325D01*
X842978Y673558D01*
X837447Y675850D01*
X820476Y675850D01*
X819950Y675943D01*
X819434Y676262D01*
X819083Y676757D01*
X818953Y677349D01*
X819064Y677945D01*
X819399Y678451D01*
X830712Y689764D01*
X832104Y693125D01*
X832104Y694227D01*
X832206Y694776D01*
X832533Y695287D01*
X833034Y695630D01*
X833628Y695751D01*
X837447Y695751D01*
X842978Y698042D01*
X847212Y702275D01*
X849503Y707806D01*
X849503Y713794D01*
X847212Y719325D01*
X842978Y723558D01*
X837447Y725850D01*
X813553Y725850D01*
X808022Y723558D01*
X803788Y719325D01*
X801497Y713794D01*
X801497Y707806D01*
X803788Y702275D01*
X808022Y698042D01*
X809524Y697419D01*
X809983Y697123D01*
X810334Y696628D01*
X810464Y696036D01*
X810353Y695439D01*
X810018Y694934D01*
X785938Y670853D01*
X785499Y670547D01*
X784909Y670408D01*
X784311Y670509D01*
X783800Y670836D01*
X783457Y671336D01*
X783336Y671931D01*
X783336Y696763D01*
X781944Y700124D01*
X771082Y710985D01*
X770757Y711468D01*
X770636Y712063D01*
X770636Y713928D01*
X768548Y718970D01*
X764690Y722828D01*
X759648Y724916D01*
X738952Y724916D01*
X733910Y722828D01*
X730052Y718970D01*
X727964Y713928D01*
X727964Y708472D01*
X730052Y703430D01*
X733905Y699578D01*
X734221Y699117D01*
X734351Y698524D01*
X734240Y697928D01*
X733905Y697422D01*
X730052Y693570D01*
X727964Y688528D01*
X727964Y683072D01*
X730052Y678030D01*
X733905Y674178D01*
X734221Y673717D01*
X734351Y673124D01*
X734240Y672528D01*
X733905Y672022D01*
X730052Y668170D01*
X727964Y663128D01*
X727964Y657672D01*
X730052Y652630D01*
X733910Y648772D01*
X738952Y646684D01*
X759648Y646684D01*
X762941Y648048D01*
X763475Y648163D01*
X764073Y648061D01*
X764584Y647734D01*
X764927Y647234D01*
X765048Y646640D01*
X765048Y620115D01*
X764937Y619543D01*
X764602Y619037D01*
X743927Y598362D01*
X743444Y598037D01*
X742849Y597916D01*
X738952Y597916D01*
X733910Y595828D01*
X730052Y591970D01*
X727964Y586928D01*
X727964Y583031D01*
X727853Y582459D01*
X727518Y581953D01*
X708736Y563172D01*
X708286Y562861D01*
X707695Y562726D01*
X707098Y562832D01*
X706589Y563163D01*
X706250Y563666D01*
X705048Y566570D01*
X701195Y570422D01*
X700879Y570883D01*
X700749Y571476D01*
X700860Y572072D01*
X701195Y572578D01*
X705048Y576430D01*
X707136Y581472D01*
X707136Y586928D01*
X706458Y588564D01*
X706343Y589123D01*
X706454Y589719D01*
X706789Y590225D01*
X720984Y604420D01*
X722376Y607781D01*
X722376Y696763D01*
X720984Y700124D01*
X707582Y713525D01*
X707257Y714008D01*
X707136Y714603D01*
X707136Y718248D01*
X705048Y723290D01*
X701190Y727148D01*
X696148Y729236D01*
X675452Y729236D01*
X670410Y727148D01*
X666552Y723290D01*
X664464Y718248D01*
X664464Y712792D01*
X666552Y707750D01*
X670405Y703898D01*
X670721Y703437D01*
X670851Y702844D01*
X670740Y702248D01*
X670405Y701742D01*
X666552Y697890D01*
X664464Y692848D01*
X664464Y687392D01*
X666552Y682350D01*
X670405Y678498D01*
X670721Y678037D01*
X670851Y677444D01*
X670740Y676848D01*
X670405Y676342D01*
X666552Y672490D01*
X664464Y667448D01*
X664464Y661992D01*
X666552Y656950D01*
X670410Y653092D01*
X675452Y651004D01*
X696148Y651004D01*
X701190Y653092D01*
X701486Y653389D01*
X701925Y653695D01*
X702515Y653835D01*
X703113Y653733D01*
X703624Y653406D01*
X703967Y652906D01*
X704088Y652311D01*
X704088Y614019D01*
X703977Y613447D01*
X703642Y612941D01*
X699589Y608888D01*
X699128Y608572D01*
X698535Y608442D01*
X697939Y608553D01*
X697433Y608888D01*
X694444Y611878D01*
X690813Y613382D01*
X686883Y613382D01*
X685391Y612764D01*
X684808Y612648D01*
X681075Y612648D01*
X680503Y612759D01*
X679997Y613094D01*
X626972Y666120D01*
X623611Y667512D01*
X592683Y667512D01*
X592156Y667606D01*
X591640Y667925D01*
X591289Y668419D01*
X591159Y669012D01*
X591270Y669608D01*
X591605Y670114D01*
X606845Y685354D01*
X607328Y685679D01*
X607923Y685800D01*
X632490Y685800D01*
X632909Y685741D01*
X633221Y685652D01*
X634421Y685790D01*
X634595Y685800D01*
X640261Y685800D01*
X647700Y693240D01*
X647700Y703761D01*
X640261Y711200D01*
X629740Y711200D01*
X623074Y704534D01*
X622591Y704209D01*
X621996Y704088D01*
X601685Y704088D01*
X598324Y702696D01*
X587818Y692189D01*
X587379Y691883D01*
X586789Y691744D01*
X586191Y691845D01*
X585680Y692172D01*
X585337Y692672D01*
X585216Y693267D01*
X585216Y708848D01*
X583128Y713890D01*
X579270Y717748D01*
X574228Y719836D01*
X568772Y719836D01*
X563730Y717748D01*
X559878Y713895D01*
X559417Y713579D01*
X558824Y713449D01*
X558228Y713560D01*
X557722Y713895D01*
X553870Y717748D01*
X548828Y719836D01*
X543372Y719836D01*
X538330Y717748D01*
X534478Y713895D01*
X534017Y713579D01*
X533424Y713449D01*
X532828Y713560D01*
X532322Y713895D01*
X528470Y717748D01*
X523428Y719836D01*
X517972Y719836D01*
X512930Y717748D01*
X511618Y716435D01*
X511179Y716129D01*
X510589Y715989D01*
X509991Y716091D01*
X509480Y716418D01*
X509137Y716918D01*
X509016Y717513D01*
X509016Y721005D01*
X509127Y721577D01*
X509462Y722083D01*
X515393Y728014D01*
X515865Y728335D01*
X516459Y728460D01*
X517054Y728344D01*
X517972Y727964D01*
X523428Y727964D01*
X528470Y730052D01*
X532322Y733905D01*
X532783Y734221D01*
X533376Y734351D01*
X533972Y734240D01*
X534478Y733905D01*
X538330Y730052D01*
X543372Y727964D01*
X548828Y727964D01*
X553870Y730052D01*
X557722Y733905D01*
X558183Y734221D01*
X558776Y734351D01*
X559372Y734240D01*
X559878Y733905D01*
X563730Y730052D01*
X568772Y727964D01*
X574228Y727964D01*
X579270Y730052D01*
X583128Y733910D01*
X585216Y738952D01*
X585216Y759648D01*
X583128Y764690D01*
X579270Y768548D01*
X574228Y770636D01*
X568772Y770636D01*
X563730Y768548D01*
X559878Y764695D01*
X559417Y764379D01*
X558824Y764249D01*
X558228Y764360D01*
X557722Y764695D01*
X553870Y768548D01*
X548828Y770636D01*
X543372Y770636D01*
X538330Y768548D01*
X534478Y764695D01*
X534017Y764379D01*
X533424Y764249D01*
X532828Y764360D01*
X532322Y764695D01*
X528470Y768548D01*
X523428Y770636D01*
X517972Y770636D01*
X512930Y768548D01*
X509072Y764690D01*
X506984Y759648D01*
X506984Y746099D01*
X506873Y745527D01*
X506538Y745021D01*
X492120Y730604D01*
X490728Y727243D01*
X490728Y680933D01*
X492197Y677386D01*
X492275Y677273D01*
X492405Y676680D01*
X492294Y676084D01*
X491959Y675578D01*
X460818Y644437D01*
X460379Y644131D01*
X459789Y643992D01*
X459191Y644093D01*
X458680Y644420D01*
X458337Y644920D01*
X458216Y645515D01*
X458216Y658048D01*
X456128Y663090D01*
X452270Y666948D01*
X447228Y669036D01*
X441772Y669036D01*
X436730Y666948D01*
X432878Y663095D01*
X432417Y662779D01*
X431824Y662649D01*
X431228Y662760D01*
X430722Y663095D01*
X426870Y666948D01*
X421828Y669036D01*
X416372Y669036D01*
X411330Y666948D01*
X407478Y663095D01*
X407017Y662779D01*
X406424Y662649D01*
X405828Y662760D01*
X405322Y663095D01*
X401470Y666948D01*
X396428Y669036D01*
X390972Y669036D01*
X385930Y666948D01*
X382072Y663090D01*
X379984Y658048D01*
X379984Y637352D01*
X382072Y632310D01*
X385930Y628452D01*
X390972Y626364D01*
X396393Y626364D01*
X396920Y626270D01*
X397436Y625951D01*
X397787Y625457D01*
X397917Y624864D01*
X397806Y624268D01*
X397471Y623762D01*
X392391Y618682D01*
X391908Y618357D01*
X391313Y618236D01*
X390972Y618236D01*
X385930Y616148D01*
X382072Y612290D01*
X379984Y607248D01*
X379984Y586552D01*
X382072Y581510D01*
X385930Y577652D01*
X390972Y575564D01*
X396428Y575564D01*
X401470Y577652D01*
X405322Y581505D01*
X405783Y581821D01*
X406376Y581951D01*
X406972Y581840D01*
X407478Y581505D01*
X411330Y577652D01*
X416372Y575564D01*
X421828Y575564D01*
X426870Y577652D01*
X430722Y581505D01*
X431183Y581821D01*
X431776Y581951D01*
X432372Y581840D01*
X432878Y581505D01*
X436730Y577652D01*
X441772Y575564D01*
X447228Y575564D01*
X452270Y577652D01*
X456128Y581510D01*
X458216Y586552D01*
X458216Y586740D01*
X458318Y587289D01*
X458645Y587800D01*
X459146Y588143D01*
X459740Y588264D01*
X544363Y588264D01*
X547724Y589656D01*
X554521Y596454D01*
X555004Y596779D01*
X555599Y596900D01*
X564061Y596900D01*
X567170Y600010D01*
X567653Y600335D01*
X568248Y600456D01*
X621726Y600456D01*
X622275Y600354D01*
X622786Y600027D01*
X623129Y599526D01*
X623250Y598932D01*
X623250Y594141D01*
X623139Y593569D01*
X622804Y593063D01*
X600163Y570422D01*
X599680Y570097D01*
X599085Y569976D01*
X566216Y569976D01*
X565644Y570087D01*
X565138Y570422D01*
X564061Y571500D01*
X553540Y571500D01*
X546100Y564061D01*
X546100Y553540D01*
X552462Y547178D01*
X552778Y546717D01*
X552908Y546124D01*
X552797Y545528D01*
X552462Y545022D01*
X546100Y538661D01*
X546100Y528140D01*
X553540Y520700D01*
X564061Y520700D01*
X571500Y528140D01*
X571500Y538661D01*
X565138Y545022D01*
X564822Y545483D01*
X564692Y546076D01*
X564803Y546672D01*
X565138Y547178D01*
X569202Y551242D01*
X569685Y551567D01*
X570280Y551688D01*
X605323Y551688D01*
X608684Y553080D01*
X638407Y582804D01*
X638890Y583129D01*
X639485Y583250D01*
X641211Y583250D01*
X648650Y590689D01*
X648650Y601210D01*
X641338Y608522D01*
X641022Y608983D01*
X640892Y609576D01*
X641003Y610172D01*
X641338Y610678D01*
X647867Y617206D01*
X648328Y617522D01*
X648920Y617653D01*
X649516Y617541D01*
X650022Y617206D01*
X669828Y597401D01*
X670144Y596940D01*
X670274Y596347D01*
X670163Y595751D01*
X669828Y595245D01*
X666552Y591970D01*
X664464Y586928D01*
X664464Y581472D01*
X666552Y576430D01*
X670405Y572578D01*
X670721Y572117D01*
X670851Y571524D01*
X670740Y570928D01*
X670405Y570422D01*
X666552Y566570D01*
X664464Y561528D01*
X664464Y556072D01*
X666552Y551030D01*
X669389Y548194D01*
X669695Y547755D01*
X669835Y547165D01*
X669733Y546567D01*
X669406Y546056D01*
X668906Y545713D01*
X668311Y545592D01*
X626069Y545592D01*
X622708Y544200D01*
X581875Y503366D01*
X581392Y503041D01*
X580797Y502920D01*
X562887Y502920D01*
X562761Y502944D01*
X560785Y502920D01*
X560766Y502920D01*
X558955Y502920D01*
X557290Y502207D01*
X557273Y502199D01*
X555614Y501512D01*
X555031Y501396D01*
X553540Y501396D01*
X546100Y493957D01*
X546100Y492607D01*
X545989Y492035D01*
X545654Y491529D01*
X536002Y481877D01*
X535563Y481571D01*
X534973Y481432D01*
X534375Y481533D01*
X533864Y481860D01*
X533521Y482360D01*
X533400Y482955D01*
X533400Y487861D01*
X525961Y495300D01*
X515440Y495300D01*
X508000Y487861D01*
X508000Y477340D01*
X515440Y469900D01*
X525961Y469900D01*
X530798Y474738D01*
X531237Y475044D01*
X531827Y475183D01*
X532425Y475082D01*
X532936Y474755D01*
X533279Y474255D01*
X533400Y473660D01*
X533400Y430997D01*
X534792Y427636D01*
X545654Y416775D01*
X545979Y416292D01*
X546100Y415697D01*
X546100Y413840D01*
X553540Y406400D01*
X564061Y406400D01*
X571500Y413840D01*
X571500Y424361D01*
X565138Y430722D01*
X564822Y431183D01*
X564692Y431776D01*
X564803Y432372D01*
X565138Y432878D01*
X571500Y439240D01*
X571500Y449761D01*
X564061Y457200D01*
X553212Y457200D01*
X552663Y457302D01*
X552152Y457629D01*
X551809Y458130D01*
X551688Y458724D01*
X551688Y471069D01*
X551799Y471641D01*
X552134Y472147D01*
X555537Y475550D01*
X556020Y475875D01*
X556615Y475996D01*
X564061Y475996D01*
X571575Y483511D01*
X571602Y483657D01*
X571929Y484168D01*
X572430Y484511D01*
X573024Y484632D01*
X587035Y484632D01*
X590396Y486024D01*
X620648Y516277D01*
X621087Y516583D01*
X621677Y516722D01*
X622275Y516621D01*
X622786Y516294D01*
X623129Y515794D01*
X623250Y515199D01*
X623250Y514489D01*
X630690Y507050D01*
X641211Y507050D01*
X648650Y514489D01*
X648650Y525150D01*
X648513Y525731D01*
X648614Y526329D01*
X648941Y526840D01*
X649441Y527183D01*
X650036Y527304D01*
X664841Y527304D01*
X665401Y527197D01*
X665910Y526866D01*
X666249Y526363D01*
X666552Y525630D01*
X670410Y521772D01*
X675452Y519684D01*
X696148Y519684D01*
X701190Y521772D01*
X701486Y522069D01*
X701925Y522375D01*
X702515Y522515D01*
X703113Y522413D01*
X703624Y522086D01*
X703967Y521586D01*
X704088Y520991D01*
X704088Y486003D01*
X703977Y485431D01*
X703642Y484925D01*
X690079Y471362D01*
X689596Y471037D01*
X689001Y470916D01*
X675452Y470916D01*
X670410Y468828D01*
X666552Y464970D01*
X664464Y459928D01*
X664464Y454472D01*
X666552Y449430D01*
X670405Y445578D01*
X670721Y445117D01*
X670851Y444524D01*
X670740Y443928D01*
X670405Y443422D01*
X666552Y439570D01*
X664464Y434528D01*
X664464Y429072D01*
X666552Y424030D01*
X670405Y420178D01*
X670721Y419717D01*
X670851Y419124D01*
X670740Y418528D01*
X670405Y418022D01*
X666552Y414170D01*
X664464Y409128D01*
X664464Y403672D01*
X666552Y398630D01*
X670410Y394772D01*
X675452Y392684D01*
G37*
G36*
X441106Y699897D02*
X447094Y699897D01*
X452625Y702188D01*
X456858Y706422D01*
X459150Y711953D01*
X459150Y735847D01*
X456858Y741378D01*
X452625Y745612D01*
X447094Y747903D01*
X441106Y747903D01*
X435575Y745612D01*
X431342Y741378D01*
X429051Y735847D01*
X429051Y711953D01*
X431342Y706422D01*
X435575Y702188D01*
X441106Y699897D01*
G37*
G36*
X391106Y699897D02*
X397094Y699897D01*
X402625Y702188D01*
X406858Y706422D01*
X409150Y711953D01*
X409150Y735847D01*
X406858Y741378D01*
X402625Y745612D01*
X397094Y747903D01*
X391106Y747903D01*
X385575Y745612D01*
X381342Y741378D01*
X379051Y735847D01*
X379051Y711953D01*
X381342Y706422D01*
X385575Y702188D01*
X391106Y699897D01*
G37*
G36*
X35260Y546777D02*
X237477Y546777D01*
X238073Y546836D01*
X238660Y546953D01*
X239234Y547127D01*
X239787Y547356D01*
X240315Y547638D01*
X240813Y547971D01*
X241276Y548351D01*
X241700Y548775D01*
X242080Y549238D01*
X242412Y549736D01*
X242695Y550264D01*
X242924Y550817D01*
X243098Y551390D01*
X243215Y551978D01*
X243273Y552574D01*
X243273Y584703D01*
X243215Y585299D01*
X243098Y585886D01*
X242924Y586459D01*
X242695Y587013D01*
X242412Y587541D01*
X242080Y588039D01*
X241700Y588502D01*
X241276Y588925D01*
X240813Y589305D01*
X240315Y589638D01*
X239787Y589921D01*
X239234Y590150D01*
X238660Y590324D01*
X238073Y590440D01*
X237477Y590499D01*
X35260Y590499D01*
X34665Y590440D01*
X34077Y590324D01*
X33504Y590150D01*
X32950Y589921D01*
X32422Y589638D01*
X31924Y589305D01*
X31461Y588925D01*
X31038Y588502D01*
X30658Y588039D01*
X30325Y587541D01*
X30043Y587013D01*
X29813Y586459D01*
X29640Y585886D01*
X29523Y585299D01*
X29464Y584703D01*
X29464Y552574D01*
X29523Y551978D01*
X29640Y551390D01*
X29813Y550817D01*
X30043Y550264D01*
X30325Y549736D01*
X30658Y549238D01*
X31038Y548775D01*
X31461Y548351D01*
X31924Y547971D01*
X32422Y547638D01*
X32950Y547356D01*
X33504Y547127D01*
X34077Y546953D01*
X34665Y546836D01*
X35260Y546777D01*
G37*
G36*
X515440Y533400D02*
X525961Y533400D01*
X533400Y540840D01*
X533400Y551361D01*
X525961Y558800D01*
X515440Y558800D01*
X508000Y551361D01*
X508000Y540840D01*
X515440Y533400D01*
G37*
G36*
X439240Y533400D02*
X449761Y533400D01*
X457200Y540840D01*
X457200Y551361D01*
X449761Y558800D01*
X439240Y558800D01*
X431800Y551361D01*
X431800Y540840D01*
X439240Y533400D01*
G37*
G36*
X629740Y475996D02*
X640261Y475996D01*
X647700Y483436D01*
X647700Y493957D01*
X640261Y501396D01*
X629740Y501396D01*
X622300Y493957D01*
X622300Y483436D01*
X629740Y475996D01*
G37*
G36*
X439240Y469900D02*
X449761Y469900D01*
X457200Y477340D01*
X457200Y487861D01*
X449761Y495300D01*
X439240Y495300D01*
X431800Y487861D01*
X431800Y477340D01*
X439240Y469900D01*
G37*
G36*
X365168Y98552D02*
X371432Y98552D01*
X377221Y100950D01*
X381651Y105379D01*
X384048Y111168D01*
X384048Y117432D01*
X381651Y123221D01*
X378949Y125922D01*
X378633Y126383D01*
X378503Y126976D01*
X378614Y127572D01*
X378949Y128078D01*
X381651Y130779D01*
X384048Y136568D01*
X384048Y142832D01*
X381651Y148621D01*
X378949Y151322D01*
X378633Y151783D01*
X378503Y152376D01*
X378614Y152972D01*
X378949Y153478D01*
X381651Y156179D01*
X384048Y161968D01*
X384048Y168232D01*
X381651Y174021D01*
X378949Y176722D01*
X378633Y177183D01*
X378503Y177776D01*
X378614Y178372D01*
X378949Y178878D01*
X381651Y181579D01*
X384048Y187368D01*
X384048Y193632D01*
X381651Y199421D01*
X378949Y202122D01*
X378633Y202583D01*
X378503Y203176D01*
X378614Y203772D01*
X378949Y204278D01*
X381651Y206979D01*
X384048Y212768D01*
X384048Y219032D01*
X381651Y224821D01*
X378949Y227522D01*
X378633Y227983D01*
X378503Y228576D01*
X378614Y229172D01*
X378949Y229678D01*
X381651Y232379D01*
X384048Y238168D01*
X384048Y244432D01*
X381651Y250221D01*
X378949Y252922D01*
X378633Y253383D01*
X378503Y253976D01*
X378614Y254572D01*
X378949Y255078D01*
X381651Y257779D01*
X384048Y263568D01*
X384048Y269832D01*
X381651Y275621D01*
X378949Y278322D01*
X378633Y278783D01*
X378503Y279376D01*
X378614Y279972D01*
X378949Y280478D01*
X381651Y283179D01*
X384048Y288968D01*
X384048Y295232D01*
X381651Y301021D01*
X378949Y303722D01*
X378633Y304183D01*
X378503Y304776D01*
X378614Y305372D01*
X378949Y305878D01*
X381651Y308579D01*
X384048Y314368D01*
X384048Y320632D01*
X381651Y326421D01*
X378949Y329122D01*
X378633Y329583D01*
X378503Y330176D01*
X378614Y330772D01*
X378949Y331278D01*
X381651Y333979D01*
X384048Y339768D01*
X384048Y346032D01*
X381651Y351821D01*
X378949Y354522D01*
X378633Y354983D01*
X378503Y355576D01*
X378614Y356172D01*
X378949Y356678D01*
X381651Y359379D01*
X384048Y365168D01*
X384048Y371432D01*
X381651Y377221D01*
X378949Y379922D01*
X378633Y380383D01*
X378503Y380976D01*
X378614Y381572D01*
X378949Y382078D01*
X381651Y384779D01*
X384048Y390568D01*
X384048Y396832D01*
X381651Y402621D01*
X378949Y405322D01*
X378633Y405783D01*
X378503Y406376D01*
X378614Y406972D01*
X378949Y407478D01*
X381651Y410179D01*
X384048Y415968D01*
X384048Y422232D01*
X381651Y428021D01*
X378949Y430722D01*
X378633Y431183D01*
X378503Y431776D01*
X378614Y432372D01*
X378949Y432878D01*
X381651Y435579D01*
X384048Y441368D01*
X384048Y447632D01*
X381651Y453421D01*
X378949Y456122D01*
X378633Y456583D01*
X378503Y457176D01*
X378614Y457772D01*
X378949Y458278D01*
X381651Y460979D01*
X384048Y466768D01*
X384048Y473032D01*
X381651Y478821D01*
X377221Y483251D01*
X371432Y485648D01*
X365168Y485648D01*
X359379Y483251D01*
X354950Y478821D01*
X352552Y473032D01*
X352552Y466768D01*
X354950Y460979D01*
X357651Y458278D01*
X357967Y457817D01*
X358098Y457224D01*
X357986Y456628D01*
X357651Y456122D01*
X354950Y453421D01*
X352552Y447632D01*
X352552Y441368D01*
X354950Y435579D01*
X357651Y432878D01*
X357967Y432417D01*
X358098Y431824D01*
X357986Y431228D01*
X357651Y430722D01*
X354950Y428021D01*
X352552Y422232D01*
X352552Y415968D01*
X354950Y410179D01*
X357651Y407478D01*
X357967Y407017D01*
X358098Y406424D01*
X357986Y405828D01*
X357651Y405322D01*
X354950Y402621D01*
X352552Y396832D01*
X352552Y390568D01*
X354950Y384779D01*
X357651Y382078D01*
X357967Y381617D01*
X358098Y381024D01*
X357986Y380428D01*
X357651Y379922D01*
X354950Y377221D01*
X352552Y371432D01*
X352552Y365168D01*
X354950Y359379D01*
X357651Y356678D01*
X357967Y356217D01*
X358098Y355624D01*
X357986Y355028D01*
X357651Y354522D01*
X354950Y351821D01*
X352552Y346032D01*
X352552Y339768D01*
X354950Y333979D01*
X357651Y331278D01*
X357967Y330817D01*
X358098Y330224D01*
X357986Y329628D01*
X357651Y329122D01*
X354950Y326421D01*
X352552Y320632D01*
X352552Y314368D01*
X354950Y308579D01*
X357651Y305878D01*
X357967Y305417D01*
X358098Y304824D01*
X357986Y304228D01*
X357651Y303722D01*
X354950Y301021D01*
X352552Y295232D01*
X352552Y288968D01*
X354950Y283179D01*
X357651Y280478D01*
X357967Y280017D01*
X358098Y279424D01*
X357986Y278828D01*
X357651Y278322D01*
X354950Y275621D01*
X352552Y269832D01*
X352552Y263568D01*
X354950Y257779D01*
X357651Y255078D01*
X357967Y254617D01*
X358098Y254024D01*
X357986Y253428D01*
X357651Y252922D01*
X354950Y250221D01*
X352552Y244432D01*
X352552Y238168D01*
X354950Y232379D01*
X357651Y229678D01*
X357967Y229217D01*
X358098Y228624D01*
X357986Y228028D01*
X357651Y227522D01*
X354950Y224821D01*
X352552Y219032D01*
X352552Y212768D01*
X354950Y206979D01*
X357651Y204278D01*
X357967Y203817D01*
X358098Y203224D01*
X357986Y202628D01*
X357651Y202122D01*
X354950Y199421D01*
X352552Y193632D01*
X352552Y187368D01*
X354950Y181579D01*
X357651Y178878D01*
X357967Y178417D01*
X358098Y177824D01*
X357986Y177228D01*
X357651Y176722D01*
X354950Y174021D01*
X352552Y168232D01*
X352552Y161968D01*
X354950Y156179D01*
X357651Y153478D01*
X357967Y153017D01*
X358098Y152424D01*
X357986Y151828D01*
X357651Y151322D01*
X354950Y148621D01*
X352552Y142832D01*
X352552Y136568D01*
X354950Y130779D01*
X357651Y128078D01*
X357967Y127617D01*
X358098Y127024D01*
X357986Y126428D01*
X357651Y125922D01*
X354950Y123221D01*
X352552Y117432D01*
X352552Y111168D01*
X354950Y105379D01*
X359379Y100950D01*
X365168Y98552D01*
G37*
G36*
X111168Y98552D02*
X117432Y98552D01*
X123221Y100950D01*
X127651Y105379D01*
X130048Y111168D01*
X130048Y117432D01*
X127651Y123221D01*
X124949Y125922D01*
X124633Y126383D01*
X124503Y126976D01*
X124614Y127572D01*
X124949Y128078D01*
X127651Y130779D01*
X130048Y136568D01*
X130048Y142832D01*
X127651Y148621D01*
X124949Y151322D01*
X124633Y151783D01*
X124503Y152376D01*
X124614Y152972D01*
X124949Y153478D01*
X127651Y156179D01*
X130048Y161968D01*
X130048Y168232D01*
X127651Y174021D01*
X124949Y176722D01*
X124633Y177183D01*
X124503Y177776D01*
X124614Y178372D01*
X124949Y178878D01*
X127651Y181579D01*
X130048Y187368D01*
X130048Y193632D01*
X127651Y199421D01*
X124949Y202122D01*
X124633Y202583D01*
X124503Y203176D01*
X124614Y203772D01*
X124949Y204278D01*
X127651Y206979D01*
X130048Y212768D01*
X130048Y219032D01*
X127651Y224821D01*
X124949Y227522D01*
X124633Y227983D01*
X124503Y228576D01*
X124614Y229172D01*
X124949Y229678D01*
X127651Y232379D01*
X130048Y238168D01*
X130048Y244432D01*
X127651Y250221D01*
X124949Y252922D01*
X124633Y253383D01*
X124503Y253976D01*
X124614Y254572D01*
X124949Y255078D01*
X127651Y257779D01*
X130048Y263568D01*
X130048Y269832D01*
X127651Y275621D01*
X124949Y278322D01*
X124633Y278783D01*
X124503Y279376D01*
X124614Y279972D01*
X124949Y280478D01*
X127651Y283179D01*
X130048Y288968D01*
X130048Y295232D01*
X127651Y301021D01*
X124949Y303722D01*
X124633Y304183D01*
X124503Y304776D01*
X124614Y305372D01*
X124949Y305878D01*
X127651Y308579D01*
X130048Y314368D01*
X130048Y320632D01*
X127651Y326421D01*
X124949Y329122D01*
X124633Y329583D01*
X124503Y330176D01*
X124614Y330772D01*
X124949Y331278D01*
X127651Y333979D01*
X130048Y339768D01*
X130048Y346032D01*
X127651Y351821D01*
X124949Y354522D01*
X124633Y354983D01*
X124503Y355576D01*
X124614Y356172D01*
X124949Y356678D01*
X127651Y359379D01*
X130048Y365168D01*
X130048Y371432D01*
X127651Y377221D01*
X124949Y379922D01*
X124633Y380383D01*
X124503Y380976D01*
X124614Y381572D01*
X124949Y382078D01*
X127651Y384779D01*
X130048Y390568D01*
X130048Y396832D01*
X127651Y402621D01*
X124949Y405322D01*
X124633Y405783D01*
X124503Y406376D01*
X124614Y406972D01*
X124949Y407478D01*
X127651Y410179D01*
X130048Y415968D01*
X130048Y422232D01*
X127651Y428021D01*
X124949Y430722D01*
X124633Y431183D01*
X124503Y431776D01*
X124614Y432372D01*
X124949Y432878D01*
X127651Y435579D01*
X130048Y441368D01*
X130048Y447632D01*
X127651Y453421D01*
X124949Y456122D01*
X124633Y456583D01*
X124503Y457176D01*
X124614Y457772D01*
X124949Y458278D01*
X127651Y460979D01*
X130048Y466768D01*
X130048Y473032D01*
X127651Y478821D01*
X123221Y483251D01*
X117432Y485648D01*
X111168Y485648D01*
X105379Y483251D01*
X100950Y478821D01*
X98552Y473032D01*
X98552Y466768D01*
X100950Y460979D01*
X103651Y458278D01*
X103967Y457817D01*
X104098Y457224D01*
X103986Y456628D01*
X103651Y456122D01*
X100950Y453421D01*
X98552Y447632D01*
X98552Y441368D01*
X100950Y435579D01*
X103651Y432878D01*
X103967Y432417D01*
X104098Y431824D01*
X103986Y431228D01*
X103651Y430722D01*
X100950Y428021D01*
X98552Y422232D01*
X98552Y415968D01*
X100950Y410179D01*
X103651Y407478D01*
X103967Y407017D01*
X104098Y406424D01*
X103986Y405828D01*
X103651Y405322D01*
X100950Y402621D01*
X98552Y396832D01*
X98552Y390568D01*
X100950Y384779D01*
X103651Y382078D01*
X103967Y381617D01*
X104098Y381024D01*
X103986Y380428D01*
X103651Y379922D01*
X100950Y377221D01*
X98552Y371432D01*
X98552Y365168D01*
X100950Y359379D01*
X103651Y356678D01*
X103967Y356217D01*
X104098Y355624D01*
X103986Y355028D01*
X103651Y354522D01*
X100950Y351821D01*
X98552Y346032D01*
X98552Y339768D01*
X100950Y333979D01*
X103651Y331278D01*
X103967Y330817D01*
X104098Y330224D01*
X103986Y329628D01*
X103651Y329122D01*
X100950Y326421D01*
X98552Y320632D01*
X98552Y314368D01*
X100950Y308579D01*
X103651Y305878D01*
X103967Y305417D01*
X104098Y304824D01*
X103986Y304228D01*
X103651Y303722D01*
X100950Y301021D01*
X98552Y295232D01*
X98552Y288968D01*
X100950Y283179D01*
X103651Y280478D01*
X103967Y280017D01*
X104098Y279424D01*
X103986Y278828D01*
X103651Y278322D01*
X100950Y275621D01*
X98552Y269832D01*
X98552Y263568D01*
X100950Y257779D01*
X103651Y255078D01*
X103967Y254617D01*
X104098Y254024D01*
X103986Y253428D01*
X103651Y252922D01*
X100950Y250221D01*
X98552Y244432D01*
X98552Y238168D01*
X100950Y232379D01*
X103651Y229678D01*
X103967Y229217D01*
X104098Y228624D01*
X103986Y228028D01*
X103651Y227522D01*
X100950Y224821D01*
X98552Y219032D01*
X98552Y212768D01*
X100950Y206979D01*
X103651Y204278D01*
X103967Y203817D01*
X104098Y203224D01*
X103986Y202628D01*
X103651Y202122D01*
X100950Y199421D01*
X98552Y193632D01*
X98552Y187368D01*
X100950Y181579D01*
X103651Y178878D01*
X103967Y178417D01*
X104098Y177824D01*
X103986Y177228D01*
X103651Y176722D01*
X100950Y174021D01*
X98552Y168232D01*
X98552Y161968D01*
X100950Y156179D01*
X103651Y153478D01*
X103967Y153017D01*
X104098Y152424D01*
X103986Y151828D01*
X103651Y151322D01*
X100950Y148621D01*
X98552Y142832D01*
X98552Y142595D01*
X98441Y142023D01*
X98106Y141517D01*
X82003Y125414D01*
X81520Y125089D01*
X80925Y124968D01*
X77724Y124968D01*
X77175Y125070D01*
X76664Y125397D01*
X76321Y125898D01*
X76200Y126492D01*
X76200Y312715D01*
X74808Y316076D01*
X52262Y338621D01*
X51937Y339104D01*
X51816Y339699D01*
X51816Y339865D01*
X51923Y340426D01*
X52254Y340934D01*
X52757Y341273D01*
X55578Y342442D01*
X59812Y346675D01*
X62103Y352206D01*
X62103Y358194D01*
X59812Y363725D01*
X55578Y367958D01*
X50047Y370250D01*
X26153Y370250D01*
X20622Y367958D01*
X16388Y363725D01*
X14097Y358194D01*
X14097Y352206D01*
X16388Y346675D01*
X20622Y342442D01*
X26153Y340151D01*
X32004Y340151D01*
X32553Y340048D01*
X33064Y339721D01*
X33407Y339221D01*
X33528Y338627D01*
X33528Y333461D01*
X34920Y330100D01*
X42169Y322851D01*
X42475Y322412D01*
X42615Y321822D01*
X42513Y321224D01*
X42186Y320713D01*
X41686Y320370D01*
X41092Y320250D01*
X26153Y320250D01*
X20622Y317958D01*
X16388Y313725D01*
X14097Y308194D01*
X14097Y302206D01*
X16388Y296675D01*
X20622Y292442D01*
X26153Y290151D01*
X50047Y290151D01*
X55805Y292535D01*
X56339Y292651D01*
X56937Y292549D01*
X57448Y292222D01*
X57791Y291722D01*
X57912Y291127D01*
X57912Y254973D01*
X57814Y254435D01*
X57491Y253921D01*
X56994Y253574D01*
X56400Y253449D01*
X55805Y253565D01*
X50047Y255950D01*
X26153Y255950D01*
X20622Y253658D01*
X16388Y249425D01*
X14097Y243894D01*
X14097Y237906D01*
X16388Y232375D01*
X20622Y228142D01*
X26153Y225851D01*
X50047Y225851D01*
X55805Y228235D01*
X56339Y228351D01*
X56937Y228249D01*
X57448Y227922D01*
X57791Y227422D01*
X57912Y226827D01*
X57912Y204973D01*
X57814Y204435D01*
X57491Y203921D01*
X56994Y203574D01*
X56400Y203449D01*
X55805Y203565D01*
X50047Y205950D01*
X26153Y205950D01*
X20622Y203658D01*
X16388Y199425D01*
X14097Y193894D01*
X14097Y187906D01*
X16388Y182375D01*
X20622Y178142D01*
X26153Y175851D01*
X50047Y175851D01*
X55805Y178235D01*
X56339Y178351D01*
X56937Y178249D01*
X57448Y177922D01*
X57791Y177422D01*
X57912Y176827D01*
X57912Y127973D01*
X57814Y127435D01*
X57491Y126921D01*
X56994Y126574D01*
X56400Y126449D01*
X55805Y126565D01*
X50047Y128950D01*
X26153Y128950D01*
X20622Y126658D01*
X16388Y122425D01*
X14097Y116894D01*
X14097Y110906D01*
X16388Y105375D01*
X20622Y101142D01*
X26153Y98851D01*
X50047Y98851D01*
X55578Y101142D01*
X59812Y105375D01*
X59963Y105739D01*
X60276Y106216D01*
X60776Y106559D01*
X61371Y106680D01*
X87163Y106680D01*
X90524Y108072D01*
X95950Y113499D01*
X96389Y113805D01*
X96979Y113944D01*
X97577Y113843D01*
X98088Y113516D01*
X98431Y113016D01*
X98552Y112421D01*
X98552Y111168D01*
X100950Y105379D01*
X105379Y100950D01*
X111168Y98552D01*
G37*
G36*
X813553Y314751D02*
X837447Y314751D01*
X842978Y317042D01*
X847212Y321275D01*
X849503Y326806D01*
X849503Y332794D01*
X847212Y338325D01*
X842978Y342558D01*
X839141Y344148D01*
X838664Y344461D01*
X838321Y344962D01*
X838200Y345556D01*
X838200Y391963D01*
X836808Y395324D01*
X797660Y434472D01*
X794299Y435864D01*
X771101Y435864D01*
X770540Y435971D01*
X770032Y436302D01*
X769693Y436805D01*
X768548Y439570D01*
X764695Y443422D01*
X764379Y443883D01*
X764249Y444476D01*
X764360Y445072D01*
X764695Y445578D01*
X768548Y449430D01*
X770636Y454472D01*
X770636Y459928D01*
X768548Y464970D01*
X764690Y468828D01*
X759648Y470916D01*
X738952Y470916D01*
X733910Y468828D01*
X730052Y464970D01*
X727964Y459928D01*
X727964Y454472D01*
X730052Y449430D01*
X733905Y445578D01*
X734221Y445117D01*
X734351Y444524D01*
X734240Y443928D01*
X733905Y443422D01*
X730052Y439570D01*
X727964Y434528D01*
X727964Y429072D01*
X730052Y424030D01*
X733905Y420178D01*
X734221Y419717D01*
X734351Y419124D01*
X734240Y418528D01*
X733905Y418022D01*
X730052Y414170D01*
X727964Y409128D01*
X727964Y403672D01*
X730052Y398630D01*
X733910Y394772D01*
X738952Y392684D01*
X759648Y392684D01*
X764690Y394772D01*
X768548Y398630D01*
X770636Y403672D01*
X770636Y409128D01*
X768548Y414170D01*
X767743Y414974D01*
X767437Y415413D01*
X767297Y416003D01*
X767399Y416601D01*
X767726Y417112D01*
X768226Y417455D01*
X768821Y417576D01*
X788061Y417576D01*
X788633Y417465D01*
X789139Y417130D01*
X819466Y386803D01*
X819791Y386320D01*
X819912Y385725D01*
X819912Y346374D01*
X819810Y345824D01*
X819483Y345313D01*
X818982Y344970D01*
X818388Y344850D01*
X813553Y344850D01*
X808022Y342558D01*
X803788Y338325D01*
X801497Y332794D01*
X801497Y326806D01*
X803788Y321275D01*
X808022Y317042D01*
X813553Y314751D01*
G37*
G36*
X782140Y444500D02*
X792661Y444500D01*
X799022Y450862D01*
X799483Y451178D01*
X800076Y451308D01*
X800672Y451197D01*
X801178Y450862D01*
X807540Y444500D01*
X818061Y444500D01*
X825500Y451940D01*
X825500Y462461D01*
X818061Y469900D01*
X807540Y469900D01*
X801178Y463538D01*
X800717Y463222D01*
X800124Y463092D01*
X799528Y463203D01*
X799022Y463538D01*
X792661Y469900D01*
X782140Y469900D01*
X774700Y462461D01*
X774700Y451940D01*
X782140Y444500D01*
G37*
G36*
X675452Y265684D02*
X696148Y265684D01*
X701190Y267772D01*
X705048Y271630D01*
X707136Y276672D01*
X707136Y282128D01*
X705048Y287170D01*
X701195Y291022D01*
X700879Y291483D01*
X700749Y292076D01*
X700860Y292672D01*
X701195Y293178D01*
X705048Y297030D01*
X707136Y302072D01*
X707136Y307528D01*
X705048Y312570D01*
X701195Y316422D01*
X700879Y316883D01*
X700749Y317476D01*
X700860Y318072D01*
X701195Y318578D01*
X705048Y322430D01*
X707136Y327472D01*
X707136Y332928D01*
X705048Y337970D01*
X701190Y341828D01*
X696148Y343916D01*
X693420Y343916D01*
X692871Y344018D01*
X692360Y344345D01*
X692017Y344846D01*
X691896Y345440D01*
X691896Y361483D01*
X690504Y364844D01*
X649670Y405677D01*
X649345Y406160D01*
X649224Y406755D01*
X649224Y459019D01*
X647832Y462380D01*
X645112Y465100D01*
X644958Y465202D01*
X640261Y469900D01*
X629740Y469900D01*
X622300Y462461D01*
X622300Y451940D01*
X629815Y444425D01*
X629961Y444398D01*
X630472Y444071D01*
X630815Y443570D01*
X630936Y442976D01*
X630936Y400517D01*
X632328Y397156D01*
X633183Y396302D01*
X633489Y395863D01*
X633628Y395273D01*
X633527Y394675D01*
X633200Y394164D01*
X632700Y393821D01*
X632105Y393700D01*
X629740Y393700D01*
X622300Y386261D01*
X622300Y375740D01*
X628662Y369378D01*
X628978Y368917D01*
X629108Y368324D01*
X628997Y367728D01*
X628662Y367222D01*
X622300Y360861D01*
X622300Y350340D01*
X629740Y342900D01*
X640261Y342900D01*
X647700Y350340D01*
X647700Y360861D01*
X641338Y367222D01*
X641022Y367683D01*
X640892Y368276D01*
X641003Y368872D01*
X641338Y369378D01*
X647700Y375740D01*
X647700Y378105D01*
X647794Y378632D01*
X648113Y379148D01*
X648607Y379499D01*
X649200Y379629D01*
X649796Y379518D01*
X650302Y379183D01*
X673162Y356323D01*
X673487Y355840D01*
X673608Y355245D01*
X673608Y344171D01*
X673501Y343610D01*
X673170Y343102D01*
X672667Y342763D01*
X670410Y341828D01*
X666552Y337970D01*
X664464Y332928D01*
X664464Y327472D01*
X666552Y322430D01*
X670405Y318578D01*
X670721Y318117D01*
X670851Y317524D01*
X670740Y316928D01*
X670405Y316422D01*
X666552Y312570D01*
X664464Y307528D01*
X664464Y302072D01*
X666552Y297030D01*
X670405Y293178D01*
X670721Y292717D01*
X670851Y292124D01*
X670740Y291528D01*
X670405Y291022D01*
X666552Y287170D01*
X664464Y282128D01*
X664464Y276672D01*
X666552Y271630D01*
X670410Y267772D01*
X675452Y265684D01*
G37*
G36*
X515440Y393700D02*
X525961Y393700D01*
X533400Y401140D01*
X533400Y411661D01*
X525961Y419100D01*
X515440Y419100D01*
X508000Y411661D01*
X508000Y401140D01*
X515440Y393700D01*
G37*
G36*
X439240Y393700D02*
X449761Y393700D01*
X457200Y401140D01*
X457200Y411661D01*
X449761Y419100D01*
X439240Y419100D01*
X431800Y411661D01*
X431800Y401140D01*
X439240Y393700D01*
G37*
G36*
X553540Y330200D02*
X564061Y330200D01*
X571500Y337640D01*
X571500Y348161D01*
X565138Y354522D01*
X564822Y354983D01*
X564692Y355576D01*
X564803Y356172D01*
X565138Y356678D01*
X571500Y363040D01*
X571500Y373561D01*
X564061Y381000D01*
X553540Y381000D01*
X546100Y373561D01*
X546100Y363040D01*
X552462Y356678D01*
X552778Y356217D01*
X552908Y355624D01*
X552797Y355028D01*
X552462Y354522D01*
X546100Y348161D01*
X546100Y337640D01*
X553540Y330200D01*
G37*
G36*
X515440Y330200D02*
X525961Y330200D01*
X533400Y337640D01*
X533400Y348161D01*
X525961Y355600D01*
X515440Y355600D01*
X508000Y348161D01*
X508000Y337640D01*
X515440Y330200D01*
G37*
G36*
X439240Y330200D02*
X449761Y330200D01*
X457200Y337640D01*
X457200Y348161D01*
X449761Y355600D01*
X439240Y355600D01*
X431800Y348161D01*
X431800Y337640D01*
X439240Y330200D01*
G37*
G36*
X738952Y265684D02*
X759648Y265684D01*
X764690Y267772D01*
X768548Y271630D01*
X770636Y276672D01*
X770636Y282128D01*
X768548Y287170D01*
X764695Y291022D01*
X764379Y291483D01*
X764249Y292076D01*
X764360Y292672D01*
X764695Y293178D01*
X768548Y297030D01*
X770636Y302072D01*
X770636Y307528D01*
X768548Y312570D01*
X764695Y316422D01*
X764379Y316883D01*
X764249Y317476D01*
X764360Y318072D01*
X764695Y318578D01*
X768548Y322430D01*
X770636Y327472D01*
X770636Y332928D01*
X768548Y337970D01*
X764690Y341828D01*
X759648Y343916D01*
X738952Y343916D01*
X733910Y341828D01*
X730052Y337970D01*
X727964Y332928D01*
X727964Y327472D01*
X730052Y322430D01*
X733905Y318578D01*
X734221Y318117D01*
X734351Y317524D01*
X734240Y316928D01*
X733905Y316422D01*
X730052Y312570D01*
X727964Y307528D01*
X727964Y302072D01*
X730052Y297030D01*
X733905Y293178D01*
X734221Y292717D01*
X734351Y292124D01*
X734240Y291528D01*
X733905Y291022D01*
X730052Y287170D01*
X727964Y282128D01*
X727964Y276672D01*
X730052Y271630D01*
X733910Y267772D01*
X738952Y265684D01*
G37*
G36*
X553540Y254000D02*
X564061Y254000D01*
X571500Y261440D01*
X571500Y271961D01*
X565138Y278322D01*
X564822Y278783D01*
X564692Y279376D01*
X564803Y279972D01*
X565138Y280478D01*
X571500Y286840D01*
X571500Y297361D01*
X564061Y304800D01*
X553540Y304800D01*
X546100Y297361D01*
X546100Y286840D01*
X552462Y280478D01*
X552778Y280017D01*
X552908Y279424D01*
X552797Y278828D01*
X552462Y278322D01*
X546100Y271961D01*
X546100Y261440D01*
X553540Y254000D01*
G37*
G36*
X813553Y264751D02*
X837447Y264751D01*
X842978Y267042D01*
X847212Y271275D01*
X849503Y276806D01*
X849503Y282794D01*
X847212Y288325D01*
X842978Y292558D01*
X837447Y294850D01*
X813553Y294850D01*
X808022Y292558D01*
X803788Y288325D01*
X801497Y282794D01*
X801497Y276806D01*
X803788Y271275D01*
X808022Y267042D01*
X813553Y264751D01*
G37*
G36*
X553540Y76200D02*
X564061Y76200D01*
X571500Y83640D01*
X571500Y94161D01*
X565138Y100522D01*
X564822Y100983D01*
X564692Y101576D01*
X564803Y102172D01*
X565138Y102678D01*
X571500Y109040D01*
X571500Y119561D01*
X564061Y127000D01*
X553212Y127000D01*
X552663Y127102D01*
X552152Y127429D01*
X551809Y127930D01*
X551688Y128524D01*
X551688Y135789D01*
X551799Y136361D01*
X552134Y136867D01*
X554521Y139254D01*
X555004Y139579D01*
X555599Y139700D01*
X564061Y139700D01*
X567170Y142810D01*
X567653Y143135D01*
X568248Y143256D01*
X605181Y143256D01*
X605753Y143145D01*
X606259Y142810D01*
X622708Y126360D01*
X626069Y124968D01*
X666283Y124968D01*
X669644Y126360D01*
X681521Y138238D01*
X682004Y138563D01*
X682599Y138684D01*
X696148Y138684D01*
X701190Y140772D01*
X705048Y144630D01*
X707136Y149672D01*
X707136Y155128D01*
X705048Y160170D01*
X701195Y164022D01*
X700879Y164483D01*
X700749Y165076D01*
X700860Y165672D01*
X701195Y166178D01*
X705048Y170030D01*
X707136Y175072D01*
X707136Y180528D01*
X705048Y185570D01*
X701195Y189422D01*
X700879Y189883D01*
X700749Y190476D01*
X700860Y191072D01*
X701195Y191578D01*
X705048Y195430D01*
X707136Y200472D01*
X707136Y205928D01*
X705048Y210970D01*
X701190Y214828D01*
X696148Y216916D01*
X686663Y216916D01*
X686091Y217027D01*
X685585Y217362D01*
X648146Y254801D01*
X647821Y255284D01*
X647700Y255879D01*
X647700Y259261D01*
X641338Y265622D01*
X641022Y266083D01*
X640892Y266676D01*
X641003Y267272D01*
X641338Y267778D01*
X647700Y274140D01*
X647700Y284661D01*
X640261Y292100D01*
X629740Y292100D01*
X622300Y284661D01*
X622300Y274140D01*
X628662Y267778D01*
X628978Y267317D01*
X629108Y266724D01*
X628997Y266128D01*
X628662Y265622D01*
X622300Y259261D01*
X622300Y248740D01*
X629740Y241300D01*
X635153Y241300D01*
X635725Y241189D01*
X636231Y240854D01*
X665704Y211380D01*
X666025Y210908D01*
X666150Y210315D01*
X666034Y209720D01*
X664464Y205928D01*
X664464Y200472D01*
X666552Y195430D01*
X670405Y191578D01*
X670721Y191117D01*
X670851Y190524D01*
X670740Y189928D01*
X670405Y189422D01*
X666552Y185570D01*
X664464Y180528D01*
X664464Y175072D01*
X666552Y170030D01*
X670405Y166178D01*
X670721Y165717D01*
X670851Y165124D01*
X670740Y164528D01*
X670405Y164022D01*
X666552Y160170D01*
X664464Y155128D01*
X664464Y149672D01*
X664844Y148754D01*
X664960Y148195D01*
X664849Y147599D01*
X664514Y147093D01*
X661123Y143702D01*
X660640Y143377D01*
X660045Y143256D01*
X647496Y143256D01*
X646969Y143350D01*
X646453Y143669D01*
X646102Y144163D01*
X645972Y144756D01*
X646083Y145352D01*
X646418Y145858D01*
X647700Y147140D01*
X647700Y157661D01*
X641338Y164022D01*
X641022Y164483D01*
X640892Y165076D01*
X641003Y165672D01*
X641338Y166178D01*
X647700Y172540D01*
X647700Y183061D01*
X640261Y190500D01*
X629740Y190500D01*
X622300Y183061D01*
X622300Y172540D01*
X628662Y166178D01*
X628978Y165717D01*
X629108Y165124D01*
X628997Y164528D01*
X628662Y164022D01*
X622300Y157661D01*
X622300Y156311D01*
X622206Y155784D01*
X621887Y155268D01*
X621393Y154917D01*
X620800Y154787D01*
X620204Y154898D01*
X619698Y155233D01*
X614780Y160152D01*
X611419Y161544D01*
X568248Y161544D01*
X567676Y161655D01*
X567170Y161990D01*
X564061Y165100D01*
X553540Y165100D01*
X546100Y157661D01*
X546100Y157327D01*
X545989Y156755D01*
X545654Y156249D01*
X534792Y145388D01*
X533400Y142027D01*
X533400Y110540D01*
X533306Y110013D01*
X532987Y109497D01*
X532493Y109146D01*
X531900Y109016D01*
X531304Y109127D01*
X530798Y109462D01*
X525961Y114300D01*
X515440Y114300D01*
X508000Y106861D01*
X508000Y96340D01*
X515440Y88900D01*
X525961Y88900D01*
X533438Y96377D01*
X533494Y96692D01*
X533813Y97208D01*
X534307Y97559D01*
X534900Y97689D01*
X535496Y97578D01*
X536002Y97243D01*
X545654Y87591D01*
X545979Y87108D01*
X546100Y86513D01*
X546100Y83640D01*
X553540Y76200D01*
G37*
G36*
X515440Y254000D02*
X525961Y254000D01*
X533400Y261440D01*
X533400Y271961D01*
X525961Y279400D01*
X515440Y279400D01*
X508000Y271961D01*
X508000Y261440D01*
X515440Y254000D01*
G37*
G36*
X439240Y254000D02*
X449761Y254000D01*
X457200Y261440D01*
X457200Y271961D01*
X449761Y279400D01*
X439240Y279400D01*
X431800Y271961D01*
X431800Y261440D01*
X439240Y254000D01*
G37*
G36*
X553540Y177800D02*
X564061Y177800D01*
X571500Y185240D01*
X571500Y195761D01*
X565138Y202122D01*
X564822Y202583D01*
X564692Y203176D01*
X564803Y203772D01*
X565138Y204278D01*
X571500Y210640D01*
X571500Y221161D01*
X564061Y228600D01*
X553540Y228600D01*
X546100Y221161D01*
X546100Y210640D01*
X552462Y204278D01*
X552778Y203817D01*
X552908Y203224D01*
X552797Y202628D01*
X552462Y202122D01*
X546100Y195761D01*
X546100Y185240D01*
X553540Y177800D01*
G37*
G36*
X813553Y60751D02*
X837447Y60751D01*
X842978Y63042D01*
X847212Y67275D01*
X849503Y72806D01*
X849503Y78794D01*
X847212Y84325D01*
X842978Y88558D01*
X837447Y90850D01*
X833628Y90850D01*
X833079Y90952D01*
X832568Y91279D01*
X832225Y91779D01*
X832104Y92374D01*
X832104Y129835D01*
X830712Y133196D01*
X779372Y184536D01*
X776011Y185928D01*
X768821Y185928D01*
X768249Y186039D01*
X767743Y186374D01*
X764695Y189422D01*
X764379Y189883D01*
X764249Y190476D01*
X764360Y191072D01*
X764695Y191578D01*
X768548Y195430D01*
X770636Y200472D01*
X770636Y205928D01*
X768548Y210970D01*
X764690Y214828D01*
X759648Y216916D01*
X738952Y216916D01*
X733910Y214828D01*
X730052Y210970D01*
X727964Y205928D01*
X727964Y200472D01*
X730052Y195430D01*
X733905Y191578D01*
X734221Y191117D01*
X734351Y190524D01*
X734240Y189928D01*
X733905Y189422D01*
X730052Y185570D01*
X727964Y180528D01*
X727964Y175072D01*
X730052Y170030D01*
X733905Y166178D01*
X734221Y165717D01*
X734351Y165124D01*
X734240Y164528D01*
X733905Y164022D01*
X730052Y160170D01*
X727964Y155128D01*
X727964Y149672D01*
X730052Y144630D01*
X733910Y140772D01*
X738952Y138684D01*
X759648Y138684D01*
X764690Y140772D01*
X768548Y144630D01*
X770636Y149672D01*
X770636Y155128D01*
X768548Y160170D01*
X764695Y164022D01*
X764379Y164483D01*
X764249Y165076D01*
X764360Y165672D01*
X764695Y166178D01*
X765711Y167194D01*
X766194Y167519D01*
X766789Y167640D01*
X769773Y167640D01*
X770345Y167529D01*
X770851Y167194D01*
X813370Y124675D01*
X813695Y124192D01*
X813816Y123597D01*
X813816Y91977D01*
X813709Y91416D01*
X813378Y90908D01*
X812875Y90569D01*
X808022Y88558D01*
X803788Y84325D01*
X801497Y78794D01*
X801497Y72806D01*
X803788Y67275D01*
X808022Y63042D01*
X813553Y60751D01*
G37*
G36*
X794840Y190500D02*
X805361Y190500D01*
X812800Y197940D01*
X812800Y208461D01*
X805361Y215900D01*
X794840Y215900D01*
X787400Y208461D01*
X787400Y197940D01*
X794840Y190500D01*
G37*
G36*
X515440Y152400D02*
X525961Y152400D01*
X533400Y159840D01*
X533400Y170361D01*
X525961Y177800D01*
X515440Y177800D01*
X508000Y170361D01*
X508000Y159840D01*
X515440Y152400D01*
G37*
G36*
X439240Y152400D02*
X449761Y152400D01*
X457200Y159840D01*
X457200Y170361D01*
X449761Y177800D01*
X439240Y177800D01*
X431800Y170361D01*
X431800Y159840D01*
X439240Y152400D01*
G37*
G36*
X439240Y88900D02*
X449761Y88900D01*
X457200Y96340D01*
X457200Y106861D01*
X449761Y114300D01*
X439240Y114300D01*
X431800Y106861D01*
X431800Y96340D01*
X439240Y88900D01*
G37*
G36*
X629740Y80264D02*
X640261Y80264D01*
X647700Y87704D01*
X647700Y98225D01*
X640261Y105664D01*
X629740Y105664D01*
X622300Y98225D01*
X622300Y87704D01*
X629740Y80264D01*
G37*
G36*
X26153Y48851D02*
X50047Y48851D01*
X55578Y51142D01*
X59812Y55375D01*
X62103Y60906D01*
X62103Y66894D01*
X59812Y72425D01*
X55578Y76658D01*
X50047Y78950D01*
X26153Y78950D01*
X20622Y76658D01*
X16388Y72425D01*
X14097Y66894D01*
X14097Y60906D01*
X16388Y55375D01*
X20622Y51142D01*
X26153Y48851D01*
G37*
G36*
X515440Y25400D02*
X525961Y25400D01*
X533400Y32840D01*
X533400Y43361D01*
X525961Y50800D01*
X515440Y50800D01*
X508000Y43361D01*
X508000Y32840D01*
X515440Y25400D01*
G37*
G36*
X439240Y25400D02*
X449761Y25400D01*
X457200Y32840D01*
X457200Y43361D01*
X449761Y50800D01*
X439240Y50800D01*
X431800Y43361D01*
X431800Y32840D01*
X439240Y25400D01*
G37*
%LPD*%
G36*
X560194Y679825D02*
X559599Y679704D01*
X558001Y679704D01*
X557474Y679798D01*
X556958Y680117D01*
X556607Y680611D01*
X556477Y681204D01*
X556588Y681800D01*
X556923Y682306D01*
X557722Y683105D01*
X558183Y683421D01*
X558776Y683551D01*
X559372Y683440D01*
X559878Y683105D01*
X560677Y682306D01*
X560983Y681867D01*
X561123Y681277D01*
X561021Y680679D01*
X560694Y680168D01*
X560194Y679825D01*
G37*
G36*
X703181Y675735D02*
X702588Y675605D01*
X701992Y675716D01*
X701486Y676051D01*
X701195Y676342D01*
X700879Y676803D01*
X700749Y677396D01*
X700860Y677992D01*
X701195Y678498D01*
X701486Y678789D01*
X701925Y679095D01*
X702515Y679235D01*
X703113Y679133D01*
X703624Y678806D01*
X703967Y678306D01*
X704088Y677711D01*
X704088Y677129D01*
X703994Y676602D01*
X703675Y676086D01*
X703181Y675735D01*
G37*
G36*
X529576Y667633D02*
X528981Y667512D01*
X528675Y667512D01*
X528103Y667623D01*
X527597Y667958D01*
X520993Y674562D01*
X520687Y675001D01*
X520548Y675591D01*
X520649Y676189D01*
X520976Y676700D01*
X521476Y677043D01*
X522071Y677164D01*
X522377Y677164D01*
X522949Y677053D01*
X523455Y676718D01*
X530059Y670114D01*
X530365Y669675D01*
X530504Y669085D01*
X530403Y668487D01*
X530076Y667976D01*
X529576Y667633D01*
G37*
G36*
X538720Y606673D02*
X538125Y606552D01*
X459523Y606552D01*
X458962Y606659D01*
X458454Y606990D01*
X458115Y607493D01*
X456050Y612476D01*
X455935Y613035D01*
X456046Y613632D01*
X456381Y614137D01*
X504890Y662647D01*
X505351Y662963D01*
X505944Y663093D01*
X506540Y662982D01*
X507046Y662647D01*
X519076Y650616D01*
X522437Y649224D01*
X551384Y649224D01*
X551911Y649130D01*
X552427Y648811D01*
X552778Y648317D01*
X552908Y647724D01*
X552797Y647128D01*
X552462Y646622D01*
X546100Y640261D01*
X546100Y629740D01*
X552462Y623378D01*
X552778Y622917D01*
X552908Y622324D01*
X552797Y621728D01*
X552462Y621222D01*
X546100Y614861D01*
X546100Y614527D01*
X545989Y613955D01*
X545654Y613449D01*
X539203Y606998D01*
X538720Y606673D01*
G37*
G36*
X617968Y618865D02*
X617373Y618744D01*
X568248Y618744D01*
X567676Y618855D01*
X567170Y619190D01*
X565138Y621222D01*
X564822Y621683D01*
X564692Y622276D01*
X564803Y622872D01*
X565138Y623378D01*
X571500Y629740D01*
X571500Y640261D01*
X565138Y646622D01*
X564832Y647061D01*
X564693Y647651D01*
X564794Y648249D01*
X565121Y648760D01*
X565621Y649103D01*
X566216Y649224D01*
X617373Y649224D01*
X617945Y649113D01*
X618451Y648778D01*
X629906Y637322D01*
X630222Y636861D01*
X630353Y636269D01*
X630241Y635673D01*
X629906Y635167D01*
X622300Y627561D01*
X622300Y623671D01*
X622189Y623099D01*
X621854Y622593D01*
X618451Y619190D01*
X617968Y618865D01*
G37*
G36*
X703181Y544415D02*
X702588Y544285D01*
X701992Y544396D01*
X701486Y544731D01*
X701195Y545022D01*
X700879Y545483D01*
X700749Y546076D01*
X700860Y546672D01*
X701195Y547178D01*
X701486Y547469D01*
X701925Y547775D01*
X702515Y547915D01*
X703113Y547813D01*
X703624Y547486D01*
X703967Y546986D01*
X704088Y546391D01*
X704088Y545809D01*
X703994Y545282D01*
X703675Y544766D01*
X703181Y544415D01*
G37*
G36*
X168120Y553586D02*
X165912Y553586D01*
X165912Y558775D01*
X165924Y560291D01*
X165940Y560694D01*
X165961Y560861D01*
X165900Y560861D01*
X165760Y560582D01*
X165605Y560320D01*
X165433Y560077D01*
X165246Y559852D01*
X165044Y559645D01*
X164826Y559456D01*
X164591Y559284D01*
X164342Y559131D01*
X164076Y558996D01*
X163795Y558879D01*
X163498Y558780D01*
X163185Y558699D01*
X162857Y558636D01*
X162513Y558591D01*
X162153Y558564D01*
X161778Y558555D01*
X161477Y558561D01*
X161186Y558582D01*
X160905Y558616D01*
X160633Y558663D01*
X160371Y558724D01*
X160118Y558799D01*
X159875Y558887D01*
X159642Y558989D01*
X159417Y559104D01*
X159203Y559233D01*
X158998Y559375D01*
X158802Y559531D01*
X158440Y559884D01*
X158116Y560291D01*
X157830Y560752D01*
X157582Y561267D01*
X157372Y561837D01*
X157200Y562460D01*
X157067Y563139D01*
X156971Y563871D01*
X156914Y564658D01*
X156895Y565498D01*
X156914Y566349D01*
X156971Y567142D01*
X157066Y567875D01*
X157199Y568550D01*
X157369Y569166D01*
X157578Y569724D01*
X157825Y570223D01*
X158110Y570663D01*
X158433Y571049D01*
X158794Y571382D01*
X159195Y571665D01*
X159409Y571787D01*
X159634Y571896D01*
X159868Y571992D01*
X160112Y572076D01*
X160365Y572147D01*
X160628Y572204D01*
X160901Y572249D01*
X161184Y572281D01*
X161476Y572301D01*
X161778Y572307D01*
X162164Y572298D01*
X162531Y572271D01*
X162878Y572227D01*
X163207Y572165D01*
X163516Y572084D01*
X163807Y571986D01*
X164078Y571870D01*
X164329Y571737D01*
X164566Y571584D01*
X164790Y571410D01*
X165003Y571217D01*
X165204Y571002D01*
X165392Y570767D01*
X165569Y570512D01*
X165734Y570236D01*
X165887Y569939D01*
X165937Y569939D01*
X165967Y570798D01*
X166022Y571724D01*
X166059Y572074D01*
X168194Y572074D01*
X168162Y571656D01*
X168139Y571065D01*
X168120Y569363D01*
X168120Y553586D01*
G37*
%LPC*%
G36*
X162367Y560186D02*
X162820Y560206D01*
X163240Y560264D01*
X163628Y560361D01*
X163983Y560496D01*
X164305Y560670D01*
X164596Y560883D01*
X164853Y561135D01*
X165078Y561425D01*
X165273Y561757D01*
X165443Y562131D01*
X165586Y562548D01*
X165703Y563008D01*
X165795Y563511D01*
X165860Y564057D01*
X165899Y564646D01*
X165912Y565278D01*
X165906Y565736D01*
X165888Y566172D01*
X165858Y566586D01*
X165815Y566978D01*
X165761Y567348D01*
X165695Y567696D01*
X165616Y568022D01*
X165526Y568326D01*
X165423Y568609D01*
X165310Y568873D01*
X165186Y569118D01*
X165050Y569343D01*
X164904Y569549D01*
X164746Y569735D01*
X164577Y569902D01*
X164397Y570050D01*
X164202Y570179D01*
X163990Y570291D01*
X163760Y570386D01*
X163512Y570464D01*
X163246Y570524D01*
X162963Y570567D01*
X162661Y570593D01*
X162342Y570602D01*
X161948Y570583D01*
X161581Y570528D01*
X161243Y570435D01*
X160931Y570304D01*
X160648Y570137D01*
X160391Y569933D01*
X160163Y569691D01*
X159962Y569412D01*
X159787Y569090D01*
X159635Y568718D01*
X159506Y568297D01*
X159401Y567826D01*
X159319Y567306D01*
X159260Y566737D01*
X159225Y566118D01*
X159214Y565449D01*
X159225Y564763D01*
X159261Y564129D01*
X159320Y563545D01*
X159402Y563013D01*
X159508Y562531D01*
X159638Y562101D01*
X159791Y561722D01*
X159968Y561395D01*
X160171Y561111D01*
X160401Y560866D01*
X160659Y560658D01*
X160945Y560488D01*
X161259Y560356D01*
X161600Y560262D01*
X161969Y560205D01*
X162367Y560186D01*
G37*
%LPD*%
G36*
X71719Y558555D02*
X71353Y558563D01*
X71001Y558589D01*
X70665Y558632D01*
X70344Y558693D01*
X70038Y558770D01*
X69747Y558865D01*
X69471Y558977D01*
X69210Y559107D01*
X68964Y559256D01*
X68729Y559428D01*
X68507Y559623D01*
X68298Y559840D01*
X68101Y560080D01*
X67917Y560342D01*
X67745Y560627D01*
X67585Y560935D01*
X67536Y560935D01*
X67525Y560370D01*
X67493Y559708D01*
X67452Y559125D01*
X67413Y558800D01*
X65303Y558800D01*
X65335Y559219D01*
X65358Y559815D01*
X65377Y561536D01*
X65377Y577006D01*
X67585Y577006D01*
X67585Y571497D01*
X67560Y570013D01*
X67585Y570013D01*
X67744Y570303D01*
X67916Y570574D01*
X68100Y570823D01*
X68296Y571053D01*
X68505Y571262D01*
X68726Y571451D01*
X68959Y571619D01*
X69204Y571767D01*
X69464Y571897D01*
X69739Y572009D01*
X70030Y572104D01*
X70336Y572181D01*
X70658Y572242D01*
X70996Y572285D01*
X71350Y572311D01*
X71719Y572319D01*
X72020Y572313D01*
X72311Y572292D01*
X72592Y572258D01*
X72864Y572211D01*
X73126Y572150D01*
X73379Y572075D01*
X73622Y571987D01*
X73855Y571885D01*
X74080Y571770D01*
X74294Y571641D01*
X74499Y571499D01*
X74695Y571343D01*
X75057Y570990D01*
X75381Y570583D01*
X75667Y570122D01*
X75915Y569607D01*
X76125Y569037D01*
X76297Y568414D01*
X76430Y567735D01*
X76526Y567003D01*
X76583Y566217D01*
X76602Y565376D01*
X76583Y564544D01*
X76528Y563767D01*
X76435Y563044D01*
X76306Y562376D01*
X76140Y561762D01*
X75936Y561203D01*
X75696Y560698D01*
X75418Y560248D01*
X75101Y559851D01*
X74927Y559672D01*
X74743Y559507D01*
X74548Y559355D01*
X74343Y559216D01*
X74127Y559090D01*
X73901Y558978D01*
X73665Y558879D01*
X73418Y558793D01*
X73161Y558720D01*
X72894Y558660D01*
X72616Y558614D01*
X72327Y558581D01*
X72028Y558561D01*
X71719Y558555D01*
G37*
%LPC*%
G36*
X71155Y560260D02*
X71555Y560279D01*
X71926Y560335D01*
X72268Y560429D01*
X72581Y560560D01*
X72866Y560730D01*
X73122Y560936D01*
X73349Y561180D01*
X73547Y561462D01*
X73720Y561787D01*
X73869Y562162D01*
X73996Y562586D01*
X74099Y563060D01*
X74180Y563583D01*
X74237Y564156D01*
X74272Y564778D01*
X74283Y565449D01*
X74272Y566118D01*
X74237Y566739D01*
X74179Y567312D01*
X74098Y567837D01*
X73993Y568314D01*
X73866Y568742D01*
X73715Y569123D01*
X73541Y569455D01*
X73341Y569744D01*
X73112Y569994D01*
X72854Y570206D01*
X72567Y570380D01*
X72252Y570514D01*
X71907Y570611D01*
X71533Y570668D01*
X71130Y570688D01*
X70683Y570669D01*
X70267Y570611D01*
X69883Y570515D01*
X69529Y570381D01*
X69208Y570209D01*
X68918Y569998D01*
X68659Y569748D01*
X68431Y569461D01*
X68233Y569132D01*
X68061Y568759D01*
X67916Y568342D01*
X67797Y567881D01*
X67704Y567376D01*
X67638Y566827D01*
X67598Y566234D01*
X67585Y565597D01*
X67598Y564935D01*
X67638Y564318D01*
X67704Y563747D01*
X67797Y563220D01*
X67916Y562737D01*
X68061Y562300D01*
X68233Y561908D01*
X68431Y561560D01*
X68459Y561524D01*
X68659Y561256D01*
X68919Y560991D01*
X69211Y560768D01*
X69536Y560585D01*
X69892Y560443D01*
X70281Y560341D01*
X70702Y560280D01*
X71155Y560260D01*
G37*
%LPD*%
G36*
X51163Y558555D02*
X50804Y558561D01*
X50455Y558581D01*
X50117Y558615D01*
X49790Y558661D01*
X49474Y558721D01*
X49168Y558794D01*
X48874Y558881D01*
X48590Y558981D01*
X48317Y559094D01*
X48055Y559221D01*
X47804Y559361D01*
X47563Y559514D01*
X47334Y559680D01*
X47115Y559860D01*
X46907Y560053D01*
X46710Y560260D01*
X46524Y560480D01*
X46350Y560714D01*
X46189Y560962D01*
X46039Y561224D01*
X45901Y561499D01*
X45775Y561789D01*
X45661Y562092D01*
X45560Y562410D01*
X45470Y562741D01*
X45392Y563086D01*
X45326Y563445D01*
X45272Y563818D01*
X45230Y564205D01*
X45200Y564606D01*
X45182Y565021D01*
X45176Y565449D01*
X45199Y566301D01*
X45266Y567094D01*
X45378Y567830D01*
X45451Y568177D01*
X45535Y568509D01*
X45630Y568826D01*
X45737Y569129D01*
X45855Y569418D01*
X45984Y569692D01*
X46124Y569952D01*
X46275Y570197D01*
X46438Y570428D01*
X46612Y570645D01*
X46797Y570848D01*
X46996Y571037D01*
X47206Y571214D01*
X47430Y571377D01*
X47666Y571528D01*
X47914Y571665D01*
X48175Y571790D01*
X48449Y571901D01*
X48735Y571999D01*
X49034Y572084D01*
X49345Y572156D01*
X49669Y572215D01*
X50005Y572261D01*
X50354Y572293D01*
X50715Y572313D01*
X51089Y572319D01*
X51456Y572313D01*
X51810Y572293D01*
X52153Y572259D01*
X52484Y572212D01*
X52804Y572152D01*
X53112Y572078D01*
X53408Y571991D01*
X53693Y571890D01*
X53966Y571776D01*
X54227Y571648D01*
X54477Y571508D01*
X54715Y571353D01*
X54942Y571186D01*
X55157Y571004D01*
X55360Y570810D01*
X55552Y570602D01*
X55732Y570380D01*
X55901Y570146D01*
X56057Y569897D01*
X56203Y569636D01*
X56336Y569361D01*
X56458Y569072D01*
X56569Y568770D01*
X56668Y568455D01*
X56755Y568126D01*
X56830Y567784D01*
X56894Y567428D01*
X56947Y567059D01*
X56987Y566677D01*
X57016Y566281D01*
X57039Y565449D01*
X57016Y564637D01*
X56947Y563873D01*
X56831Y563159D01*
X56755Y562820D01*
X56668Y562494D01*
X56570Y562180D01*
X56460Y561879D01*
X56338Y561589D01*
X56204Y561312D01*
X56060Y561048D01*
X55903Y560795D01*
X55735Y560555D01*
X55555Y560327D01*
X55364Y560113D01*
X55162Y559912D01*
X54948Y559725D01*
X54724Y559552D01*
X54488Y559393D01*
X54242Y559247D01*
X53984Y559116D01*
X53715Y558998D01*
X53435Y558894D01*
X53144Y558804D01*
X52841Y558728D01*
X52528Y558665D01*
X52203Y558617D01*
X51868Y558582D01*
X51521Y558562D01*
X51163Y558555D01*
G37*
%LPC*%
G36*
X51188Y560186D02*
X51629Y560207D01*
X52041Y560269D01*
X52421Y560372D01*
X52772Y560516D01*
X53092Y560701D01*
X53381Y560928D01*
X53640Y561196D01*
X53868Y561505D01*
X54068Y561855D01*
X54241Y562246D01*
X54388Y562678D01*
X54508Y563151D01*
X54601Y563664D01*
X54668Y564218D01*
X54707Y564813D01*
X54721Y565449D01*
X54707Y566102D01*
X54667Y566709D01*
X54599Y567273D01*
X54505Y567791D01*
X54383Y568265D01*
X54234Y568694D01*
X54059Y569078D01*
X53856Y569418D01*
X53623Y569716D01*
X53356Y569974D01*
X53056Y570192D01*
X52723Y570370D01*
X52355Y570509D01*
X51955Y570608D01*
X51520Y570668D01*
X51053Y570688D01*
X50588Y570668D01*
X50159Y570610D01*
X49764Y570513D01*
X49404Y570376D01*
X49079Y570201D01*
X48788Y569987D01*
X48532Y569734D01*
X48311Y569443D01*
X48120Y569108D01*
X47954Y568726D01*
X47814Y568297D01*
X47699Y567822D01*
X47610Y567299D01*
X47546Y566729D01*
X47508Y566113D01*
X47495Y565449D01*
X47508Y564794D01*
X47548Y564183D01*
X47615Y563618D01*
X47708Y563097D01*
X47828Y562621D01*
X47975Y562190D01*
X48148Y561804D01*
X48348Y561462D01*
X48578Y561163D01*
X48845Y560904D01*
X49147Y560685D01*
X49484Y560505D01*
X49857Y560366D01*
X50265Y560266D01*
X50708Y560206D01*
X51188Y560186D01*
G37*
%LPD*%
G36*
X129351Y558555D02*
X128991Y558561D01*
X128642Y558581D01*
X128304Y558615D01*
X127977Y558661D01*
X127661Y558721D01*
X127356Y558794D01*
X127061Y558881D01*
X126777Y558981D01*
X126504Y559094D01*
X126242Y559221D01*
X125991Y559361D01*
X125751Y559514D01*
X125521Y559680D01*
X125302Y559860D01*
X125094Y560053D01*
X124897Y560260D01*
X124712Y560480D01*
X124538Y560714D01*
X124376Y560962D01*
X124226Y561224D01*
X124089Y561499D01*
X123963Y561789D01*
X123849Y562092D01*
X123747Y562410D01*
X123657Y562741D01*
X123579Y563086D01*
X123514Y563445D01*
X123460Y563818D01*
X123418Y564205D01*
X123388Y564606D01*
X123370Y565021D01*
X123364Y565449D01*
X123386Y566301D01*
X123453Y567094D01*
X123566Y567830D01*
X123638Y568177D01*
X123723Y568509D01*
X123818Y568826D01*
X123924Y569129D01*
X124042Y569418D01*
X124171Y569692D01*
X124311Y569952D01*
X124463Y570197D01*
X124625Y570428D01*
X124799Y570645D01*
X124985Y570848D01*
X125183Y571037D01*
X125394Y571214D01*
X125617Y571377D01*
X125853Y571528D01*
X126102Y571665D01*
X126363Y571790D01*
X126636Y571901D01*
X126922Y571999D01*
X127221Y572084D01*
X127532Y572156D01*
X127856Y572215D01*
X128193Y572261D01*
X128541Y572293D01*
X128903Y572313D01*
X129277Y572319D01*
X129643Y572313D01*
X129997Y572293D01*
X130340Y572259D01*
X130671Y572212D01*
X130991Y572152D01*
X131299Y572078D01*
X131595Y571991D01*
X131880Y571890D01*
X132153Y571776D01*
X132415Y571648D01*
X132665Y571508D01*
X132903Y571353D01*
X133129Y571186D01*
X133344Y571004D01*
X133548Y570810D01*
X133739Y570602D01*
X133920Y570380D01*
X134088Y570146D01*
X134245Y569897D01*
X134390Y569636D01*
X134524Y569361D01*
X134646Y569072D01*
X134756Y568770D01*
X134855Y568455D01*
X134942Y568126D01*
X135018Y567784D01*
X135082Y567428D01*
X135134Y567059D01*
X135175Y566677D01*
X135204Y566281D01*
X135227Y565449D01*
X135204Y564637D01*
X135134Y563873D01*
X135018Y563159D01*
X134943Y562820D01*
X134856Y562494D01*
X134757Y562180D01*
X134647Y561879D01*
X134525Y561589D01*
X134392Y561312D01*
X134247Y561048D01*
X134090Y560795D01*
X133922Y560555D01*
X133743Y560327D01*
X133551Y560113D01*
X133349Y559912D01*
X133136Y559725D01*
X132911Y559552D01*
X132676Y559393D01*
X132429Y559247D01*
X132171Y559116D01*
X131902Y558998D01*
X131622Y558894D01*
X131331Y558804D01*
X131029Y558728D01*
X130715Y558665D01*
X130391Y558617D01*
X130055Y558582D01*
X129708Y558562D01*
X129351Y558555D01*
G37*
%LPC*%
G36*
X129375Y560186D02*
X129817Y560207D01*
X130228Y560269D01*
X130609Y560372D01*
X130959Y560516D01*
X131279Y560701D01*
X131568Y560928D01*
X131827Y561196D01*
X132056Y561505D01*
X132256Y561855D01*
X132429Y562246D01*
X132575Y562678D01*
X132695Y563151D01*
X132788Y563664D01*
X132855Y564218D01*
X132895Y564813D01*
X132908Y565449D01*
X132895Y566102D01*
X132854Y566709D01*
X132787Y567273D01*
X132692Y567791D01*
X132570Y568265D01*
X132422Y568694D01*
X132246Y569078D01*
X132043Y569418D01*
X131810Y569716D01*
X131544Y569974D01*
X131244Y570192D01*
X130910Y570370D01*
X130543Y570509D01*
X130142Y570608D01*
X129708Y570668D01*
X129240Y570688D01*
X128776Y570668D01*
X128347Y570610D01*
X127952Y570513D01*
X127592Y570376D01*
X127266Y570201D01*
X126976Y569987D01*
X126720Y569734D01*
X126498Y569443D01*
X126307Y569108D01*
X126141Y568726D01*
X126001Y568297D01*
X125886Y567822D01*
X125797Y567299D01*
X125733Y566729D01*
X125695Y566113D01*
X125682Y565449D01*
X125696Y564794D01*
X125736Y564183D01*
X125802Y563618D01*
X125896Y563097D01*
X126015Y562621D01*
X126162Y562190D01*
X126335Y561804D01*
X126535Y561462D01*
X126766Y561163D01*
X127032Y560904D01*
X127334Y560685D01*
X127671Y560505D01*
X128044Y560366D01*
X128452Y560266D01*
X128896Y560206D01*
X129375Y560186D01*
G37*
%LPD*%
G36*
X184297Y558555D02*
X183903Y558565D01*
X183524Y558594D01*
X183160Y558644D01*
X182811Y558713D01*
X182477Y558801D01*
X182159Y558910D01*
X181855Y559038D01*
X181567Y559186D01*
X181291Y559358D01*
X181023Y559558D01*
X180764Y559785D01*
X180514Y560041D01*
X180272Y560324D01*
X180039Y560634D01*
X179814Y560973D01*
X179598Y561339D01*
X179525Y561339D01*
X179499Y561007D01*
X179457Y560698D01*
X179401Y560412D01*
X179330Y560148D01*
X179243Y559907D01*
X179142Y559689D01*
X179025Y559494D01*
X178893Y559321D01*
X178743Y559170D01*
X178572Y559040D01*
X178380Y558929D01*
X178167Y558838D01*
X177934Y558768D01*
X177679Y558718D01*
X177404Y558687D01*
X177108Y558677D01*
X176674Y558690D01*
X176246Y558726D01*
X175822Y558788D01*
X175402Y558874D01*
X175402Y560248D01*
X175786Y560183D01*
X176126Y560162D01*
X176300Y560170D01*
X176459Y560193D01*
X176604Y560232D01*
X176734Y560286D01*
X176849Y560356D01*
X176950Y560441D01*
X177036Y560542D01*
X177108Y560659D01*
X177220Y560937D01*
X177301Y561277D01*
X177349Y561676D01*
X177365Y562137D01*
X177365Y567854D01*
X177385Y568381D01*
X177444Y568876D01*
X177543Y569338D01*
X177681Y569769D01*
X177859Y570168D01*
X178076Y570535D01*
X178333Y570870D01*
X178629Y571172D01*
X178964Y571441D01*
X179338Y571674D01*
X179751Y571871D01*
X180202Y572033D01*
X180692Y572158D01*
X181221Y572248D01*
X181789Y572301D01*
X182395Y572319D01*
X182974Y572305D01*
X183520Y572263D01*
X184033Y572193D01*
X184513Y572096D01*
X184961Y571970D01*
X185375Y571816D01*
X185757Y571634D01*
X186106Y571424D01*
X186423Y571186D01*
X186706Y570920D01*
X186957Y570626D01*
X187175Y570304D01*
X187360Y569955D01*
X187513Y569577D01*
X187633Y569171D01*
X187720Y568737D01*
X185413Y568529D01*
X185371Y568795D01*
X185312Y569043D01*
X185236Y569272D01*
X185143Y569482D01*
X185034Y569674D01*
X184907Y569847D01*
X184764Y570001D01*
X184604Y570136D01*
X184422Y570254D01*
X184216Y570356D01*
X183984Y570442D01*
X183726Y570513D01*
X183444Y570568D01*
X183136Y570607D01*
X182803Y570631D01*
X182444Y570639D01*
X182089Y570628D01*
X181757Y570595D01*
X181451Y570540D01*
X181168Y570464D01*
X180911Y570366D01*
X180678Y570245D01*
X180469Y570103D01*
X180285Y569939D01*
X180124Y569750D01*
X179985Y569532D01*
X179866Y569286D01*
X179770Y569010D01*
X179695Y568706D01*
X179641Y568373D01*
X179609Y568011D01*
X179598Y567621D01*
X179598Y566897D01*
X182579Y566848D01*
X183308Y566813D01*
X183984Y566747D01*
X184609Y566648D01*
X185182Y566517D01*
X185702Y566353D01*
X186171Y566158D01*
X186588Y565930D01*
X186953Y565670D01*
X187271Y565379D01*
X187546Y565058D01*
X187779Y564707D01*
X187970Y564327D01*
X188118Y563916D01*
X188224Y563476D01*
X188287Y563005D01*
X188308Y562505D01*
X188293Y562057D01*
X188246Y561634D01*
X188167Y561235D01*
X188057Y560861D01*
X187915Y560511D01*
X187743Y560186D01*
X187538Y559886D01*
X187302Y559610D01*
X187035Y559362D01*
X186737Y559148D01*
X186408Y558967D01*
X186048Y558818D01*
X185657Y558703D01*
X185235Y558621D01*
X184781Y558571D01*
X184297Y558555D01*
G37*
%LPC*%
G36*
X183794Y560211D02*
X184056Y560220D01*
X184303Y560248D01*
X184534Y560294D01*
X184749Y560358D01*
X184949Y560441D01*
X185134Y560542D01*
X185303Y560662D01*
X185456Y560800D01*
X185593Y560955D01*
X185711Y561125D01*
X185811Y561310D01*
X185893Y561511D01*
X185957Y561727D01*
X186002Y561959D01*
X186030Y562206D01*
X186039Y562468D01*
X186032Y562711D01*
X186012Y562941D01*
X185978Y563160D01*
X185932Y563367D01*
X185871Y563562D01*
X185797Y563745D01*
X185710Y563916D01*
X185609Y564075D01*
X185371Y564362D01*
X185087Y564609D01*
X184755Y564816D01*
X184377Y564983D01*
X184164Y565052D01*
X183928Y565113D01*
X183384Y565210D01*
X182747Y565273D01*
X182015Y565302D01*
X179598Y565351D01*
X179598Y564259D01*
X179607Y564006D01*
X179632Y563754D01*
X179675Y563503D01*
X179735Y563255D01*
X179811Y563008D01*
X179905Y562763D01*
X180016Y562520D01*
X180144Y562278D01*
X180287Y562044D01*
X180442Y561822D01*
X180610Y561614D01*
X180790Y561418D01*
X180982Y561235D01*
X181187Y561065D01*
X181405Y560907D01*
X181635Y560763D01*
X181875Y560634D01*
X182124Y560521D01*
X182381Y560426D01*
X182647Y560349D01*
X182921Y560288D01*
X183203Y560245D01*
X183494Y560219D01*
X183794Y560211D01*
G37*
%LPD*%
G36*
X229190Y558800D02*
X215572Y558800D01*
X215572Y560714D01*
X226847Y560714D01*
X226847Y566737D01*
X216811Y566737D01*
X216811Y568627D01*
X226847Y568627D01*
X226847Y574172D01*
X216075Y574172D01*
X216075Y576086D01*
X229190Y576086D01*
X229190Y558800D01*
G37*
G36*
X148754Y558555D02*
X148238Y558567D01*
X147746Y558604D01*
X147278Y558665D01*
X146833Y558751D01*
X146412Y558861D01*
X146015Y558996D01*
X145641Y559156D01*
X145291Y559340D01*
X144965Y559548D01*
X144662Y559781D01*
X144383Y560039D01*
X144128Y560321D01*
X143896Y560628D01*
X143688Y560959D01*
X143504Y561315D01*
X143343Y561695D01*
X145282Y562247D01*
X145367Y562031D01*
X145470Y561825D01*
X145590Y561628D01*
X145728Y561441D01*
X145883Y561263D01*
X146056Y561095D01*
X146246Y560936D01*
X146453Y560787D01*
X146678Y560652D01*
X146921Y560535D01*
X147182Y560436D01*
X147461Y560355D01*
X147757Y560292D01*
X148072Y560247D01*
X148404Y560220D01*
X148754Y560211D01*
X149194Y560230D01*
X149607Y560288D01*
X149993Y560385D01*
X150352Y560521D01*
X150683Y560695D01*
X150987Y560908D01*
X151264Y561159D01*
X151514Y561450D01*
X151735Y561776D01*
X151927Y562135D01*
X152090Y562526D01*
X152222Y562950D01*
X152326Y563406D01*
X152400Y563895D01*
X152444Y564417D01*
X152459Y564971D01*
X142988Y564971D01*
X142988Y565265D01*
X143010Y566119D01*
X143079Y566919D01*
X143130Y567297D01*
X143193Y567663D01*
X143268Y568014D01*
X143353Y568351D01*
X143450Y568675D01*
X143559Y568985D01*
X143679Y569281D01*
X143811Y569564D01*
X143953Y569833D01*
X144108Y570087D01*
X144273Y570329D01*
X144451Y570556D01*
X144639Y570769D01*
X144839Y570969D01*
X145051Y571155D01*
X145273Y571327D01*
X145508Y571486D01*
X145754Y571631D01*
X146011Y571761D01*
X146279Y571879D01*
X146559Y571982D01*
X146851Y572071D01*
X147154Y572147D01*
X147468Y572209D01*
X147794Y572257D01*
X148131Y572292D01*
X148479Y572313D01*
X148839Y572319D01*
X149192Y572313D01*
X149533Y572292D01*
X149865Y572258D01*
X150186Y572210D01*
X150497Y572148D01*
X150798Y572073D01*
X151088Y571984D01*
X151368Y571881D01*
X151638Y571764D01*
X151897Y571634D01*
X152146Y571490D01*
X152385Y571333D01*
X152614Y571161D01*
X152832Y570976D01*
X153040Y570778D01*
X153238Y570565D01*
X153424Y570340D01*
X153598Y570103D01*
X153761Y569853D01*
X153911Y569592D01*
X154049Y569319D01*
X154176Y569034D01*
X154290Y568737D01*
X154392Y568427D01*
X154483Y568106D01*
X154561Y567773D01*
X154627Y567428D01*
X154681Y567071D01*
X154723Y566702D01*
X154753Y566321D01*
X154771Y565928D01*
X154777Y565523D01*
X154771Y565097D01*
X154753Y564685D01*
X154723Y564286D01*
X154681Y563900D01*
X154627Y563527D01*
X154561Y563168D01*
X154483Y562822D01*
X154392Y562490D01*
X154290Y562170D01*
X154176Y561865D01*
X154049Y561572D01*
X153911Y561293D01*
X153761Y561027D01*
X153598Y560774D01*
X153424Y560535D01*
X153238Y560309D01*
X153040Y560097D01*
X152831Y559898D01*
X152611Y559713D01*
X152380Y559541D01*
X152138Y559384D01*
X151885Y559240D01*
X151622Y559110D01*
X151347Y558993D01*
X151061Y558890D01*
X150764Y558801D01*
X150457Y558726D01*
X150138Y558664D01*
X149808Y558616D01*
X149468Y558582D01*
X149116Y558562D01*
X148754Y558555D01*
G37*
%LPC*%
G36*
X152434Y566664D02*
X152402Y567121D01*
X152343Y567552D01*
X152257Y567959D01*
X152144Y568340D01*
X152004Y568696D01*
X151837Y569027D01*
X151643Y569333D01*
X151422Y569614D01*
X151177Y569866D01*
X150911Y570084D01*
X150624Y570268D01*
X150316Y570419D01*
X149988Y570537D01*
X149638Y570621D01*
X149268Y570671D01*
X148876Y570688D01*
X148474Y570673D01*
X148096Y570628D01*
X147743Y570552D01*
X147413Y570447D01*
X147108Y570312D01*
X146827Y570146D01*
X146570Y569950D01*
X146337Y569725D01*
X146127Y569466D01*
X145939Y569172D01*
X145773Y568843D01*
X145628Y568478D01*
X145506Y568078D01*
X145405Y567642D01*
X145326Y567171D01*
X145269Y566664D01*
X152434Y566664D01*
G37*
%LPD*%
G36*
X106880Y558555D02*
X106054Y558575D01*
X105276Y558637D01*
X104546Y558739D01*
X103863Y558883D01*
X103228Y559067D01*
X102641Y559293D01*
X102102Y559560D01*
X101610Y559867D01*
X101172Y560212D01*
X100792Y560591D01*
X100624Y560793D01*
X100470Y561004D01*
X100332Y561223D01*
X100207Y561450D01*
X100098Y561686D01*
X100003Y561930D01*
X99922Y562183D01*
X99856Y562444D01*
X99805Y562713D01*
X99769Y562991D01*
X99747Y563277D01*
X99740Y563572D01*
X99756Y564029D01*
X99805Y564456D01*
X99888Y564851D01*
X100003Y565216D01*
X100148Y565554D01*
X100318Y565869D01*
X100513Y566162D01*
X100733Y566431D01*
X100977Y566678D01*
X101241Y566906D01*
X101526Y567114D01*
X101831Y567302D01*
X102486Y567635D01*
X103187Y567921D01*
X103928Y568167D01*
X104702Y568375D01*
X106291Y568749D01*
X107382Y569003D01*
X108275Y569236D01*
X108971Y569448D01*
X109468Y569639D01*
X109843Y569830D01*
X110172Y570041D01*
X110454Y570271D01*
X110689Y570522D01*
X110874Y570800D01*
X110947Y570952D01*
X111006Y571113D01*
X111053Y571282D01*
X111086Y571459D01*
X111105Y571646D01*
X111112Y571841D01*
X111095Y572171D01*
X111044Y572480D01*
X110959Y572767D01*
X110839Y573034D01*
X110686Y573280D01*
X110498Y573504D01*
X110276Y573707D01*
X110020Y573890D01*
X109732Y574051D01*
X109413Y574190D01*
X109063Y574308D01*
X108683Y574405D01*
X108272Y574480D01*
X107830Y574534D01*
X107358Y574566D01*
X106855Y574577D01*
X106396Y574567D01*
X105962Y574538D01*
X105554Y574490D01*
X105171Y574422D01*
X104815Y574335D01*
X104483Y574228D01*
X104178Y574102D01*
X103898Y573957D01*
X103642Y573791D01*
X103408Y573600D01*
X103195Y573386D01*
X103003Y573149D01*
X102833Y572888D01*
X102684Y572603D01*
X102557Y572295D01*
X102451Y571964D01*
X100144Y572368D01*
X100315Y572892D01*
X100516Y573375D01*
X100745Y573819D01*
X101003Y574222D01*
X101291Y574587D01*
X101607Y574911D01*
X101953Y575196D01*
X102328Y575442D01*
X102739Y575653D01*
X103194Y575836D01*
X103692Y575991D01*
X104233Y576118D01*
X104817Y576217D01*
X105445Y576287D01*
X106116Y576329D01*
X106830Y576343D01*
X107599Y576325D01*
X108321Y576268D01*
X108998Y576174D01*
X109629Y576043D01*
X110214Y575874D01*
X110754Y575667D01*
X111247Y575423D01*
X111695Y575141D01*
X112093Y574825D01*
X112438Y574476D01*
X112730Y574096D01*
X112969Y573684D01*
X113155Y573240D01*
X113228Y573007D01*
X113288Y572765D01*
X113334Y572515D01*
X113367Y572257D01*
X113387Y571992D01*
X113394Y571718D01*
X113374Y571247D01*
X113313Y570804D01*
X113211Y570389D01*
X113069Y570001D01*
X112888Y569638D01*
X112672Y569300D01*
X112419Y568985D01*
X112130Y568694D01*
X111796Y568422D01*
X111405Y568162D01*
X110958Y567916D01*
X110456Y567682D01*
X109863Y567455D01*
X109148Y567228D01*
X108308Y567001D01*
X107346Y566774D01*
X105199Y566271D01*
X104731Y566148D01*
X104297Y566011D01*
X103897Y565860D01*
X103530Y565695D01*
X103200Y565511D01*
X102909Y565305D01*
X102657Y565076D01*
X102445Y564824D01*
X102276Y564540D01*
X102155Y564216D01*
X102113Y564040D01*
X102082Y563853D01*
X102064Y563656D01*
X102058Y563450D01*
X102077Y563084D01*
X102135Y562741D01*
X102232Y562421D01*
X102366Y562123D01*
X102540Y561849D01*
X102752Y561597D01*
X103002Y561368D01*
X103291Y561162D01*
X103616Y560979D01*
X103972Y560821D01*
X104362Y560687D01*
X104783Y560577D01*
X105237Y560492D01*
X105724Y560431D01*
X106242Y560395D01*
X106794Y560383D01*
X107328Y560394D01*
X107834Y560428D01*
X108311Y560485D01*
X108760Y560565D01*
X109179Y560668D01*
X109570Y560793D01*
X109932Y560941D01*
X110266Y561113D01*
X110571Y561308D01*
X110848Y561529D01*
X111098Y561776D01*
X111321Y562050D01*
X111515Y562348D01*
X111683Y562673D01*
X111822Y563024D01*
X111934Y563401D01*
X114204Y562947D01*
X114057Y562415D01*
X113869Y561917D01*
X113640Y561454D01*
X113369Y561025D01*
X113056Y560631D01*
X112702Y560270D01*
X112307Y559944D01*
X111870Y559653D01*
X111391Y559395D01*
X110871Y559172D01*
X110310Y558984D01*
X109707Y558829D01*
X109062Y558709D01*
X108376Y558623D01*
X107649Y558572D01*
X106880Y558555D01*
G37*
G36*
X85786Y558555D02*
X85423Y558564D01*
X85074Y558590D01*
X84741Y558635D01*
X84423Y558697D01*
X84120Y558778D01*
X83832Y558876D01*
X83559Y558991D01*
X83302Y559125D01*
X83056Y559280D01*
X82817Y559461D01*
X82586Y559666D01*
X82362Y559896D01*
X82146Y560152D01*
X81937Y560433D01*
X81735Y560739D01*
X81541Y561070D01*
X81505Y561070D01*
X81462Y559751D01*
X81431Y559131D01*
X81406Y558800D01*
X79321Y558800D01*
X79353Y559170D01*
X79376Y559766D01*
X79395Y561634D01*
X79395Y572074D01*
X81603Y572074D01*
X81603Y564382D01*
X81617Y563911D01*
X81660Y563466D01*
X81732Y563047D01*
X81833Y562655D01*
X81962Y562290D01*
X82120Y561951D01*
X82307Y561638D01*
X82523Y561352D01*
X82763Y561096D01*
X83025Y560874D01*
X83308Y560686D01*
X83612Y560533D01*
X83937Y560413D01*
X84283Y560328D01*
X84650Y560277D01*
X85038Y560260D01*
X85551Y560280D01*
X85998Y560340D01*
X86379Y560439D01*
X86545Y560504D01*
X86694Y560579D01*
X86957Y560764D01*
X87182Y560999D01*
X87368Y561285D01*
X87516Y561622D01*
X87629Y562020D01*
X87709Y562493D01*
X87758Y563039D01*
X87774Y563658D01*
X87774Y572074D01*
X89994Y572074D01*
X89994Y563229D01*
X89978Y562625D01*
X89931Y562066D01*
X89852Y561551D01*
X89741Y561080D01*
X89599Y560654D01*
X89425Y560272D01*
X89219Y559934D01*
X88982Y559640D01*
X88711Y559386D01*
X88403Y559165D01*
X88058Y558979D01*
X87677Y558826D01*
X87259Y558707D01*
X86805Y558623D01*
X86314Y558572D01*
X85786Y558555D01*
G37*
G36*
X208232Y558555D02*
X207612Y558571D01*
X207027Y558618D01*
X206478Y558698D01*
X205964Y558809D01*
X205485Y558952D01*
X205042Y559127D01*
X204635Y559334D01*
X204263Y559573D01*
X203931Y559841D01*
X203643Y560136D01*
X203400Y560457D01*
X203200Y560806D01*
X203045Y561181D01*
X202935Y561583D01*
X202868Y562012D01*
X202846Y562468D01*
X202861Y562838D01*
X202907Y563187D01*
X202984Y563516D01*
X203091Y563824D01*
X203227Y564112D01*
X203387Y564384D01*
X203573Y564637D01*
X203785Y564873D01*
X204029Y565095D01*
X204314Y565307D01*
X204639Y565509D01*
X205005Y565701D01*
X205453Y565892D01*
X206024Y566092D01*
X206717Y566300D01*
X207533Y566517D01*
X208379Y566731D01*
X209066Y566921D01*
X209594Y567087D01*
X209962Y567228D01*
X210232Y567364D01*
X210468Y567513D01*
X210668Y567677D01*
X210833Y567854D01*
X210961Y568050D01*
X211053Y568271D01*
X211109Y568516D01*
X211127Y568786D01*
X211116Y569009D01*
X211083Y569217D01*
X211027Y569411D01*
X210949Y569590D01*
X210849Y569754D01*
X210727Y569904D01*
X210582Y570039D01*
X210416Y570160D01*
X210225Y570267D01*
X210011Y570359D01*
X209771Y570437D01*
X209508Y570501D01*
X209219Y570550D01*
X208907Y570586D01*
X208569Y570607D01*
X208207Y570614D01*
X207878Y570607D01*
X207567Y570585D01*
X207272Y570548D01*
X206994Y570496D01*
X206734Y570430D01*
X206490Y570348D01*
X206264Y570253D01*
X206054Y570142D01*
X205863Y570017D01*
X205691Y569880D01*
X205539Y569730D01*
X205406Y569567D01*
X205292Y569391D01*
X205197Y569202D01*
X205122Y569001D01*
X205067Y568786D01*
X203079Y569032D01*
X203180Y569443D01*
X203310Y569826D01*
X203471Y570179D01*
X203660Y570504D01*
X203880Y570799D01*
X204129Y571065D01*
X204408Y571302D01*
X204717Y571510D01*
X205055Y571691D01*
X205420Y571848D01*
X205815Y571981D01*
X206237Y572089D01*
X206687Y572174D01*
X207166Y572234D01*
X207672Y572271D01*
X208207Y572283D01*
X208808Y572268D01*
X209372Y572223D01*
X209899Y572149D01*
X210389Y572045D01*
X210843Y571911D01*
X211259Y571748D01*
X211638Y571555D01*
X211980Y571332D01*
X212283Y571081D01*
X212546Y570802D01*
X212768Y570497D01*
X212950Y570165D01*
X213092Y569806D01*
X213193Y569419D01*
X213254Y569006D01*
X213274Y568565D01*
X213267Y568325D01*
X213246Y568094D01*
X213210Y567872D01*
X213160Y567661D01*
X213097Y567458D01*
X213019Y567266D01*
X212926Y567083D01*
X212820Y566909D01*
X212571Y566584D01*
X212279Y566285D01*
X211943Y566011D01*
X211563Y565762D01*
X211092Y565525D01*
X210485Y565285D01*
X209740Y565043D01*
X208857Y564799D01*
X207275Y564382D01*
X206715Y564212D01*
X206238Y564020D01*
X205844Y563807D01*
X205678Y563692D01*
X205533Y563572D01*
X205406Y563445D01*
X205297Y563309D01*
X205204Y563163D01*
X205128Y563008D01*
X205069Y562844D01*
X205027Y562671D01*
X205001Y562488D01*
X204993Y562296D01*
X205005Y562047D01*
X205042Y561813D01*
X205103Y561596D01*
X205188Y561395D01*
X205297Y561210D01*
X205431Y561040D01*
X205589Y560887D01*
X205772Y560751D01*
X205981Y560630D01*
X206218Y560525D01*
X206483Y560437D01*
X206776Y560364D01*
X207098Y560308D01*
X207448Y560268D01*
X207826Y560243D01*
X208232Y560235D01*
X208614Y560243D01*
X208974Y560266D01*
X209313Y560305D01*
X209630Y560360D01*
X209926Y560429D01*
X210201Y560515D01*
X210454Y560616D01*
X210685Y560732D01*
X210897Y560865D01*
X211089Y561016D01*
X211263Y561185D01*
X211418Y561372D01*
X211555Y561576D01*
X211672Y561798D01*
X211771Y562038D01*
X211851Y562296D01*
X213802Y561916D01*
X213686Y561498D01*
X213540Y561108D01*
X213366Y560747D01*
X213162Y560415D01*
X212929Y560111D01*
X212666Y559836D01*
X212374Y559589D01*
X212053Y559370D01*
X211700Y559179D01*
X211311Y559014D01*
X210886Y558873D01*
X210426Y558759D01*
X209931Y558669D01*
X209400Y558606D01*
X208834Y558567D01*
X208232Y558555D01*
G37*
G36*
X195154Y558555D02*
X194638Y558572D01*
X194145Y558626D01*
X193675Y558715D01*
X193228Y558840D01*
X192804Y559000D01*
X192403Y559196D01*
X192025Y559428D01*
X191670Y559696D01*
X191344Y559993D01*
X191053Y560314D01*
X190796Y560660D01*
X190575Y561030D01*
X190388Y561424D01*
X190237Y561842D01*
X190120Y562284D01*
X190038Y562750D01*
X192271Y562898D01*
X192327Y562577D01*
X192401Y562278D01*
X192494Y562000D01*
X192607Y561744D01*
X192738Y561510D01*
X192889Y561297D01*
X193058Y561105D01*
X193246Y560935D01*
X193450Y560785D01*
X193666Y560656D01*
X193894Y560546D01*
X194134Y560456D01*
X194386Y560386D01*
X194651Y560337D01*
X194927Y560307D01*
X195215Y560297D01*
X195622Y560317D01*
X196003Y560376D01*
X196357Y560476D01*
X196684Y560616D01*
X196986Y560795D01*
X197260Y561014D01*
X197509Y561274D01*
X197730Y561573D01*
X197926Y561913D01*
X198095Y562296D01*
X198239Y562723D01*
X198356Y563192D01*
X198447Y563704D01*
X198512Y564259D01*
X198552Y564857D01*
X198565Y565498D01*
X198552Y566164D01*
X198515Y566779D01*
X198454Y567344D01*
X198368Y567860D01*
X198258Y568326D01*
X198123Y568742D01*
X197963Y569108D01*
X197779Y569424D01*
X197568Y569697D01*
X197326Y569934D01*
X197054Y570134D01*
X196752Y570298D01*
X196419Y570426D01*
X196057Y570517D01*
X195663Y570571D01*
X195240Y570590D01*
X194927Y570579D01*
X194633Y570549D01*
X194357Y570498D01*
X194099Y570427D01*
X193860Y570336D01*
X193639Y570224D01*
X193437Y570092D01*
X193252Y569939D01*
X193086Y569770D01*
X192936Y569586D01*
X192802Y569388D01*
X192685Y569176D01*
X192584Y568949D01*
X192500Y568709D01*
X192433Y568454D01*
X192381Y568185D01*
X190112Y568357D01*
X190213Y568807D01*
X190346Y569233D01*
X190510Y569634D01*
X190705Y570010D01*
X190932Y570361D01*
X191190Y570687D01*
X191479Y570988D01*
X191799Y571264D01*
X192145Y571512D01*
X192514Y571726D01*
X192904Y571907D01*
X193315Y572056D01*
X193749Y572171D01*
X194204Y572253D01*
X194680Y572303D01*
X195179Y572319D01*
X195517Y572313D01*
X195846Y572292D01*
X196164Y572258D01*
X196473Y572209D01*
X196772Y572147D01*
X197060Y572072D01*
X197339Y571982D01*
X197608Y571879D01*
X197866Y571762D01*
X198115Y571632D01*
X198354Y571487D01*
X198583Y571329D01*
X198802Y571157D01*
X199011Y570972D01*
X199210Y570772D01*
X199399Y570559D01*
X199577Y570333D01*
X199744Y570094D01*
X199899Y569843D01*
X200043Y569579D01*
X200175Y569304D01*
X200296Y569015D01*
X200405Y568714D01*
X200503Y568401D01*
X200664Y567738D01*
X200779Y567025D01*
X200848Y566262D01*
X200871Y565449D01*
X200848Y564631D01*
X200779Y563863D01*
X200665Y563146D01*
X200504Y562479D01*
X200407Y562164D01*
X200298Y561862D01*
X200178Y561573D01*
X200046Y561296D01*
X199903Y561032D01*
X199749Y560780D01*
X199582Y560541D01*
X199405Y560315D01*
X199217Y560102D01*
X199018Y559902D01*
X198809Y559717D01*
X198589Y559545D01*
X198360Y559387D01*
X198120Y559242D01*
X197870Y559112D01*
X197609Y558995D01*
X197338Y558892D01*
X197057Y558802D01*
X196766Y558727D01*
X196464Y558665D01*
X196152Y558617D01*
X195830Y558582D01*
X195497Y558562D01*
X195154Y558555D01*
G37*
G36*
X94031Y558604D02*
X93463Y558622D01*
X92902Y558677D01*
X92347Y558769D01*
X91798Y558898D01*
X91798Y560530D01*
X92534Y560401D01*
X92829Y560369D01*
X93074Y560358D01*
X93260Y560364D01*
X93432Y560382D01*
X93589Y560412D01*
X93732Y560455D01*
X93860Y560509D01*
X93974Y560575D01*
X94074Y560654D01*
X94160Y560744D01*
X94233Y560850D01*
X94296Y560973D01*
X94350Y561115D01*
X94394Y561274D01*
X94453Y561645D01*
X94472Y562088D01*
X94472Y570467D01*
X92019Y570467D01*
X92019Y572074D01*
X94472Y572074D01*
X94472Y575043D01*
X95945Y575043D01*
X96595Y572074D01*
X98214Y572074D01*
X98214Y570467D01*
X96681Y570467D01*
X96681Y561609D01*
X96670Y561245D01*
X96639Y560905D01*
X96588Y560588D01*
X96515Y560294D01*
X96422Y560024D01*
X96308Y559778D01*
X96174Y559555D01*
X96018Y559355D01*
X95842Y559179D01*
X95646Y559026D01*
X95428Y558897D01*
X95190Y558792D01*
X94931Y558709D01*
X94652Y558651D01*
X94352Y558615D01*
X94031Y558604D01*
G37*
G36*
X140183Y558800D02*
X137975Y558800D01*
X137975Y577006D01*
X140183Y577006D01*
X140183Y558800D01*
G37*
G36*
X173714Y558800D02*
X171506Y558800D01*
X171506Y577006D01*
X173714Y577006D01*
X173714Y558800D01*
G37*
G36*
X62008Y558800D02*
X59799Y558800D01*
X59799Y572074D01*
X62008Y572074D01*
X62008Y558800D01*
G37*
G36*
X62008Y574896D02*
X59799Y574896D01*
X59799Y577006D01*
X62008Y577006D01*
X62008Y574896D01*
G37*
D10*
X368300Y114300D03*
X368300Y139700D03*
X368300Y165100D03*
X368300Y190500D03*
X368300Y215900D03*
X368300Y241300D03*
X368300Y266700D03*
X368300Y292100D03*
X368300Y317500D03*
X368300Y342900D03*
X368300Y368300D03*
X368300Y393700D03*
X368300Y419100D03*
X368300Y444500D03*
X368300Y469900D03*
X114300Y114300D03*
X114300Y139700D03*
X114300Y165100D03*
X114300Y190500D03*
X114300Y215900D03*
X114300Y241300D03*
X114300Y266700D03*
X114300Y292100D03*
X114300Y317500D03*
X114300Y342900D03*
X114300Y368300D03*
X114300Y393700D03*
X114300Y419100D03*
X114300Y444500D03*
X114300Y469900D03*
D11*
X838200Y560070D03*
D12*
X838200Y532130D03*
D13*
X693420Y25400D02*
X678180Y25400D01*
X678180Y50800D02*
X693420Y50800D01*
X693420Y76200D02*
X678180Y76200D01*
X678180Y664720D02*
X693420Y664720D01*
X693420Y690120D02*
X678180Y690120D01*
X678180Y715520D02*
X693420Y715520D01*
X741680Y533400D02*
X756920Y533400D01*
X756920Y558800D02*
X741680Y558800D01*
X741680Y584200D02*
X756920Y584200D01*
X693420Y533400D02*
X678180Y533400D01*
X678180Y558800D02*
X693420Y558800D01*
X693420Y584200D02*
X678180Y584200D01*
X741680Y25400D02*
X756920Y25400D01*
X756920Y50800D02*
X741680Y50800D01*
X741680Y76200D02*
X756920Y76200D01*
X693420Y152400D02*
X678180Y152400D01*
X678180Y177800D02*
X693420Y177800D01*
X693420Y203200D02*
X678180Y203200D01*
X741680Y152400D02*
X756920Y152400D01*
X756920Y177800D02*
X741680Y177800D01*
X741680Y203200D02*
X756920Y203200D01*
X693420Y279400D02*
X678180Y279400D01*
X678180Y304800D02*
X693420Y304800D01*
X693420Y330200D02*
X678180Y330200D01*
X741680Y279400D02*
X756920Y279400D01*
X756920Y304800D02*
X741680Y304800D01*
X741680Y330200D02*
X756920Y330200D01*
X693420Y406400D02*
X678180Y406400D01*
X678180Y431800D02*
X693420Y431800D01*
X693420Y457200D02*
X678180Y457200D01*
X741680Y406400D02*
X756920Y406400D01*
X756920Y431800D02*
X741680Y431800D01*
X741680Y457200D02*
X756920Y457200D01*
X756920Y660400D02*
X741680Y660400D01*
X741680Y685800D02*
X756920Y685800D01*
X756920Y711200D02*
X741680Y711200D01*
D14*
X800100Y127000D03*
X800100Y203200D03*
D15*
X520700Y406400D03*
X444500Y406400D03*
X520700Y342900D03*
X444500Y342900D03*
X520700Y266700D03*
X444500Y266700D03*
X520700Y165100D03*
X444500Y165100D03*
X520700Y101600D03*
X444500Y101600D03*
X520700Y38100D03*
X444500Y38100D03*
D14*
X787400Y381000D03*
X787400Y457200D03*
X812800Y381000D03*
X812800Y457200D03*
X635000Y16764D03*
X635000Y92964D03*
D16*
X558800Y152400D03*
X635000Y152400D03*
D14*
X635000Y177800D03*
X635000Y254000D03*
D17*
X635000Y355600D03*
X635000Y279400D03*
D14*
X635000Y381000D03*
X635000Y457200D03*
D16*
X558800Y488696D03*
X635000Y488696D03*
D15*
X584200Y50800D03*
X558800Y50800D03*
X558800Y25400D03*
X584200Y215900D03*
X558800Y215900D03*
X558800Y190500D03*
X584200Y114300D03*
X558800Y114300D03*
X558800Y88900D03*
X584200Y292100D03*
X558800Y292100D03*
X558800Y266700D03*
X584200Y368300D03*
X558800Y368300D03*
X558800Y342900D03*
X584200Y444500D03*
X558800Y444500D03*
X558800Y419100D03*
D18*
X47054Y63900D02*
X29147Y63900D01*
X29147Y113900D02*
X47054Y113900D01*
X47054Y190900D02*
X29147Y190900D01*
X29147Y240900D02*
X47054Y240900D01*
X47054Y355200D02*
X29147Y355200D01*
X29147Y305200D02*
X47054Y305200D01*
X816547Y75800D02*
X834454Y75800D01*
X834454Y25800D02*
X816547Y25800D01*
X816547Y329800D02*
X834454Y329800D01*
X834454Y279800D02*
X816547Y279800D01*
X816547Y710800D02*
X834454Y710800D01*
X834454Y660800D02*
X816547Y660800D01*
D13*
X571500Y690880D02*
X571500Y706120D01*
X546100Y706120D02*
X546100Y690880D01*
X520700Y690880D02*
X520700Y706120D01*
X571500Y741680D02*
X571500Y756920D01*
X546100Y756920D02*
X546100Y741680D01*
X520700Y741680D02*
X520700Y756920D01*
X444500Y655320D02*
X444500Y640080D01*
X419100Y640080D02*
X419100Y655320D01*
X393700Y655320D02*
X393700Y640080D01*
X444500Y604520D02*
X444500Y589280D01*
X419100Y589280D02*
X419100Y604520D01*
X393700Y604520D02*
X393700Y589280D01*
D14*
X795057Y515657D03*
X795057Y591857D03*
D17*
X635950Y595950D03*
X635950Y519750D03*
D14*
X635000Y622300D03*
X635000Y698500D03*
D15*
X584200Y533400D03*
X558800Y533400D03*
X558800Y558800D03*
X584200Y635000D03*
X558800Y635000D03*
X558800Y609600D03*
D18*
X394100Y714947D02*
X394100Y732854D01*
X444100Y732854D02*
X444100Y714947D01*
D15*
X520700Y482600D03*
X444500Y482600D03*
X520700Y546100D03*
X444500Y546100D03*
D19*
X85344Y115824D02*
X67056Y115824D01*
X42672Y115824D01*
X85344Y115824D02*
X109728Y140208D01*
X42672Y115824D02*
X38100Y113900D01*
X109728Y140208D02*
X114300Y139700D01*
X42672Y335280D02*
X42672Y353568D01*
X42672Y335280D02*
X67056Y310896D01*
X67056Y115824D01*
X42672Y353568D02*
X38100Y355200D01*
X822960Y128016D02*
X822960Y79248D01*
X822960Y128016D02*
X774192Y176784D01*
X749808Y176784D01*
X822960Y79248D02*
X825500Y75800D01*
X749808Y176784D02*
X749300Y177800D01*
X829056Y335280D02*
X829056Y390144D01*
X792480Y426720D01*
X749808Y426720D01*
X829056Y335280D02*
X825500Y329800D01*
X749808Y426720D02*
X749300Y431800D01*
X822960Y694944D02*
X822960Y707136D01*
X822960Y694944D02*
X786384Y658368D01*
X786384Y609600D01*
X774192Y597408D01*
X774192Y573024D01*
X762000Y560832D01*
X749808Y560832D01*
X822960Y707136D02*
X825500Y710800D01*
X749808Y560832D02*
X749300Y558800D01*
X694944Y713232D02*
X688848Y713232D01*
X694944Y713232D02*
X713232Y694944D01*
X713232Y609600D01*
X688848Y585216D01*
X688848Y713232D02*
X685800Y715520D01*
X688848Y585216D02*
X685800Y584200D01*
X542544Y103632D02*
X554736Y91440D01*
X542544Y103632D02*
X542544Y140208D01*
X554736Y152400D01*
X554736Y91440D02*
X558800Y88900D01*
X558800Y152400D02*
X554736Y152400D01*
X558800Y152400D02*
X609600Y152400D01*
X627888Y134112D01*
X664464Y134112D01*
X682752Y152400D01*
X685800Y152400D01*
X554736Y420624D02*
X542544Y432816D01*
X542544Y475488D01*
X554736Y487680D01*
X554736Y420624D02*
X558800Y419100D01*
X554736Y487680D02*
X558800Y488696D01*
X560832Y493776D02*
X585216Y493776D01*
X627888Y536448D01*
X682752Y536448D01*
X560832Y493776D02*
X558800Y488696D01*
X682752Y536448D02*
X685800Y533400D01*
X688848Y603504D02*
X676656Y603504D01*
X621792Y658368D01*
X524256Y658368D01*
X505968Y676656D02*
X499872Y682752D01*
X505968Y676656D02*
X524256Y658368D01*
X499872Y682752D02*
X499872Y725424D01*
X518160Y743712D01*
X520700Y749300D01*
X396240Y609600D02*
X396240Y597408D01*
X396240Y609600D02*
X408432Y621792D01*
X451104Y621792D01*
X505968Y676656D01*
X396240Y597408D02*
X393700Y596900D01*
D20*
X688848Y603504D03*
D19*
X603504Y560832D02*
X560832Y560832D01*
X603504Y560832D02*
X633984Y591312D01*
X560832Y560832D02*
X558800Y558800D01*
X633984Y591312D02*
X635950Y595950D01*
X621792Y609600D02*
X558800Y609600D01*
X621792Y609600D02*
X633984Y621792D01*
X635000Y622300D01*
X542544Y597408D02*
X445008Y597408D01*
X542544Y597408D02*
X554736Y609600D01*
X445008Y597408D02*
X444500Y596900D01*
X554736Y609600D02*
X558800Y609600D01*
X603504Y694944D02*
X633984Y694944D01*
X603504Y694944D02*
X579120Y670560D01*
X542544Y670560D01*
X518160Y694944D01*
X633984Y694944D02*
X635000Y698500D01*
X520700Y698500D02*
X518160Y694944D01*
X640080Y249936D02*
X682752Y207264D01*
X685800Y203200D01*
X640080Y249936D02*
X635000Y254000D01*
X640080Y402336D02*
X640080Y457200D01*
X640080Y402336D02*
X682752Y359664D01*
X682752Y335280D01*
X640080Y457200D02*
X635000Y457200D01*
X682752Y335280D02*
X685800Y330200D01*
X737616Y579120D02*
X743712Y579120D01*
X737616Y579120D02*
X713232Y554736D01*
X713232Y481584D01*
X688848Y457200D01*
X743712Y579120D02*
X749300Y584200D01*
X688848Y457200D02*
X685800Y457200D01*
X749808Y707136D02*
X762000Y707136D01*
X774192Y694944D01*
X774192Y615696D01*
X743712Y585216D01*
X749808Y707136D02*
X749300Y711200D01*
X743712Y585216D02*
X749300Y584200D01*
X585216Y286512D02*
X585216Y219456D01*
X584200Y215900D01*
X585216Y286512D02*
X584200Y292100D01*
X585216Y298704D02*
X585216Y365760D01*
X585216Y298704D02*
X585216Y292608D01*
X584200Y292100D01*
X585216Y365760D02*
X584200Y368300D01*
X591312Y121920D02*
X719328Y121920D01*
X798576Y121920D01*
X591312Y121920D02*
X585216Y115824D01*
X798576Y121920D02*
X800100Y127000D01*
X585216Y115824D02*
X584200Y114300D01*
X786384Y274320D02*
X786384Y377952D01*
X786384Y274320D02*
X719328Y207264D01*
X719328Y121920D01*
X786384Y377952D02*
X787400Y381000D01*
X640080Y298704D02*
X585216Y298704D01*
X640080Y298704D02*
X658368Y280416D01*
X658368Y268224D01*
X719328Y207264D01*
M02*
