G04 EAGLE Gerber RS-274X export*
G75*
%MOMM*%
%FSLAX34Y34*%
%LPD*%
%INSoldermask Bottom*%
%IPPOS*%
%AMOC8*
5,1,8,0,0,1.08239X$1,22.5*%
G01*
G04 Define Apertures*
%ADD10C,2.133600*%
%ADD11R,2.082800X2.082800*%
%ADD12C,2.082800*%
%ADD13C,1.727200*%
%ADD14P,1.64956X8X112.5*%
%ADD15P,1.64956X8X202.5*%
%ADD16P,1.64956X8X22.5*%
%ADD17P,1.64956X8X292.5*%
%ADD18C,1.993900*%
%ADD19C,0.959600*%
D10*
X368300Y114300D03*
X368300Y139700D03*
X368300Y165100D03*
X368300Y190500D03*
X368300Y215900D03*
X368300Y241300D03*
X368300Y266700D03*
X368300Y292100D03*
X368300Y317500D03*
X368300Y342900D03*
X368300Y368300D03*
X368300Y393700D03*
X368300Y419100D03*
X368300Y444500D03*
X368300Y469900D03*
X114300Y114300D03*
X114300Y139700D03*
X114300Y165100D03*
X114300Y190500D03*
X114300Y215900D03*
X114300Y241300D03*
X114300Y266700D03*
X114300Y292100D03*
X114300Y317500D03*
X114300Y342900D03*
X114300Y368300D03*
X114300Y393700D03*
X114300Y419100D03*
X114300Y444500D03*
X114300Y469900D03*
D11*
X838200Y560070D03*
D12*
X838200Y532130D03*
D13*
X693420Y25400D02*
X678180Y25400D01*
X678180Y50800D02*
X693420Y50800D01*
X693420Y76200D02*
X678180Y76200D01*
X678180Y664720D02*
X693420Y664720D01*
X693420Y690120D02*
X678180Y690120D01*
X678180Y715520D02*
X693420Y715520D01*
X741680Y533400D02*
X756920Y533400D01*
X756920Y558800D02*
X741680Y558800D01*
X741680Y584200D02*
X756920Y584200D01*
X693420Y533400D02*
X678180Y533400D01*
X678180Y558800D02*
X693420Y558800D01*
X693420Y584200D02*
X678180Y584200D01*
X741680Y25400D02*
X756920Y25400D01*
X756920Y50800D02*
X741680Y50800D01*
X741680Y76200D02*
X756920Y76200D01*
X693420Y152400D02*
X678180Y152400D01*
X678180Y177800D02*
X693420Y177800D01*
X693420Y203200D02*
X678180Y203200D01*
X741680Y152400D02*
X756920Y152400D01*
X756920Y177800D02*
X741680Y177800D01*
X741680Y203200D02*
X756920Y203200D01*
X693420Y279400D02*
X678180Y279400D01*
X678180Y304800D02*
X693420Y304800D01*
X693420Y330200D02*
X678180Y330200D01*
X741680Y279400D02*
X756920Y279400D01*
X756920Y304800D02*
X741680Y304800D01*
X741680Y330200D02*
X756920Y330200D01*
X693420Y406400D02*
X678180Y406400D01*
X678180Y431800D02*
X693420Y431800D01*
X693420Y457200D02*
X678180Y457200D01*
X741680Y406400D02*
X756920Y406400D01*
X756920Y431800D02*
X741680Y431800D01*
X741680Y457200D02*
X756920Y457200D01*
X756920Y660400D02*
X741680Y660400D01*
X741680Y685800D02*
X756920Y685800D01*
X756920Y711200D02*
X741680Y711200D01*
D14*
X800100Y127000D03*
X800100Y203200D03*
D15*
X520700Y406400D03*
X444500Y406400D03*
X520700Y342900D03*
X444500Y342900D03*
X520700Y266700D03*
X444500Y266700D03*
X520700Y165100D03*
X444500Y165100D03*
X520700Y101600D03*
X444500Y101600D03*
X520700Y38100D03*
X444500Y38100D03*
D14*
X787400Y381000D03*
X787400Y457200D03*
X812800Y381000D03*
X812800Y457200D03*
X635000Y16764D03*
X635000Y92964D03*
D16*
X558800Y152400D03*
X635000Y152400D03*
D14*
X635000Y177800D03*
X635000Y254000D03*
D17*
X635000Y355600D03*
X635000Y279400D03*
D14*
X635000Y381000D03*
X635000Y457200D03*
D16*
X558800Y488696D03*
X635000Y488696D03*
D15*
X584200Y50800D03*
X558800Y50800D03*
X558800Y25400D03*
X584200Y215900D03*
X558800Y215900D03*
X558800Y190500D03*
X584200Y114300D03*
X558800Y114300D03*
X558800Y88900D03*
X584200Y292100D03*
X558800Y292100D03*
X558800Y266700D03*
X584200Y368300D03*
X558800Y368300D03*
X558800Y342900D03*
X584200Y444500D03*
X558800Y444500D03*
X558800Y419100D03*
D18*
X47054Y63900D02*
X29147Y63900D01*
X29147Y113900D02*
X47054Y113900D01*
X47054Y190900D02*
X29147Y190900D01*
X29147Y240900D02*
X47054Y240900D01*
X47054Y355200D02*
X29147Y355200D01*
X29147Y305200D02*
X47054Y305200D01*
X816547Y75800D02*
X834454Y75800D01*
X834454Y25800D02*
X816547Y25800D01*
X816547Y329800D02*
X834454Y329800D01*
X834454Y279800D02*
X816547Y279800D01*
X816547Y710800D02*
X834454Y710800D01*
X834454Y660800D02*
X816547Y660800D01*
D13*
X571500Y690880D02*
X571500Y706120D01*
X546100Y706120D02*
X546100Y690880D01*
X520700Y690880D02*
X520700Y706120D01*
X571500Y741680D02*
X571500Y756920D01*
X546100Y756920D02*
X546100Y741680D01*
X520700Y741680D02*
X520700Y756920D01*
X444500Y655320D02*
X444500Y640080D01*
X419100Y640080D02*
X419100Y655320D01*
X393700Y655320D02*
X393700Y640080D01*
X444500Y604520D02*
X444500Y589280D01*
X419100Y589280D02*
X419100Y604520D01*
X393700Y604520D02*
X393700Y589280D01*
D14*
X795057Y515657D03*
X795057Y591857D03*
D17*
X635950Y595950D03*
X635950Y519750D03*
D14*
X635000Y622300D03*
X635000Y698500D03*
D15*
X584200Y533400D03*
X558800Y533400D03*
X558800Y558800D03*
X584200Y635000D03*
X558800Y635000D03*
X558800Y609600D03*
D18*
X394100Y714947D02*
X394100Y732854D01*
X444100Y732854D02*
X444100Y714947D01*
D15*
X520700Y482600D03*
X444500Y482600D03*
X520700Y546100D03*
X444500Y546100D03*
D19*
X688848Y603504D03*
M02*
